<svg width="64" height="64" viewBox="0 0 64 64" fill="none" xmlns="http://www.w3.org/2000/svg">
<rect width="64" height="64" rx="12" fill="#363636" fill-opacity="0.4"/>
<mask id="mask0_2453_17892" style="mask-type:alpha" maskUnits="userSpaceOnUse" x="8" y="8" width="48" height="48">
<rect x="8" y="8" width="48" height="48" fill="#D9D9D9"/>
</mask>
<g mask="url(#mask0_2453_17892)">
<path d="M39.4302 32.0032L22.36 48.7201C22.1323 48.9706 22.0126 49.2849 22.0008 49.663C21.9894 50.0407 22.1034 50.3579 22.3429 50.6148C22.6177 50.8716 22.9473 51 23.3317 51C23.7161 51 24.0387 50.8707 24.2997 50.6121L41.1718 34.0082C41.4794 33.7198 41.6943 33.4033 41.8164 33.0585C41.9388 32.7134 42 32.365 42 32.0132C42 31.6614 41.9424 31.3098 41.8271 30.9584C41.7114 30.6066 41.493 30.2731 41.1718 29.9577L24.2873 13.3822C24.0125 13.1236 23.6884 12.9962 23.3151 13.0001C22.9418 13.0043 22.6234 13.1357 22.36 13.3943C22.1323 13.6532 22.0163 13.9685 22.012 14.3403C22.0077 14.7124 22.1237 15.0277 22.36 15.2863L39.4302 32.0032Z" fill="white"/>
</g>
</svg>
