<svg width="38" height="16" viewBox="0 0 38 16" fill="none" xmlns="http://www.w3.org/2000/svg">
<path fill-rule="evenodd" clip-rule="evenodd" d="M37.1669 8.36727L27.1801 15.527C27.0771 15.6013 26.9556 15.6455 26.829 15.6549C26.7025 15.6642 26.5758 15.6383 26.463 15.5801C26.2335 15.4608 26.0882 15.2237 26.0882 14.9654V11.6164H17.2003C17.1886 11.6174 17.1768 11.618 17.1649 11.618L0.424926 11.6773C0.190489 11.6781 0 11.4883 0 11.2539V4.46057C0 4.22672 0.189575 4.03715 0.423428 4.03715H17.1634C17.1787 4.03715 17.1938 4.03796 17.2087 4.03954L26.0884 4.03981V0.691993C26.0882 0.565081 26.1229 0.440568 26.1888 0.332159C26.2546 0.22375 26.3491 0.135649 26.4617 0.0775529C26.5741 0.0190666 26.7005 -0.00718595 26.8269 0.00168685C26.9532 0.0105597 27.0747 0.0542132 27.1779 0.12784L37.1647 7.24144C37.2543 7.30533 37.3274 7.38972 37.3779 7.4876C37.4284 7.58548 37.4548 7.69403 37.4551 7.80422V7.80587C37.4549 7.91564 37.4286 8.02379 37.3785 8.1214C37.3284 8.21901 37.2559 8.30328 37.1669 8.36727Z" fill="#FCB454"/>
</svg>
