<svg width="16" height="16" viewBox="0 0 16 16" fill="none" xmlns="http://www.w3.org/2000/svg">
<mask id="mask0_3018_38312" style="mask-type:alpha" maskUnits="userSpaceOnUse" x="0" y="0" width="16" height="16">
<rect width="16" height="16" fill="#D9D9D9"/>
</mask>
<g mask="url(#mask0_3018_38312)">
<path d="M8 11C7.90556 11 7.82639 10.9681 7.7625 10.9042C7.69861 10.8403 7.66667 10.7611 7.66667 10.6667V8.8L6.35 10.125C6.28333 10.1917 6.20417 10.225 6.1125 10.225C6.02083 10.225 5.94167 10.1917 5.875 10.125C5.80833 10.0583 5.775 9.97917 5.775 9.8875C5.775 9.79583 5.80833 9.71667 5.875 9.65L7.2 8.33333H5.33333C5.23889 8.33333 5.15972 8.30139 5.09583 8.2375C5.03194 8.17361 5 8.09444 5 8C5 7.90556 5.03194 7.82639 5.09583 7.7625C5.15972 7.69861 5.23889 7.66667 5.33333 7.66667H7.2L5.875 6.35C5.80833 6.28333 5.775 6.20417 5.775 6.1125C5.775 6.02083 5.80833 5.94167 5.875 5.875C5.94167 5.80833 6.02083 5.775 6.1125 5.775C6.20417 5.775 6.28333 5.80833 6.35 5.875L7.66667 7.2V5.33333C7.66667 5.23889 7.69861 5.15972 7.7625 5.09583C7.82639 5.03194 7.90556 5 8 5C8.09444 5 8.17361 5.03194 8.2375 5.09583C8.30139 5.15972 8.33333 5.23889 8.33333 5.33333V7.2L9.65 5.875C9.71667 5.80833 9.79583 5.775 9.8875 5.775C9.97917 5.775 10.0583 5.80833 10.125 5.875C10.1917 5.94167 10.225 6.02083 10.225 6.1125C10.225 6.20417 10.1917 6.28333 10.125 6.35L8.8 7.66667H10.6667C10.7611 7.66667 10.8403 7.69861 10.9042 7.7625C10.9681 7.82639 11 7.90556 11 8C11 8.09444 10.9681 8.17361 10.9042 8.2375C10.8403 8.30139 10.7611 8.33333 10.6667 8.33333H8.8L10.125 9.65C10.1917 9.71667 10.225 9.79583 10.225 9.8875C10.225 9.97917 10.1917 10.0583 10.125 10.125C10.0583 10.1917 9.97917 10.225 9.8875 10.225C9.79583 10.225 9.71667 10.1917 9.65 10.125L8.33333 8.8V10.6667C8.33333 10.7611 8.30139 10.8403 8.2375 10.9042C8.17361 10.9681 8.09444 11 8 11Z" fill="#1C1B1F"/>
</g>
</svg>
