<svg width="83" height="82" viewBox="0 0 83 82" fill="none" xmlns="http://www.w3.org/2000/svg">
<g clip-path="url(#clip0_10401_23828)">
<g clip-path="url(#clip1_10401_23828)">
<path d="M65.8239 17.7665H59.3186V16.3725C59.3186 14.5789 57.8595 13.1199 56.0659 13.1199C54.2723 13.1199 52.8133 14.5789 52.8133 16.3725V17.7665H30.5093V16.3725C30.5093 14.5789 29.0502 13.1199 27.2566 13.1199C25.463 13.1199 24.0039 14.5789 24.0039 16.3725V17.7665H17.4986C15.4485 17.7665 13.7812 19.4338 13.7812 21.4839V65.1625C13.7812 67.2127 15.4485 68.8799 17.4986 68.8799H65.8239C67.874 68.8799 69.5412 67.2127 69.5412 65.1625V21.4839C69.5412 19.4338 67.874 17.7665 65.8239 17.7665ZM54.6719 16.3725C54.6719 15.604 55.2974 14.9785 56.0659 14.9785C56.8345 14.9785 57.4599 15.604 57.4599 16.3725V21.0192C57.4599 21.7878 56.8345 22.4132 56.0659 22.4132C55.2974 22.4132 54.6719 21.7878 54.6719 21.0192V16.3725ZM25.8626 16.3725C25.8626 15.604 26.488 14.9785 27.2566 14.9785C28.0251 14.9785 28.6506 15.604 28.6506 16.3725V21.0192C28.6506 21.7878 28.0251 22.4132 27.2566 22.4132C26.488 22.4132 25.8626 21.7878 25.8626 21.0192V16.3725ZM17.4986 19.6252H24.0039V21.0192C24.0039 22.8128 25.463 24.2719 27.2566 24.2719C29.0502 24.2719 30.5093 22.8128 30.5093 21.0192V19.6252H52.8133V21.0192C52.8133 22.8128 54.2723 24.2719 56.0659 24.2719C57.8595 24.2719 59.3186 22.8128 59.3186 21.0192V19.6252H65.8239C66.849 19.6252 67.6826 20.4588 67.6826 21.4839V26.1305H15.6399V21.4839C15.6399 20.4588 16.4735 19.6252 17.4986 19.6252ZM65.8239 67.0212H17.4986C16.4735 67.0212 15.6399 66.1876 15.6399 65.1625V27.9892H67.6826V65.1625C67.6826 66.1876 66.849 67.0212 65.8239 67.0212Z" fill="#216F6D"/>
<path d="M50.3765 43.9204V37.4412C50.989 37.125 51.6917 36.5489 51.9392 35.6525C52.2818 34.4118 51.6801 32.9658 50.1497 31.3535C49.836 31.0249 49.2624 31.0249 48.9487 31.3535C47.4183 32.9658 46.8166 34.4118 47.1592 35.6525C47.4067 36.5489 48.1094 37.125 48.7219 37.4412V43.7656C47.5557 43.6729 46.4209 43.6133 45.4112 43.576V37.4412C46.0236 37.125 46.7264 36.5489 46.9738 35.6525C47.3165 34.4118 46.7148 32.9658 45.1844 31.3535C44.8707 31.0249 44.2971 31.0249 43.9834 31.3535C42.453 32.9658 41.8512 34.4118 42.1939 35.6525C42.4414 36.5489 43.1441 37.125 43.7566 37.4412V43.5289C43.0431 43.5148 42.4662 43.5115 42.0995 43.5115C41.7329 43.5115 41.156 43.5148 40.4442 43.5289V37.4412C41.0567 37.125 41.7594 36.5489 42.0068 35.6525C42.3495 34.4118 41.7478 32.9658 40.2174 31.3535C39.9037 31.0249 39.3301 31.0249 39.0164 31.3535C37.486 32.9658 36.8842 34.4118 37.2269 35.6525C37.4744 36.5489 38.1771 37.125 38.7896 37.4412V43.576C37.7798 43.6141 36.645 43.6729 35.4788 43.7656V37.4412C36.0913 37.125 36.794 36.5489 37.0415 35.6525C37.3842 34.4118 36.7824 32.9658 35.252 31.3535C34.9383 31.0249 34.3647 31.0249 34.051 31.3535C32.5206 32.9658 31.9189 34.4118 32.2616 35.6525C32.509 36.5489 33.2118 37.125 33.8243 37.4412V43.9204C30.0036 44.3342 26.375 45.1636 26.375 46.8223V59.2377C26.375 62.416 39.1306 62.5774 41.6874 62.5774C43.3394 62.5774 57.8274 62.4839 57.8274 59.2377V46.8223C57.8257 45.1636 54.1971 44.335 50.3765 43.9204ZM49.5488 33.1843C50.1961 34.0112 50.4766 34.7139 50.345 35.2056C50.2341 35.6194 49.8153 35.8768 49.5488 36.0018C49.2823 35.8768 48.8635 35.6194 48.7526 35.2056C48.621 34.7139 48.9015 34.0112 49.5488 33.1843ZM44.5826 33.1843C45.2299 34.0112 45.5105 34.7139 45.3789 35.2056C45.268 35.6194 44.8491 35.8768 44.5826 36.0018C44.3161 35.8768 43.8973 35.6194 43.7864 35.2056C43.6548 34.7139 43.9354 34.0112 44.5826 33.1843ZM39.6165 33.1843C40.2637 34.0112 40.5443 34.7139 40.4127 35.2056C40.3018 35.6194 39.883 35.8768 39.6165 36.0018C39.3499 35.8768 38.9311 35.6194 38.8202 35.2056C38.6886 34.7139 38.9692 34.0112 39.6165 33.1843ZM34.6503 33.1843C35.2975 34.0112 35.5781 34.7139 35.4465 35.2056C35.3356 35.6194 34.9168 35.8768 34.6503 36.0018C34.3838 35.8768 33.965 35.6194 33.854 35.2056C33.7224 34.7139 34.003 34.0112 34.6503 33.1843ZM33.8226 45.5931V46.8223C33.8226 47.2791 34.1926 47.65 34.6503 47.65C35.108 47.65 35.478 47.2791 35.478 46.8223V45.4268C36.4812 45.3415 37.5894 45.2745 38.7888 45.2298V46.8223C38.7888 47.2791 39.1587 47.65 39.6165 47.65C40.0742 47.65 40.4442 47.2791 40.4442 46.8223V45.1826C40.9805 45.1735 41.5293 45.1669 42.0995 45.1669C42.6698 45.1669 43.2186 45.1735 43.7549 45.1826V46.8223C43.7549 47.2791 44.1249 47.65 44.5826 47.65C45.0403 47.65 45.4103 47.2791 45.4103 46.8223V45.2298C46.6097 45.2753 47.7179 45.3415 48.7211 45.4268V46.8223C48.7211 47.2791 49.0911 47.65 49.5488 47.65C50.0065 47.65 50.3765 47.2791 50.3765 46.8223V45.5931C53.4158 45.9441 55.2996 46.4423 55.9767 46.8223C54.8162 47.4728 50.1332 48.4776 42.0995 48.4776C34.0659 48.4776 29.3837 47.4728 28.2224 46.8223C28.8995 46.4432 30.7833 45.9441 33.8226 45.5931ZM41.6857 60.922C33.3086 60.922 28.6917 59.7558 28.0287 59.1168V48.4992C31.6367 50.0354 40.0518 50.133 42.0995 50.133C44.1473 50.133 52.5624 50.0354 56.1704 48.4992V59.0903C55.3708 59.7765 50.0934 60.922 41.6857 60.922Z" fill="#216F6D"/>
<path d="M19.8069 55.8255C18.4698 55.8255 17.3828 56.9135 17.3828 58.2496C17.3828 59.5857 18.4698 60.6736 19.8069 60.6736C21.144 60.6736 22.2309 59.5857 22.2309 58.2496C22.2309 56.9135 21.144 55.8255 19.8069 55.8255ZM19.8069 58.7344C19.5402 58.7344 19.322 58.5172 19.322 58.2496C19.322 57.982 19.5402 57.7648 19.8069 57.7648C20.0735 57.7648 20.2917 57.982 20.2917 58.2496C20.2917 58.5172 20.0735 58.7344 19.8069 58.7344Z" fill="#216F6D"/>
<path d="M62.9557 43.2205C64.5595 43.2205 65.8646 41.9154 65.8646 40.3116C65.8646 38.7079 64.5595 37.4028 62.9557 37.4028C61.352 37.4028 60.0469 38.7079 60.0469 40.3116C60.0469 41.9154 61.352 43.2205 62.9557 43.2205ZM62.9557 39.342C63.491 39.342 63.9253 39.7774 63.9253 40.3116C63.9253 40.8459 63.491 41.2812 62.9557 41.2812C62.4205 41.2812 61.9861 40.8459 61.9861 40.3116C61.9861 39.7774 62.4205 39.342 62.9557 39.342Z" fill="#216F6D"/>
<path d="M21.8338 34.4933H22.691C23.165 34.4933 23.5482 34.1093 23.5482 33.6361C23.5482 33.1629 23.165 32.7789 22.691 32.7789H21.8338C21.3597 32.7789 20.9766 33.1629 20.9766 33.6361C20.9766 34.1093 21.3597 34.4933 21.8338 34.4933Z" fill="#216F6D"/>
<path d="M24.4041 32.7792C24.8781 32.7792 25.2613 32.3952 25.2613 31.922V31.0648C25.2613 30.5916 24.8781 30.2076 24.4041 30.2076C23.93 30.2076 23.5469 30.5916 23.5469 31.0648V31.922C23.5469 32.3952 23.93 32.7792 24.4041 32.7792Z" fill="#216F6D"/>
<path d="M26.98 34.4933C27.4541 34.4933 27.8372 34.1093 27.8372 33.6361C27.8372 33.1629 27.4541 32.7789 26.98 32.7789H26.1228C25.6488 32.7789 25.2656 33.1629 25.2656 33.6361C25.2656 34.1093 25.6488 34.4933 26.1228 34.4933H26.98Z" fill="#216F6D"/>
<path d="M24.4041 34.4934C23.93 34.4934 23.5469 34.8774 23.5469 35.3506V36.2078C23.5469 36.681 23.93 37.065 24.4041 37.065C24.8781 37.065 25.2613 36.681 25.2613 36.2078V35.3506C25.2613 34.8774 24.8781 34.4934 24.4041 34.4934Z" fill="#216F6D"/>
</g>
</g>
<defs>
<clipPath id="clip0_10401_23828">
<rect width="82" height="82" fill="white" transform="translate(0.664062)"/>
</clipPath>
<clipPath id="clip1_10401_23828">
<rect width="55.76" height="55.76" fill="white" transform="translate(13.7812 13.12)"/>
</clipPath>
</defs>
</svg>
