<svg width="82" height="82" viewBox="0 0 82 82" fill="none" xmlns="http://www.w3.org/2000/svg">
<g clip-path="url(#clip0_10401_44347)">
<path d="M68.2787 41.4452L61.8569 43.2803H61.0282C61.6472 42.4756 61.9844 41.4896 61.9878 40.4744C61.9882 39.8195 61.8511 39.1719 61.5853 38.5734C61.3195 37.9749 60.931 37.4388 60.4449 37C59.9587 36.5612 59.3859 36.2294 58.7634 36.0261C58.1409 35.8227 57.4826 35.7524 56.8312 35.8196C56.1798 35.8868 55.5498 36.0901 54.9819 36.4163C54.4141 36.7425 53.9211 37.1843 53.5348 37.7131C53.1485 38.2419 52.8777 38.846 52.7397 39.4862C52.6017 40.1263 52.5997 40.7883 52.7338 41.4293C52.6155 41.4117 52.4948 41.4171 52.3784 41.4452L45.9566 43.2803H45.1279C45.7469 42.4756 46.0841 41.4896 46.0875 40.4744C46.0875 39.2341 45.5948 38.0446 44.7178 37.1675C43.8408 36.2905 42.6513 35.7978 41.411 35.7978C40.1707 35.7978 38.9811 36.2905 38.1041 37.1675C37.2271 38.0446 36.7344 39.2341 36.7344 40.4744C36.7378 41.4896 37.075 42.4756 37.694 43.2803H36.8653L30.4435 41.4452C30.3271 41.417 30.2064 41.4116 30.0881 41.4293C30.2525 40.6626 30.2215 39.8668 29.9979 39.1152C29.7744 38.3636 29.3654 37.6803 28.8086 37.1281C28.2518 36.5759 27.5651 36.1726 26.8117 35.9553C26.0582 35.7379 25.2622 35.7135 24.4969 35.8843C23.7316 36.0551 23.0215 36.4156 22.4319 36.9326C21.8424 37.4497 21.3923 38.1067 21.1231 38.8432C20.8539 39.5797 20.7743 40.3721 20.8914 41.1474C21.0086 41.9228 21.3189 42.6562 21.7937 43.2803H20.965L14.5432 41.4452C14.404 41.4056 14.2575 41.3988 14.1152 41.4253C13.9729 41.4519 13.8388 41.5111 13.7233 41.5983C13.6078 41.6855 13.5141 41.7984 13.4496 41.9279C13.3851 42.0575 13.3515 42.2003 13.3516 42.345V45.1509C13.3506 45.3255 13.3986 45.4969 13.49 45.6457C13.5814 45.7945 13.7126 45.9147 13.8688 45.9927L18.9635 48.5349V55.4394C18.9636 55.6629 19.0437 55.8789 19.1894 56.0484C19.335 56.218 19.5366 56.3297 19.7575 56.3635L18.0375 68.4009C18.0185 68.5336 18.0282 68.6689 18.066 68.7975C18.1038 68.9261 18.1688 69.0451 18.2566 69.1464C18.3444 69.2477 18.453 69.3289 18.5749 69.3846C18.6969 69.4403 18.8294 69.4691 18.9635 69.4691H22.7047C22.9203 69.4691 23.1293 69.3946 23.2964 69.2583C23.4634 69.1219 23.5782 68.9321 23.6213 68.7208L25.3413 60.1159H25.6799L27.4 68.7208C27.4431 68.9321 27.5579 69.1219 27.7249 69.2583C27.8919 69.3946 28.101 69.4691 28.3166 69.4691H32.0578C32.1919 69.4691 32.3244 69.4403 32.4463 69.3846C32.5683 69.3289 32.6769 69.2477 32.7647 69.1464C32.8525 69.0451 32.9175 68.9261 32.9553 68.7975C32.9931 68.6689 33.0028 68.5336 32.9838 68.4009L31.2637 56.3635C31.4847 56.3297 31.6862 56.218 31.8319 56.0484C31.9776 55.8789 32.0577 55.6629 32.0578 55.4394V48.5349L33.4608 47.8334L34.8638 48.5349V55.4394C34.8639 55.6629 34.944 55.8789 35.0897 56.0484C35.2354 56.218 35.4369 56.3297 35.6578 56.3635L33.9378 68.4009C33.9188 68.5336 33.9285 68.6689 33.9663 68.7975C34.0041 68.9261 34.0691 69.0451 34.1569 69.1464C34.2447 69.2477 34.3533 69.3289 34.4753 69.3846C34.5972 69.4403 34.7297 69.4691 34.8638 69.4691H38.605C38.8206 69.4691 39.0296 69.3946 39.1967 69.2583C39.3637 69.1219 39.4785 68.9321 39.5216 68.7208L41.2417 60.1159H41.5802L43.3003 68.7208C43.3434 68.9321 43.4582 69.1219 43.6252 69.2583C43.7923 69.3946 44.0013 69.4691 44.2169 69.4691H47.9581C48.0922 69.4691 48.2247 69.4403 48.3467 69.3846C48.4686 69.3289 48.5772 69.2477 48.665 69.1464C48.7528 69.0451 48.8178 68.9261 48.8556 68.7975C48.8934 68.6689 48.9031 68.5336 48.8841 68.4009L47.1641 56.3635C47.385 56.3297 47.5865 56.218 47.7322 56.0484C47.8779 55.8789 47.958 55.6629 47.9581 55.4394V48.5349L49.3611 47.8334L50.7641 48.5349V55.4394C50.7642 55.6629 50.8443 55.8789 50.99 56.0484C51.1357 56.218 51.3372 56.3297 51.5582 56.3635L49.8381 68.4009C49.8191 68.5336 49.8288 68.6689 49.8666 68.7975C49.9044 68.9261 49.9694 69.0451 50.0572 69.1464C50.145 69.2477 50.2536 69.3289 50.3756 69.3846C50.4975 69.4403 50.63 69.4691 50.7641 69.4691H54.5053C54.7209 69.4691 54.93 69.3946 55.097 69.2583C55.264 69.1219 55.3788 68.9321 55.4219 68.7208L57.142 60.1159H57.4806L59.2006 68.7208C59.2437 68.9321 59.3585 69.1219 59.5255 69.2583C59.6926 69.3946 59.9016 69.4691 60.1172 69.4691H63.8585C63.9925 69.4691 64.125 69.4403 64.247 69.3846C64.3689 69.3289 64.4775 69.2477 64.5653 69.1464C64.6531 69.0451 64.7181 68.9261 64.7559 68.7975C64.7937 68.6689 64.8035 68.5336 64.7844 68.4009L63.0644 56.3635C63.2853 56.3297 63.4869 56.218 63.6325 56.0484C63.7782 55.8789 63.8583 55.6629 63.8585 55.4394V48.5349L68.9531 45.9927C69.1093 45.9147 69.2405 45.7945 69.3319 45.6457C69.4233 45.4969 69.4713 45.3255 69.4703 45.1509V42.345C69.4704 42.2003 69.4368 42.0575 69.3723 41.9279C69.3078 41.7984 69.2141 41.6855 69.0986 41.5983C68.9831 41.5111 68.849 41.4519 68.7067 41.4253C68.5644 41.3988 68.4179 41.4056 68.2787 41.4452ZM57.3113 37.6684C57.8662 37.6684 58.4087 37.833 58.8702 38.1413C59.3316 38.4496 59.6912 38.8879 59.9036 39.4006C60.116 39.9133 60.1716 40.4775 60.0633 41.0218C59.955 41.5661 59.6878 42.066 59.2954 42.4585C58.9029 42.8509 58.403 43.1181 57.8587 43.2264C57.3144 43.3347 56.7502 43.2791 56.2375 43.0667C55.7248 42.8543 55.2865 42.4947 54.9782 42.0333C54.6699 41.5718 54.5053 41.0293 54.5053 40.4744C54.5053 39.7302 54.801 39.0165 55.3272 38.4903C55.8534 37.9641 56.5671 37.6684 57.3113 37.6684ZM53.57 43.2513C53.5775 43.2616 53.5859 43.27 53.5943 43.2803H53.57V43.2513ZM41.411 37.6684C41.9659 37.6684 42.5084 37.833 42.9698 38.1413C43.4313 38.4496 43.7909 38.8879 44.0033 39.4006C44.2157 39.9133 44.2712 40.4775 44.163 41.0218C44.0547 41.5661 43.7875 42.066 43.3951 42.4585C43.0026 42.8509 42.5027 43.1181 41.9584 43.2264C41.4141 43.3347 40.8499 43.2791 40.3372 43.0667C39.8244 42.8543 39.3862 42.4947 39.0779 42.0333C38.7696 41.5718 38.605 41.0293 38.605 40.4744C38.605 39.7302 38.9006 39.0165 39.4269 38.4903C39.9531 37.9641 40.6668 37.6684 41.411 37.6684ZM29.2519 43.2513V43.2803H29.2276C29.236 43.27 29.2444 43.2616 29.2519 43.2513ZM25.5106 37.6684C26.0656 37.6684 26.6081 37.833 27.0695 38.1413C27.531 38.4496 27.8906 38.8879 28.103 39.4006C28.3154 39.9133 28.3709 40.4775 28.2627 41.0218C28.1544 41.5661 27.8872 42.066 27.4947 42.4585C27.1023 42.8509 26.6024 43.1181 26.0581 43.2264C25.5138 43.3347 24.9496 43.2791 24.4369 43.0667C23.9241 42.8543 23.4859 42.4947 23.1776 42.0333C22.8693 41.5718 22.7047 41.0293 22.7047 40.4744C22.7047 39.7302 23.0003 39.0165 23.5265 38.4903C24.0528 37.9641 24.7665 37.6684 25.5106 37.6684ZM30.7044 47.1151C30.5482 47.1931 30.417 47.3133 30.3256 47.4621C30.2342 47.6109 30.1863 47.7823 30.1872 47.9569V54.5041C30.0531 54.504 29.9206 54.5328 29.7987 54.5885C29.6767 54.6442 29.5682 54.7254 29.4804 54.8267C29.3925 54.928 29.3275 55.047 29.2897 55.1756C29.2519 55.3042 29.2422 55.4395 29.2612 55.5722L30.9794 67.5984H29.0826L27.3626 58.9936C27.3194 58.7823 27.2046 58.5924 27.0376 58.4561C26.8706 58.3197 26.6616 58.2453 26.446 58.2453H24.5753C24.3597 58.2453 24.1507 58.3197 23.9837 58.4561C23.8166 58.5924 23.7018 58.7823 23.6587 58.9936L21.9387 67.5984H20.0419L21.76 55.5722C21.7791 55.4395 21.7694 55.3042 21.7316 55.1756C21.6938 55.047 21.6287 54.928 21.5409 54.8267C21.4531 54.7254 21.3445 54.6442 21.2226 54.5885C21.1006 54.5328 20.9681 54.504 20.8341 54.5041V47.9569C20.835 47.7823 20.7871 47.6109 20.6957 47.4621C20.6043 47.3133 20.473 47.1931 20.3168 47.1151L15.2222 44.5729V43.5852L20.5778 45.1154C20.6612 45.139 20.7474 45.1509 20.8341 45.1509H29.2519C29.2509 45.3255 29.2989 45.4969 29.3903 45.6457C29.4817 45.7945 29.6129 45.9147 29.7691 45.9927L31.3694 46.7924L30.7044 47.1151ZM46.6047 47.1151C46.4486 47.1931 46.3173 47.3133 46.2259 47.4621C46.1345 47.6109 46.0866 47.7823 46.0875 47.9569V54.5041C45.9535 54.504 45.821 54.5328 45.699 54.5885C45.577 54.6442 45.4685 54.7254 45.3807 54.8267C45.2929 54.928 45.2278 55.047 45.19 55.1756C45.1522 55.3042 45.1425 55.4395 45.1616 55.5722L46.8797 67.5984H44.9829L43.2629 58.9936C43.2197 58.7823 43.105 58.5924 42.9379 58.4561C42.7709 58.3197 42.5619 58.2453 42.3463 58.2453H40.4756C40.26 58.2453 40.051 58.3197 39.884 58.4561C39.717 58.5924 39.6022 58.7823 39.559 58.9936L37.839 67.5984H35.9422L37.6604 55.5722C37.6794 55.4395 37.6697 55.3042 37.6319 55.1756C37.5941 55.047 37.5291 54.928 37.4412 54.8267C37.3534 54.7254 37.2449 54.6442 37.1229 54.5885C37.0009 54.5328 36.8685 54.504 36.7344 54.5041V47.9569C36.7353 47.7823 36.6874 47.6109 36.596 47.4621C36.5046 47.3133 36.3734 47.1931 36.2172 47.1151L31.1225 44.5729V43.5852L36.4781 45.1154C36.5615 45.139 36.6477 45.1509 36.7344 45.1509H46.0875C46.1742 45.1509 46.2604 45.139 46.3438 45.1154L51.6994 43.5852V44.5729L46.6047 47.1151ZM67.5997 44.5729L62.5051 47.1151C62.3489 47.1931 62.2176 47.3133 62.1262 47.4621C62.0348 47.6109 61.9869 47.7823 61.9878 47.9569V54.5041C61.8538 54.504 61.7213 54.5328 61.5993 54.5885C61.4774 54.6442 61.3688 54.7254 61.281 54.8267C61.1932 54.928 61.1282 55.047 61.0904 55.1756C61.0525 55.3042 61.0428 55.4395 61.0619 55.5722L62.78 67.5984H60.8832L59.1632 58.9936C59.1201 58.7823 59.0053 58.5924 58.8382 58.4561C58.6712 58.3197 58.4622 58.2453 58.2466 58.2453H56.376C56.1603 58.2453 55.9513 58.3197 55.7843 58.4561C55.6173 58.5924 55.5025 58.7823 55.4594 58.9936L53.7393 67.5984H51.8425L53.5607 55.5722C53.5797 55.4395 53.57 55.3042 53.5322 55.1756C53.4944 55.047 53.4294 54.928 53.3416 54.8267C53.2537 54.7254 53.1452 54.6442 53.0232 54.5885C52.9013 54.5328 52.7688 54.504 52.6347 54.5041V47.9569C52.6357 47.7823 52.5877 47.6109 52.4963 47.4621C52.4049 47.3133 52.2737 47.1931 52.1175 47.1151L51.4525 46.7831L53.0528 45.9834C53.2076 45.906 53.3378 45.7873 53.4292 45.6403C53.5205 45.4934 53.5692 45.3239 53.57 45.1509H61.9878C62.0745 45.1509 62.1607 45.139 62.2441 45.1154L67.5997 43.5852V44.5729Z" fill="#216F6D"/>
<path d="M45.2937 16.2192L43.2024 15.9002L42.2577 13.8884C42.1822 13.7277 42.0624 13.5918 41.9126 13.4967C41.7627 13.4015 41.5888 13.351 41.4112 13.351C41.2337 13.351 41.0598 13.4015 40.9099 13.4967C40.76 13.5918 40.6403 13.7277 40.5648 13.8884L39.6201 15.9002L37.5287 16.2192C37.3587 16.2451 37.1991 16.3174 37.0675 16.4281C36.9359 16.5388 36.8374 16.6837 36.7828 16.8468C36.7282 17.0099 36.7196 17.1848 36.758 17.3525C36.7963 17.5201 36.8802 17.674 37.0003 17.797L38.5417 19.3759L38.176 21.6206C38.1477 21.7939 38.1688 21.9716 38.2368 22.1335C38.3048 22.2953 38.417 22.4347 38.5605 22.5358C38.7041 22.6369 38.8732 22.6956 39.0485 22.7051C39.2238 22.7146 39.3982 22.6746 39.5518 22.5896L41.4112 21.5589L43.2706 22.5877C43.4243 22.6727 43.5987 22.7127 43.774 22.7032C43.9493 22.6937 44.1184 22.6351 44.2619 22.534C44.4055 22.4329 44.5176 22.2934 44.5856 22.1316C44.6537 21.9697 44.6747 21.792 44.6465 21.6187L44.2808 19.374L45.8222 17.7952C45.9423 17.6721 46.0261 17.5183 46.0645 17.3506C46.1029 17.183 46.0943 17.008 46.0397 16.8449C45.985 16.6818 45.8865 16.537 45.7549 16.4262C45.6233 16.3155 45.4637 16.2432 45.2937 16.2173V16.2192ZM42.6122 18.4078C42.5099 18.5127 42.4337 18.6401 42.3896 18.7798C42.3456 18.9195 42.335 19.0676 42.3587 19.2122L42.4896 20.0184L41.863 19.6723C41.7246 19.596 41.5692 19.556 41.4112 19.556C41.2532 19.556 41.0978 19.596 40.9595 19.6723L40.3328 20.0184L40.4638 19.2122C40.4874 19.0676 40.4769 18.9195 40.4328 18.7798C40.3888 18.6401 40.3126 18.5127 40.2103 18.4078L39.6108 17.7933L40.3964 17.6736C40.5481 17.6504 40.6918 17.5903 40.8148 17.4984C40.9378 17.4066 41.0363 17.2859 41.1016 17.147L41.4112 16.4923L41.7208 17.1517C41.7861 17.2906 41.8846 17.4113 42.0076 17.5031C42.1306 17.5949 42.2743 17.6551 42.426 17.6783L43.2117 17.798L42.6122 18.4078Z" fill="#216F6D"/>
<path d="M22.6513 26.1999C22.5965 26.0365 22.4977 25.8914 22.3656 25.7807C22.2336 25.6699 22.0735 25.5978 21.9031 25.5723L19.8117 25.2533L18.8671 23.2415C18.7915 23.0808 18.6718 22.9449 18.5219 22.8498C18.372 22.7546 18.1982 22.7041 18.0206 22.7041C17.8431 22.7041 17.6692 22.7546 17.5193 22.8498C17.3694 22.9449 17.2497 23.0808 17.1741 23.2415L16.2295 25.2533L14.1381 25.5723C13.9681 25.5982 13.8085 25.6705 13.6769 25.7812C13.5453 25.8919 13.4468 26.0368 13.3922 26.1999C13.3376 26.363 13.329 26.538 13.3673 26.7056C13.4057 26.8733 13.4896 27.0271 13.6097 27.1502L15.1511 28.729L14.7854 30.9737C14.7571 31.147 14.7782 31.3247 14.8462 31.4866C14.9142 31.6484 15.0264 31.7879 15.1699 31.889C15.3134 31.99 15.4825 32.0487 15.6578 32.0582C15.8331 32.0677 16.0076 32.0277 16.1612 31.9427L18.0234 30.912L19.8828 31.9408C20.0364 32.0258 20.2109 32.0658 20.3862 32.0563C20.5615 32.0468 20.7306 31.9882 20.8741 31.8871C21.0176 31.786 21.1298 31.6466 21.1978 31.4847C21.2658 31.3228 21.2869 31.1451 21.2587 30.9718L20.8929 28.7271L22.4343 27.1483C22.554 27.0253 22.6376 26.8718 22.6759 26.7045C22.7141 26.5372 22.7056 26.3627 22.6513 26.1999ZM19.2243 27.7609C19.1221 27.8658 19.0458 27.9932 19.0018 28.1329C18.9578 28.2726 18.9472 28.4207 18.9709 28.5653L19.1018 29.3715L18.4752 29.0255C18.3368 28.9492 18.1814 28.9091 18.0234 28.9091C17.8654 28.9091 17.71 28.9492 17.5717 29.0255L16.945 29.3715L17.0759 28.5653C17.0996 28.4207 17.089 28.2726 17.045 28.1329C17.001 27.9932 16.9248 27.8658 16.8225 27.7609L16.2229 27.1464L17.0086 27.0267C17.1603 27.0035 17.304 26.9434 17.427 26.8515C17.55 26.7597 17.6485 26.639 17.7138 26.5001L18.0234 25.8407L18.333 26.5001C18.3983 26.639 18.4968 26.7597 18.6198 26.8515C18.7428 26.9434 18.8865 27.0035 19.0382 27.0267L19.8239 27.1464L19.2243 27.7609Z" fill="#216F6D"/>
<path d="M60.1657 26.1994C60.1111 26.3624 60.1024 26.5374 60.1407 26.705C60.1789 26.8726 60.2627 27.0265 60.3827 27.1496L61.9241 28.7284L61.5584 30.9732C61.5302 31.1465 61.5512 31.3242 61.6192 31.486C61.6873 31.6479 61.7994 31.7873 61.943 31.8884C62.0865 31.9895 62.2556 32.0482 62.4309 32.0577C62.6062 32.0672 62.7806 32.0272 62.9343 31.9422L64.7937 30.9115L66.6531 31.9403C66.8067 32.0253 66.9811 32.0653 67.1564 32.0558C67.3317 32.0463 67.5008 31.9877 67.6444 31.8866C67.7879 31.7855 67.9001 31.646 67.9681 31.4842C68.0361 31.3223 68.0572 31.1446 68.0289 30.9713L67.6632 28.7266L69.2046 27.1478C69.3247 27.0247 69.4086 26.8709 69.4469 26.7032C69.4853 26.5356 69.4767 26.3606 69.4221 26.1975C69.3675 26.0344 69.269 25.8895 69.1374 25.7788C69.0057 25.6681 68.8462 25.5958 68.6761 25.5699L66.5848 25.251L65.6401 23.2391C65.5646 23.0784 65.4449 22.9425 65.295 22.8474C65.1451 22.7522 64.9712 22.7017 64.7937 22.7017C64.6161 22.7017 64.4422 22.7522 64.2923 22.8474C64.1424 22.9425 64.0227 23.0784 63.9472 23.2391L63.0025 25.251L60.9112 25.5699C60.741 25.5961 60.5814 25.6687 60.4499 25.7797C60.3184 25.8908 60.22 26.036 60.1657 26.1994ZM63.7789 27.0262C63.9306 27.003 64.0743 26.9429 64.1973 26.851C64.3203 26.7592 64.4188 26.6385 64.4841 26.4996L64.7937 25.8402L65.1033 26.4996C65.1686 26.6385 65.2671 26.7592 65.3901 26.851C65.513 26.9429 65.6567 27.003 65.8085 27.0262L66.5941 27.1459L65.9946 27.7604C65.8923 27.8653 65.8161 27.9927 65.7721 28.1324C65.728 28.2721 65.7174 28.4202 65.7411 28.5648L65.8721 29.371L65.2454 29.0249C65.1071 28.9486 64.9517 28.9086 64.7937 28.9086C64.6357 28.9086 64.4802 28.9486 64.3419 29.0249L63.7152 29.371L63.8462 28.5648C63.8699 28.4202 63.8593 28.2721 63.8153 28.1324C63.7712 27.9927 63.695 27.8653 63.5927 27.7604L62.9932 27.1459L63.7789 27.0262Z" fill="#216F6D"/>
<path d="M47.0191 32.0564C47.0205 30.8166 47.5137 29.6279 48.3904 28.7512C49.2671 27.8745 50.4558 27.3813 51.6956 27.3798V25.5092C49.9599 25.5114 48.2959 26.202 47.0685 27.4293C45.8412 28.6567 45.1507 30.3207 45.1484 32.0564H47.0191Z" fill="#216F6D"/>
<path d="M31.125 25.5092V27.3798C32.3648 27.3813 33.5535 27.8745 34.4302 28.7512C35.3069 29.6279 35.8001 30.8166 35.8016 32.0564H37.6722C37.67 30.3207 36.9795 28.6567 35.7521 27.4293C34.5247 26.202 32.8607 25.5114 31.125 25.5092Z" fill="#216F6D"/>
<path d="M19.0528 15.4711L17.8594 16.6646L19.5469 18.3521L20.7403 17.1586L19.0528 15.4711Z" fill="#216F6D"/>
<path d="M60.2422 15.4711L58.5547 17.1587L59.7481 18.3521L61.4357 16.6646L60.2422 15.4711Z" fill="#216F6D"/>
<path d="M25.8812 22.8344H26.7156C27.1769 22.8344 27.5499 22.4606 27.5499 22C27.5499 21.5395 27.1769 21.1657 26.7156 21.1657H25.8812C25.4198 21.1657 25.0469 21.5395 25.0469 22C25.0469 22.4606 25.4198 22.8344 25.8812 22.8344Z" fill="#216F6D"/>
<path d="M28.3812 21.1655C28.8426 21.1655 29.2156 20.7917 29.2156 20.3311V19.4968C29.2156 19.0362 28.8426 18.6625 28.3812 18.6625C27.9198 18.6625 27.5469 19.0362 27.5469 19.4968V20.3311C27.5469 20.7917 27.9198 21.1655 28.3812 21.1655Z" fill="#216F6D"/>
<path d="M30.8952 22.8344C31.3566 22.8344 31.7296 22.4606 31.7296 22C31.7296 21.5395 31.3566 21.1657 30.8952 21.1657H30.0609C29.5995 21.1657 29.2266 21.5395 29.2266 22C29.2266 22.4606 29.5995 22.8344 30.0609 22.8344H30.8952Z" fill="#216F6D"/>
<path d="M28.3812 22.8345C27.9198 22.8345 27.5469 23.2083 27.5469 23.6689V24.5032C27.5469 24.9638 27.9198 25.3376 28.3812 25.3376C28.8426 25.3376 29.2156 24.9638 29.2156 24.5032V23.6689C29.2156 23.2083 28.8426 22.8345 28.3812 22.8345Z" fill="#216F6D"/>
<path d="M52.225 24.4312H53.0593C53.5207 24.4312 53.8936 24.0574 53.8936 23.5969C53.8936 23.1363 53.5207 22.7625 53.0593 22.7625H52.225C51.7636 22.7625 51.3906 23.1363 51.3906 23.5969C51.3906 24.0574 51.7636 24.4312 52.225 24.4312Z" fill="#216F6D"/>
<path d="M54.725 22.7623C55.1864 22.7623 55.5593 22.3885 55.5593 21.928V21.0936C55.5593 20.6331 55.1864 20.2593 54.725 20.2593C54.2636 20.2593 53.8906 20.6331 53.8906 21.0936V21.928C53.8906 22.3885 54.2636 22.7623 54.725 22.7623Z" fill="#216F6D"/>
<path d="M57.239 24.4312C57.7004 24.4312 58.0733 24.0574 58.0733 23.5969C58.0733 23.1363 57.7004 22.7625 57.239 22.7625H56.4047C55.9433 22.7625 55.5703 23.1363 55.5703 23.5969C55.5703 24.0574 55.9433 24.4312 56.4047 24.4312H57.239Z" fill="#216F6D"/>
<path d="M54.725 24.4314C54.2636 24.4314 53.8906 24.8051 53.8906 25.2657V26.1C53.8906 26.5606 54.2636 26.9344 54.725 26.9344C55.1864 26.9344 55.5593 26.5606 55.5593 26.1V25.2657C55.5593 24.8051 55.1864 24.4314 54.725 24.4314Z" fill="#216F6D"/>
</g>
<defs>
<clipPath id="clip0_10401_44347">
<rect width="82" height="82" fill="white"/>
</clipPath>
</defs>
</svg>
