<svg width="83" height="82" viewBox="0 0 83 82" fill="none" xmlns="http://www.w3.org/2000/svg">
<path d="M15.2734 57.203L19.5312 56.6816C21.356 56.4209 23.0939 55.7258 24.5711 54.5961L24.7449 54.5092C26.6566 53.032 29.0027 52.25 31.3488 52.5107L50.2048 54.4224C51.9427 54.5961 53.4199 55.7258 54.0282 57.2899L54.3757 57.985" stroke="#216F6D" stroke-width="2.05" stroke-miterlimit="10" stroke-linecap="round" stroke-linejoin="round"/>
<path d="M33.7819 60.0705L45.165 60.9395C45.6863 60.9395 46.2946 60.9395 46.816 60.6788L62.1962 55.0307C63.2389 54.6831 64.2817 54.77 65.2375 55.2045L67.0623 56.1603C67.5836 56.421 67.5836 57.1161 67.1492 57.4637L48.7276 68.7599C48.0325 69.1944 47.1635 69.3682 46.3815 69.3682L22.6594 68.1517C20.4002 67.9779 18.1409 68.4124 16.0555 69.3682L15.2734 69.7158" stroke="#216F6D" stroke-width="2.05" stroke-miterlimit="10" stroke-linecap="round" stroke-linejoin="round"/>
<path d="M60.8906 37.6523V55.5524" stroke="#216F6D" stroke-width="2.05" stroke-miterlimit="10" stroke-linecap="round" stroke-linejoin="round"/>
<path d="M25.7031 53.7276V37.6523" stroke="#216F6D" stroke-width="2.05" stroke-miterlimit="10" stroke-linecap="round" stroke-linejoin="round"/>
<path d="M38.3079 37.6523H22.4062V25.7478H64.2023V37.6523H48.3007" stroke="#216F6D" stroke-width="2.05" stroke-miterlimit="10" stroke-linecap="round" stroke-linejoin="round"/>
<path d="M48.2891 25.7478V54.0753" stroke="#216F6D" stroke-width="2.05" stroke-miterlimit="10" stroke-linecap="round" stroke-linejoin="round"/>
<path d="M38.2969 53.0326V25.7478" stroke="#216F6D" stroke-width="2.05" stroke-miterlimit="10" stroke-linecap="round" stroke-linejoin="round"/>
<path d="M43.2578 25.7476L51.2521 12.6266C52.121 11.2363 54.1196 11.0625 55.1623 12.3659L58.8987 17.0582C59.9415 18.3616 59.4201 20.3601 57.7691 20.8815L43.2578 25.7476Z" stroke="#216F6D" stroke-width="2.05" stroke-miterlimit="10" stroke-linecap="round" stroke-linejoin="round"/>
<path d="M43.2577 25.7476L35.2635 12.6266C34.3945 11.2363 32.396 11.0625 31.3533 12.3659L27.6168 17.0582C26.5741 18.3616 27.0954 20.3601 28.7464 20.8815L43.2577 25.7476Z" stroke="#216F6D" stroke-width="2.05" stroke-miterlimit="10" stroke-linecap="round" stroke-linejoin="round"/>
<path d="M39.5156 19.4043C40.1239 17.9271 41.6011 16.9713 43.2521 16.9713C44.99 16.9713 46.4671 18.014 47.0754 19.5781" stroke="#216F6D" stroke-width="2.05" stroke-miterlimit="10" stroke-linecap="round" stroke-linejoin="round"/>
</svg>
