<svg width="82" height="82" viewBox="0 0 82 82" fill="none" xmlns="http://www.w3.org/2000/svg">
<g clip-path="url(#clip0_10401_23977)">
<path d="M17.4239 35.2385C17.1646 35.2388 16.913 35.1508 16.7104 34.9891C16.5078 34.8273 16.3664 34.6014 16.3093 34.3485C16.2522 34.0956 16.2829 33.8309 16.3963 33.5978C16.5098 33.3647 16.6992 33.1771 16.9334 33.066L18.7771 32.1904C20.2594 31.4895 21.4872 30.345 22.2905 28.9155C22.4392 28.6518 22.6866 28.458 22.9782 28.3767C23.2698 28.2954 23.5818 28.3332 23.8455 28.4819C24.1092 28.6306 24.303 28.878 24.3843 29.1696C24.4656 29.4612 24.4278 29.7732 24.2791 30.0369C23.2447 31.8766 21.6645 33.3496 19.7569 34.2526L17.9121 35.1281C17.7596 35.2009 17.5928 35.2386 17.4239 35.2385Z" fill="#216F6D"/>
<path d="M24.3614 27.4804C24.1972 27.4806 24.035 27.4454 23.8857 27.3772C23.7364 27.3089 23.6036 27.2093 23.4963 27.0851C23.389 26.9609 23.3098 26.815 23.264 26.6574C23.2182 26.4997 23.207 26.3341 23.2311 26.1717L23.4083 24.9751C23.4303 24.8269 23.4812 24.6844 23.5583 24.5558C23.6353 24.4272 23.7369 24.315 23.8573 24.2257C23.9777 24.1364 24.1145 24.0716 24.2599 24.0352C24.4053 23.9987 24.5564 23.9913 24.7047 24.0132C24.853 24.0352 24.9955 24.0861 25.1241 24.1632C25.2527 24.2402 25.3648 24.3418 25.4542 24.4622C25.5435 24.5826 25.6082 24.7194 25.6447 24.8648C25.6811 25.0101 25.6886 25.1613 25.6666 25.3096L25.4894 26.5062C25.4492 26.7768 25.3133 27.0239 25.1063 27.2027C24.8992 27.3815 24.6349 27.48 24.3614 27.4804Z" fill="#216F6D"/>
<path d="M69.3347 34.0807L65.3253 32.3245C64.7209 32.0606 64.191 31.6517 63.7825 31.134C63.374 30.6163 63.0995 30.0059 62.9833 29.3567L62.2543 25.2966C62.0428 24.1194 61.5005 23.0268 60.6908 22.1465C59.8812 21.2663 58.8376 20.6347 57.6822 20.3258C56.5268 20.0168 55.3073 20.0432 54.1663 20.4018C53.0253 20.7605 52.0101 21.4366 51.2392 22.351L49.6014 24.2937C48.883 23.3822 47.9374 22.6758 46.8596 22.2454C45.7818 21.815 44.6097 21.6757 43.4611 21.8416L38.804 22.5009C38.0884 22.6032 37.3586 22.5273 36.6794 22.2799C36.0002 22.0324 35.3926 21.6211 34.9105 21.0825L31.951 17.7826C31.1036 16.838 30.0048 16.1541 28.783 15.8111C27.5612 15.468 26.267 15.4799 25.0518 15.8454C23.8365 16.2108 22.7504 16.9147 21.9205 17.8747C21.0906 18.8347 20.5511 20.0112 20.3652 21.2665L19.7154 25.6516C19.6101 26.3664 19.3301 27.0443 18.9002 27.6251C18.4703 28.2059 17.9038 28.6716 17.2508 28.9811L13.0017 31.0003C11.8919 31.5278 10.949 32.3512 10.2767 33.3798C9.60436 34.4083 9.22859 35.6024 9.19068 36.8306C9.15278 38.0589 9.45421 39.2738 10.0618 40.3419C10.6695 41.41 11.5598 42.2899 12.635 42.8849L17.2765 45.4525C17.8787 45.7869 18.3944 46.2576 18.7822 46.8269C19.1701 47.3963 19.4194 48.0484 19.5102 48.7313L20.1779 53.8214C20.3351 55.0668 20.8425 56.242 21.641 57.2105C22.4395 58.179 23.4964 58.901 24.689 59.2928C25.3775 59.5233 26.0986 59.6413 26.8247 59.6422C27.7125 59.6413 28.5912 59.4622 29.4085 59.1156C30.2259 58.7689 30.9654 58.2617 31.5832 57.6241L32.5935 56.5906L32.7068 57.4976C32.7548 57.8617 32.9329 58.1961 33.2083 58.4391C33.4836 58.6821 33.8376 58.8173 34.2049 58.8196C34.2484 58.8196 34.293 58.8179 34.3375 58.814C35.051 58.7506 35.7551 58.6075 36.4368 58.3875C36.8536 58.9077 37.0881 59.5504 37.1041 60.2168C37.0354 60.8649 36.7746 61.4776 36.3551 61.9763C35.7317 62.7996 35.3275 63.7676 35.1802 64.7897C35.1333 65.657 35.258 66.525 35.5472 67.3439C35.8364 68.1629 36.2844 68.9167 36.8656 69.5622C36.9582 69.68 37.0732 69.7784 37.2039 69.8519C37.3346 69.9253 37.4785 69.9722 37.6273 69.99C37.7762 70.0078 37.9271 69.9961 38.0714 69.9556C38.2157 69.9151 38.3507 69.8465 38.4685 69.7539C38.5863 69.6612 38.6848 69.5463 38.7582 69.4156C38.8316 69.2849 38.8785 69.141 38.8963 68.9921C38.9141 68.8433 38.9024 68.6924 38.8619 68.5481C38.8214 68.4037 38.7529 68.2688 38.6602 68.151C37.8683 67.3087 37.4343 66.192 37.4497 65.036C37.5653 64.3776 37.8439 63.7585 38.2601 63.2353C38.9259 62.3852 39.3188 61.3535 39.387 60.2758C39.3921 59.2596 39.0928 58.2651 38.5277 57.4206C38.8551 57.2201 39.1703 57.0002 39.4715 56.7621C40.4408 56.9905 41.4505 56.986 42.4178 56.7491L43.2547 56.5412C43.1195 56.8434 43.0896 57.1821 43.1696 57.5033C43.2497 57.8245 43.4351 58.1096 43.6963 58.3129C44.3746 58.8283 45.1214 59.2466 45.9152 59.5556C46.1723 60.1688 46.2099 60.852 46.0215 61.4897C45.7679 62.0211 45.36 62.4637 44.8512 62.7599C44.0359 63.3092 43.3572 64.0379 42.867 64.89C42.1919 66.2426 42.0078 67.7878 42.3465 69.2612C42.3953 69.523 42.534 69.7596 42.7388 69.93C42.9436 70.1004 43.2015 70.1938 43.4678 70.1941C43.5381 70.1941 43.6083 70.1878 43.6774 70.1752C43.975 70.1198 44.2385 69.9485 44.4099 69.6989C44.5812 69.4494 44.6466 69.142 44.5914 68.8443C44.3425 68.0528 44.3689 67.2003 44.6665 66.4258C44.964 65.6512 45.5151 65.0003 46.23 64.579C47.091 64.0308 47.7642 63.2328 48.1595 62.2917C48.405 61.6017 48.4803 60.8626 48.3789 60.1372C48.6745 60.1661 48.97 60.1956 49.2675 60.1956C49.6209 60.1956 49.9741 60.1753 50.3253 60.1349C50.5288 60.1113 50.7253 60.0462 50.9025 59.9434C51.0797 59.8406 51.2338 59.7024 51.3552 59.5374C51.5823 59.2228 51.6803 58.8332 51.629 58.4486L52.7285 59.5062C53.8939 60.6366 55.4532 61.2696 57.0768 61.2713C57.8251 61.2704 58.5674 61.1372 59.2693 60.8778C60.3816 60.4742 61.3566 59.7634 62.0811 58.8279C62.8056 57.8924 63.2499 56.7705 63.3624 55.5927L63.8372 50.8397C63.9006 50.2144 64.1094 49.6125 64.4469 49.0823C64.7845 48.5521 65.2414 48.1082 65.7811 47.7861L70.0246 45.2652C71.0204 44.6737 71.8338 43.8191 72.3754 42.7954C72.917 41.7716 73.1658 40.6183 73.0945 39.4623C73.0232 38.3063 72.6345 37.1923 71.9712 36.2429C71.3079 35.2935 70.3956 34.5453 69.3347 34.0807ZM29.9513 56.0285C29.3741 56.619 28.6423 57.0353 27.8397 57.2296C27.037 57.4239 26.1959 57.3885 25.4125 57.1273C24.629 56.8662 23.9349 56.3899 23.4093 55.7528C22.8838 55.1158 22.5482 54.3437 22.4407 53.5249L21.773 48.4348C21.6353 47.3978 21.2569 46.4074 20.6682 45.5428C20.0794 44.6781 19.2965 43.9631 18.3822 43.455L13.7407 40.8874C13.0327 40.4957 12.4463 39.9164 12.0461 39.2131C11.646 38.5098 11.4475 37.7098 11.4725 36.9011C11.4975 36.0923 11.745 35.3061 12.1878 34.6288C12.6307 33.9516 13.2517 33.4096 13.9826 33.0624L18.2317 31.0433C19.223 30.5727 20.083 29.8651 20.7357 28.983C21.3884 28.1009 21.8136 27.0716 21.9737 25.986L22.6235 21.6009C22.7459 20.7743 23.1011 19.9997 23.6476 19.3675C24.194 18.7354 24.9092 18.2719 25.7094 18.0313C26.5096 17.7907 27.3618 17.7828 28.1663 18.0087C28.9708 18.2346 29.6943 18.6849 30.2523 19.3069L33.2117 22.6069C33.9442 23.4243 34.8669 24.0486 35.8981 24.4244C36.9293 24.8002 38.0373 24.916 39.1239 24.7616L43.781 24.1022C44.5984 23.9821 45.4331 24.0976 46.1873 24.4351C46.9414 24.7726 47.5836 25.3181 48.0387 26.0078C47.6294 26.3488 47.1558 26.6043 46.646 26.7589C46.1361 26.9135 45.6004 26.9642 45.0706 26.9078L40.719 26.4279C39.5678 26.301 38.4039 26.494 37.3552 26.9856C36.3066 27.4772 35.4138 28.2484 34.775 29.2145C34.1361 30.1806 33.7761 31.304 33.7343 32.4615C33.6925 33.6189 33.9707 34.7654 34.5382 35.775L36.957 40.0782C37.2644 40.6264 37.4391 41.2391 37.4672 41.867C37.4952 42.4949 37.3759 43.1207 37.1187 43.6942L35.1569 48.0497C34.6368 49.203 34.4782 50.4868 34.7018 51.732C34.0189 52.0635 33.3974 52.5088 32.864 53.049L29.9513 56.0285ZM36.8734 55.7565C36.2438 56.0799 35.5706 56.3103 34.8748 56.4403L34.635 54.5193C34.8979 54.2722 35.1902 54.0583 35.5053 53.8825C35.6715 54.1593 35.8583 54.4232 36.0641 54.672C36.3674 55.0281 36.7091 55.3497 37.0829 55.6309C37.0118 55.6704 36.9459 55.7192 36.8734 55.7565ZM47.4828 57.677C46.8543 57.5093 46.2527 57.2534 45.696 56.9169L46.4915 55.7575C47.2967 55.6205 48.1245 55.735 48.8622 56.0854L49.2117 57.9123C48.6277 57.9077 48.0467 57.8287 47.4828 57.677ZM68.8587 43.3023L64.6152 45.8231C63.7688 46.3284 63.0522 47.0247 62.5227 47.8562C61.9931 48.6877 61.6654 49.6315 61.5655 50.6123L61.0907 55.3652C61.0159 56.1151 60.7316 56.8288 60.2703 57.4247C59.809 58.0206 59.1893 58.4747 58.4821 58.7351C57.7749 58.9954 57.0087 59.0515 56.2712 58.8969C55.5336 58.7423 54.8544 58.3833 54.3112 57.861L51.5157 55.1719C50.3485 54.0424 48.7882 53.4107 47.164 53.4102C46.6474 53.4104 46.1327 53.4736 45.6314 53.5985L41.8671 54.5331C41.1358 54.7146 40.3682 54.6866 39.652 54.4524C38.9359 54.2182 38.3001 53.7871 37.8173 53.2086C37.3345 52.6301 37.0243 51.9274 36.922 51.1809C36.8198 50.4344 36.9296 49.6741 37.239 48.9871L39.2008 44.6316C39.6036 43.7317 39.7904 42.7502 39.7465 41.7653C39.7025 40.7804 39.4291 39.8195 38.9478 38.959L36.529 34.6559C36.1672 34.0123 35.9898 33.2814 36.0164 32.5435C36.0431 31.8057 36.2726 31.0894 36.6799 30.4736C37.0872 29.8577 37.6564 29.3661 38.3249 29.0527C38.9935 28.7394 39.7355 28.6164 40.4693 28.6974L44.821 29.1773C45.8414 29.2894 46.8737 29.1502 47.828 28.772C48.7824 28.3938 49.6297 27.7879 50.2963 27.0073L50.3097 26.9932L50.3263 26.9758L52.9848 23.8224C53.4762 23.2394 54.1234 22.8083 54.8508 22.5797C55.5782 22.351 56.3557 22.3341 57.0923 22.5311C57.8289 22.728 58.4942 23.1307 59.0104 23.6918C59.5266 24.253 59.8724 24.9496 60.0072 25.7001L60.7362 29.7603C60.9184 30.7784 61.3489 31.7359 61.9895 32.548C62.6302 33.36 63.4612 34.0015 64.409 34.4156L68.4185 36.1718C69.095 36.4679 69.6767 36.9448 70.0997 37.5501C70.5227 38.1553 70.7706 38.8656 70.8161 39.6026C70.8616 40.3396 70.703 41.075 70.3577 41.7277C70.0123 42.3804 69.4937 42.9252 68.8587 43.3023Z" fill="#216F6D"/>
<path d="M51.4143 30.4658C51.1847 30.4657 50.9605 30.3963 50.7709 30.2668C50.5813 30.1373 50.4352 29.9536 50.3517 29.7397C50.2681 29.5259 50.251 29.2918 50.3026 29.068C50.3542 28.8443 50.472 28.6413 50.6407 28.4856C50.8754 28.2687 51.0965 28.0375 51.3028 27.7934C51.3992 27.6779 51.5175 27.5826 51.6508 27.513C51.7841 27.4434 51.9299 27.4008 52.0797 27.3877C52.2296 27.3747 52.3805 27.3913 52.5239 27.4368C52.6673 27.4823 52.8002 27.5557 52.9151 27.6527C53.03 27.7498 53.1246 27.8686 53.1935 28.0023C53.2623 28.1361 53.304 28.2821 53.3162 28.432C53.3283 28.5819 53.3108 28.7328 53.2644 28.8759C53.2181 29.019 53.1439 29.1515 53.0462 29.2658C52.779 29.5825 52.4923 29.8822 52.1878 30.1631C51.9775 30.3582 51.7011 30.4663 51.4143 30.4658Z" fill="#216F6D"/>
<path d="M45.4298 32.7552C44.3727 32.735 43.3187 32.6359 42.2764 32.4587C41.9665 32.413 41.6611 32.3678 41.3635 32.3294C41.0633 32.2909 40.7906 32.1348 40.6055 31.8954C40.4204 31.6559 40.338 31.3527 40.3764 31.0525C40.4149 30.7523 40.571 30.4797 40.8104 30.2946C41.0499 30.1095 41.3531 30.0271 41.6533 30.0655C41.9665 30.1056 42.2853 30.1524 42.6097 30.2004C44.5021 30.6471 46.4814 30.5593 48.3268 29.9468C48.4661 29.8907 48.6151 29.8627 48.7652 29.8643C48.9153 29.8659 49.0637 29.8971 49.2018 29.9561C49.3398 30.0152 49.4649 30.1008 49.5698 30.2083C49.6747 30.3157 49.7573 30.4428 49.8131 30.5822C49.8688 30.7216 49.8964 30.8707 49.8945 31.0208C49.8925 31.1709 49.8609 31.3192 49.8015 31.4571C49.7422 31.595 49.6562 31.7199 49.5485 31.8245C49.4408 31.9292 49.3135 32.0115 49.1739 32.0669C47.9819 32.5355 46.7105 32.7692 45.4298 32.7552Z" fill="#216F6D"/>
<path d="M11.5764 10.8438C13.3457 10.8438 14.7852 12.5045 14.7852 14.5463C14.7852 14.7426 14.8632 14.931 15.0021 15.0699C15.1409 15.2087 15.3293 15.2867 15.5257 15.2867C15.722 15.2867 15.9104 15.2087 16.0493 15.0699C16.1881 14.931 16.2661 14.7426 16.2661 14.5463C16.2661 12.5045 17.7056 10.8438 19.4749 10.8438C19.6713 10.8438 19.8596 10.7658 19.9985 10.627C20.1374 10.4881 20.2154 10.2998 20.2154 10.1034C20.2154 9.90698 20.1374 9.71864 19.9985 9.57977C19.8596 9.4409 19.6713 9.36289 19.4749 9.36289C17.7056 9.36289 16.2661 7.70223 16.2661 5.66048C16.2661 5.46409 16.1881 5.27575 16.0493 5.13688C15.9104 4.99801 15.722 4.92 15.5257 4.92C15.3293 4.92 15.1409 4.99801 15.0021 5.13688C14.8632 5.27575 14.7852 5.46409 14.7852 5.66048C14.7852 7.70223 13.3457 9.36289 11.5764 9.36289C11.38 9.36289 11.1917 9.4409 11.0528 9.57977C10.914 9.71864 10.8359 9.90698 10.8359 10.1034C10.8359 10.2998 10.914 10.4881 11.0528 10.627C11.1917 10.7658 11.38 10.8438 11.5764 10.8438ZM15.5257 8.45358C15.9048 9.11345 16.43 9.67779 17.0609 10.1034C16.43 10.5289 15.9048 11.0933 15.5257 11.7532C15.1461 11.0932 14.6206 10.5289 13.9894 10.1034C14.6206 9.67783 15.1461 9.11349 15.5257 8.45358Z" fill="#216F6D"/>
<path d="M63.8967 61.394C65.666 61.394 67.1055 63.0546 67.1055 65.0964C67.1055 65.2928 67.1835 65.4811 67.3224 65.62C67.4612 65.7588 67.6496 65.8369 67.846 65.8369C68.0424 65.8369 68.2307 65.7588 68.3696 65.62C68.5084 65.4811 68.5864 65.2928 68.5864 65.0964C68.5864 63.0546 70.0259 61.394 71.7952 61.394C71.9916 61.394 72.1799 61.316 72.3188 61.1771C72.4577 61.0382 72.5357 60.8499 72.5357 60.6535C72.5357 60.4571 72.4577 60.2688 72.3188 60.1299C72.1799 59.991 71.9916 59.913 71.7952 59.913C70.0259 59.913 68.5864 58.2524 68.5864 56.2106C68.5864 56.0142 68.5084 55.8259 68.3696 55.687C68.2307 55.5481 68.0424 55.4701 67.846 55.4701C67.6496 55.4701 67.4612 55.5481 67.3224 55.687C67.1835 55.8259 67.1055 56.0142 67.1055 56.2106C67.1055 58.2524 65.666 59.913 63.8967 59.913C63.7003 59.913 63.512 59.991 63.3731 60.1299C63.2343 60.2688 63.1562 60.4571 63.1562 60.6535C63.1562 60.8499 63.2343 61.0382 63.3731 61.1771C63.512 61.316 63.7003 61.394 63.8967 61.394ZM67.846 59.0037C68.2251 59.6636 68.7503 60.2279 69.3812 60.6535C68.7503 61.0791 68.2251 61.6434 67.846 62.3033C67.4664 61.6434 66.9409 61.079 66.3097 60.6535C66.9409 60.228 67.4664 59.6636 67.846 59.0037Z" fill="#216F6D"/>
</g>
<defs>
<clipPath id="clip0_10401_23977">
<rect width="82" height="82" fill="white"/>
</clipPath>
</defs>
</svg>
