<svg width="181" height="48" viewBox="0 0 181 48" fill="none" xmlns="http://www.w3.org/2000/svg">
<path d="M1.68648 39V38.94L1.76648 38.92C2.08648 38.84 2.28648 38.06 2.28648 36.96V28.94C2.28648 27.84 2.08648 27.06 1.76648 26.98L1.68648 26.96V26.9H6.62648C9.18648 26.9 10.9065 28.14 10.9065 30.02C10.9065 31.64 9.64648 32.84 7.64648 33.24C10.2865 33.52 11.1665 34.56 11.1665 36.04C11.1665 37.82 10.0265 39 7.12648 39H1.68648ZM3.74648 33.18H6.04648C8.08648 33.18 9.44648 31.92 9.44648 30.02C9.44648 28.36 8.32648 27.26 6.62648 27.26H3.74648V33.18ZM3.74648 38.64H6.98648C9.06648 38.64 9.64648 37.6 9.64648 36.04C9.64648 34.5 8.56648 33.46 5.76648 33.46H3.74648V38.64ZM12.6941 39V38.94C13.1341 38.86 13.5341 38.22 13.9741 37.16L17.9941 26.62H18.3541L22.7741 36.96C23.3341 38.28 23.7941 38.94 24.0141 38.94H24.1141V39H21.1741V38.94L21.2941 38.92C21.6741 38.84 21.7341 38.24 21.2741 37.16L20.5741 35.5H15.0941L14.4741 37.08C14.1341 38.14 14.1341 38.84 14.5141 38.92L14.6341 38.94V39H12.6941ZM15.2141 35.14H20.4141L17.6741 28.44L15.2141 35.14ZM25.8423 39V38.94L25.9223 38.92C26.2423 38.84 26.4423 38.06 26.4423 36.96V28.94C26.4423 27.84 26.2423 27.06 25.9223 26.98L25.8423 26.96V26.9H28.5023V26.96L28.4223 26.98C28.1023 27.06 27.9023 27.84 27.9023 28.94V38.7H30.8423C32.2223 38.7 33.4623 38.24 33.9423 37.62L34.0623 37.44C34.0623 37.44 34.1023 37.46 34.1423 37.5C34.0823 37.96 34.0023 38.56 33.9023 39H25.8423ZM36.3884 39V38.94L36.4684 38.92C36.7884 38.84 36.9884 38.06 36.9884 36.96V28.94C36.9884 27.84 36.7884 27.06 36.4684 26.98L36.3884 26.96V26.9H39.0484V26.96L38.9684 26.98C38.6484 27.06 38.4484 27.84 38.4484 28.94V38.7H41.3884C42.7684 38.7 44.0084 38.24 44.4884 37.62L44.6084 37.44C44.6084 37.44 44.6484 37.46 44.6884 37.5C44.6284 37.96 44.5484 38.56 44.4484 39H36.3884ZM81.0923 39V38.94L81.1723 38.92C81.4923 38.84 81.6923 38.06 81.6923 36.96V28.94C81.6923 27.84 81.4923 27.06 81.1723 26.98L81.0923 26.96V26.9H83.7523V26.96L83.6723 26.98C83.3523 27.06 83.1523 27.84 83.1523 28.94V38.7H86.0923C87.4723 38.7 88.7123 38.24 89.1923 37.62L89.3123 37.44C89.3123 37.44 89.3523 37.46 89.3923 37.5C89.3323 37.96 89.2523 38.56 89.1523 39H81.0923Z" fill="#216F6D"/>
<path d="M115.504 38.78C115.744 38.84 115.964 38.82 115.984 38.82V39C115.884 39.02 115.044 39.02 114.824 39.02C113.944 39.02 113.384 38.48 112.924 37.76C112.324 36.82 111.664 35.44 110.364 34.8H108.444V36.96C108.444 38.06 108.644 38.84 108.964 38.92L109.044 38.94V39H106.384V38.94L106.464 38.92C106.784 38.84 106.984 38.06 106.984 36.96V28.94C106.984 27.84 106.784 27.06 106.464 26.98L106.384 26.96V26.9H111.384C114.044 26.9 115.804 28.36 115.804 30.56C115.804 33.18 114.024 34.64 111.284 34.78C112.304 35.04 113.044 35.76 113.444 36.34C114.124 37.28 114.344 38.5 115.504 38.78ZM108.444 27.26V34.44H110.804C112.884 34.44 114.284 33.12 114.284 30.56C114.284 28.58 113.124 27.26 111.384 27.26H108.444Z" fill="#F4794D"/>
<path d="M58.0737 39.46C54.2337 39.46 51.6537 36.88 51.6537 33C51.6537 29.14 54.2337 26.56 58.0737 26.56C60.4937 26.56 62.4737 27.42 63.0337 28.74L62.9937 29.98H62.9537C62.4137 28.6 61.3537 27.58 59.9737 27.2C59.3937 27.04 58.7537 26.96 58.0737 26.96C55.1337 26.96 53.2337 29.38 53.2337 33C53.2337 36.64 55.1337 39.06 58.0737 39.06C60.5537 39.06 62.2137 37.92 62.9937 36.04L63.0337 37.26C62.4537 38.6 60.4737 39.46 58.0737 39.46Z" fill="#FCB454"/>
<path d="M72.581 39.36C68.281 39.76 65.781 37.02 65.501 33.58C65.221 30.14 67.201 27.02 71.501 26.62C75.801 26.22 78.301 28.94 78.581 32.38C78.861 35.82 76.881 38.96 72.581 39.36ZM72.541 39C75.801 38.7 77.241 35.78 76.961 32.52C76.681 29.3 74.781 26.68 71.541 26.98C68.261 27.28 66.821 30.2 67.101 33.44C67.381 36.68 69.281 39.3 72.541 39Z" fill="#F9E748"/>
<path d="M98.0677 39.36C93.7677 39.76 91.2677 37.02 90.9877 33.58C90.7077 30.14 92.6877 27.02 96.9877 26.62C101.288 26.22 103.788 28.94 104.068 32.38C104.348 35.82 102.368 38.96 98.0677 39.36ZM98.0277 39C101.288 38.7 102.728 35.78 102.448 32.52C102.168 29.3 100.268 26.68 97.0277 26.98C93.7477 27.28 92.3077 30.2 92.5877 33.44C92.8677 36.68 94.7677 39.3 98.0277 39Z" fill="#DEE894"/>
<path d="M123.211 39.36C121.171 39.36 119.551 38.8 118.711 37.7C118.111 36.9 118.071 36.4 118.391 36.08C118.631 35.84 119.131 35.86 119.351 36.1C119.591 36.36 119.591 36.78 119.671 37.08C120.111 38.58 121.831 38.96 123.211 38.96C125.171 38.96 126.451 38 126.451 36.54C126.451 35.36 124.731 34.02 122.531 33.42C120.311 32.82 118.451 31.7 118.451 30.18C118.451 28 120.231 26.54 122.831 26.54C124.491 26.54 126.031 27.22 126.671 28.14C127.111 28.72 127.351 29.38 126.991 29.7C126.731 29.94 126.331 29.92 126.131 29.7C125.911 29.46 126.011 29 125.811 28.54C125.351 27.54 124.151 26.96 122.791 26.96C120.891 26.96 119.511 27.92 119.511 29.62C119.511 31.04 121.271 31.5 123.431 32.22C125.811 32.86 127.631 34.36 127.631 35.94C127.631 37.98 125.871 39.36 123.211 39.36Z" fill="#5BD1C3"/>
<path d="M131.351 35.7C131.351 35.7 130.691 29.1 130.691 26.72C130.631 26.14 130.971 25.76 131.351 25.76C131.711 25.76 132.051 26.14 132.011 26.72C132.011 29.1 131.471 35.7 131.471 35.7H131.351ZM131.431 38.78C130.951 38.78 130.611 38.44 130.611 37.94C130.611 37.46 130.951 37.12 131.431 37.12C131.931 37.12 132.271 37.46 132.271 37.94C132.271 38.44 131.931 38.78 131.431 38.78Z" fill="#F04A23"/>
<mask id="path-2-outside-1_2817_22031" maskUnits="userSpaceOnUse" x="138" y="13" width="42" height="35" fill="black">
<rect fill="white" x="138" y="13" width="42" height="35"/>
<path d="M139.656 40.6699C139.533 40.6523 139.427 40.6172 139.339 40.5469C139.251 40.4766 139.181 40.3887 139.128 40.3184C139.076 40.2305 139.04 40.1602 139.023 40.1074C138.689 39.3516 138.443 37.8047 138.285 35.502C138.109 33.1992 138.056 30.6152 138.144 27.75C138.214 24.8672 138.478 22.1953 138.9 19.6992C139.322 17.2031 139.972 15.3926 140.833 14.2324C141.238 13.7578 141.642 13.4766 142.029 13.3711C142.415 13.2656 142.767 13.2656 143.048 13.3535C143.171 13.3711 143.294 13.4238 143.435 13.5117C143.576 13.6172 143.699 13.7578 143.804 13.9688C144.173 14.7949 144.173 16.166 143.822 18.0996C143.47 20.0332 142.925 22.1426 142.24 24.3926C141.537 26.6602 140.851 28.6816 140.201 30.4746C139.55 32.2852 139.111 33.4453 138.882 34.0078C139.005 36.293 139.199 37.998 139.427 39.1055C139.603 37.8926 139.902 36.416 140.359 34.6758C140.798 32.9531 141.378 31.5645 142.046 30.5449C142.451 30 142.872 29.7012 143.312 29.6309C143.576 29.5957 143.822 29.666 144.015 29.8418C144.367 30.1582 144.578 30.7383 144.683 31.5645C144.771 32.4082 144.841 33.3574 144.859 34.4648C144.859 35.0098 144.894 35.5898 144.929 36.2227C144.964 36.8379 145.017 37.3828 145.105 37.8398C145.193 38.2969 145.333 38.5605 145.509 38.6309C145.826 38.6836 146.23 38.4727 146.687 37.9805C147.144 37.4707 147.601 36.8555 148.058 36.0996C148.515 35.3438 148.902 34.6055 149.236 33.8848C149.289 33.7969 149.341 33.7441 149.429 33.709C149.535 33.6738 149.622 33.6738 149.71 33.709C149.798 33.7617 149.869 33.832 149.886 33.9199C149.921 34.0078 149.921 34.0957 149.886 34.1836C149.728 34.5527 149.394 35.1855 148.919 36.0469C148.427 36.9258 147.865 37.7168 147.232 38.4199C146.581 39.1406 145.949 39.4219 145.316 39.3164C144.824 39.123 144.507 38.5957 144.367 37.6992C144.226 36.8027 144.156 35.7305 144.138 34.4824C144.121 33.6211 144.085 32.7773 144.015 31.9688C143.945 31.1602 143.787 30.6328 143.558 30.3867C143.523 30.3516 143.47 30.334 143.417 30.334C142.943 30.4395 142.503 30.9668 142.081 31.8809C141.677 32.8125 141.308 33.8848 140.992 35.0977C140.675 36.3105 140.429 37.418 140.253 38.4199C140.078 39.4043 140.007 40.0195 140.025 40.2656C140.025 40.3711 139.99 40.459 139.919 40.5469C139.849 40.6172 139.761 40.6699 139.656 40.6699ZM142.574 13.9863C142.363 13.9863 142.117 14.0918 141.818 14.2852C141.519 14.4785 141.185 14.8828 140.851 15.5156C139.99 17.3613 139.41 19.8574 139.111 22.9863C138.83 26.1152 138.724 29.1738 138.812 32.1797C139.533 30.2988 140.289 28.1016 141.097 25.6055C141.906 23.1094 142.539 20.8066 142.996 18.6621C143.453 16.5352 143.523 15.0762 143.189 14.2852C143.136 14.1973 143.083 14.127 143.031 14.0918C142.978 14.0566 142.925 14.0391 142.89 14.0391C142.82 14.0039 142.714 13.9863 142.574 13.9863ZM151.626 39.1406C151.344 39.1406 151.081 39.1055 150.8 39.0527C149.833 38.8242 149.358 38.0332 149.358 36.7148C149.358 35.5898 149.657 34.4297 150.272 33.1816C150.94 31.8281 151.714 31.1426 152.628 31.1426C153.032 31.1426 153.366 31.2656 153.594 31.5293C153.735 31.7051 153.823 31.9336 153.823 32.1973C153.823 32.6367 153.7 33.1113 153.471 33.6562C153.05 34.7285 152.399 35.4668 151.52 35.8359C150.975 36.0645 150.501 36.1875 150.096 36.1875C150.061 36.3633 150.044 36.5566 150.044 36.8027C150.044 37.1016 150.114 37.418 150.219 37.7344C150.378 38.1914 150.852 38.4199 151.608 38.4199C153.384 38.4199 155.089 36.9082 156.759 33.8848C156.829 33.7617 156.934 33.6914 157.075 33.6914C157.128 33.6914 157.18 33.709 157.233 33.7441C157.356 33.8145 157.409 33.9199 157.409 34.043C157.409 34.0957 157.391 34.166 157.374 34.2363C155.563 37.5059 153.647 39.1406 151.626 39.1406ZM150.202 35.502C150.448 35.502 150.835 35.3789 151.344 35.168C151.854 34.957 152.294 34.5 152.68 33.832L152.821 33.4453C152.839 33.375 152.856 33.3223 152.874 33.2871C152.874 33.252 152.891 33.2168 152.909 33.1992C153.067 32.7949 153.155 32.4961 153.155 32.2852C153.155 32.0039 152.979 31.8633 152.645 31.8633C152.54 31.8633 152.434 31.8633 152.311 31.8984C151.942 31.9688 151.555 32.373 151.134 33.0762C150.729 33.7793 150.413 34.5879 150.202 35.502ZM162.559 39C162.436 39 162.312 38.9824 162.207 38.9297C161.82 38.7539 161.627 38.2969 161.645 37.5586C161.662 36.8379 161.785 35.8711 161.996 34.6582C162.102 34.1309 162.172 33.5859 162.26 33.0234C162.33 32.4785 162.33 32.1094 162.26 31.9336C162.049 31.7754 161.697 31.7754 161.188 31.916C160.73 32.0742 160.221 32.1094 159.676 32.0215C159.518 31.9863 159.377 31.9336 159.236 31.8809C159.061 32.25 158.85 32.6719 158.621 33.1289C158.48 33.4277 158.322 33.7441 158.164 34.0781C158.111 34.166 158.041 34.2188 157.953 34.2539C157.865 34.2891 157.777 34.2715 157.689 34.2363C157.602 34.1836 157.531 34.1309 157.514 34.0254C157.479 33.9375 157.479 33.8496 157.531 33.7617C157.689 33.4453 157.83 33.1289 157.971 32.8477C157.988 32.8301 157.988 32.8301 157.988 32.8125C158.234 32.3379 158.445 31.8984 158.621 31.5117C158.182 31.1074 157.953 30.5801 157.971 29.9121C157.988 29.5254 158.094 29.1738 158.27 28.8398C158.463 28.5234 158.709 28.3125 159.008 28.2598C159.061 28.2422 159.148 28.2422 159.254 28.2598C159.377 28.2773 159.482 28.3477 159.605 28.4531C159.711 28.541 159.816 28.7168 159.904 28.9453C160.098 29.5078 159.975 30.2812 159.535 31.2305C159.623 31.2656 159.729 31.3008 159.834 31.3359C160.238 31.3887 160.625 31.3535 161.029 31.2305C161.311 31.1602 161.609 31.1074 161.908 31.1074C162.207 31.0898 162.488 31.2129 162.752 31.4238C162.963 31.6172 163.051 31.9863 163.016 32.5312C162.98 33.0586 162.875 33.8145 162.699 34.7637C162.629 35.1328 162.559 35.5723 162.488 36.082C162.418 36.6094 162.365 37.084 162.348 37.5234C162.33 37.9453 162.383 38.209 162.488 38.2793C162.559 38.2969 162.646 38.2969 162.77 38.2441C163.174 38.0508 163.648 37.6641 164.158 37.084C164.686 36.4863 165.16 35.8887 165.6 35.2734C166.021 34.6582 166.285 34.2012 166.408 33.9199C166.461 33.832 166.514 33.7617 166.602 33.7266C166.689 33.6914 166.777 33.6914 166.883 33.7266C166.971 33.7617 167.023 33.832 167.076 33.9199C167.111 34.0078 167.111 34.0957 167.076 34.1836C166.953 34.4824 166.672 34.957 166.215 35.625C165.758 36.2754 165.248 36.9434 164.668 37.5762C164.088 38.2266 163.543 38.666 163.033 38.8945C162.857 38.9648 162.699 39 162.559 39ZM159.096 28.9453C159.043 28.9629 158.955 29.0684 158.85 29.2441C158.762 29.4375 158.709 29.666 158.674 29.9473C158.674 30.0703 158.691 30.2109 158.727 30.3516C158.762 30.5098 158.832 30.668 158.938 30.8086C159.254 30.0879 159.359 29.543 159.236 29.1914C159.219 29.1211 159.201 29.0859 159.166 29.0508C159.148 29.0156 159.131 28.9805 159.113 28.9629L159.096 28.9453ZM168.886 39.1406C168.605 39.1406 168.341 39.1055 168.06 39.0527C167.093 38.8242 166.618 38.0332 166.618 36.7148C166.618 35.5898 166.917 34.4297 167.532 33.1816C168.2 31.8281 168.974 31.1426 169.888 31.1426C170.292 31.1426 170.626 31.2656 170.855 31.5293C170.995 31.7051 171.083 31.9336 171.083 32.1973C171.083 32.6367 170.96 33.1113 170.732 33.6562C170.31 34.7285 169.659 35.4668 168.781 35.8359C168.236 36.0645 167.761 36.1875 167.357 36.1875C167.322 36.3633 167.304 36.5566 167.304 36.8027C167.304 37.1016 167.374 37.418 167.48 37.7344C167.638 38.1914 168.113 38.4199 168.868 38.4199C170.644 38.4199 172.349 36.9082 174.019 33.8848C174.089 33.7617 174.195 33.6914 174.335 33.6914C174.388 33.6914 174.441 33.709 174.493 33.7441C174.616 33.8145 174.669 33.9199 174.669 34.043C174.669 34.0957 174.652 34.166 174.634 34.2363C172.824 37.5059 170.907 39.1406 168.886 39.1406ZM167.462 35.502C167.708 35.502 168.095 35.3789 168.605 35.168C169.115 34.957 169.554 34.5 169.941 33.832L170.081 33.4453C170.099 33.375 170.116 33.3223 170.134 33.2871C170.134 33.252 170.152 33.2168 170.169 33.1992C170.327 32.7949 170.415 32.4961 170.415 32.2852C170.415 32.0039 170.24 31.8633 169.906 31.8633C169.8 31.8633 169.695 31.8633 169.572 31.8984C169.202 31.9688 168.816 32.373 168.394 33.0762C167.99 33.7793 167.673 34.5879 167.462 35.502ZM177.903 44.6777C177.745 44.6777 177.639 44.6074 177.569 44.4492C177.129 43.0781 176.901 40.9688 176.866 38.1387C176.848 35.291 176.919 32.3027 177.094 29.1562C177.27 25.9922 177.463 23.2676 177.657 20.9473C177.868 18.6445 177.973 17.3262 178.026 16.9922C178.026 16.9043 178.079 16.8164 178.149 16.7637C178.219 16.6934 178.307 16.6758 178.413 16.6758C178.501 16.6934 178.588 16.7285 178.641 16.8164C178.711 16.8867 178.729 16.9746 178.729 17.0625C178.711 17.2207 178.588 18.4336 178.395 20.7012C178.202 22.9688 178.008 25.6934 177.833 28.8574C177.639 32.0391 177.551 35.0449 177.586 37.9102C177.604 40.7754 177.815 42.8672 178.237 44.2031C178.272 44.3086 178.254 44.3965 178.219 44.4844C178.184 44.5723 178.114 44.625 178.008 44.6602C177.973 44.6777 177.938 44.6777 177.903 44.6777ZM178.061 47.5605C177.938 47.5605 177.85 47.5078 177.762 47.4023C177.71 47.2969 177.692 47.209 177.71 47.1035C177.604 47.0859 177.534 47.0332 177.463 46.9453C177.411 46.8574 177.393 46.7695 177.411 46.6641C177.428 46.5762 177.481 46.5059 177.569 46.4531C177.797 46.2949 178.026 46.1895 178.272 46.1191C178.518 46.0488 178.729 46.0664 178.905 46.207C179.01 46.3125 179.063 46.4355 179.045 46.5762C179.028 46.8398 178.764 47.1387 178.254 47.4902C178.184 47.543 178.131 47.5605 178.061 47.5605Z"/>
</mask>
<path d="M139.656 40.6699C139.533 40.6523 139.427 40.6172 139.339 40.5469C139.251 40.4766 139.181 40.3887 139.128 40.3184C139.076 40.2305 139.04 40.1602 139.023 40.1074C138.689 39.3516 138.443 37.8047 138.285 35.502C138.109 33.1992 138.056 30.6152 138.144 27.75C138.214 24.8672 138.478 22.1953 138.9 19.6992C139.322 17.2031 139.972 15.3926 140.833 14.2324C141.238 13.7578 141.642 13.4766 142.029 13.3711C142.415 13.2656 142.767 13.2656 143.048 13.3535C143.171 13.3711 143.294 13.4238 143.435 13.5117C143.576 13.6172 143.699 13.7578 143.804 13.9688C144.173 14.7949 144.173 16.166 143.822 18.0996C143.47 20.0332 142.925 22.1426 142.24 24.3926C141.537 26.6602 140.851 28.6816 140.201 30.4746C139.55 32.2852 139.111 33.4453 138.882 34.0078C139.005 36.293 139.199 37.998 139.427 39.1055C139.603 37.8926 139.902 36.416 140.359 34.6758C140.798 32.9531 141.378 31.5645 142.046 30.5449C142.451 30 142.872 29.7012 143.312 29.6309C143.576 29.5957 143.822 29.666 144.015 29.8418C144.367 30.1582 144.578 30.7383 144.683 31.5645C144.771 32.4082 144.841 33.3574 144.859 34.4648C144.859 35.0098 144.894 35.5898 144.929 36.2227C144.964 36.8379 145.017 37.3828 145.105 37.8398C145.193 38.2969 145.333 38.5605 145.509 38.6309C145.826 38.6836 146.23 38.4727 146.687 37.9805C147.144 37.4707 147.601 36.8555 148.058 36.0996C148.515 35.3438 148.902 34.6055 149.236 33.8848C149.289 33.7969 149.341 33.7441 149.429 33.709C149.535 33.6738 149.622 33.6738 149.71 33.709C149.798 33.7617 149.869 33.832 149.886 33.9199C149.921 34.0078 149.921 34.0957 149.886 34.1836C149.728 34.5527 149.394 35.1855 148.919 36.0469C148.427 36.9258 147.865 37.7168 147.232 38.4199C146.581 39.1406 145.949 39.4219 145.316 39.3164C144.824 39.123 144.507 38.5957 144.367 37.6992C144.226 36.8027 144.156 35.7305 144.138 34.4824C144.121 33.6211 144.085 32.7773 144.015 31.9688C143.945 31.1602 143.787 30.6328 143.558 30.3867C143.523 30.3516 143.47 30.334 143.417 30.334C142.943 30.4395 142.503 30.9668 142.081 31.8809C141.677 32.8125 141.308 33.8848 140.992 35.0977C140.675 36.3105 140.429 37.418 140.253 38.4199C140.078 39.4043 140.007 40.0195 140.025 40.2656C140.025 40.3711 139.99 40.459 139.919 40.5469C139.849 40.6172 139.761 40.6699 139.656 40.6699ZM142.574 13.9863C142.363 13.9863 142.117 14.0918 141.818 14.2852C141.519 14.4785 141.185 14.8828 140.851 15.5156C139.99 17.3613 139.41 19.8574 139.111 22.9863C138.83 26.1152 138.724 29.1738 138.812 32.1797C139.533 30.2988 140.289 28.1016 141.097 25.6055C141.906 23.1094 142.539 20.8066 142.996 18.6621C143.453 16.5352 143.523 15.0762 143.189 14.2852C143.136 14.1973 143.083 14.127 143.031 14.0918C142.978 14.0566 142.925 14.0391 142.89 14.0391C142.82 14.0039 142.714 13.9863 142.574 13.9863ZM151.626 39.1406C151.344 39.1406 151.081 39.1055 150.8 39.0527C149.833 38.8242 149.358 38.0332 149.358 36.7148C149.358 35.5898 149.657 34.4297 150.272 33.1816C150.94 31.8281 151.714 31.1426 152.628 31.1426C153.032 31.1426 153.366 31.2656 153.594 31.5293C153.735 31.7051 153.823 31.9336 153.823 32.1973C153.823 32.6367 153.7 33.1113 153.471 33.6562C153.05 34.7285 152.399 35.4668 151.52 35.8359C150.975 36.0645 150.501 36.1875 150.096 36.1875C150.061 36.3633 150.044 36.5566 150.044 36.8027C150.044 37.1016 150.114 37.418 150.219 37.7344C150.378 38.1914 150.852 38.4199 151.608 38.4199C153.384 38.4199 155.089 36.9082 156.759 33.8848C156.829 33.7617 156.934 33.6914 157.075 33.6914C157.128 33.6914 157.18 33.709 157.233 33.7441C157.356 33.8145 157.409 33.9199 157.409 34.043C157.409 34.0957 157.391 34.166 157.374 34.2363C155.563 37.5059 153.647 39.1406 151.626 39.1406ZM150.202 35.502C150.448 35.502 150.835 35.3789 151.344 35.168C151.854 34.957 152.294 34.5 152.68 33.832L152.821 33.4453C152.839 33.375 152.856 33.3223 152.874 33.2871C152.874 33.252 152.891 33.2168 152.909 33.1992C153.067 32.7949 153.155 32.4961 153.155 32.2852C153.155 32.0039 152.979 31.8633 152.645 31.8633C152.54 31.8633 152.434 31.8633 152.311 31.8984C151.942 31.9688 151.555 32.373 151.134 33.0762C150.729 33.7793 150.413 34.5879 150.202 35.502ZM162.559 39C162.436 39 162.312 38.9824 162.207 38.9297C161.82 38.7539 161.627 38.2969 161.645 37.5586C161.662 36.8379 161.785 35.8711 161.996 34.6582C162.102 34.1309 162.172 33.5859 162.26 33.0234C162.33 32.4785 162.33 32.1094 162.26 31.9336C162.049 31.7754 161.697 31.7754 161.188 31.916C160.73 32.0742 160.221 32.1094 159.676 32.0215C159.518 31.9863 159.377 31.9336 159.236 31.8809C159.061 32.25 158.85 32.6719 158.621 33.1289C158.48 33.4277 158.322 33.7441 158.164 34.0781C158.111 34.166 158.041 34.2188 157.953 34.2539C157.865 34.2891 157.777 34.2715 157.689 34.2363C157.602 34.1836 157.531 34.1309 157.514 34.0254C157.479 33.9375 157.479 33.8496 157.531 33.7617C157.689 33.4453 157.83 33.1289 157.971 32.8477C157.988 32.8301 157.988 32.8301 157.988 32.8125C158.234 32.3379 158.445 31.8984 158.621 31.5117C158.182 31.1074 157.953 30.5801 157.971 29.9121C157.988 29.5254 158.094 29.1738 158.27 28.8398C158.463 28.5234 158.709 28.3125 159.008 28.2598C159.061 28.2422 159.148 28.2422 159.254 28.2598C159.377 28.2773 159.482 28.3477 159.605 28.4531C159.711 28.541 159.816 28.7168 159.904 28.9453C160.098 29.5078 159.975 30.2812 159.535 31.2305C159.623 31.2656 159.729 31.3008 159.834 31.3359C160.238 31.3887 160.625 31.3535 161.029 31.2305C161.311 31.1602 161.609 31.1074 161.908 31.1074C162.207 31.0898 162.488 31.2129 162.752 31.4238C162.963 31.6172 163.051 31.9863 163.016 32.5312C162.98 33.0586 162.875 33.8145 162.699 34.7637C162.629 35.1328 162.559 35.5723 162.488 36.082C162.418 36.6094 162.365 37.084 162.348 37.5234C162.33 37.9453 162.383 38.209 162.488 38.2793C162.559 38.2969 162.646 38.2969 162.77 38.2441C163.174 38.0508 163.648 37.6641 164.158 37.084C164.686 36.4863 165.16 35.8887 165.6 35.2734C166.021 34.6582 166.285 34.2012 166.408 33.9199C166.461 33.832 166.514 33.7617 166.602 33.7266C166.689 33.6914 166.777 33.6914 166.883 33.7266C166.971 33.7617 167.023 33.832 167.076 33.9199C167.111 34.0078 167.111 34.0957 167.076 34.1836C166.953 34.4824 166.672 34.957 166.215 35.625C165.758 36.2754 165.248 36.9434 164.668 37.5762C164.088 38.2266 163.543 38.666 163.033 38.8945C162.857 38.9648 162.699 39 162.559 39ZM159.096 28.9453C159.043 28.9629 158.955 29.0684 158.85 29.2441C158.762 29.4375 158.709 29.666 158.674 29.9473C158.674 30.0703 158.691 30.2109 158.727 30.3516C158.762 30.5098 158.832 30.668 158.938 30.8086C159.254 30.0879 159.359 29.543 159.236 29.1914C159.219 29.1211 159.201 29.0859 159.166 29.0508C159.148 29.0156 159.131 28.9805 159.113 28.9629L159.096 28.9453ZM168.886 39.1406C168.605 39.1406 168.341 39.1055 168.06 39.0527C167.093 38.8242 166.618 38.0332 166.618 36.7148C166.618 35.5898 166.917 34.4297 167.532 33.1816C168.2 31.8281 168.974 31.1426 169.888 31.1426C170.292 31.1426 170.626 31.2656 170.855 31.5293C170.995 31.7051 171.083 31.9336 171.083 32.1973C171.083 32.6367 170.96 33.1113 170.732 33.6562C170.31 34.7285 169.659 35.4668 168.781 35.8359C168.236 36.0645 167.761 36.1875 167.357 36.1875C167.322 36.3633 167.304 36.5566 167.304 36.8027C167.304 37.1016 167.374 37.418 167.48 37.7344C167.638 38.1914 168.113 38.4199 168.868 38.4199C170.644 38.4199 172.349 36.9082 174.019 33.8848C174.089 33.7617 174.195 33.6914 174.335 33.6914C174.388 33.6914 174.441 33.709 174.493 33.7441C174.616 33.8145 174.669 33.9199 174.669 34.043C174.669 34.0957 174.652 34.166 174.634 34.2363C172.824 37.5059 170.907 39.1406 168.886 39.1406ZM167.462 35.502C167.708 35.502 168.095 35.3789 168.605 35.168C169.115 34.957 169.554 34.5 169.941 33.832L170.081 33.4453C170.099 33.375 170.116 33.3223 170.134 33.2871C170.134 33.252 170.152 33.2168 170.169 33.1992C170.327 32.7949 170.415 32.4961 170.415 32.2852C170.415 32.0039 170.24 31.8633 169.906 31.8633C169.8 31.8633 169.695 31.8633 169.572 31.8984C169.202 31.9688 168.816 32.373 168.394 33.0762C167.99 33.7793 167.673 34.5879 167.462 35.502ZM177.903 44.6777C177.745 44.6777 177.639 44.6074 177.569 44.4492C177.129 43.0781 176.901 40.9688 176.866 38.1387C176.848 35.291 176.919 32.3027 177.094 29.1562C177.27 25.9922 177.463 23.2676 177.657 20.9473C177.868 18.6445 177.973 17.3262 178.026 16.9922C178.026 16.9043 178.079 16.8164 178.149 16.7637C178.219 16.6934 178.307 16.6758 178.413 16.6758C178.501 16.6934 178.588 16.7285 178.641 16.8164C178.711 16.8867 178.729 16.9746 178.729 17.0625C178.711 17.2207 178.588 18.4336 178.395 20.7012C178.202 22.9688 178.008 25.6934 177.833 28.8574C177.639 32.0391 177.551 35.0449 177.586 37.9102C177.604 40.7754 177.815 42.8672 178.237 44.2031C178.272 44.3086 178.254 44.3965 178.219 44.4844C178.184 44.5723 178.114 44.625 178.008 44.6602C177.973 44.6777 177.938 44.6777 177.903 44.6777ZM178.061 47.5605C177.938 47.5605 177.85 47.5078 177.762 47.4023C177.71 47.2969 177.692 47.209 177.71 47.1035C177.604 47.0859 177.534 47.0332 177.463 46.9453C177.411 46.8574 177.393 46.7695 177.411 46.6641C177.428 46.5762 177.481 46.5059 177.569 46.4531C177.797 46.2949 178.026 46.1895 178.272 46.1191C178.518 46.0488 178.729 46.0664 178.905 46.207C179.01 46.3125 179.063 46.4355 179.045 46.5762C179.028 46.8398 178.764 47.1387 178.254 47.4902C178.184 47.543 178.131 47.5605 178.061 47.5605Z" fill="#FCB454"/>
<path d="M139.656 40.6699L139.642 40.7689L139.649 40.7699H139.656V40.6699ZM139.128 40.3184L139.042 40.3701L139.048 40.3784L139.128 40.3184ZM139.023 40.1074L139.118 40.0757L139.114 40.067L139.023 40.1074ZM138.285 35.502L138.384 35.4951L138.384 35.4943L138.285 35.502ZM138.144 27.75L138.244 27.7531L138.244 27.7524L138.144 27.75ZM140.833 14.2324L140.757 14.1674L140.753 14.1728L140.833 14.2324ZM143.048 13.3535L143.018 13.449L143.026 13.4514L143.034 13.4525L143.048 13.3535ZM143.435 13.5117L143.495 13.4314L143.488 13.4269L143.435 13.5117ZM143.804 13.9688L143.896 13.9279L143.894 13.924L143.804 13.9688ZM142.24 24.3926L142.335 24.4222L142.335 24.4217L142.24 24.3926ZM140.201 30.4746L140.107 30.4405L140.107 30.4408L140.201 30.4746ZM138.882 34.0078L138.79 33.9702L138.781 33.9909L138.782 34.0132L138.882 34.0078ZM139.427 39.1055L139.329 39.1257L139.526 39.1198L139.427 39.1055ZM140.359 34.6758L140.456 34.7012L140.456 34.7005L140.359 34.6758ZM142.046 30.5449L141.966 30.4852L141.963 30.4901L142.046 30.5449ZM143.312 29.6309L143.299 29.5317L143.296 29.5321L143.312 29.6309ZM144.015 29.8418L143.948 29.9158L143.948 29.9161L144.015 29.8418ZM144.683 31.5645L144.783 31.5541L144.782 31.5518L144.683 31.5645ZM144.859 34.4648H144.959L144.959 34.4633L144.859 34.4648ZM144.929 36.2227L144.829 36.2282L144.829 36.2284L144.929 36.2227ZM145.509 38.6309L145.472 38.7237L145.482 38.7277L145.493 38.7295L145.509 38.6309ZM146.687 37.9805L146.76 38.0485L146.761 38.0472L146.687 37.9805ZM149.236 33.8848L149.15 33.833L149.145 33.8427L149.236 33.8848ZM149.429 33.709L149.397 33.614L149.392 33.6161L149.429 33.709ZM149.71 33.709L149.762 33.6232L149.755 33.6191L149.748 33.6161L149.71 33.709ZM149.886 33.9199L149.788 33.9395L149.79 33.9485L149.793 33.9571L149.886 33.9199ZM149.886 34.1836L149.978 34.223L149.979 34.2207L149.886 34.1836ZM148.919 36.0469L149.007 36.0957L149.007 36.0951L148.919 36.0469ZM147.232 38.4199L147.306 38.4869L147.306 38.4868L147.232 38.4199ZM145.316 39.3164L145.279 39.4095L145.289 39.4133L145.299 39.415L145.316 39.3164ZM144.138 34.4824L144.238 34.481L144.238 34.4804L144.138 34.4824ZM143.558 30.3867L143.631 30.3186L143.629 30.316L143.558 30.3867ZM143.417 30.334V30.234H143.406L143.396 30.2364L143.417 30.334ZM142.081 31.8809L141.991 31.8389L141.99 31.841L142.081 31.8809ZM140.253 38.4199L140.352 38.4375L140.352 38.4372L140.253 38.4199ZM140.025 40.2656H140.125L140.125 40.2585L140.025 40.2656ZM139.919 40.5469L139.991 40.618L139.997 40.6093L139.919 40.5469ZM140.851 15.5156L140.762 15.4689L140.76 15.4733L140.851 15.5156ZM139.111 22.9863L139.011 22.9768L139.011 22.9774L139.111 22.9863ZM138.812 32.1797L138.712 32.1826L138.905 32.2155L138.812 32.1797ZM142.996 18.6621L142.898 18.6411L142.898 18.6413L142.996 18.6621ZM143.189 14.2852L143.282 14.2459L143.275 14.2337L143.189 14.2852ZM142.89 14.0391L142.845 14.1285L142.866 14.1391H142.89V14.0391ZM139.67 40.5709C139.557 40.5548 139.471 40.5241 139.402 40.4688L139.277 40.625C139.384 40.7103 139.508 40.7499 139.642 40.7689L139.67 40.5709ZM139.402 40.4688C139.324 40.4067 139.26 40.3274 139.208 40.2584L139.048 40.3784C139.102 40.45 139.179 40.5464 139.277 40.625L139.402 40.4688ZM139.214 40.2669C139.163 40.181 139.132 40.1181 139.118 40.0758L138.928 40.139C138.949 40.2022 138.989 40.28 139.043 40.3698L139.214 40.2669ZM139.114 40.067C138.953 39.7011 138.809 39.1357 138.687 38.369C138.564 37.6039 138.463 36.6448 138.384 35.4951L138.185 35.5088C138.264 36.6619 138.365 37.6275 138.489 38.4006C138.613 39.1719 138.759 39.7579 138.931 40.1478L139.114 40.067ZM138.384 35.4943C138.209 33.1957 138.156 30.6153 138.244 27.7531L138.044 27.7469C137.956 30.6152 138.009 33.2028 138.185 35.5096L138.384 35.4943ZM138.244 27.7524C138.314 24.8742 138.577 22.2071 138.998 19.7159L138.801 19.6826C138.379 22.1835 138.114 24.8601 138.044 27.7476L138.244 27.7524ZM138.998 19.7159C139.419 17.2259 140.066 15.4336 140.914 14.292L140.753 14.1728C139.878 15.3516 139.224 17.1803 138.801 19.6826L138.998 19.7159ZM140.91 14.2973C141.306 13.8317 141.694 13.5659 142.055 13.4676L142.002 13.2746C141.59 13.3872 141.169 13.684 140.757 14.1676L140.91 14.2973ZM142.055 13.4676C142.428 13.3659 142.759 13.368 143.018 13.449L143.078 13.2581C142.775 13.1633 142.403 13.1653 142.002 13.2746L142.055 13.4676ZM143.034 13.4525C143.138 13.4674 143.248 13.5127 143.382 13.5965L143.488 13.4269C143.341 13.335 143.204 13.2748 143.062 13.2545L143.034 13.4525ZM143.375 13.5917C143.502 13.6873 143.616 13.8156 143.715 14.0135L143.894 13.924C143.782 13.7 143.649 13.547 143.495 13.4317L143.375 13.5917ZM143.713 14.0095C143.89 14.4049 143.981 14.9387 143.983 15.6192C143.985 16.2988 143.898 17.1185 143.723 18.0817L143.92 18.1175C144.097 17.1471 144.185 16.3145 144.183 15.6186C144.181 14.9236 144.088 14.3587 143.895 13.928L143.713 14.0095ZM143.723 18.0817C143.373 20.0103 142.829 22.1157 142.144 24.3634L142.335 24.4217C143.022 22.1694 143.568 20.0561 143.92 18.1175L143.723 18.0817ZM142.144 24.363C141.442 26.629 140.756 28.649 140.107 30.4405L140.295 30.5087C140.946 28.7143 141.632 26.6913 142.335 24.4222L142.144 24.363ZM140.107 30.4408C139.456 32.2511 139.017 33.4097 138.79 33.9702L138.975 34.0455C139.204 33.481 139.644 32.3192 140.295 30.5084L140.107 30.4408ZM138.782 34.0132C138.906 36.3002 139.099 38.011 139.329 39.1257L139.525 39.0853C139.298 37.985 139.105 36.2857 138.982 34.0024L138.782 34.0132ZM139.526 39.1198C139.701 37.9113 139.999 36.4385 140.456 34.7012L140.262 34.6504C139.804 36.3936 139.505 37.8739 139.328 39.0911L139.526 39.1198ZM140.456 34.7005C140.893 32.985 141.47 31.6074 142.13 30.5997L141.963 30.4901C141.287 31.5215 140.703 32.9212 140.262 34.6511L140.456 34.7005ZM142.127 30.6045C142.523 30.0707 142.924 29.7942 143.328 29.7296L143.296 29.5321C142.821 29.6082 142.379 29.9293 141.966 30.4853L142.127 30.6045ZM143.325 29.73C143.562 29.6984 143.778 29.7613 143.948 29.9158L144.082 29.7678C143.866 29.5708 143.589 29.493 143.299 29.5317L143.325 29.73ZM143.948 29.9161C144.271 30.2071 144.479 30.7555 144.584 31.5771L144.782 31.5518C144.676 30.7211 144.462 30.1093 144.082 29.7675L143.948 29.9161ZM144.584 31.5748C144.671 32.4162 144.741 33.3624 144.759 34.4664L144.959 34.4633C144.941 33.3524 144.871 32.4002 144.783 31.5541L144.584 31.5748ZM144.759 34.4648C144.759 35.0132 144.794 35.5966 144.829 36.2282L145.029 36.2171C144.994 35.5831 144.959 35.0063 144.959 34.4648H144.759ZM144.829 36.2284C144.865 36.8453 144.918 37.3953 145.007 37.8587L145.203 37.821C145.116 37.3703 145.064 36.8305 145.029 36.217L144.829 36.2284ZM145.007 37.8587C145.052 38.0924 145.111 38.2828 145.185 38.4263C145.259 38.5685 145.353 38.6759 145.472 38.7237L145.546 38.538C145.49 38.5155 145.426 38.4559 145.363 38.3345C145.301 38.2143 145.246 38.0443 145.203 37.821L145.007 37.8587ZM145.493 38.7295C145.68 38.7607 145.883 38.7123 146.093 38.5978C146.303 38.4833 146.527 38.2995 146.76 38.0485L146.614 37.9124C146.39 38.1536 146.183 38.3214 145.998 38.4222C145.812 38.5231 145.655 38.5538 145.526 38.5322L145.493 38.7295ZM146.761 38.0472C147.223 37.5323 147.684 36.9119 148.144 36.1514L147.972 36.0479C147.518 36.799 147.065 37.4091 146.612 37.9137L146.761 38.0472ZM148.144 36.1514C148.603 35.3922 148.991 34.6506 149.327 33.9268L149.145 33.8427C148.813 34.5603 148.427 35.2953 147.972 36.0479L148.144 36.1514ZM149.322 33.9362C149.366 33.8616 149.404 33.8268 149.466 33.8018L149.392 33.6161C149.279 33.6615 149.211 33.7322 149.15 33.8333L149.322 33.9362ZM149.461 33.8039C149.548 33.7748 149.611 33.7769 149.673 33.8018L149.748 33.6161C149.634 33.5707 149.521 33.5729 149.398 33.6141L149.461 33.8039ZM149.659 33.7947C149.737 33.8418 149.779 33.8925 149.788 33.9395L149.984 33.9003C149.958 33.7716 149.859 33.6817 149.762 33.6232L149.659 33.7947ZM149.793 33.9571C149.819 34.0211 149.819 34.0824 149.793 34.1465L149.979 34.2207C150.024 34.109 150.024 33.9945 149.979 33.8828L149.793 33.9571ZM149.794 34.1442C149.638 34.508 149.307 35.1363 148.832 35.9986L149.007 36.0951C149.481 35.2348 149.818 34.5975 149.978 34.223L149.794 34.1442ZM148.832 35.998C148.343 36.8709 147.785 37.6558 147.158 38.353L147.306 38.4868C147.944 37.7778 148.511 36.9807 149.007 36.0957L148.832 35.998ZM147.158 38.3529C146.519 39.0602 145.918 39.3154 145.332 39.2178L145.299 39.415C145.979 39.5283 146.644 39.221 147.306 38.4869L147.158 38.3529ZM145.352 39.2233C144.911 39.05 144.604 38.5695 144.465 37.6837L144.268 37.7147C144.41 38.622 144.736 39.1961 145.279 39.4095L145.352 39.2233ZM144.465 37.6837C144.326 36.7937 144.256 35.7266 144.238 34.481L144.038 34.4838C144.056 35.7343 144.126 36.8118 144.268 37.7147L144.465 37.6837ZM144.238 34.4804C144.22 33.6178 144.185 32.7717 144.115 31.9601L143.915 31.9774C143.986 32.783 144.021 33.6244 144.038 34.4845L144.238 34.4804ZM144.115 31.9601C144.079 31.5518 144.021 31.2108 143.942 30.9388C143.863 30.6682 143.761 30.458 143.631 30.3187L143.485 30.4548C143.584 30.5616 143.675 30.738 143.75 30.9948C143.824 31.2501 143.881 31.5771 143.915 31.9774L144.115 31.9601ZM143.629 30.316C143.571 30.2579 143.49 30.234 143.417 30.234V30.434C143.45 30.434 143.475 30.4453 143.487 30.4574L143.629 30.316ZM143.396 30.2364C143.13 30.2955 142.884 30.4705 142.654 30.7392C142.424 31.0081 142.204 31.3775 141.991 31.839L142.172 31.9228C142.381 31.4702 142.592 31.1189 142.806 30.8692C143.02 30.6194 143.23 30.478 143.439 30.4316L143.396 30.2364ZM141.99 31.841C141.583 32.7779 141.212 33.8551 140.895 35.0724L141.088 35.1229C141.404 33.9144 141.771 32.8471 142.173 31.9207L141.99 31.841ZM140.895 35.0724C140.578 36.2874 140.331 37.3975 140.155 38.4026L140.352 38.4372C140.527 37.4385 140.773 36.3337 141.088 35.1229L140.895 35.0724ZM140.155 38.4023C140.067 38.8956 140.005 39.2975 139.967 39.6076C139.93 39.9153 139.916 40.1392 139.925 40.2727L140.125 40.2585C140.117 40.146 140.129 39.9392 140.166 39.6317C140.203 39.3265 140.264 38.9286 140.352 38.4375L140.155 38.4023ZM139.925 40.2656C139.925 40.3448 139.9 40.4112 139.841 40.4844L139.997 40.6093C140.08 40.5068 140.125 40.3974 140.125 40.2656H139.925ZM139.849 40.4762C139.789 40.5356 139.725 40.5699 139.656 40.5699V40.7699C139.797 40.7699 139.909 40.6988 139.99 40.6176L139.849 40.4762ZM142.574 13.8863C142.332 13.8863 142.065 14.0058 141.763 14.2012L141.872 14.3691C142.168 14.1778 142.393 14.0863 142.574 14.0863V13.8863ZM141.763 14.2012C141.443 14.4083 141.1 14.8305 140.763 15.4689L140.939 15.5623C141.27 14.9351 141.595 14.5487 141.872 14.3691L141.763 14.2012ZM140.76 15.4733C139.892 17.3334 139.311 19.8421 139.011 22.9768L139.21 22.9958C139.509 19.8727 140.087 17.3892 140.942 15.5579L140.76 15.4733ZM139.011 22.9774C138.73 26.1099 138.624 29.1724 138.712 32.1826L138.912 32.1768C138.824 29.1752 138.929 26.1206 139.21 22.9953L139.011 22.9774ZM138.905 32.2155C139.627 30.3323 140.383 28.1332 141.192 25.6363L141.002 25.5747C140.194 28.0699 139.438 30.2653 138.719 32.1439L138.905 32.2155ZM141.192 25.6363C142.002 23.1377 142.635 20.8315 143.093 18.683L142.898 18.6413C142.442 20.7817 141.81 23.0811 141.002 25.5747L141.192 25.6363ZM143.093 18.6831C143.322 17.6167 143.455 16.7143 143.489 15.9772C143.522 15.242 143.457 14.662 143.281 14.2463L143.097 14.3241C143.255 14.6993 143.322 15.2443 143.289 15.9681C143.256 16.69 143.126 17.5806 142.898 18.6411L143.093 18.6831ZM143.275 14.2337C143.222 14.1453 143.159 14.0573 143.086 14.0086L142.975 14.175C143.008 14.1966 143.051 14.2493 143.103 14.3366L143.275 14.2337ZM143.086 14.0086C143.024 13.9671 142.952 13.9391 142.89 13.9391V14.1391C142.893 14.1391 142.903 14.14 142.92 14.1462C142.936 14.1521 142.955 14.1616 142.975 14.175L143.086 14.0086ZM142.935 13.9496C142.844 13.904 142.719 13.8863 142.574 13.8863V14.0863C142.709 14.0863 142.796 14.1038 142.845 14.1285L142.935 13.9496ZM150.8 39.0527L150.777 39.1502L150.781 39.151L150.8 39.0527ZM150.272 33.1816L150.183 33.1374L150.182 33.1374L150.272 33.1816ZM153.594 31.5293L153.673 31.4668L153.67 31.4638L153.594 31.5293ZM153.471 33.6562L153.379 33.6176L153.378 33.6196L153.471 33.6562ZM151.52 35.8359L151.559 35.9282L151.559 35.9281L151.52 35.8359ZM150.096 36.1875V36.0875H150.014L149.998 36.1679L150.096 36.1875ZM150.219 37.7344L150.125 37.766L150.125 37.7671L150.219 37.7344ZM156.759 33.8848L156.672 33.8351L156.671 33.8364L156.759 33.8848ZM157.233 33.7441L157.178 33.8275L157.184 33.831L157.233 33.7441ZM157.374 34.2363L157.461 34.2848L157.468 34.2733L157.471 34.2606L157.374 34.2363ZM150.202 35.502L150.104 35.4795L150.076 35.602H150.202V35.502ZM152.68 33.832L152.767 33.8821L152.771 33.8745L152.774 33.8662L152.68 33.832ZM152.821 33.4453L152.916 33.4797L152.918 33.4696L152.821 33.4453ZM152.874 33.2871L152.963 33.3318L152.974 33.3107V33.2871H152.874ZM152.909 33.1992L152.98 33.2699L152.994 33.2551L153.002 33.2357L152.909 33.1992ZM152.311 31.8984L152.33 31.9971L152.339 31.9946L152.311 31.8984ZM151.134 33.0762L151.048 33.0247L151.047 33.0263L151.134 33.0762ZM151.626 39.0406C151.353 39.0406 151.096 39.0066 150.818 38.9544L150.781 39.151C151.066 39.2044 151.336 39.2406 151.626 39.2406V39.0406ZM150.823 38.9554C150.363 38.8468 150.026 38.607 149.802 38.2403C149.575 37.8704 149.458 37.3635 149.458 36.7148H149.258C149.258 37.3846 149.378 37.9323 149.631 38.3447C149.885 38.7602 150.269 39.0301 150.777 39.1501L150.823 38.9554ZM149.458 36.7148C149.458 35.6083 149.752 34.4632 150.362 33.2259L150.182 33.1374C149.562 34.3961 149.258 35.5714 149.258 36.7148H149.458ZM150.362 33.2259C151.026 31.8811 151.773 31.2426 152.628 31.2426V31.0426C151.654 31.0426 150.855 31.7751 150.183 33.1374L150.362 33.2259ZM152.628 31.2426C153.011 31.2426 153.314 31.3587 153.519 31.5948L153.67 31.4638C153.418 31.1725 153.052 31.0426 152.628 31.0426V31.2426ZM153.516 31.5918C153.643 31.75 153.723 31.9566 153.723 32.1973H153.923C153.923 31.9106 153.827 31.6601 153.673 31.4668L153.516 31.5918ZM153.723 32.1973C153.723 32.6183 153.605 33.0791 153.379 33.6176L153.564 33.6949C153.795 33.1436 153.923 32.6551 153.923 32.1973H153.723ZM153.378 33.6196C152.964 34.6733 152.33 35.3875 151.482 35.7437L151.559 35.9281C152.469 35.5461 153.135 34.7837 153.564 33.6929L153.378 33.6196ZM151.482 35.7437C150.942 35.9698 150.482 36.0875 150.096 36.0875V36.2875C150.52 36.2875 151.008 36.1591 151.559 35.9282L151.482 35.7437ZM149.998 36.1679C149.962 36.3516 149.944 36.5518 149.944 36.8027H150.144C150.144 36.5615 150.161 36.375 150.194 36.2071L149.998 36.1679ZM149.944 36.8027C149.944 37.1164 150.017 37.4442 150.125 37.766L150.314 37.7028C150.211 37.3918 150.144 37.0867 150.144 36.8027H149.944ZM150.125 37.7671C150.305 38.2866 150.839 38.5199 151.608 38.5199V38.3199C150.865 38.3199 150.451 38.0962 150.314 37.7017L150.125 37.7671ZM151.608 38.5199C153.444 38.5199 155.175 36.9587 156.846 33.9331L156.671 33.8364C155.002 36.8577 153.323 38.3199 151.608 38.3199V38.5199ZM156.845 33.9344C156.9 33.838 156.975 33.7914 157.075 33.7914V33.5914C156.894 33.5914 156.757 33.6855 156.672 33.8352L156.845 33.9344ZM157.075 33.7914C157.104 33.7914 157.138 33.8009 157.178 33.8273L157.289 33.6609C157.223 33.6171 157.151 33.5914 157.075 33.5914V33.7914ZM157.184 33.831C157.274 33.8826 157.309 33.954 157.309 34.043H157.509C157.509 33.8858 157.438 33.7463 157.283 33.6573L157.184 33.831ZM157.309 34.043C157.309 34.0805 157.296 34.137 157.277 34.2121L157.471 34.2606C157.487 34.1951 157.509 34.1109 157.509 34.043H157.309ZM157.286 34.1879C155.478 37.4525 153.588 39.0406 151.626 39.0406V39.2406C153.706 39.2406 155.648 37.5592 157.461 34.2848L157.286 34.1879ZM150.202 35.602C150.339 35.602 150.508 35.568 150.703 35.5099C150.899 35.4514 151.126 35.3665 151.383 35.2604L151.306 35.0756C151.053 35.1804 150.832 35.2625 150.646 35.3182C150.458 35.3744 150.31 35.402 150.202 35.402V35.602ZM151.383 35.2604C151.921 35.0376 152.375 34.5596 152.767 33.8821L152.594 33.7819C152.213 34.4404 151.787 34.8765 151.306 35.0756L151.383 35.2604ZM152.774 33.8662L152.915 33.4795L152.727 33.4111L152.586 33.7979L152.774 33.8662ZM152.918 33.4696C152.935 33.4015 152.951 33.3571 152.963 33.3318L152.784 33.2424C152.762 33.2874 152.742 33.3485 152.724 33.4211L152.918 33.4696ZM152.974 33.2871C152.974 33.2856 152.974 33.2815 152.977 33.276C152.978 33.2735 152.979 33.2714 152.98 33.2701C152.981 33.2685 152.981 33.2687 152.98 33.2699L152.838 33.1285C152.803 33.1636 152.774 33.2237 152.774 33.2871H152.974ZM153.002 33.2357C153.16 32.8324 153.255 32.5173 153.255 32.2852H153.055C153.055 32.4749 152.974 32.7575 152.816 33.1628L153.002 33.2357ZM153.255 32.2852C153.255 32.1226 153.203 31.9853 153.089 31.8914C152.978 31.8006 152.824 31.7633 152.645 31.7633V31.9633C152.801 31.9633 152.901 31.9963 152.962 32.0461C153.019 32.0928 153.055 32.1665 153.055 32.2852H153.255ZM152.645 31.7633C152.54 31.7633 152.422 31.7628 152.284 31.8023L152.339 31.9946C152.447 31.9637 152.539 31.9633 152.645 31.9633V31.7633ZM152.293 31.8002C152.08 31.8407 151.874 31.9747 151.671 32.1797C151.468 32.3854 151.261 32.6697 151.048 33.0247L151.219 33.1276C151.428 32.7796 151.626 32.5102 151.813 32.3203C152.002 32.1298 152.173 32.0265 152.33 31.9967L152.293 31.8002ZM151.047 33.0263C150.637 33.7387 150.317 34.5566 150.104 35.4795L150.299 35.5244C150.508 34.6192 150.821 33.8199 151.22 33.126L151.047 33.0263ZM162.207 38.9297L162.252 38.8402L162.248 38.8387L162.207 38.9297ZM161.645 37.5586L161.545 37.5562L161.545 37.5562L161.645 37.5586ZM161.996 34.6582L161.898 34.6386L161.898 34.6411L161.996 34.6582ZM162.26 33.0234L162.359 33.0389L162.359 33.0362L162.26 33.0234ZM162.26 31.9336L162.353 31.8965L162.342 31.8704L162.32 31.8536L162.26 31.9336ZM161.188 31.916L161.161 31.8194L161.155 31.8215L161.188 31.916ZM159.676 32.0215L159.654 32.1193L159.66 32.1202L159.676 32.0215ZM159.236 31.8809L159.271 31.7872L159.186 31.755L159.146 31.8379L159.236 31.8809ZM158.621 33.1289L158.532 33.0842L158.531 33.0863L158.621 33.1289ZM158.164 34.0781L158.25 34.1298L158.254 34.1209L158.164 34.0781ZM157.689 34.2363L157.638 34.3221L157.645 34.3262L157.652 34.3292L157.689 34.2363ZM157.514 34.0254L157.612 34.009L157.611 33.9983L157.607 33.9883L157.514 34.0254ZM157.531 33.7617L157.617 33.8133L157.621 33.8064L157.531 33.7617ZM157.971 32.8477L157.9 32.7769L157.889 32.7884L157.881 32.8029L157.971 32.8477ZM157.988 32.8125L157.9 32.7665L157.888 32.7881V32.8125H157.988ZM158.621 31.5117L158.712 31.5531L158.742 31.4872L158.689 31.4381L158.621 31.5117ZM157.971 29.9121L157.871 29.9076L157.871 29.9095L157.971 29.9121ZM158.27 28.8398L158.184 28.7876L158.181 28.7933L158.27 28.8398ZM159.008 28.2598L159.025 28.3582L159.032 28.357L159.039 28.3546L159.008 28.2598ZM159.254 28.2598L159.237 28.3584L159.24 28.3588L159.254 28.2598ZM159.605 28.4531L159.54 28.5291L159.541 28.5299L159.605 28.4531ZM159.904 28.9453L159.999 28.9128L159.998 28.9094L159.904 28.9453ZM159.535 31.2305L159.444 31.1885L159.4 31.2842L159.498 31.3233L159.535 31.2305ZM159.834 31.3359L159.802 31.4308L159.811 31.4339L159.821 31.4351L159.834 31.3359ZM161.029 31.2305L161.005 31.1333L161 31.1348L161.029 31.2305ZM161.908 31.1074V31.2076L161.914 31.2072L161.908 31.1074ZM162.752 31.4238L162.82 31.3499L162.814 31.3457L162.752 31.4238ZM163.016 32.5312L163.115 32.5379L163.115 32.5377L163.016 32.5312ZM162.699 34.7637L162.797 34.7824L162.798 34.7819L162.699 34.7637ZM162.488 36.082L162.389 36.0684L162.389 36.0688L162.488 36.082ZM162.348 37.5234L162.448 37.5276L162.448 37.5274L162.348 37.5234ZM162.488 38.2793L162.433 38.3625L162.447 38.3721L162.464 38.3763L162.488 38.2793ZM162.77 38.2441L162.809 38.3361L162.813 38.3344L162.77 38.2441ZM164.158 37.084L164.083 37.0178L164.083 37.018L164.158 37.084ZM165.6 35.2734L165.681 35.3316L165.682 35.33L165.6 35.2734ZM166.408 33.9199L166.322 33.868L166.317 33.8798L166.408 33.9199ZM166.883 33.7266L166.92 33.6336L166.914 33.6317L166.883 33.7266ZM167.076 33.9199L167.169 33.8828L167.166 33.8753L167.162 33.8685L167.076 33.9199ZM167.076 34.1836L167.169 34.2217L167.169 34.2207L167.076 34.1836ZM166.215 35.625L166.297 35.6825L166.297 35.6815L166.215 35.625ZM164.668 37.5762L164.594 37.5086L164.593 37.5096L164.668 37.5762ZM163.033 38.8945L163.07 38.9875L163.074 38.9858L163.033 38.8945ZM159.096 28.9453L159.166 28.8746L159.123 28.8309L159.064 28.8504L159.096 28.9453ZM158.85 29.2441L158.763 29.1924L158.759 29.2028L158.85 29.2441ZM158.674 29.9473L158.574 29.9348V29.9473H158.674ZM158.727 30.3516L158.824 30.3299L158.824 30.3273L158.727 30.3516ZM158.938 30.8086L158.858 30.8686L158.96 31.0056L159.029 30.8488L158.938 30.8086ZM159.236 29.1914L159.139 29.2158L159.142 29.2244L159.236 29.1914ZM159.166 29.0508L159.077 29.0955L159.084 29.11L159.095 29.1215L159.166 29.0508ZM162.559 38.9C162.444 38.9 162.338 38.8834 162.252 38.8402L162.162 39.0191C162.287 39.0815 162.427 39.1 162.559 39.1V38.9ZM162.248 38.8387C161.919 38.6891 161.727 38.2893 161.745 37.561L161.545 37.5562C161.527 38.3044 161.721 38.8187 162.166 39.0207L162.248 38.8387ZM161.745 37.561C161.762 36.8479 161.884 35.887 162.095 34.6753L161.898 34.6411C161.686 35.8552 161.562 36.8279 161.545 37.5562L161.745 37.561ZM162.094 34.6778C162.2 34.1477 162.271 33.5978 162.359 33.0389L162.161 33.008C162.073 33.5741 162.003 34.114 161.898 34.6386L162.094 34.6778ZM162.359 33.0362C162.394 32.7614 162.413 32.5283 162.413 32.3401C162.413 32.1547 162.395 32.0027 162.353 31.8965L162.167 31.9707C162.195 32.0403 162.212 32.1608 162.212 32.3401C162.212 32.5166 162.195 32.7406 162.161 33.0106L162.359 33.0362ZM162.32 31.8536C162.192 31.7578 162.028 31.7151 161.837 31.7128C161.646 31.7104 161.42 31.748 161.161 31.8196L161.214 32.0124C161.464 31.9434 161.67 31.9107 161.834 31.9127C161.999 31.9148 162.117 31.9512 162.2 32.0136L162.32 31.8536ZM161.155 31.8215C160.716 31.9736 160.223 32.0084 159.692 31.9228L159.66 32.1202C160.219 32.2103 160.745 32.1749 161.22 32.0105L161.155 31.8215ZM159.697 31.9239C159.547 31.8905 159.413 31.8402 159.271 31.7872L159.201 31.9745C159.341 32.027 159.488 32.0822 159.654 32.1191L159.697 31.9239ZM159.146 31.8379C158.971 32.206 158.76 32.6269 158.532 33.0842L158.711 33.1736C158.939 32.7168 159.15 32.294 159.327 31.9239L159.146 31.8379ZM158.531 33.0863C158.388 33.3899 158.235 33.6939 158.074 34.0353L158.254 34.1209C158.409 33.7944 158.573 33.4656 158.712 33.1715L158.531 33.0863ZM158.078 34.0267C158.038 34.0931 157.987 34.1328 157.916 34.1611L157.99 34.3468C158.095 34.3047 158.184 34.2389 158.25 34.1296L158.078 34.0267ZM157.916 34.1611C157.864 34.182 157.806 34.1751 157.727 34.1435L157.652 34.3292C157.749 34.3679 157.867 34.3961 157.99 34.3468L157.916 34.1611ZM157.741 34.1506C157.656 34.0995 157.622 34.0671 157.612 34.009L157.415 34.0418C157.44 34.1946 157.547 34.2677 157.638 34.3221L157.741 34.1506ZM157.607 33.9883C157.581 33.9251 157.583 33.8705 157.617 33.8132L157.446 33.7103C157.374 33.8287 157.376 33.9499 157.421 34.0625L157.607 33.9883ZM157.621 33.8064C157.7 33.6471 157.776 33.4879 157.848 33.3341C157.921 33.1801 157.99 33.0318 158.06 32.8924L157.881 32.8029C157.81 32.9448 157.739 33.0953 157.667 33.2489C157.595 33.4028 157.52 33.56 157.442 33.717L157.621 33.8064ZM158.041 32.9184C158.045 32.9147 158.051 32.9093 158.055 32.9041C158.06 32.8987 158.069 32.8888 158.076 32.8748C158.09 32.8449 158.088 32.8137 158.088 32.8125H157.888C157.888 32.815 157.888 32.8158 157.888 32.8163C157.888 32.8168 157.888 32.8153 157.889 32.813C157.889 32.8069 157.891 32.7966 157.897 32.7854C157.899 32.7804 157.902 32.7767 157.903 32.7742C157.905 32.7719 157.906 32.7705 157.907 32.7703C157.907 32.7702 157.906 32.7705 157.905 32.7718C157.904 32.7731 157.902 32.7746 157.9 32.7769L158.041 32.9184ZM158.077 32.8585C158.324 32.3823 158.536 31.9413 158.712 31.5531L158.53 31.4703C158.355 31.8556 158.145 32.2935 157.9 32.7665L158.077 32.8585ZM158.689 31.4381C158.272 31.0542 158.054 30.5551 158.071 29.9147L157.871 29.9095C157.852 30.6051 158.092 31.1606 158.553 31.5853L158.689 31.4381ZM158.071 29.9166C158.087 29.5462 158.188 29.2089 158.358 28.8864L158.181 28.7933C157.999 29.1388 157.889 29.5046 157.871 29.9076L158.071 29.9166ZM158.355 28.892C158.54 28.5894 158.765 28.4042 159.025 28.3582L158.99 28.1613C158.653 28.2208 158.386 28.4575 158.184 28.7877L158.355 28.892ZM159.039 28.3546C159.068 28.3451 159.136 28.3415 159.237 28.3584L159.27 28.1611C159.161 28.1429 159.053 28.1393 158.976 28.1649L159.039 28.3546ZM159.24 28.3588C159.333 28.3721 159.42 28.4256 159.54 28.5291L159.671 28.3772C159.545 28.2697 159.421 28.1826 159.268 28.1608L159.24 28.3588ZM159.541 28.5299C159.627 28.6011 159.725 28.7572 159.811 28.9812L159.998 28.9094C159.908 28.6764 159.795 28.4809 159.669 28.3763L159.541 28.5299ZM159.81 28.9778C159.99 29.5032 159.88 30.2467 159.444 31.1885L159.626 31.2725C160.069 30.3158 160.205 29.5124 159.999 28.9128L159.81 28.9778ZM159.498 31.3233C159.589 31.3598 159.698 31.3959 159.802 31.4308L159.866 31.2411C159.759 31.2056 159.657 31.1715 159.572 31.1376L159.498 31.3233ZM159.821 31.4351C160.24 31.4898 160.641 31.4531 161.058 31.3261L161 31.1348C160.609 31.2539 160.236 31.2876 159.847 31.2368L159.821 31.4351ZM161.054 31.3275C161.331 31.2582 161.621 31.2074 161.908 31.2074V31.0074C161.598 31.0074 161.291 31.0621 161.005 31.1335L161.054 31.3275ZM161.914 31.2072C162.18 31.1916 162.437 31.3002 162.689 31.5019L162.814 31.3457C162.539 31.1256 162.234 30.9881 161.902 31.0076L161.914 31.2072ZM162.684 31.4975C162.859 31.658 162.951 31.9849 162.916 32.5248L163.115 32.5377C163.151 31.9878 163.066 31.5764 162.82 31.3501L162.684 31.4975ZM162.916 32.5246C162.881 33.0463 162.776 33.7978 162.601 34.7455L162.798 34.7819C162.974 33.8311 163.08 33.0709 163.115 32.5379L162.916 32.5246ZM162.601 34.745C162.53 35.1163 162.46 35.5575 162.389 36.0684L162.587 36.0957C162.658 35.5871 162.728 35.1494 162.797 34.7824L162.601 34.745ZM162.389 36.0688C162.319 36.597 162.266 37.0753 162.248 37.5194L162.448 37.5274C162.465 37.0927 162.517 36.6217 162.587 36.0952L162.389 36.0688ZM162.248 37.5193C162.239 37.7342 162.247 37.914 162.274 38.0518C162.287 38.1208 162.305 38.1823 162.329 38.2336C162.353 38.2843 162.386 38.3313 162.433 38.3625L162.544 38.1961C162.538 38.1921 162.525 38.1798 162.51 38.1481C162.495 38.117 162.481 38.0731 162.47 38.0146C162.448 37.8975 162.439 37.7345 162.448 37.5276L162.248 37.5193ZM162.464 38.3763C162.558 38.3997 162.668 38.3965 162.809 38.3361L162.73 38.1522C162.625 38.1972 162.56 38.1941 162.513 38.1823L162.464 38.3763ZM162.813 38.3344C163.234 38.1328 163.719 37.7351 164.233 37.15L164.083 37.018C163.578 37.593 163.114 37.9687 162.726 38.1539L162.813 38.3344ZM164.233 37.1501C164.763 36.55 165.24 35.9496 165.681 35.3316L165.518 35.2153C165.081 35.8277 164.608 36.4227 164.083 37.0178L164.233 37.1501ZM165.682 35.33C166.105 34.7131 166.373 34.2499 166.5 33.96L166.317 33.8798C166.197 34.1524 165.938 34.6033 165.517 35.2169L165.682 35.33ZM166.494 33.9714C166.545 33.8861 166.583 33.8415 166.639 33.8194L166.564 33.6337C166.444 33.6819 166.377 33.778 166.322 33.8685L166.494 33.9714ZM166.639 33.8194C166.701 33.7945 166.764 33.7924 166.851 33.8214L166.914 33.6317C166.791 33.5904 166.678 33.5883 166.564 33.6337L166.639 33.8194ZM166.846 33.8194C166.901 33.8415 166.939 33.8861 166.99 33.9714L167.162 33.8685C167.108 33.778 167.041 33.6819 166.92 33.6337L166.846 33.8194ZM166.983 33.9571C167.009 34.0211 167.009 34.0824 166.983 34.1465L167.169 34.2207C167.214 34.109 167.214 33.9945 167.169 33.8828L166.983 33.9571ZM166.984 34.1455C166.865 34.4337 166.589 34.9007 166.132 35.5685L166.297 35.6815C166.754 35.0134 167.041 34.5312 167.169 34.2217L166.984 34.1455ZM166.133 35.5675C165.678 36.2157 165.17 36.88 164.594 37.5086L164.742 37.6437C165.326 37.0067 165.838 36.335 166.297 35.6825L166.133 35.5675ZM164.593 37.5096C164.018 38.1548 163.484 38.5828 162.992 38.8033L163.074 38.9858C163.602 38.7492 164.158 38.2984 164.743 37.6427L164.593 37.5096ZM162.996 38.8017C162.828 38.8688 162.683 38.9 162.559 38.9V39.1C162.716 39.1 162.887 39.0609 163.07 38.9874L162.996 38.8017ZM159.064 28.8504C159.033 28.8609 159.006 28.8806 158.984 28.8994C158.961 28.9192 158.938 28.9439 158.915 28.9717C158.869 29.0275 158.818 29.1024 158.764 29.1927L158.935 29.2956C158.987 29.2101 159.032 29.1444 159.07 29.0991C159.088 29.0764 159.104 29.0604 159.116 29.05C159.129 29.0386 159.132 29.0385 159.127 29.0402L159.064 28.8504ZM158.759 29.2028C158.665 29.4091 158.61 29.6488 158.575 29.9349L158.773 29.9597C158.808 29.6832 158.859 29.4659 158.941 29.2855L158.759 29.2028ZM158.574 29.9473C158.574 30.0793 158.593 30.228 158.63 30.3758L158.824 30.3273C158.79 30.1938 158.774 30.0614 158.774 29.9473H158.574ZM158.629 30.3733C158.667 30.545 158.743 30.7163 158.858 30.8686L159.017 30.7486C158.921 30.6196 158.856 30.4745 158.824 30.3299L158.629 30.3733ZM159.029 30.8488C159.189 30.4843 159.298 30.1603 159.35 29.88C159.402 29.6005 159.4 29.357 159.331 29.1584L159.142 29.2244C159.195 29.3774 159.202 29.5821 159.153 29.8432C159.105 30.1034 159.002 30.4122 158.846 30.7684L159.029 30.8488ZM159.333 29.1672C159.313 29.0868 159.289 29.0326 159.237 28.9801L159.095 29.1215C159.113 29.1393 159.124 29.1554 159.139 29.2157L159.333 29.1672ZM159.255 29.0061C159.247 28.9891 159.237 28.9689 159.226 28.9506C159.217 28.9336 159.203 28.9108 159.184 28.8922L159.043 29.0336C159.042 29.0326 159.045 29.0361 159.053 29.0499C159.06 29.0624 159.067 29.0773 159.077 29.0955L159.255 29.0061ZM159.184 28.8922L159.166 28.8746L159.025 29.016L159.043 29.0336L159.184 28.8922ZM168.06 39.0527L168.037 39.1502L168.041 39.151L168.06 39.0527ZM167.532 33.1816L167.443 33.1374L167.443 33.1374L167.532 33.1816ZM170.855 31.5293L170.933 31.4668L170.93 31.4638L170.855 31.5293ZM170.732 33.6562L170.639 33.6176L170.639 33.6196L170.732 33.6562ZM168.781 35.8359L168.819 35.9282L168.819 35.9281L168.781 35.8359ZM167.357 36.1875V36.0875H167.275L167.259 36.1679L167.357 36.1875ZM167.48 37.7344L167.385 37.766L167.385 37.7671L167.48 37.7344ZM174.019 33.8848L173.932 33.8351L173.931 33.8364L174.019 33.8848ZM174.493 33.7441L174.438 33.8275L174.444 33.831L174.493 33.7441ZM174.634 34.2363L174.722 34.2848L174.728 34.2733L174.731 34.2606L174.634 34.2363ZM167.462 35.502L167.365 35.4795L167.336 35.602H167.462V35.502ZM169.941 33.832L170.027 33.8821L170.032 33.8745L170.035 33.8662L169.941 33.832ZM170.081 33.4453L170.176 33.4797L170.178 33.4696L170.081 33.4453ZM170.134 33.2871L170.224 33.3318L170.234 33.3107V33.2871H170.134ZM170.169 33.1992L170.24 33.2699L170.255 33.2551L170.262 33.2357L170.169 33.1992ZM169.572 31.8984L169.59 31.9971L169.599 31.9946L169.572 31.8984ZM168.394 33.0762L168.308 33.0247L168.307 33.0263L168.394 33.0762ZM168.886 39.0406C168.613 39.0406 168.356 39.0066 168.078 38.9544L168.041 39.151C168.326 39.2044 168.596 39.2406 168.886 39.2406V39.0406ZM168.083 38.9554C167.623 38.8468 167.286 38.607 167.062 38.2403C166.835 37.8704 166.718 37.3635 166.718 36.7148H166.518C166.518 37.3846 166.639 37.9323 166.891 38.3447C167.146 38.7602 167.529 39.0301 168.037 39.1501L168.083 38.9554ZM166.718 36.7148C166.718 35.6083 167.012 34.4632 167.622 33.2259L167.443 33.1374C166.822 34.3961 166.518 35.5714 166.518 36.7148H166.718ZM167.622 33.2259C168.286 31.8811 169.034 31.2426 169.888 31.2426V31.0426C168.914 31.0426 168.115 31.7751 167.443 33.1374L167.622 33.2259ZM169.888 31.2426C170.272 31.2426 170.575 31.3587 170.779 31.5948L170.93 31.4638C170.678 31.1725 170.313 31.0426 169.888 31.0426V31.2426ZM170.777 31.5918C170.903 31.75 170.983 31.9566 170.983 32.1973H171.183C171.183 31.9106 171.087 31.6601 170.933 31.4668L170.777 31.5918ZM170.983 32.1973C170.983 32.6183 170.865 33.0791 170.639 33.6176L170.824 33.6949C171.055 33.1436 171.183 32.6551 171.183 32.1973H170.983ZM170.639 33.6196C170.224 34.6733 169.59 35.3875 168.742 35.7437L168.819 35.9281C169.729 35.5461 170.396 34.7837 170.825 33.6929L170.639 33.6196ZM168.742 35.7437C168.203 35.9698 167.742 36.0875 167.357 36.0875V36.2875C167.78 36.2875 168.269 36.1591 168.819 35.9282L168.742 35.7437ZM167.259 36.1679C167.222 36.3516 167.204 36.5518 167.204 36.8027H167.404C167.404 36.5615 167.421 36.375 167.455 36.2071L167.259 36.1679ZM167.204 36.8027C167.204 37.1164 167.278 37.4442 167.385 37.766L167.575 37.7028C167.471 37.3918 167.404 37.0867 167.404 36.8027H167.204ZM167.385 37.7671C167.565 38.2866 168.1 38.5199 168.868 38.5199V38.3199C168.126 38.3199 167.711 38.0962 167.574 37.7017L167.385 37.7671ZM168.868 38.5199C170.705 38.5199 172.435 36.9587 174.106 33.9331L173.931 33.8364C172.263 36.8577 170.583 38.3199 168.868 38.3199V38.5199ZM174.106 33.9344C174.161 33.838 174.235 33.7914 174.335 33.7914V33.5914C174.154 33.5914 174.018 33.6855 173.932 33.8352L174.106 33.9344ZM174.335 33.7914C174.365 33.7914 174.398 33.8009 174.438 33.8273L174.549 33.6609C174.483 33.6171 174.411 33.5914 174.335 33.5914V33.7914ZM174.444 33.831C174.534 33.8826 174.569 33.954 174.569 34.043H174.769C174.769 33.8858 174.699 33.7463 174.543 33.6573L174.444 33.831ZM174.569 34.043C174.569 34.0805 174.556 34.137 174.537 34.2121L174.731 34.2606C174.747 34.1951 174.769 34.1109 174.769 34.043H174.569ZM174.547 34.1879C172.739 37.4525 170.848 39.0406 168.886 39.0406V39.2406C170.967 39.2406 172.908 37.5592 174.722 34.2848L174.547 34.1879ZM167.462 35.602C167.6 35.602 167.769 35.568 167.963 35.5099C168.159 35.4514 168.387 35.3665 168.643 35.2604L168.567 35.0756C168.313 35.1804 168.093 35.2625 167.906 35.3182C167.718 35.3744 167.571 35.402 167.462 35.402V35.602ZM168.643 35.2604C169.181 35.0376 169.635 34.5596 170.027 33.8821L169.854 33.7819C169.473 34.4404 169.048 34.8765 168.567 35.0756L168.643 35.2604ZM170.035 33.8662L170.175 33.4795L169.987 33.4111L169.847 33.7979L170.035 33.8662ZM170.178 33.4696C170.195 33.4015 170.211 33.3571 170.224 33.3318L170.045 33.2424C170.022 33.2874 170.002 33.3485 169.984 33.4211L170.178 33.4696ZM170.234 33.2871C170.234 33.2856 170.235 33.2815 170.237 33.276C170.238 33.2735 170.239 33.2714 170.24 33.2701C170.241 33.2685 170.241 33.2687 170.24 33.2699L170.099 33.1285C170.063 33.1636 170.034 33.2237 170.034 33.2871H170.234ZM170.262 33.2357C170.42 32.8324 170.515 32.5173 170.515 32.2852H170.315C170.315 32.4749 170.235 32.7575 170.076 33.1628L170.262 33.2357ZM170.515 32.2852C170.515 32.1226 170.463 31.9853 170.349 31.8914C170.238 31.8006 170.084 31.7633 169.906 31.7633V31.9633C170.061 31.9633 170.162 31.9963 170.222 32.0461C170.279 32.0928 170.315 32.1665 170.315 32.2852H170.515ZM169.906 31.7633C169.8 31.7633 169.682 31.7628 169.544 31.8023L169.599 31.9946C169.707 31.9637 169.8 31.9633 169.906 31.9633V31.7633ZM169.553 31.8002C169.34 31.8407 169.134 31.9747 168.931 32.1797C168.728 32.3854 168.521 32.6697 168.308 33.0247L168.48 33.1276C168.688 32.7796 168.886 32.5102 169.074 32.3203C169.262 32.1298 169.434 32.0265 169.59 31.9967L169.553 31.8002ZM168.307 33.0263C167.898 33.7387 167.578 34.5566 167.365 35.4795L167.56 35.5244C167.769 34.6192 168.082 33.8199 168.481 33.126L168.307 33.0263ZM177.569 44.4492L177.473 44.4799L177.478 44.4898L177.569 44.4492ZM176.866 38.1387L176.766 38.1393L176.766 38.1399L176.866 38.1387ZM177.094 29.1562L177.194 29.1618V29.1618L177.094 29.1562ZM177.657 20.9473L177.557 20.9381L177.557 20.939L177.657 20.9473ZM178.026 16.9922L178.125 17.0078L178.126 17V16.9922H178.026ZM178.149 16.7637L178.209 16.8437L178.215 16.8394L178.22 16.8344L178.149 16.7637ZM178.413 16.6758L178.432 16.5777L178.423 16.5758H178.413V16.6758ZM178.641 16.8164L178.555 16.8679L178.562 16.8784L178.57 16.8871L178.641 16.8164ZM178.729 17.0625L178.829 17.0736V17.0625H178.729ZM177.833 28.8574L177.932 28.8635L177.932 28.863L177.833 28.8574ZM177.586 37.9102L177.686 37.9095L177.686 37.9089L177.586 37.9102ZM178.237 44.2031L178.142 44.2332L178.142 44.2347L178.237 44.2031ZM178.008 44.6602L177.977 44.5653L177.97 44.5675L177.964 44.5707L178.008 44.6602ZM177.762 47.4023L177.673 47.4471L177.678 47.4574L177.685 47.4664L177.762 47.4023ZM177.71 47.1035L177.808 47.12L177.825 47.0213L177.726 47.0049L177.71 47.1035ZM177.463 46.9453L177.377 46.9972L177.385 47.0078L177.463 46.9453ZM177.411 46.6641L177.313 46.6444L177.312 46.6476L177.411 46.6641ZM177.569 46.4531L177.62 46.5391L177.626 46.5353L177.569 46.4531ZM178.905 46.207L178.976 46.1359L178.967 46.1289L178.905 46.207ZM179.045 46.5762L178.946 46.5637L178.946 46.5695L179.045 46.5762ZM178.254 47.4902L178.198 47.4078L178.194 47.4102L178.254 47.4902ZM177.903 44.5777C177.839 44.5777 177.794 44.5638 177.759 44.5401C177.724 44.5161 177.69 44.4759 177.66 44.4086L177.478 44.4898C177.518 44.5807 177.572 44.6548 177.647 44.7055C177.722 44.7565 177.808 44.7777 177.903 44.7777V44.5777ZM177.664 44.4187C177.229 43.0625 177.001 40.9656 176.966 38.1374L176.766 38.1399C176.801 40.9719 177.029 43.0937 177.474 44.4797L177.664 44.4187ZM176.966 38.1381C176.948 35.2925 177.018 32.3063 177.194 29.1618L176.994 29.1507C176.819 32.2992 176.748 35.2895 176.766 38.1393L176.966 38.1381ZM177.194 29.1618C177.37 25.9986 177.563 23.2749 177.756 20.9556L177.557 20.939C177.364 23.2602 177.17 25.9858 176.994 29.1507L177.194 29.1618ZM177.756 20.9564C177.968 18.6489 178.073 17.3375 178.125 17.0078L177.927 16.9766C177.874 17.3149 177.768 18.6402 177.557 20.9381L177.756 20.9564ZM178.126 16.9922C178.126 16.942 178.158 16.8816 178.209 16.8437L178.089 16.6837C177.999 16.7512 177.926 16.8666 177.926 16.9922H178.126ZM178.22 16.8344C178.262 16.7919 178.317 16.7758 178.413 16.7758V16.5758C178.297 16.5758 178.176 16.5948 178.078 16.693L178.22 16.8344ZM178.393 16.7738C178.47 16.7893 178.524 16.8158 178.555 16.8679L178.727 16.765C178.653 16.6412 178.531 16.5974 178.432 16.5777L178.393 16.7738ZM178.57 16.8871C178.614 16.9308 178.629 16.9873 178.629 17.0625H178.829C178.829 16.9619 178.809 16.8427 178.712 16.7457L178.57 16.8871ZM178.63 17.0515C178.612 17.2109 178.489 18.4249 178.295 20.6927L178.495 20.7097C178.688 18.4423 178.811 17.2305 178.828 17.0735L178.63 17.0515ZM178.295 20.6927C178.102 22.9614 177.909 25.687 177.733 28.8519L177.932 28.863C178.108 25.6998 178.301 22.9761 178.495 20.7097L178.295 20.6927ZM177.733 28.8514C177.539 32.0349 177.451 35.0433 177.486 37.9114L177.686 37.9089C177.651 35.0466 177.739 32.0432 177.932 28.8635L177.733 28.8514ZM177.486 37.9108C177.504 40.7775 177.715 42.8821 178.142 44.2332L178.332 44.173C177.915 42.8523 177.704 40.7733 177.686 37.9095L177.486 37.9108ZM178.142 44.2347C178.167 44.3097 178.157 44.3719 178.126 44.4472L178.312 44.5215C178.352 44.4211 178.377 44.3074 178.332 44.1715L178.142 44.2347ZM178.126 44.4472C178.106 44.4986 178.065 44.5357 177.977 44.5653L178.04 44.755C178.162 44.7143 178.262 44.646 178.312 44.5215L178.126 44.4472ZM177.964 44.5707C177.953 44.5763 177.941 44.5777 177.903 44.5777V44.7777C177.936 44.7777 177.994 44.7792 178.053 44.7496L177.964 44.5707ZM178.061 47.4605C177.976 47.4605 177.914 47.4284 177.839 47.3383L177.685 47.4664C177.786 47.5872 177.9 47.6605 178.061 47.6605V47.4605ZM177.852 47.3576C177.806 47.267 177.795 47.2005 177.808 47.12L177.611 47.0871C177.589 47.2174 177.613 47.3267 177.673 47.4471L177.852 47.3576ZM177.726 47.0049C177.652 46.9926 177.602 46.9584 177.542 46.8828L177.385 47.0078C177.466 47.108 177.556 47.1793 177.693 47.2022L177.726 47.0049ZM177.549 46.8939C177.509 46.8263 177.496 46.7624 177.509 46.6805L177.312 46.6476C177.291 46.7766 177.313 46.8886 177.378 46.9968L177.549 46.8939ZM177.509 46.6837C177.52 46.6275 177.553 46.5794 177.62 46.5389L177.517 46.3674C177.409 46.4323 177.337 46.5248 177.313 46.6445L177.509 46.6837ZM177.626 46.5353C177.845 46.3835 178.064 46.2826 178.3 46.2153L178.245 46.023C177.988 46.0963 177.75 46.2064 177.512 46.3709L177.626 46.5353ZM178.3 46.2153C178.526 46.1506 178.7 46.1711 178.842 46.2851L178.967 46.1289C178.758 45.9617 178.51 45.947 178.245 46.023L178.3 46.2153ZM178.834 46.2777C178.923 46.3662 178.959 46.4599 178.946 46.5638L179.145 46.5886C179.167 46.4112 179.098 46.2588 178.976 46.1363L178.834 46.2777ZM178.946 46.5695C178.939 46.6707 178.884 46.7912 178.759 46.9346C178.635 47.0773 178.449 47.2345 178.198 47.4079L178.311 47.5726C178.57 47.3944 178.77 47.2264 178.91 47.0659C179.049 46.9061 179.134 46.7453 179.145 46.5828L178.946 46.5695ZM178.194 47.4102C178.139 47.4518 178.107 47.4605 178.061 47.4605V47.6605C178.156 47.6605 178.229 47.6341 178.314 47.5702L178.194 47.4102Z" fill="#FCB454" mask="url(#path-2-outside-1_2817_22031)"/>
<path d="M35.8549 16.084C35.1176 16.084 34.4363 15.9627 33.8109 15.72C33.1856 15.468 32.6443 15.118 32.1869 14.67C31.7296 14.222 31.3703 13.6947 31.1089 13.088C30.8569 12.4813 30.7309 11.8187 30.7309 11.1C30.7309 10.3813 30.8569 9.71867 31.1089 9.112C31.3703 8.50533 31.7296 7.978 32.1869 7.53C32.6536 7.082 33.1996 6.73667 33.8249 6.494C34.4503 6.242 35.1316 6.116 35.8689 6.116C36.5783 6.116 37.2456 6.23733 37.8709 6.48C38.4963 6.71333 39.0236 7.068 39.4529 7.544L38.7949 8.202C38.3936 7.79133 37.9503 7.49733 37.4649 7.32C36.9796 7.13333 36.4569 7.04 35.8969 7.04C35.3089 7.04 34.7629 7.14267 34.2589 7.348C33.7549 7.544 33.3163 7.82867 32.9429 8.202C32.5696 8.566 32.2756 8.99533 32.0609 9.49C31.8556 9.97533 31.7529 10.512 31.7529 11.1C31.7529 11.688 31.8556 12.2293 32.0609 12.724C32.2756 13.2093 32.5696 13.6387 32.9429 14.012C33.3163 14.376 33.7549 14.6607 34.2589 14.866C34.7629 15.062 35.3089 15.16 35.8969 15.16C36.4569 15.16 36.9796 15.0667 37.4649 14.88C37.9503 14.6933 38.3936 14.3947 38.7949 13.984L39.4529 14.642C39.0236 15.118 38.4963 15.4773 37.8709 15.72C37.2456 15.9627 36.5736 16.084 35.8549 16.084ZM50.2294 6.2H51.2514V16H50.2294V6.2ZM44.0974 16H43.0614V6.2H44.0974V16ZM50.3274 11.478H43.9854V10.568H50.3274V11.478ZM60.1341 16.084C59.3968 16.084 58.7108 15.9627 58.0761 15.72C57.4508 15.468 56.9048 15.118 56.4381 14.67C55.9808 14.2127 55.6214 13.6853 55.3601 13.088C55.1081 12.4813 54.9821 11.8187 54.9821 11.1C54.9821 10.3813 55.1081 9.72333 55.3601 9.126C55.6214 8.51933 55.9808 7.992 56.4381 7.544C56.9048 7.08667 57.4508 6.73667 58.0761 6.494C58.7014 6.242 59.3874 6.116 60.1341 6.116C60.8714 6.116 61.5528 6.242 62.1781 6.494C62.8034 6.73667 63.3448 7.082 63.8021 7.53C64.2688 7.978 64.6281 8.50533 64.8801 9.112C65.1414 9.71867 65.2721 10.3813 65.2721 11.1C65.2721 11.8187 65.1414 12.4813 64.8801 13.088C64.6281 13.6947 64.2688 14.222 63.8021 14.67C63.3448 15.118 62.8034 15.468 62.1781 15.72C61.5528 15.9627 60.8714 16.084 60.1341 16.084ZM60.1341 15.16C60.7221 15.16 61.2634 15.062 61.7581 14.866C62.2621 14.6607 62.6961 14.376 63.0601 14.012C63.4334 13.6387 63.7228 13.2093 63.9281 12.724C64.1334 12.2293 64.2361 11.688 64.2361 11.1C64.2361 10.512 64.1334 9.97533 63.9281 9.49C63.7228 8.99533 63.4334 8.566 63.0601 8.202C62.6961 7.82867 62.2621 7.544 61.7581 7.348C61.2634 7.14267 60.7221 7.04 60.1341 7.04C59.5461 7.04 59.0001 7.14267 58.4961 7.348C57.9921 7.544 57.5534 7.82867 57.1801 8.202C56.8161 8.566 56.5268 8.99533 56.3121 9.49C56.1068 9.97533 56.0041 10.512 56.0041 11.1C56.0041 11.6787 56.1068 12.2153 56.3121 12.71C56.5268 13.2047 56.8161 13.6387 57.1801 14.012C57.5534 14.376 57.9921 14.6607 58.4961 14.866C59.0001 15.062 59.5461 15.16 60.1341 15.16ZM73.2782 16.084C72.5409 16.084 71.8549 15.9627 71.2202 15.72C70.5949 15.468 70.0489 15.118 69.5822 14.67C69.1249 14.2127 68.7656 13.6853 68.5042 13.088C68.2522 12.4813 68.1262 11.8187 68.1262 11.1C68.1262 10.3813 68.2522 9.72333 68.5042 9.126C68.7656 8.51933 69.1249 7.992 69.5822 7.544C70.0489 7.08667 70.5949 6.73667 71.2202 6.494C71.8456 6.242 72.5316 6.116 73.2782 6.116C74.0156 6.116 74.6969 6.242 75.3222 6.494C75.9476 6.73667 76.4889 7.082 76.9462 7.53C77.4129 7.978 77.7722 8.50533 78.0242 9.112C78.2856 9.71867 78.4162 10.3813 78.4162 11.1C78.4162 11.8187 78.2856 12.4813 78.0242 13.088C77.7722 13.6947 77.4129 14.222 76.9462 14.67C76.4889 15.118 75.9476 15.468 75.3222 15.72C74.6969 15.9627 74.0156 16.084 73.2782 16.084ZM73.2782 15.16C73.8662 15.16 74.4076 15.062 74.9022 14.866C75.4062 14.6607 75.8402 14.376 76.2042 14.012C76.5776 13.6387 76.8669 13.2093 77.0722 12.724C77.2776 12.2293 77.3802 11.688 77.3802 11.1C77.3802 10.512 77.2776 9.97533 77.0722 9.49C76.8669 8.99533 76.5776 8.566 76.2042 8.202C75.8402 7.82867 75.4062 7.544 74.9022 7.348C74.4076 7.14267 73.8662 7.04 73.2782 7.04C72.6902 7.04 72.1442 7.14267 71.6402 7.348C71.1362 7.544 70.6976 7.82867 70.3242 8.202C69.9602 8.566 69.6709 8.99533 69.4562 9.49C69.2509 9.97533 69.1482 10.512 69.1482 11.1C69.1482 11.6787 69.2509 12.2153 69.4562 12.71C69.6709 13.2047 69.9602 13.6387 70.3242 14.012C70.6976 14.376 71.1362 14.6607 71.6402 14.866C72.1442 15.062 72.6902 15.16 73.2782 15.16ZM84.8404 16.084C84.1124 16.084 83.4124 15.9673 82.7404 15.734C82.0777 15.4913 81.5644 15.1833 81.2004 14.81L81.6064 14.012C81.9517 14.348 82.4137 14.6327 82.9924 14.866C83.5804 15.09 84.1964 15.202 84.8404 15.202C85.4564 15.202 85.9557 15.1273 86.3384 14.978C86.7304 14.8193 87.015 14.6093 87.1924 14.348C87.379 14.0867 87.4724 13.7973 87.4724 13.48C87.4724 13.0973 87.3604 12.7893 87.1364 12.556C86.9217 12.3227 86.637 12.1407 86.2824 12.01C85.9277 11.87 85.5357 11.7487 85.1064 11.646C84.677 11.5433 84.2477 11.436 83.8184 11.324C83.389 11.2027 82.9924 11.044 82.6284 10.848C82.2737 10.652 81.9844 10.3953 81.7604 10.078C81.5457 9.75133 81.4384 9.32667 81.4384 8.804C81.4384 8.31867 81.5644 7.87533 81.8164 7.474C82.0777 7.06333 82.4744 6.73667 83.0064 6.494C83.5384 6.242 84.2197 6.116 85.0504 6.116C85.601 6.116 86.147 6.19533 86.6884 6.354C87.2297 6.50333 87.6964 6.71333 88.0884 6.984L87.7384 7.81C87.3184 7.53 86.8704 7.32467 86.3944 7.194C85.9277 7.06333 85.475 6.998 85.0364 6.998C84.4484 6.998 83.963 7.07733 83.5804 7.236C83.1977 7.39467 82.913 7.60933 82.7264 7.88C82.549 8.14133 82.4604 8.44 82.4604 8.776C82.4604 9.15867 82.5677 9.46667 82.7824 9.7C83.0064 9.93333 83.2957 10.1153 83.6504 10.246C84.0144 10.3767 84.411 10.4933 84.8404 10.596C85.2697 10.6987 85.6944 10.8107 86.1144 10.932C86.5437 11.0533 86.9357 11.212 87.2904 11.408C87.6544 11.5947 87.9437 11.8467 88.1584 12.164C88.3824 12.4813 88.4944 12.8967 88.4944 13.41C88.4944 13.886 88.3637 14.3293 88.1024 14.74C87.841 15.1413 87.4397 15.468 86.8984 15.72C86.3664 15.9627 85.6804 16.084 84.8404 16.084ZM93.0757 10.582H98.2557V11.464H93.0757V10.582ZM93.1877 15.104H99.0817V16H92.1517V6.2H98.8717V7.096H93.1877V15.104ZM110.319 16V12.36L110.557 13.004L106.399 6.2H107.505L111.159 12.178H110.571L114.225 6.2H115.261L111.103 13.004L111.341 12.36V16H110.319ZM122.128 16.084C121.391 16.084 120.705 15.9627 120.07 15.72C119.445 15.468 118.899 15.118 118.432 14.67C117.975 14.2127 117.615 13.6853 117.354 13.088C117.102 12.4813 116.976 11.8187 116.976 11.1C116.976 10.3813 117.102 9.72333 117.354 9.126C117.615 8.51933 117.975 7.992 118.432 7.544C118.899 7.08667 119.445 6.73667 120.07 6.494C120.695 6.242 121.381 6.116 122.128 6.116C122.865 6.116 123.547 6.242 124.172 6.494C124.797 6.73667 125.339 7.082 125.796 7.53C126.263 7.978 126.622 8.50533 126.874 9.112C127.135 9.71867 127.266 10.3813 127.266 11.1C127.266 11.8187 127.135 12.4813 126.874 13.088C126.622 13.6947 126.263 14.222 125.796 14.67C125.339 15.118 124.797 15.468 124.172 15.72C123.547 15.9627 122.865 16.084 122.128 16.084ZM122.128 15.16C122.716 15.16 123.257 15.062 123.752 14.866C124.256 14.6607 124.69 14.376 125.054 14.012C125.427 13.6387 125.717 13.2093 125.922 12.724C126.127 12.2293 126.23 11.688 126.23 11.1C126.23 10.512 126.127 9.97533 125.922 9.49C125.717 8.99533 125.427 8.566 125.054 8.202C124.69 7.82867 124.256 7.544 123.752 7.348C123.257 7.14267 122.716 7.04 122.128 7.04C121.54 7.04 120.994 7.14267 120.49 7.348C119.986 7.544 119.547 7.82867 119.174 8.202C118.81 8.566 118.521 8.99533 118.306 9.49C118.101 9.97533 117.998 10.512 117.998 11.1C117.998 11.6787 118.101 12.2153 118.306 12.71C118.521 13.2047 118.81 13.6387 119.174 14.012C119.547 14.376 119.986 14.6607 120.49 14.866C120.994 15.062 121.54 15.16 122.128 15.16ZM134.936 16.084C133.685 16.084 132.701 15.7247 131.982 15.006C131.263 14.2873 130.904 13.2233 130.904 11.814V6.2H131.94V11.772C131.94 12.9293 132.201 13.7833 132.724 14.334C133.247 14.8847 133.984 15.16 134.936 15.16C135.897 15.16 136.639 14.8847 137.162 14.334C137.685 13.7833 137.946 12.9293 137.946 11.772V6.2H138.954V11.814C138.954 13.2233 138.595 14.2873 137.876 15.006C137.167 15.7247 136.187 16.084 134.936 16.084ZM143.476 16V6.2H147.144C147.975 6.2 148.689 6.33533 149.286 6.606C149.883 6.86733 150.341 7.25 150.658 7.754C150.985 8.24867 151.148 8.85067 151.148 9.56C151.148 10.2507 150.985 10.848 150.658 11.352C150.341 11.8467 149.883 12.2293 149.286 12.5C148.689 12.7613 147.975 12.892 147.144 12.892H144.05L144.512 12.416V16H143.476ZM150.168 16L147.648 12.444H148.768L151.302 16H150.168ZM144.512 12.5L144.05 12.01H147.116C148.096 12.01 148.838 11.7953 149.342 11.366C149.855 10.9367 150.112 10.3347 150.112 9.56C150.112 8.776 149.855 8.16933 149.342 7.74C148.838 7.31067 148.096 7.096 147.116 7.096H144.05L144.512 6.606V12.5Z" fill="#216F6D"/>
</svg>
