<svg width="221" height="73" viewBox="0 0 221 73" fill="none" xmlns="http://www.w3.org/2000/svg">
<path d="M9.12378 53V52.928L9.21978 52.904C9.60378 52.808 9.84378 51.872 9.84378 50.552V40.928C9.84378 39.608 9.60378 38.672 9.21978 38.576L9.12378 38.552V38.48H15.0518C18.1238 38.48 20.1878 39.968 20.1878 42.224C20.1878 44.168 18.6758 45.608 16.2758 46.088C19.4438 46.424 20.4998 47.672 20.4998 49.448C20.4998 51.584 19.1318 53 15.6518 53H9.12378ZM11.5958 46.016H14.3558C16.8038 46.016 18.4358 44.504 18.4358 42.224C18.4358 40.232 17.0918 38.912 15.0518 38.912H11.5958V46.016ZM11.5958 52.568H15.4838C17.9798 52.568 18.6758 51.32 18.6758 49.448C18.6758 47.6 17.3798 46.352 14.0198 46.352H11.5958V52.568ZM22.333 53V52.928C22.861 52.832 23.341 52.064 23.869 50.792L28.693 38.144H29.125L34.429 50.552C35.101 52.136 35.653 52.928 35.917 52.928H36.037V53H32.509V52.928L32.653 52.904C33.109 52.808 33.181 52.088 32.629 50.792L31.789 48.8H25.213L24.469 50.696C24.061 51.968 24.061 52.808 24.517 52.904L24.661 52.928V53H22.333ZM25.357 48.368H31.597L28.309 40.328L25.357 48.368ZM38.1107 53V52.928L38.2067 52.904C38.5907 52.808 38.8307 51.872 38.8307 50.552V40.928C38.8307 39.608 38.5907 38.672 38.2067 38.576L38.1107 38.552V38.48H41.3027V38.552L41.2067 38.576C40.8227 38.672 40.5827 39.608 40.5827 40.928V52.64H44.1107C45.7667 52.64 47.2547 52.088 47.8307 51.344L47.9747 51.128C47.9747 51.128 48.0227 51.152 48.0707 51.2C47.9987 51.752 47.9027 52.472 47.7827 53H38.1107ZM50.766 53V52.928L50.862 52.904C51.246 52.808 51.486 51.872 51.486 50.552V40.928C51.486 39.608 51.246 38.672 50.862 38.576L50.766 38.552V38.48H53.958V38.552L53.862 38.576C53.478 38.672 53.238 39.608 53.238 40.928V52.64H56.766C58.422 52.64 59.91 52.088 60.486 51.344L60.63 51.128C60.63 51.128 60.678 51.152 60.726 51.2C60.654 51.752 60.558 52.472 60.438 53H50.766Z" fill="#5F9392"/>
<path d="M145.704 52.736C145.992 52.808 146.256 52.784 146.28 52.784V53C146.16 53.024 145.152 53.024 144.888 53.024C143.832 53.024 143.16 52.376 142.608 51.512C141.888 50.384 141.096 48.728 139.536 47.96H137.232V50.552C137.232 51.872 137.472 52.808 137.856 52.904L137.952 52.928V53H134.76V52.928L134.856 52.904C135.24 52.808 135.48 51.872 135.48 50.552V40.928C135.48 39.608 135.24 38.672 134.856 38.576L134.76 38.552V38.48H140.76C143.952 38.48 146.064 40.232 146.064 42.872C146.064 46.016 143.928 47.768 140.64 47.936C141.864 48.248 142.752 49.112 143.232 49.808C144.048 50.936 144.312 52.4 145.704 52.736ZM137.232 38.912V47.528H140.064C142.56 47.528 144.24 45.944 144.24 42.872C144.24 40.496 142.848 38.912 140.76 38.912H137.232Z" fill="#F4794D"/>
<path d="M76.7884 53.552C72.1804 53.552 69.0844 50.456 69.0844 45.8C69.0844 41.168 72.1804 38.072 76.7884 38.072C79.6924 38.072 82.0684 39.104 82.7404 40.688L82.6924 42.176H82.6444C81.9964 40.52 80.7244 39.296 79.0684 38.84C78.3724 38.648 77.6044 38.552 76.7884 38.552C73.2604 38.552 70.9804 41.456 70.9804 45.8C70.9804 50.168 73.2604 53.072 76.7884 53.072C79.7644 53.072 81.7564 51.704 82.6924 49.448L82.7404 50.912C82.0444 52.52 79.6684 53.552 76.7884 53.552Z" fill="#FCB454"/>
<path d="M94.1972 53.432C89.0372 53.912 86.0372 50.624 85.7012 46.496C85.3652 42.368 87.7412 38.624 92.9012 38.144C98.0612 37.664 101.061 40.928 101.397 45.056C101.733 49.184 99.3572 52.952 94.1972 53.432ZM94.1492 53C98.0612 52.64 99.7892 49.136 99.4532 45.224C99.1172 41.36 96.8372 38.216 92.9492 38.576C89.0132 38.936 87.2852 42.44 87.6212 46.328C87.9572 50.216 90.2372 53.36 94.1492 53Z" fill="#F9E748"/>
<path d="M104.411 53V52.928L104.507 52.904C104.891 52.808 105.131 51.872 105.131 50.552V40.928C105.131 39.608 104.891 38.672 104.507 38.576L104.411 38.552V38.48H107.603V38.552L107.507 38.576C107.123 38.672 106.883 39.608 106.883 40.928V52.64H110.411C112.067 52.64 113.555 52.088 114.131 51.344L114.275 51.128C114.275 51.128 114.323 51.152 114.371 51.2C114.299 51.752 114.203 52.472 114.083 53H104.411Z" fill="#216F6D"/>
<path d="M124.781 53.432C119.621 53.912 116.621 50.624 116.285 46.496C115.949 42.368 118.325 38.624 123.485 38.144C128.645 37.664 131.645 40.928 131.981 45.056C132.317 49.184 129.941 52.952 124.781 53.432ZM124.733 53C128.645 52.64 130.373 49.136 130.037 45.224C129.701 41.36 127.421 38.216 123.533 38.576C119.597 38.936 117.869 42.44 118.205 46.328C118.541 50.216 120.821 53.36 124.733 53Z" fill="#DEE894"/>
<path d="M154.954 53.432C152.506 53.432 150.562 52.76 149.554 51.44C148.834 50.48 148.786 49.88 149.17 49.496C149.458 49.208 150.058 49.232 150.322 49.52C150.61 49.832 150.61 50.336 150.706 50.696C151.234 52.496 153.298 52.952 154.954 52.952C157.306 52.952 158.842 51.8 158.842 50.048C158.842 48.632 156.778 47.024 154.138 46.304C151.474 45.584 149.242 44.24 149.242 42.416C149.242 39.8 151.378 38.048 154.498 38.048C156.49 38.048 158.338 38.864 159.106 39.968C159.634 40.664 159.922 41.456 159.49 41.84C159.178 42.128 158.698 42.104 158.458 41.84C158.194 41.552 158.314 41 158.074 40.448C157.522 39.248 156.082 38.552 154.45 38.552C152.17 38.552 150.514 39.704 150.514 41.744C150.514 43.448 152.626 44 155.218 44.864C158.074 45.632 160.258 47.432 160.258 49.328C160.258 51.776 158.146 53.432 154.954 53.432Z" fill="#5BD1C3"/>
<path d="M164.721 49.04C164.721 49.04 163.929 41.12 163.929 38.264C163.857 37.568 164.265 37.112 164.721 37.112C165.153 37.112 165.561 37.568 165.513 38.264C165.513 41.12 164.865 49.04 164.865 49.04H164.721ZM164.817 52.736C164.241 52.736 163.833 52.328 163.833 51.728C163.833 51.152 164.241 50.744 164.817 50.744C165.417 50.744 165.825 51.152 165.825 51.728C165.825 52.328 165.417 52.736 164.817 52.736Z" fill="#F04A23"/>
<mask id="path-2-outside-1_2379_14096" maskUnits="userSpaceOnUse" x="178" y="28" width="42" height="35" fill="black">
<rect fill="white" x="178" y="28" width="42" height="35"/>
<path d="M179.656 55.6699C179.533 55.6523 179.427 55.6172 179.339 55.5469C179.251 55.4766 179.181 55.3887 179.128 55.3184C179.076 55.2305 179.04 55.1602 179.023 55.1074C178.689 54.3516 178.443 52.8047 178.285 50.502C178.109 48.1992 178.056 45.6152 178.144 42.75C178.214 39.8672 178.478 37.1953 178.9 34.6992C179.322 32.2031 179.972 30.3926 180.833 29.2324C181.238 28.7578 181.642 28.4766 182.029 28.3711C182.415 28.2656 182.767 28.2656 183.048 28.3535C183.171 28.3711 183.294 28.4238 183.435 28.5117C183.576 28.6172 183.699 28.7578 183.804 28.9688C184.173 29.7949 184.173 31.166 183.822 33.0996C183.47 35.0332 182.925 37.1426 182.24 39.3926C181.537 41.6602 180.851 43.6816 180.201 45.4746C179.55 47.2852 179.111 48.4453 178.882 49.0078C179.005 51.293 179.199 52.998 179.427 54.1055C179.603 52.8926 179.902 51.416 180.359 49.6758C180.798 47.9531 181.378 46.5645 182.046 45.5449C182.451 45 182.872 44.7012 183.312 44.6309C183.576 44.5957 183.822 44.666 184.015 44.8418C184.367 45.1582 184.578 45.7383 184.683 46.5645C184.771 47.4082 184.841 48.3574 184.859 49.4648C184.859 50.0098 184.894 50.5898 184.929 51.2227C184.964 51.8379 185.017 52.3828 185.105 52.8398C185.193 53.2969 185.333 53.5605 185.509 53.6309C185.826 53.6836 186.23 53.4727 186.687 52.9805C187.144 52.4707 187.601 51.8555 188.058 51.0996C188.515 50.3438 188.902 49.6055 189.236 48.8848C189.289 48.7969 189.341 48.7441 189.429 48.709C189.535 48.6738 189.622 48.6738 189.71 48.709C189.798 48.7617 189.869 48.832 189.886 48.9199C189.921 49.0078 189.921 49.0957 189.886 49.1836C189.728 49.5527 189.394 50.1855 188.919 51.0469C188.427 51.9258 187.865 52.7168 187.232 53.4199C186.581 54.1406 185.949 54.4219 185.316 54.3164C184.824 54.123 184.507 53.5957 184.367 52.6992C184.226 51.8027 184.156 50.7305 184.138 49.4824C184.121 48.6211 184.085 47.7773 184.015 46.9688C183.945 46.1602 183.787 45.6328 183.558 45.3867C183.523 45.3516 183.47 45.334 183.417 45.334C182.943 45.4395 182.503 45.9668 182.081 46.8809C181.677 47.8125 181.308 48.8848 180.992 50.0977C180.675 51.3105 180.429 52.418 180.253 53.4199C180.078 54.4043 180.007 55.0195 180.025 55.2656C180.025 55.3711 179.99 55.459 179.919 55.5469C179.849 55.6172 179.761 55.6699 179.656 55.6699ZM182.574 28.9863C182.363 28.9863 182.117 29.0918 181.818 29.2852C181.519 29.4785 181.185 29.8828 180.851 30.5156C179.99 32.3613 179.41 34.8574 179.111 37.9863C178.83 41.1152 178.724 44.1738 178.812 47.1797C179.533 45.2988 180.289 43.1016 181.097 40.6055C181.906 38.1094 182.539 35.8066 182.996 33.6621C183.453 31.5352 183.523 30.0762 183.189 29.2852C183.136 29.1973 183.083 29.127 183.031 29.0918C182.978 29.0566 182.925 29.0391 182.89 29.0391C182.82 29.0039 182.714 28.9863 182.574 28.9863ZM191.626 54.1406C191.344 54.1406 191.081 54.1055 190.8 54.0527C189.833 53.8242 189.358 53.0332 189.358 51.7148C189.358 50.5898 189.657 49.4297 190.272 48.1816C190.94 46.8281 191.714 46.1426 192.628 46.1426C193.032 46.1426 193.366 46.2656 193.594 46.5293C193.735 46.7051 193.823 46.9336 193.823 47.1973C193.823 47.6367 193.7 48.1113 193.471 48.6562C193.05 49.7285 192.399 50.4668 191.52 50.8359C190.975 51.0645 190.501 51.1875 190.096 51.1875C190.061 51.3633 190.044 51.5566 190.044 51.8027C190.044 52.1016 190.114 52.418 190.219 52.7344C190.378 53.1914 190.852 53.4199 191.608 53.4199C193.384 53.4199 195.089 51.9082 196.759 48.8848C196.829 48.7617 196.934 48.6914 197.075 48.6914C197.128 48.6914 197.18 48.709 197.233 48.7441C197.356 48.8145 197.409 48.9199 197.409 49.043C197.409 49.0957 197.391 49.166 197.374 49.2363C195.563 52.5059 193.647 54.1406 191.626 54.1406ZM190.202 50.502C190.448 50.502 190.835 50.3789 191.344 50.168C191.854 49.957 192.294 49.5 192.68 48.832L192.821 48.4453C192.839 48.375 192.856 48.3223 192.874 48.2871C192.874 48.252 192.891 48.2168 192.909 48.1992C193.067 47.7949 193.155 47.4961 193.155 47.2852C193.155 47.0039 192.979 46.8633 192.645 46.8633C192.54 46.8633 192.434 46.8633 192.311 46.8984C191.942 46.9688 191.555 47.373 191.134 48.0762C190.729 48.7793 190.413 49.5879 190.202 50.502ZM202.559 54C202.436 54 202.312 53.9824 202.207 53.9297C201.82 53.7539 201.627 53.2969 201.645 52.5586C201.662 51.8379 201.785 50.8711 201.996 49.6582C202.102 49.1309 202.172 48.5859 202.26 48.0234C202.33 47.4785 202.33 47.1094 202.26 46.9336C202.049 46.7754 201.697 46.7754 201.188 46.916C200.73 47.0742 200.221 47.1094 199.676 47.0215C199.518 46.9863 199.377 46.9336 199.236 46.8809C199.061 47.25 198.85 47.6719 198.621 48.1289C198.48 48.4277 198.322 48.7441 198.164 49.0781C198.111 49.166 198.041 49.2188 197.953 49.2539C197.865 49.2891 197.777 49.2715 197.689 49.2363C197.602 49.1836 197.531 49.1309 197.514 49.0254C197.479 48.9375 197.479 48.8496 197.531 48.7617C197.689 48.4453 197.83 48.1289 197.971 47.8477C197.988 47.8301 197.988 47.8301 197.988 47.8125C198.234 47.3379 198.445 46.8984 198.621 46.5117C198.182 46.1074 197.953 45.5801 197.971 44.9121C197.988 44.5254 198.094 44.1738 198.27 43.8398C198.463 43.5234 198.709 43.3125 199.008 43.2598C199.061 43.2422 199.148 43.2422 199.254 43.2598C199.377 43.2773 199.482 43.3477 199.605 43.4531C199.711 43.541 199.816 43.7168 199.904 43.9453C200.098 44.5078 199.975 45.2812 199.535 46.2305C199.623 46.2656 199.729 46.3008 199.834 46.3359C200.238 46.3887 200.625 46.3535 201.029 46.2305C201.311 46.1602 201.609 46.1074 201.908 46.1074C202.207 46.0898 202.488 46.2129 202.752 46.4238C202.963 46.6172 203.051 46.9863 203.016 47.5312C202.98 48.0586 202.875 48.8145 202.699 49.7637C202.629 50.1328 202.559 50.5723 202.488 51.082C202.418 51.6094 202.365 52.084 202.348 52.5234C202.33 52.9453 202.383 53.209 202.488 53.2793C202.559 53.2969 202.646 53.2969 202.77 53.2441C203.174 53.0508 203.648 52.6641 204.158 52.084C204.686 51.4863 205.16 50.8887 205.6 50.2734C206.021 49.6582 206.285 49.2012 206.408 48.9199C206.461 48.832 206.514 48.7617 206.602 48.7266C206.689 48.6914 206.777 48.6914 206.883 48.7266C206.971 48.7617 207.023 48.832 207.076 48.9199C207.111 49.0078 207.111 49.0957 207.076 49.1836C206.953 49.4824 206.672 49.957 206.215 50.625C205.758 51.2754 205.248 51.9434 204.668 52.5762C204.088 53.2266 203.543 53.666 203.033 53.8945C202.857 53.9648 202.699 54 202.559 54ZM199.096 43.9453C199.043 43.9629 198.955 44.0684 198.85 44.2441C198.762 44.4375 198.709 44.666 198.674 44.9473C198.674 45.0703 198.691 45.2109 198.727 45.3516C198.762 45.5098 198.832 45.668 198.938 45.8086C199.254 45.0879 199.359 44.543 199.236 44.1914C199.219 44.1211 199.201 44.0859 199.166 44.0508C199.148 44.0156 199.131 43.9805 199.113 43.9629L199.096 43.9453ZM208.886 54.1406C208.605 54.1406 208.341 54.1055 208.06 54.0527C207.093 53.8242 206.618 53.0332 206.618 51.7148C206.618 50.5898 206.917 49.4297 207.532 48.1816C208.2 46.8281 208.974 46.1426 209.888 46.1426C210.292 46.1426 210.626 46.2656 210.855 46.5293C210.995 46.7051 211.083 46.9336 211.083 47.1973C211.083 47.6367 210.96 48.1113 210.732 48.6562C210.31 49.7285 209.659 50.4668 208.781 50.8359C208.236 51.0645 207.761 51.1875 207.357 51.1875C207.322 51.3633 207.304 51.5566 207.304 51.8027C207.304 52.1016 207.374 52.418 207.48 52.7344C207.638 53.1914 208.113 53.4199 208.868 53.4199C210.644 53.4199 212.349 51.9082 214.019 48.8848C214.089 48.7617 214.195 48.6914 214.335 48.6914C214.388 48.6914 214.441 48.709 214.493 48.7441C214.616 48.8145 214.669 48.9199 214.669 49.043C214.669 49.0957 214.652 49.166 214.634 49.2363C212.824 52.5059 210.907 54.1406 208.886 54.1406ZM207.462 50.502C207.708 50.502 208.095 50.3789 208.605 50.168C209.115 49.957 209.554 49.5 209.941 48.832L210.081 48.4453C210.099 48.375 210.116 48.3223 210.134 48.2871C210.134 48.252 210.152 48.2168 210.169 48.1992C210.327 47.7949 210.415 47.4961 210.415 47.2852C210.415 47.0039 210.24 46.8633 209.906 46.8633C209.8 46.8633 209.695 46.8633 209.572 46.8984C209.202 46.9688 208.816 47.373 208.394 48.0762C207.99 48.7793 207.673 49.5879 207.462 50.502ZM217.903 59.6777C217.745 59.6777 217.639 59.6074 217.569 59.4492C217.129 58.0781 216.901 55.9688 216.866 53.1387C216.848 50.291 216.919 47.3027 217.094 44.1562C217.27 40.9922 217.463 38.2676 217.657 35.9473C217.868 33.6445 217.973 32.3262 218.026 31.9922C218.026 31.9043 218.079 31.8164 218.149 31.7637C218.219 31.6934 218.307 31.6758 218.413 31.6758C218.501 31.6934 218.588 31.7285 218.641 31.8164C218.711 31.8867 218.729 31.9746 218.729 32.0625C218.711 32.2207 218.588 33.4336 218.395 35.7012C218.202 37.9688 218.008 40.6934 217.833 43.8574C217.639 47.0391 217.551 50.0449 217.586 52.9102C217.604 55.7754 217.815 57.8672 218.237 59.2031C218.272 59.3086 218.254 59.3965 218.219 59.4844C218.184 59.5723 218.114 59.625 218.008 59.6602C217.973 59.6777 217.938 59.6777 217.903 59.6777ZM218.061 62.5605C217.938 62.5605 217.85 62.5078 217.762 62.4023C217.71 62.2969 217.692 62.209 217.71 62.1035C217.604 62.0859 217.534 62.0332 217.463 61.9453C217.411 61.8574 217.393 61.7695 217.411 61.6641C217.428 61.5762 217.481 61.5059 217.569 61.4531C217.797 61.2949 218.026 61.1895 218.272 61.1191C218.518 61.0488 218.729 61.0664 218.905 61.207C219.01 61.3125 219.063 61.4355 219.045 61.5762C219.028 61.8398 218.764 62.1387 218.254 62.4902C218.184 62.543 218.131 62.5605 218.061 62.5605Z"/>
</mask>
<path d="M179.656 55.6699C179.533 55.6523 179.427 55.6172 179.339 55.5469C179.251 55.4766 179.181 55.3887 179.128 55.3184C179.076 55.2305 179.04 55.1602 179.023 55.1074C178.689 54.3516 178.443 52.8047 178.285 50.502C178.109 48.1992 178.056 45.6152 178.144 42.75C178.214 39.8672 178.478 37.1953 178.9 34.6992C179.322 32.2031 179.972 30.3926 180.833 29.2324C181.238 28.7578 181.642 28.4766 182.029 28.3711C182.415 28.2656 182.767 28.2656 183.048 28.3535C183.171 28.3711 183.294 28.4238 183.435 28.5117C183.576 28.6172 183.699 28.7578 183.804 28.9688C184.173 29.7949 184.173 31.166 183.822 33.0996C183.47 35.0332 182.925 37.1426 182.24 39.3926C181.537 41.6602 180.851 43.6816 180.201 45.4746C179.55 47.2852 179.111 48.4453 178.882 49.0078C179.005 51.293 179.199 52.998 179.427 54.1055C179.603 52.8926 179.902 51.416 180.359 49.6758C180.798 47.9531 181.378 46.5645 182.046 45.5449C182.451 45 182.872 44.7012 183.312 44.6309C183.576 44.5957 183.822 44.666 184.015 44.8418C184.367 45.1582 184.578 45.7383 184.683 46.5645C184.771 47.4082 184.841 48.3574 184.859 49.4648C184.859 50.0098 184.894 50.5898 184.929 51.2227C184.964 51.8379 185.017 52.3828 185.105 52.8398C185.193 53.2969 185.333 53.5605 185.509 53.6309C185.826 53.6836 186.23 53.4727 186.687 52.9805C187.144 52.4707 187.601 51.8555 188.058 51.0996C188.515 50.3438 188.902 49.6055 189.236 48.8848C189.289 48.7969 189.341 48.7441 189.429 48.709C189.535 48.6738 189.622 48.6738 189.71 48.709C189.798 48.7617 189.869 48.832 189.886 48.9199C189.921 49.0078 189.921 49.0957 189.886 49.1836C189.728 49.5527 189.394 50.1855 188.919 51.0469C188.427 51.9258 187.865 52.7168 187.232 53.4199C186.581 54.1406 185.949 54.4219 185.316 54.3164C184.824 54.123 184.507 53.5957 184.367 52.6992C184.226 51.8027 184.156 50.7305 184.138 49.4824C184.121 48.6211 184.085 47.7773 184.015 46.9688C183.945 46.1602 183.787 45.6328 183.558 45.3867C183.523 45.3516 183.47 45.334 183.417 45.334C182.943 45.4395 182.503 45.9668 182.081 46.8809C181.677 47.8125 181.308 48.8848 180.992 50.0977C180.675 51.3105 180.429 52.418 180.253 53.4199C180.078 54.4043 180.007 55.0195 180.025 55.2656C180.025 55.3711 179.99 55.459 179.919 55.5469C179.849 55.6172 179.761 55.6699 179.656 55.6699ZM182.574 28.9863C182.363 28.9863 182.117 29.0918 181.818 29.2852C181.519 29.4785 181.185 29.8828 180.851 30.5156C179.99 32.3613 179.41 34.8574 179.111 37.9863C178.83 41.1152 178.724 44.1738 178.812 47.1797C179.533 45.2988 180.289 43.1016 181.097 40.6055C181.906 38.1094 182.539 35.8066 182.996 33.6621C183.453 31.5352 183.523 30.0762 183.189 29.2852C183.136 29.1973 183.083 29.127 183.031 29.0918C182.978 29.0566 182.925 29.0391 182.89 29.0391C182.82 29.0039 182.714 28.9863 182.574 28.9863ZM191.626 54.1406C191.344 54.1406 191.081 54.1055 190.8 54.0527C189.833 53.8242 189.358 53.0332 189.358 51.7148C189.358 50.5898 189.657 49.4297 190.272 48.1816C190.94 46.8281 191.714 46.1426 192.628 46.1426C193.032 46.1426 193.366 46.2656 193.594 46.5293C193.735 46.7051 193.823 46.9336 193.823 47.1973C193.823 47.6367 193.7 48.1113 193.471 48.6562C193.05 49.7285 192.399 50.4668 191.52 50.8359C190.975 51.0645 190.501 51.1875 190.096 51.1875C190.061 51.3633 190.044 51.5566 190.044 51.8027C190.044 52.1016 190.114 52.418 190.219 52.7344C190.378 53.1914 190.852 53.4199 191.608 53.4199C193.384 53.4199 195.089 51.9082 196.759 48.8848C196.829 48.7617 196.934 48.6914 197.075 48.6914C197.128 48.6914 197.18 48.709 197.233 48.7441C197.356 48.8145 197.409 48.9199 197.409 49.043C197.409 49.0957 197.391 49.166 197.374 49.2363C195.563 52.5059 193.647 54.1406 191.626 54.1406ZM190.202 50.502C190.448 50.502 190.835 50.3789 191.344 50.168C191.854 49.957 192.294 49.5 192.68 48.832L192.821 48.4453C192.839 48.375 192.856 48.3223 192.874 48.2871C192.874 48.252 192.891 48.2168 192.909 48.1992C193.067 47.7949 193.155 47.4961 193.155 47.2852C193.155 47.0039 192.979 46.8633 192.645 46.8633C192.54 46.8633 192.434 46.8633 192.311 46.8984C191.942 46.9688 191.555 47.373 191.134 48.0762C190.729 48.7793 190.413 49.5879 190.202 50.502ZM202.559 54C202.436 54 202.312 53.9824 202.207 53.9297C201.82 53.7539 201.627 53.2969 201.645 52.5586C201.662 51.8379 201.785 50.8711 201.996 49.6582C202.102 49.1309 202.172 48.5859 202.26 48.0234C202.33 47.4785 202.33 47.1094 202.26 46.9336C202.049 46.7754 201.697 46.7754 201.188 46.916C200.73 47.0742 200.221 47.1094 199.676 47.0215C199.518 46.9863 199.377 46.9336 199.236 46.8809C199.061 47.25 198.85 47.6719 198.621 48.1289C198.48 48.4277 198.322 48.7441 198.164 49.0781C198.111 49.166 198.041 49.2188 197.953 49.2539C197.865 49.2891 197.777 49.2715 197.689 49.2363C197.602 49.1836 197.531 49.1309 197.514 49.0254C197.479 48.9375 197.479 48.8496 197.531 48.7617C197.689 48.4453 197.83 48.1289 197.971 47.8477C197.988 47.8301 197.988 47.8301 197.988 47.8125C198.234 47.3379 198.445 46.8984 198.621 46.5117C198.182 46.1074 197.953 45.5801 197.971 44.9121C197.988 44.5254 198.094 44.1738 198.27 43.8398C198.463 43.5234 198.709 43.3125 199.008 43.2598C199.061 43.2422 199.148 43.2422 199.254 43.2598C199.377 43.2773 199.482 43.3477 199.605 43.4531C199.711 43.541 199.816 43.7168 199.904 43.9453C200.098 44.5078 199.975 45.2812 199.535 46.2305C199.623 46.2656 199.729 46.3008 199.834 46.3359C200.238 46.3887 200.625 46.3535 201.029 46.2305C201.311 46.1602 201.609 46.1074 201.908 46.1074C202.207 46.0898 202.488 46.2129 202.752 46.4238C202.963 46.6172 203.051 46.9863 203.016 47.5312C202.98 48.0586 202.875 48.8145 202.699 49.7637C202.629 50.1328 202.559 50.5723 202.488 51.082C202.418 51.6094 202.365 52.084 202.348 52.5234C202.33 52.9453 202.383 53.209 202.488 53.2793C202.559 53.2969 202.646 53.2969 202.77 53.2441C203.174 53.0508 203.648 52.6641 204.158 52.084C204.686 51.4863 205.16 50.8887 205.6 50.2734C206.021 49.6582 206.285 49.2012 206.408 48.9199C206.461 48.832 206.514 48.7617 206.602 48.7266C206.689 48.6914 206.777 48.6914 206.883 48.7266C206.971 48.7617 207.023 48.832 207.076 48.9199C207.111 49.0078 207.111 49.0957 207.076 49.1836C206.953 49.4824 206.672 49.957 206.215 50.625C205.758 51.2754 205.248 51.9434 204.668 52.5762C204.088 53.2266 203.543 53.666 203.033 53.8945C202.857 53.9648 202.699 54 202.559 54ZM199.096 43.9453C199.043 43.9629 198.955 44.0684 198.85 44.2441C198.762 44.4375 198.709 44.666 198.674 44.9473C198.674 45.0703 198.691 45.2109 198.727 45.3516C198.762 45.5098 198.832 45.668 198.938 45.8086C199.254 45.0879 199.359 44.543 199.236 44.1914C199.219 44.1211 199.201 44.0859 199.166 44.0508C199.148 44.0156 199.131 43.9805 199.113 43.9629L199.096 43.9453ZM208.886 54.1406C208.605 54.1406 208.341 54.1055 208.06 54.0527C207.093 53.8242 206.618 53.0332 206.618 51.7148C206.618 50.5898 206.917 49.4297 207.532 48.1816C208.2 46.8281 208.974 46.1426 209.888 46.1426C210.292 46.1426 210.626 46.2656 210.855 46.5293C210.995 46.7051 211.083 46.9336 211.083 47.1973C211.083 47.6367 210.96 48.1113 210.732 48.6562C210.31 49.7285 209.659 50.4668 208.781 50.8359C208.236 51.0645 207.761 51.1875 207.357 51.1875C207.322 51.3633 207.304 51.5566 207.304 51.8027C207.304 52.1016 207.374 52.418 207.48 52.7344C207.638 53.1914 208.113 53.4199 208.868 53.4199C210.644 53.4199 212.349 51.9082 214.019 48.8848C214.089 48.7617 214.195 48.6914 214.335 48.6914C214.388 48.6914 214.441 48.709 214.493 48.7441C214.616 48.8145 214.669 48.9199 214.669 49.043C214.669 49.0957 214.652 49.166 214.634 49.2363C212.824 52.5059 210.907 54.1406 208.886 54.1406ZM207.462 50.502C207.708 50.502 208.095 50.3789 208.605 50.168C209.115 49.957 209.554 49.5 209.941 48.832L210.081 48.4453C210.099 48.375 210.116 48.3223 210.134 48.2871C210.134 48.252 210.152 48.2168 210.169 48.1992C210.327 47.7949 210.415 47.4961 210.415 47.2852C210.415 47.0039 210.24 46.8633 209.906 46.8633C209.8 46.8633 209.695 46.8633 209.572 46.8984C209.202 46.9688 208.816 47.373 208.394 48.0762C207.99 48.7793 207.673 49.5879 207.462 50.502ZM217.903 59.6777C217.745 59.6777 217.639 59.6074 217.569 59.4492C217.129 58.0781 216.901 55.9688 216.866 53.1387C216.848 50.291 216.919 47.3027 217.094 44.1562C217.27 40.9922 217.463 38.2676 217.657 35.9473C217.868 33.6445 217.973 32.3262 218.026 31.9922C218.026 31.9043 218.079 31.8164 218.149 31.7637C218.219 31.6934 218.307 31.6758 218.413 31.6758C218.501 31.6934 218.588 31.7285 218.641 31.8164C218.711 31.8867 218.729 31.9746 218.729 32.0625C218.711 32.2207 218.588 33.4336 218.395 35.7012C218.202 37.9688 218.008 40.6934 217.833 43.8574C217.639 47.0391 217.551 50.0449 217.586 52.9102C217.604 55.7754 217.815 57.8672 218.237 59.2031C218.272 59.3086 218.254 59.3965 218.219 59.4844C218.184 59.5723 218.114 59.625 218.008 59.6602C217.973 59.6777 217.938 59.6777 217.903 59.6777ZM218.061 62.5605C217.938 62.5605 217.85 62.5078 217.762 62.4023C217.71 62.2969 217.692 62.209 217.71 62.1035C217.604 62.0859 217.534 62.0332 217.463 61.9453C217.411 61.8574 217.393 61.7695 217.411 61.6641C217.428 61.5762 217.481 61.5059 217.569 61.4531C217.797 61.2949 218.026 61.1895 218.272 61.1191C218.518 61.0488 218.729 61.0664 218.905 61.207C219.01 61.3125 219.063 61.4355 219.045 61.5762C219.028 61.8398 218.764 62.1387 218.254 62.4902C218.184 62.543 218.131 62.5605 218.061 62.5605Z" fill="#FCB454"/>
<path d="M179.656 55.6699L179.642 55.7689L179.649 55.7699H179.656V55.6699ZM179.128 55.3184L179.042 55.3701L179.048 55.3784L179.128 55.3184ZM179.023 55.1074L179.118 55.0757L179.114 55.067L179.023 55.1074ZM178.285 50.502L178.384 50.4951L178.384 50.4943L178.285 50.502ZM178.144 42.75L178.244 42.7531L178.244 42.7524L178.144 42.75ZM180.833 29.2324L180.757 29.1674L180.753 29.1728L180.833 29.2324ZM183.048 28.3535L183.018 28.449L183.026 28.4514L183.034 28.4525L183.048 28.3535ZM183.435 28.5117L183.495 28.4314L183.488 28.4269L183.435 28.5117ZM183.804 28.9688L183.896 28.9279L183.894 28.924L183.804 28.9688ZM182.24 39.3926L182.335 39.4222L182.335 39.4217L182.24 39.3926ZM180.201 45.4746L180.107 45.4405L180.107 45.4408L180.201 45.4746ZM178.882 49.0078L178.79 48.9702L178.781 48.9909L178.782 49.0132L178.882 49.0078ZM179.427 54.1055L179.329 54.1257L179.526 54.1198L179.427 54.1055ZM180.359 49.6758L180.456 49.7012L180.456 49.7005L180.359 49.6758ZM182.046 45.5449L181.966 45.4852L181.963 45.4901L182.046 45.5449ZM183.312 44.6309L183.299 44.5317L183.296 44.5321L183.312 44.6309ZM184.015 44.8418L183.948 44.9158L183.948 44.9161L184.015 44.8418ZM184.683 46.5645L184.783 46.5541L184.782 46.5518L184.683 46.5645ZM184.859 49.4648H184.959L184.959 49.4633L184.859 49.4648ZM184.929 51.2227L184.829 51.2282L184.829 51.2284L184.929 51.2227ZM185.509 53.6309L185.472 53.7237L185.482 53.7277L185.493 53.7295L185.509 53.6309ZM186.687 52.9805L186.76 53.0485L186.761 53.0472L186.687 52.9805ZM189.236 48.8848L189.15 48.833L189.145 48.8427L189.236 48.8848ZM189.429 48.709L189.397 48.614L189.392 48.6161L189.429 48.709ZM189.71 48.709L189.762 48.6232L189.755 48.6191L189.748 48.6161L189.71 48.709ZM189.886 48.9199L189.788 48.9395L189.79 48.9485L189.793 48.9571L189.886 48.9199ZM189.886 49.1836L189.978 49.223L189.979 49.2207L189.886 49.1836ZM188.919 51.0469L189.007 51.0957L189.007 51.0951L188.919 51.0469ZM187.232 53.4199L187.306 53.4869L187.306 53.4868L187.232 53.4199ZM185.316 54.3164L185.279 54.4095L185.289 54.4133L185.299 54.415L185.316 54.3164ZM184.138 49.4824L184.238 49.481L184.238 49.4804L184.138 49.4824ZM183.558 45.3867L183.631 45.3186L183.629 45.316L183.558 45.3867ZM183.417 45.334V45.234H183.406L183.396 45.2364L183.417 45.334ZM182.081 46.8809L181.991 46.8389L181.99 46.841L182.081 46.8809ZM180.253 53.4199L180.352 53.4375L180.352 53.4372L180.253 53.4199ZM180.025 55.2656H180.125L180.125 55.2585L180.025 55.2656ZM179.919 55.5469L179.991 55.618L179.997 55.6093L179.919 55.5469ZM180.851 30.5156L180.762 30.4689L180.76 30.4733L180.851 30.5156ZM179.111 37.9863L179.011 37.9768L179.011 37.9774L179.111 37.9863ZM178.812 47.1797L178.712 47.1826L178.905 47.2155L178.812 47.1797ZM182.996 33.6621L182.898 33.6411L182.898 33.6413L182.996 33.6621ZM183.189 29.2852L183.282 29.2459L183.275 29.2337L183.189 29.2852ZM182.89 29.0391L182.845 29.1285L182.866 29.1391H182.89V29.0391ZM179.67 55.5709C179.557 55.5548 179.471 55.5241 179.402 55.4688L179.277 55.625C179.384 55.7103 179.508 55.7499 179.642 55.7689L179.67 55.5709ZM179.402 55.4688C179.324 55.4067 179.26 55.3274 179.208 55.2584L179.048 55.3784C179.102 55.45 179.179 55.5464 179.277 55.625L179.402 55.4688ZM179.214 55.2669C179.163 55.181 179.132 55.1181 179.118 55.0758L178.928 55.139C178.949 55.2022 178.989 55.28 179.043 55.3698L179.214 55.2669ZM179.114 55.067C178.953 54.7011 178.809 54.1357 178.687 53.369C178.564 52.6039 178.463 51.6448 178.384 50.4951L178.185 50.5088C178.264 51.6619 178.365 52.6275 178.489 53.4006C178.613 54.1719 178.759 54.7579 178.931 55.1478L179.114 55.067ZM178.384 50.4943C178.209 48.1957 178.156 45.6153 178.244 42.7531L178.044 42.7469C177.956 45.6152 178.009 48.2028 178.185 50.5096L178.384 50.4943ZM178.244 42.7524C178.314 39.8742 178.577 37.2071 178.998 34.7159L178.801 34.6826C178.379 37.1835 178.114 39.8601 178.044 42.7476L178.244 42.7524ZM178.998 34.7159C179.419 32.2259 180.066 30.4336 180.914 29.292L180.753 29.1728C179.878 30.3516 179.224 32.1803 178.801 34.6826L178.998 34.7159ZM180.91 29.2973C181.306 28.8317 181.694 28.5659 182.055 28.4676L182.002 28.2746C181.59 28.3872 181.169 28.684 180.757 29.1676L180.91 29.2973ZM182.055 28.4676C182.428 28.3659 182.759 28.368 183.018 28.449L183.078 28.2581C182.775 28.1633 182.403 28.1653 182.002 28.2746L182.055 28.4676ZM183.034 28.4525C183.138 28.4674 183.248 28.5127 183.382 28.5965L183.488 28.4269C183.341 28.335 183.204 28.2748 183.062 28.2545L183.034 28.4525ZM183.375 28.5917C183.502 28.6873 183.616 28.8156 183.715 29.0135L183.894 28.924C183.782 28.7 183.649 28.547 183.495 28.4317L183.375 28.5917ZM183.713 29.0095C183.89 29.4049 183.981 29.9387 183.983 30.6192C183.985 31.2988 183.898 32.1185 183.723 33.0817L183.92 33.1175C184.097 32.1471 184.185 31.3145 184.183 30.6186C184.181 29.9236 184.088 29.3587 183.895 28.928L183.713 29.0095ZM183.723 33.0817C183.373 35.0103 182.829 37.1157 182.144 39.3634L182.335 39.4217C183.022 37.1694 183.568 35.0561 183.92 33.1175L183.723 33.0817ZM182.144 39.363C181.442 41.629 180.756 43.649 180.107 45.4405L180.295 45.5087C180.946 43.7143 181.632 41.6913 182.335 39.4222L182.144 39.363ZM180.107 45.4408C179.456 47.2511 179.017 48.4097 178.79 48.9702L178.975 49.0455C179.204 48.481 179.644 47.3192 180.295 45.5084L180.107 45.4408ZM178.782 49.0132C178.906 51.3002 179.099 53.011 179.329 54.1257L179.525 54.0853C179.298 52.985 179.105 51.2857 178.982 49.0024L178.782 49.0132ZM179.526 54.1198C179.701 52.9113 179.999 51.4385 180.456 49.7012L180.262 49.6504C179.804 51.3936 179.505 52.8739 179.328 54.0911L179.526 54.1198ZM180.456 49.7005C180.893 47.985 181.47 46.6074 182.13 45.5997L181.963 45.4901C181.287 46.5215 180.703 47.9212 180.262 49.6511L180.456 49.7005ZM182.127 45.6045C182.523 45.0707 182.924 44.7942 183.328 44.7296L183.296 44.5321C182.821 44.6082 182.379 44.9293 181.966 45.4853L182.127 45.6045ZM183.325 44.73C183.562 44.6984 183.778 44.7613 183.948 44.9158L184.082 44.7678C183.866 44.5708 183.589 44.493 183.299 44.5317L183.325 44.73ZM183.948 44.9161C184.271 45.2071 184.479 45.7555 184.584 46.5771L184.782 46.5518C184.676 45.7211 184.462 45.1093 184.082 44.7675L183.948 44.9161ZM184.584 46.5748C184.671 47.4162 184.741 48.3624 184.759 49.4664L184.959 49.4633C184.941 48.3524 184.871 47.4002 184.783 46.5541L184.584 46.5748ZM184.759 49.4648C184.759 50.0132 184.794 50.5966 184.829 51.2282L185.029 51.2171C184.994 50.5831 184.959 50.0063 184.959 49.4648H184.759ZM184.829 51.2284C184.865 51.8453 184.918 52.3953 185.007 52.8587L185.203 52.821C185.116 52.3703 185.064 51.8305 185.029 51.217L184.829 51.2284ZM185.007 52.8587C185.052 53.0924 185.111 53.2828 185.185 53.4263C185.259 53.5685 185.353 53.6759 185.472 53.7237L185.546 53.538C185.49 53.5155 185.426 53.4559 185.363 53.3345C185.301 53.2143 185.246 53.0443 185.203 52.821L185.007 52.8587ZM185.493 53.7295C185.68 53.7607 185.883 53.7123 186.093 53.5978C186.303 53.4833 186.527 53.2995 186.76 53.0485L186.614 52.9124C186.39 53.1536 186.183 53.3214 185.998 53.4222C185.812 53.5231 185.655 53.5538 185.526 53.5322L185.493 53.7295ZM186.761 53.0472C187.223 52.5323 187.684 51.9119 188.144 51.1514L187.972 51.0479C187.518 51.799 187.065 52.4091 186.612 52.9137L186.761 53.0472ZM188.144 51.1514C188.603 50.3922 188.991 49.6506 189.327 48.9268L189.145 48.8427C188.813 49.5603 188.427 50.2953 187.972 51.0479L188.144 51.1514ZM189.322 48.9362C189.366 48.8616 189.404 48.8268 189.466 48.8018L189.392 48.6161C189.279 48.6615 189.211 48.7322 189.15 48.8333L189.322 48.9362ZM189.461 48.8039C189.548 48.7748 189.611 48.7769 189.673 48.8018L189.748 48.6161C189.634 48.5707 189.521 48.5729 189.398 48.6141L189.461 48.8039ZM189.659 48.7947C189.737 48.8418 189.779 48.8925 189.788 48.9395L189.984 48.9003C189.958 48.7716 189.859 48.6817 189.762 48.6232L189.659 48.7947ZM189.793 48.9571C189.819 49.0211 189.819 49.0824 189.793 49.1465L189.979 49.2207C190.024 49.109 190.024 48.9945 189.979 48.8828L189.793 48.9571ZM189.794 49.1442C189.638 49.508 189.307 50.1363 188.832 50.9986L189.007 51.0951C189.481 50.2348 189.818 49.5975 189.978 49.223L189.794 49.1442ZM188.832 50.998C188.343 51.8709 187.785 52.6558 187.158 53.353L187.306 53.4868C187.944 52.7778 188.511 51.9807 189.007 51.0957L188.832 50.998ZM187.158 53.3529C186.519 54.0602 185.918 54.3154 185.332 54.2178L185.299 54.415C185.979 54.5283 186.644 54.221 187.306 53.4869L187.158 53.3529ZM185.352 54.2233C184.911 54.05 184.604 53.5695 184.465 52.6837L184.268 52.7147C184.41 53.622 184.736 54.1961 185.279 54.4095L185.352 54.2233ZM184.465 52.6837C184.326 51.7937 184.256 50.7266 184.238 49.481L184.038 49.4838C184.056 50.7343 184.126 51.8118 184.268 52.7147L184.465 52.6837ZM184.238 49.4804C184.22 48.6178 184.185 47.7717 184.115 46.9601L183.915 46.9774C183.986 47.783 184.021 48.6244 184.038 49.4845L184.238 49.4804ZM184.115 46.9601C184.079 46.5518 184.021 46.2108 183.942 45.9388C183.863 45.6682 183.761 45.458 183.631 45.3187L183.485 45.4548C183.584 45.5616 183.675 45.738 183.75 45.9948C183.824 46.2501 183.881 46.5771 183.915 46.9774L184.115 46.9601ZM183.629 45.316C183.571 45.2579 183.49 45.234 183.417 45.234V45.434C183.45 45.434 183.475 45.4453 183.487 45.4574L183.629 45.316ZM183.396 45.2364C183.13 45.2955 182.884 45.4705 182.654 45.7392C182.424 46.0081 182.204 46.3775 181.991 46.839L182.172 46.9228C182.381 46.4702 182.592 46.1189 182.806 45.8692C183.02 45.6194 183.23 45.478 183.439 45.4316L183.396 45.2364ZM181.99 46.841C181.583 47.7779 181.212 48.8551 180.895 50.0724L181.088 50.1229C181.404 48.9144 181.771 47.8471 182.173 46.9207L181.99 46.841ZM180.895 50.0724C180.578 51.2874 180.331 52.3975 180.155 53.4026L180.352 53.4372C180.527 52.4385 180.773 51.3337 181.088 50.1229L180.895 50.0724ZM180.155 53.4023C180.067 53.8956 180.005 54.2975 179.967 54.6076C179.93 54.9153 179.916 55.1392 179.925 55.2728L180.125 55.2585C180.117 55.146 180.129 54.9392 180.166 54.6317C180.203 54.3265 180.264 53.9286 180.352 53.4375L180.155 53.4023ZM179.925 55.2656C179.925 55.3448 179.9 55.4112 179.841 55.4844L179.997 55.6093C180.08 55.5068 180.125 55.3974 180.125 55.2656H179.925ZM179.849 55.4762C179.789 55.5356 179.725 55.5699 179.656 55.5699V55.7699C179.797 55.7699 179.909 55.6988 179.99 55.6176L179.849 55.4762ZM182.574 28.8863C182.332 28.8863 182.065 29.0058 181.763 29.2012L181.872 29.3691C182.168 29.1778 182.393 29.0863 182.574 29.0863V28.8863ZM181.763 29.2012C181.443 29.4083 181.1 29.8305 180.763 30.4689L180.939 30.5623C181.27 29.9351 181.595 29.5487 181.872 29.3691L181.763 29.2012ZM180.76 30.4733C179.892 32.3334 179.311 34.8421 179.011 37.9768L179.21 37.9958C179.509 34.8727 180.087 32.3892 180.942 30.5579L180.76 30.4733ZM179.011 37.9774C178.73 41.1099 178.624 44.1724 178.712 47.1826L178.912 47.1768C178.824 44.1752 178.929 41.1206 179.21 37.9953L179.011 37.9774ZM178.905 47.2155C179.627 45.3323 180.383 43.1332 181.192 40.6363L181.002 40.5747C180.194 43.0699 179.438 45.2653 178.719 47.1439L178.905 47.2155ZM181.192 40.6363C182.002 38.1377 182.635 35.8315 183.093 33.683L182.898 33.6413C182.442 35.7817 181.81 38.0811 181.002 40.5747L181.192 40.6363ZM183.093 33.6831C183.322 32.6167 183.455 31.7143 183.489 30.9772C183.522 30.242 183.457 29.662 183.281 29.2463L183.097 29.3241C183.255 29.6993 183.322 30.2443 183.289 30.9681C183.256 31.69 183.126 32.5806 182.898 33.6411L183.093 33.6831ZM183.275 29.2337C183.222 29.1453 183.159 29.0573 183.086 29.0086L182.975 29.175C183.008 29.1966 183.051 29.2493 183.103 29.3366L183.275 29.2337ZM183.086 29.0086C183.024 28.9671 182.952 28.9391 182.89 28.9391V29.1391C182.893 29.1391 182.903 29.14 182.92 29.1462C182.936 29.1521 182.955 29.1616 182.975 29.175L183.086 29.0086ZM182.935 28.9496C182.844 28.904 182.719 28.8863 182.574 28.8863V29.0863C182.709 29.0863 182.796 29.1038 182.845 29.1285L182.935 28.9496ZM190.8 54.0527L190.777 54.1502L190.781 54.151L190.8 54.0527ZM190.272 48.1816L190.183 48.1374L190.182 48.1374L190.272 48.1816ZM193.594 46.5293L193.673 46.4668L193.67 46.4638L193.594 46.5293ZM193.471 48.6562L193.379 48.6176L193.378 48.6196L193.471 48.6562ZM191.52 50.8359L191.559 50.9282L191.559 50.9281L191.52 50.8359ZM190.096 51.1875V51.0875H190.014L189.998 51.1679L190.096 51.1875ZM190.219 52.7344L190.125 52.766L190.125 52.7671L190.219 52.7344ZM196.759 48.8848L196.672 48.8351L196.671 48.8364L196.759 48.8848ZM197.233 48.7441L197.178 48.8275L197.184 48.831L197.233 48.7441ZM197.374 49.2363L197.461 49.2848L197.468 49.2733L197.471 49.2606L197.374 49.2363ZM190.202 50.502L190.104 50.4795L190.076 50.602H190.202V50.502ZM192.68 48.832L192.767 48.8821L192.771 48.8745L192.774 48.8662L192.68 48.832ZM192.821 48.4453L192.916 48.4797L192.918 48.4696L192.821 48.4453ZM192.874 48.2871L192.963 48.3318L192.974 48.3107V48.2871H192.874ZM192.909 48.1992L192.98 48.2699L192.994 48.2551L193.002 48.2357L192.909 48.1992ZM192.311 46.8984L192.33 46.9971L192.339 46.9946L192.311 46.8984ZM191.134 48.0762L191.048 48.0247L191.047 48.0263L191.134 48.0762ZM191.626 54.0406C191.353 54.0406 191.096 54.0066 190.818 53.9544L190.781 54.151C191.066 54.2044 191.336 54.2406 191.626 54.2406V54.0406ZM190.823 53.9554C190.363 53.8468 190.026 53.607 189.802 53.2403C189.575 52.8704 189.458 52.3635 189.458 51.7148H189.258C189.258 52.3846 189.378 52.9323 189.631 53.3447C189.885 53.7602 190.269 54.0301 190.777 54.1501L190.823 53.9554ZM189.458 51.7148C189.458 50.6083 189.752 49.4632 190.362 48.2259L190.182 48.1374C189.562 49.3961 189.258 50.5714 189.258 51.7148H189.458ZM190.362 48.2259C191.026 46.8811 191.773 46.2426 192.628 46.2426V46.0426C191.654 46.0426 190.855 46.7751 190.183 48.1374L190.362 48.2259ZM192.628 46.2426C193.011 46.2426 193.314 46.3587 193.519 46.5948L193.67 46.4638C193.418 46.1725 193.052 46.0426 192.628 46.0426V46.2426ZM193.516 46.5918C193.643 46.75 193.723 46.9566 193.723 47.1973H193.923C193.923 46.9106 193.827 46.6601 193.673 46.4668L193.516 46.5918ZM193.723 47.1973C193.723 47.6183 193.605 48.0791 193.379 48.6176L193.564 48.6949C193.795 48.1436 193.923 47.6551 193.923 47.1973H193.723ZM193.378 48.6196C192.964 49.6733 192.33 50.3875 191.482 50.7437L191.559 50.9281C192.469 50.5461 193.135 49.7837 193.564 48.6929L193.378 48.6196ZM191.482 50.7437C190.942 50.9698 190.482 51.0875 190.096 51.0875V51.2875C190.52 51.2875 191.008 51.1591 191.559 50.9282L191.482 50.7437ZM189.998 51.1679C189.962 51.3516 189.944 51.5518 189.944 51.8027H190.144C190.144 51.5615 190.161 51.375 190.194 51.2071L189.998 51.1679ZM189.944 51.8027C189.944 52.1164 190.017 52.4442 190.125 52.766L190.314 52.7028C190.211 52.3918 190.144 52.0867 190.144 51.8027H189.944ZM190.125 52.7671C190.305 53.2866 190.839 53.5199 191.608 53.5199V53.3199C190.865 53.3199 190.451 53.0962 190.314 52.7017L190.125 52.7671ZM191.608 53.5199C193.444 53.5199 195.175 51.9587 196.846 48.9331L196.671 48.8364C195.002 51.8577 193.323 53.3199 191.608 53.3199V53.5199ZM196.845 48.9344C196.9 48.838 196.975 48.7914 197.075 48.7914V48.5914C196.894 48.5914 196.757 48.6855 196.672 48.8352L196.845 48.9344ZM197.075 48.7914C197.104 48.7914 197.138 48.8009 197.178 48.8273L197.289 48.6609C197.223 48.6171 197.151 48.5914 197.075 48.5914V48.7914ZM197.184 48.831C197.274 48.8826 197.309 48.954 197.309 49.043H197.509C197.509 48.8858 197.438 48.7463 197.283 48.6573L197.184 48.831ZM197.309 49.043C197.309 49.0805 197.296 49.137 197.277 49.2121L197.471 49.2606C197.487 49.1951 197.509 49.1109 197.509 49.043H197.309ZM197.286 49.1879C195.478 52.4525 193.588 54.0406 191.626 54.0406V54.2406C193.706 54.2406 195.648 52.5592 197.461 49.2848L197.286 49.1879ZM190.202 50.602C190.339 50.602 190.508 50.568 190.703 50.5099C190.899 50.4514 191.126 50.3665 191.383 50.2604L191.306 50.0756C191.053 50.1804 190.832 50.2625 190.646 50.3182C190.458 50.3744 190.31 50.402 190.202 50.402V50.602ZM191.383 50.2604C191.921 50.0376 192.375 49.5596 192.767 48.8821L192.594 48.7819C192.213 49.4404 191.787 49.8765 191.306 50.0756L191.383 50.2604ZM192.774 48.8662L192.915 48.4795L192.727 48.4111L192.586 48.7979L192.774 48.8662ZM192.918 48.4696C192.935 48.4015 192.951 48.3571 192.963 48.3318L192.784 48.2424C192.762 48.2874 192.742 48.3485 192.724 48.4211L192.918 48.4696ZM192.974 48.2871C192.974 48.2856 192.974 48.2815 192.977 48.276C192.978 48.2735 192.979 48.2714 192.98 48.2701C192.981 48.2685 192.981 48.2687 192.98 48.2699L192.838 48.1285C192.803 48.1636 192.774 48.2237 192.774 48.2871H192.974ZM193.002 48.2357C193.16 47.8324 193.255 47.5173 193.255 47.2852H193.055C193.055 47.4749 192.974 47.7575 192.816 48.1628L193.002 48.2357ZM193.255 47.2852C193.255 47.1226 193.203 46.9853 193.089 46.8914C192.978 46.8006 192.824 46.7633 192.645 46.7633V46.9633C192.801 46.9633 192.901 46.9963 192.962 47.0461C193.019 47.0928 193.055 47.1665 193.055 47.2852H193.255ZM192.645 46.7633C192.54 46.7633 192.422 46.7628 192.284 46.8023L192.339 46.9946C192.447 46.9637 192.539 46.9633 192.645 46.9633V46.7633ZM192.293 46.8002C192.08 46.8407 191.874 46.9747 191.671 47.1797C191.468 47.3854 191.261 47.6697 191.048 48.0247L191.219 48.1276C191.428 47.7796 191.626 47.5102 191.813 47.3203C192.002 47.1298 192.173 47.0265 192.33 46.9967L192.293 46.8002ZM191.047 48.0263C190.637 48.7387 190.317 49.5566 190.104 50.4795L190.299 50.5244C190.508 49.6192 190.821 48.8199 191.22 48.126L191.047 48.0263ZM202.207 53.9297L202.252 53.8402L202.248 53.8387L202.207 53.9297ZM201.645 52.5586L201.545 52.5562L201.545 52.5562L201.645 52.5586ZM201.996 49.6582L201.898 49.6386L201.898 49.6411L201.996 49.6582ZM202.26 48.0234L202.359 48.0389L202.359 48.0362L202.26 48.0234ZM202.26 46.9336L202.353 46.8965L202.342 46.8704L202.32 46.8536L202.26 46.9336ZM201.188 46.916L201.161 46.8194L201.155 46.8215L201.188 46.916ZM199.676 47.0215L199.654 47.1193L199.66 47.1202L199.676 47.0215ZM199.236 46.8809L199.271 46.7872L199.186 46.755L199.146 46.8379L199.236 46.8809ZM198.621 48.1289L198.532 48.0842L198.531 48.0863L198.621 48.1289ZM198.164 49.0781L198.25 49.1298L198.254 49.1209L198.164 49.0781ZM197.689 49.2363L197.638 49.3221L197.645 49.3262L197.652 49.3292L197.689 49.2363ZM197.514 49.0254L197.612 49.009L197.611 48.9983L197.607 48.9883L197.514 49.0254ZM197.531 48.7617L197.617 48.8133L197.621 48.8064L197.531 48.7617ZM197.971 47.8477L197.9 47.7769L197.889 47.7884L197.881 47.8029L197.971 47.8477ZM197.988 47.8125L197.9 47.7665L197.888 47.7881V47.8125H197.988ZM198.621 46.5117L198.712 46.5531L198.742 46.4872L198.689 46.4381L198.621 46.5117ZM197.971 44.9121L197.871 44.9076L197.871 44.9095L197.971 44.9121ZM198.27 43.8398L198.184 43.7876L198.181 43.7933L198.27 43.8398ZM199.008 43.2598L199.025 43.3582L199.032 43.357L199.039 43.3546L199.008 43.2598ZM199.254 43.2598L199.237 43.3584L199.24 43.3588L199.254 43.2598ZM199.605 43.4531L199.54 43.5291L199.541 43.5299L199.605 43.4531ZM199.904 43.9453L199.999 43.9128L199.998 43.9094L199.904 43.9453ZM199.535 46.2305L199.444 46.1885L199.4 46.2842L199.498 46.3233L199.535 46.2305ZM199.834 46.3359L199.802 46.4308L199.811 46.4339L199.821 46.4351L199.834 46.3359ZM201.029 46.2305L201.005 46.1333L201 46.1348L201.029 46.2305ZM201.908 46.1074V46.2076L201.914 46.2072L201.908 46.1074ZM202.752 46.4238L202.82 46.3499L202.814 46.3457L202.752 46.4238ZM203.016 47.5312L203.115 47.5379L203.115 47.5377L203.016 47.5312ZM202.699 49.7637L202.797 49.7824L202.798 49.7819L202.699 49.7637ZM202.488 51.082L202.389 51.0684L202.389 51.0688L202.488 51.082ZM202.348 52.5234L202.448 52.5276L202.448 52.5274L202.348 52.5234ZM202.488 53.2793L202.433 53.3625L202.447 53.3721L202.464 53.3763L202.488 53.2793ZM202.77 53.2441L202.809 53.3361L202.813 53.3344L202.77 53.2441ZM204.158 52.084L204.083 52.0178L204.083 52.018L204.158 52.084ZM205.6 50.2734L205.681 50.3316L205.682 50.33L205.6 50.2734ZM206.408 48.9199L206.322 48.868L206.317 48.8798L206.408 48.9199ZM206.883 48.7266L206.92 48.6336L206.914 48.6317L206.883 48.7266ZM207.076 48.9199L207.169 48.8828L207.166 48.8753L207.162 48.8685L207.076 48.9199ZM207.076 49.1836L207.169 49.2217L207.169 49.2207L207.076 49.1836ZM206.215 50.625L206.297 50.6825L206.297 50.6815L206.215 50.625ZM204.668 52.5762L204.594 52.5086L204.593 52.5096L204.668 52.5762ZM203.033 53.8945L203.07 53.9875L203.074 53.9858L203.033 53.8945ZM199.096 43.9453L199.166 43.8746L199.123 43.8309L199.064 43.8504L199.096 43.9453ZM198.85 44.2441L198.763 44.1924L198.759 44.2028L198.85 44.2441ZM198.674 44.9473L198.574 44.9348V44.9473H198.674ZM198.727 45.3516L198.824 45.3299L198.824 45.3273L198.727 45.3516ZM198.938 45.8086L198.858 45.8686L198.96 46.0056L199.029 45.8488L198.938 45.8086ZM199.236 44.1914L199.139 44.2158L199.142 44.2244L199.236 44.1914ZM199.166 44.0508L199.077 44.0955L199.084 44.11L199.095 44.1215L199.166 44.0508ZM202.559 53.9C202.444 53.9 202.338 53.8834 202.252 53.8402L202.162 54.0191C202.287 54.0815 202.427 54.1 202.559 54.1V53.9ZM202.248 53.8387C201.919 53.6891 201.727 53.2893 201.745 52.561L201.545 52.5562C201.527 53.3044 201.721 53.8187 202.166 54.0207L202.248 53.8387ZM201.745 52.561C201.762 51.8479 201.884 50.887 202.095 49.6753L201.898 49.6411C201.686 50.8552 201.562 51.8279 201.545 52.5562L201.745 52.561ZM202.094 49.6778C202.2 49.1477 202.271 48.5978 202.359 48.0389L202.161 48.008C202.073 48.5741 202.003 49.114 201.898 49.6386L202.094 49.6778ZM202.359 48.0362C202.394 47.7614 202.413 47.5283 202.413 47.3401C202.413 47.1547 202.395 47.0027 202.353 46.8965L202.167 46.9707C202.195 47.0403 202.212 47.1608 202.212 47.3401C202.212 47.5166 202.195 47.7406 202.161 48.0106L202.359 48.0362ZM202.32 46.8536C202.192 46.7578 202.028 46.7151 201.837 46.7128C201.646 46.7104 201.42 46.748 201.161 46.8196L201.214 47.0124C201.464 46.9434 201.67 46.9107 201.834 46.9127C201.999 46.9148 202.117 46.9512 202.2 47.0136L202.32 46.8536ZM201.155 46.8215C200.716 46.9736 200.223 47.0084 199.692 46.9228L199.66 47.1202C200.219 47.2103 200.745 47.1749 201.22 47.0105L201.155 46.8215ZM199.697 46.9239C199.547 46.8905 199.413 46.8402 199.271 46.7872L199.201 46.9745C199.341 47.027 199.488 47.0822 199.654 47.1191L199.697 46.9239ZM199.146 46.8379C198.971 47.206 198.76 47.6269 198.532 48.0842L198.711 48.1736C198.939 47.7168 199.15 47.294 199.327 46.9239L199.146 46.8379ZM198.531 48.0863C198.388 48.3899 198.235 48.6939 198.074 49.0353L198.254 49.1209C198.409 48.7944 198.573 48.4656 198.712 48.1715L198.531 48.0863ZM198.078 49.0267C198.038 49.0931 197.987 49.1328 197.916 49.1611L197.99 49.3468C198.095 49.3047 198.184 49.2389 198.25 49.1296L198.078 49.0267ZM197.916 49.1611C197.864 49.182 197.806 49.1751 197.727 49.1435L197.652 49.3292C197.749 49.3679 197.867 49.3961 197.99 49.3468L197.916 49.1611ZM197.741 49.1506C197.656 49.0995 197.622 49.0671 197.612 49.009L197.415 49.0418C197.44 49.1946 197.547 49.2677 197.638 49.3221L197.741 49.1506ZM197.607 48.9883C197.581 48.9251 197.583 48.8705 197.617 48.8132L197.446 48.7103C197.374 48.8287 197.376 48.9499 197.421 49.0625L197.607 48.9883ZM197.621 48.8064C197.7 48.6471 197.776 48.4879 197.848 48.3341C197.921 48.1801 197.99 48.0318 198.06 47.8924L197.881 47.8029C197.81 47.9448 197.739 48.0953 197.667 48.2489C197.595 48.4028 197.52 48.56 197.442 48.717L197.621 48.8064ZM198.041 47.9184C198.045 47.9147 198.051 47.9093 198.055 47.9041C198.06 47.8987 198.069 47.8888 198.076 47.8748C198.09 47.8449 198.088 47.8137 198.088 47.8125H197.888C197.888 47.815 197.888 47.8158 197.888 47.8163C197.888 47.8168 197.888 47.8153 197.889 47.813C197.889 47.8069 197.891 47.7966 197.897 47.7854C197.899 47.7804 197.902 47.7767 197.903 47.7742C197.905 47.7719 197.906 47.7705 197.907 47.7703C197.907 47.7702 197.906 47.7705 197.905 47.7718C197.904 47.7731 197.902 47.7746 197.9 47.7769L198.041 47.9184ZM198.077 47.8585C198.324 47.3823 198.536 46.9413 198.712 46.5531L198.53 46.4703C198.355 46.8556 198.145 47.2935 197.9 47.7665L198.077 47.8585ZM198.689 46.4381C198.272 46.0542 198.054 45.5551 198.071 44.9147L197.871 44.9095C197.852 45.6051 198.092 46.1606 198.553 46.5853L198.689 46.4381ZM198.071 44.9167C198.087 44.5462 198.188 44.2089 198.358 43.8864L198.181 43.7933C197.999 44.1388 197.889 44.5046 197.871 44.9076L198.071 44.9167ZM198.355 43.892C198.54 43.5894 198.765 43.4042 199.025 43.3582L198.99 43.1613C198.653 43.2208 198.386 43.4575 198.184 43.7877L198.355 43.892ZM199.039 43.3546C199.068 43.3451 199.136 43.3415 199.237 43.3584L199.27 43.1611C199.161 43.1429 199.053 43.1393 198.976 43.1649L199.039 43.3546ZM199.24 43.3588C199.333 43.3721 199.42 43.4256 199.54 43.5291L199.671 43.3772C199.545 43.2697 199.421 43.1826 199.268 43.1608L199.24 43.3588ZM199.541 43.5299C199.627 43.6011 199.725 43.7572 199.811 43.9812L199.998 43.9094C199.908 43.6764 199.795 43.4809 199.669 43.3763L199.541 43.5299ZM199.81 43.9778C199.99 44.5032 199.88 45.2467 199.444 46.1885L199.626 46.2725C200.069 45.3158 200.205 44.5124 199.999 43.9128L199.81 43.9778ZM199.498 46.3233C199.589 46.3598 199.698 46.3959 199.802 46.4308L199.866 46.2411C199.759 46.2056 199.657 46.1715 199.572 46.1376L199.498 46.3233ZM199.821 46.4351C200.24 46.4898 200.641 46.4531 201.058 46.3261L201 46.1348C200.609 46.2539 200.236 46.2876 199.847 46.2368L199.821 46.4351ZM201.054 46.3275C201.331 46.2582 201.621 46.2074 201.908 46.2074V46.0074C201.598 46.0074 201.291 46.0621 201.005 46.1335L201.054 46.3275ZM201.914 46.2072C202.18 46.1916 202.437 46.3002 202.689 46.5019L202.814 46.3457C202.539 46.1256 202.234 45.9881 201.902 46.0076L201.914 46.2072ZM202.684 46.4975C202.859 46.658 202.951 46.9849 202.916 47.5248L203.115 47.5377C203.151 46.9878 203.066 46.5764 202.82 46.3501L202.684 46.4975ZM202.916 47.5246C202.881 48.0463 202.776 48.7978 202.601 49.7455L202.798 49.7819C202.974 48.8311 203.08 48.0709 203.115 47.5379L202.916 47.5246ZM202.601 49.745C202.53 50.1163 202.46 50.5575 202.389 51.0684L202.587 51.0957C202.658 50.5871 202.728 50.1494 202.797 49.7824L202.601 49.745ZM202.389 51.0688C202.319 51.597 202.266 52.0753 202.248 52.5194L202.448 52.5274C202.465 52.0927 202.517 51.6217 202.587 51.0952L202.389 51.0688ZM202.248 52.5193C202.239 52.7342 202.247 52.914 202.274 53.0518C202.287 53.1208 202.305 53.1823 202.329 53.2336C202.353 53.2843 202.386 53.3313 202.433 53.3625L202.544 53.1961C202.538 53.1921 202.525 53.1798 202.51 53.1481C202.495 53.117 202.481 53.0731 202.47 53.0146C202.448 52.8975 202.439 52.7345 202.448 52.5276L202.248 52.5193ZM202.464 53.3763C202.558 53.3997 202.668 53.3965 202.809 53.3361L202.73 53.1522C202.625 53.1972 202.56 53.1941 202.513 53.1823L202.464 53.3763ZM202.813 53.3344C203.234 53.1328 203.719 52.7351 204.233 52.15L204.083 52.018C203.578 52.593 203.114 52.9687 202.726 53.1539L202.813 53.3344ZM204.233 52.1501C204.763 51.55 205.24 50.9496 205.681 50.3316L205.518 50.2153C205.081 50.8277 204.608 51.4227 204.083 52.0178L204.233 52.1501ZM205.682 50.33C206.105 49.7131 206.373 49.2499 206.5 48.96L206.317 48.8798C206.197 49.1524 205.938 49.6033 205.517 50.2169L205.682 50.33ZM206.494 48.9714C206.545 48.8861 206.583 48.8415 206.639 48.8194L206.564 48.6337C206.444 48.6819 206.377 48.778 206.322 48.8685L206.494 48.9714ZM206.639 48.8194C206.701 48.7945 206.764 48.7924 206.851 48.8214L206.914 48.6317C206.791 48.5904 206.678 48.5883 206.564 48.6337L206.639 48.8194ZM206.846 48.8194C206.901 48.8415 206.939 48.8861 206.99 48.9714L207.162 48.8685C207.108 48.778 207.041 48.6819 206.92 48.6337L206.846 48.8194ZM206.983 48.9571C207.009 49.0211 207.009 49.0824 206.983 49.1465L207.169 49.2207C207.214 49.109 207.214 48.9945 207.169 48.8828L206.983 48.9571ZM206.984 49.1455C206.865 49.4337 206.589 49.9007 206.132 50.5685L206.297 50.6815C206.754 50.0134 207.041 49.5312 207.169 49.2217L206.984 49.1455ZM206.133 50.5675C205.678 51.2157 205.17 51.88 204.594 52.5086L204.742 52.6437C205.326 52.0067 205.838 51.335 206.297 50.6825L206.133 50.5675ZM204.593 52.5096C204.018 53.1548 203.484 53.5828 202.992 53.8033L203.074 53.9858C203.602 53.7492 204.158 53.2984 204.743 52.6427L204.593 52.5096ZM202.996 53.8017C202.828 53.8688 202.683 53.9 202.559 53.9V54.1C202.716 54.1 202.887 54.0609 203.07 53.9874L202.996 53.8017ZM199.064 43.8504C199.033 43.8609 199.006 43.8806 198.984 43.8994C198.961 43.9192 198.938 43.9439 198.915 43.9717C198.869 44.0275 198.818 44.1024 198.764 44.1927L198.935 44.2956C198.987 44.2101 199.032 44.1444 199.07 44.0991C199.088 44.0764 199.104 44.0604 199.116 44.05C199.129 44.0386 199.132 44.0385 199.127 44.0402L199.064 43.8504ZM198.759 44.2028C198.665 44.4091 198.61 44.6488 198.575 44.9349L198.773 44.9597C198.808 44.6832 198.859 44.4659 198.941 44.2855L198.759 44.2028ZM198.574 44.9473C198.574 45.0793 198.593 45.228 198.63 45.3758L198.824 45.3273C198.79 45.1938 198.774 45.0614 198.774 44.9473H198.574ZM198.629 45.3733C198.667 45.545 198.743 45.7163 198.858 45.8686L199.017 45.7486C198.921 45.6196 198.856 45.4745 198.824 45.3299L198.629 45.3733ZM199.029 45.8488C199.189 45.4843 199.298 45.1603 199.35 44.88C199.402 44.6005 199.4 44.357 199.331 44.1584L199.142 44.2244C199.195 44.3774 199.202 44.5821 199.153 44.8432C199.105 45.1034 199.002 45.4122 198.846 45.7684L199.029 45.8488ZM199.333 44.1672C199.313 44.0868 199.289 44.0326 199.237 43.9801L199.095 44.1215C199.113 44.1393 199.124 44.1554 199.139 44.2157L199.333 44.1672ZM199.255 44.0061C199.247 43.9891 199.237 43.9689 199.226 43.9506C199.217 43.9336 199.203 43.9108 199.184 43.8922L199.043 44.0336C199.042 44.0326 199.045 44.0361 199.053 44.0499C199.06 44.0624 199.067 44.0773 199.077 44.0955L199.255 44.0061ZM199.184 43.8922L199.166 43.8746L199.025 44.016L199.043 44.0336L199.184 43.8922ZM208.06 54.0527L208.037 54.1502L208.041 54.151L208.06 54.0527ZM207.532 48.1816L207.443 48.1374L207.443 48.1374L207.532 48.1816ZM210.855 46.5293L210.933 46.4668L210.93 46.4638L210.855 46.5293ZM210.732 48.6562L210.639 48.6176L210.639 48.6196L210.732 48.6562ZM208.781 50.8359L208.819 50.9282L208.819 50.9281L208.781 50.8359ZM207.357 51.1875V51.0875H207.275L207.259 51.1679L207.357 51.1875ZM207.48 52.7344L207.385 52.766L207.385 52.7671L207.48 52.7344ZM214.019 48.8848L213.932 48.8351L213.931 48.8364L214.019 48.8848ZM214.493 48.7441L214.438 48.8275L214.444 48.831L214.493 48.7441ZM214.634 49.2363L214.722 49.2848L214.728 49.2733L214.731 49.2606L214.634 49.2363ZM207.462 50.502L207.365 50.4795L207.336 50.602H207.462V50.502ZM209.941 48.832L210.027 48.8821L210.032 48.8745L210.035 48.8662L209.941 48.832ZM210.081 48.4453L210.176 48.4797L210.178 48.4696L210.081 48.4453ZM210.134 48.2871L210.224 48.3318L210.234 48.3107V48.2871H210.134ZM210.169 48.1992L210.24 48.2699L210.255 48.2551L210.262 48.2357L210.169 48.1992ZM209.572 46.8984L209.59 46.9971L209.599 46.9946L209.572 46.8984ZM208.394 48.0762L208.308 48.0247L208.307 48.0263L208.394 48.0762ZM208.886 54.0406C208.613 54.0406 208.356 54.0066 208.078 53.9544L208.041 54.151C208.326 54.2044 208.596 54.2406 208.886 54.2406V54.0406ZM208.083 53.9554C207.623 53.8468 207.286 53.607 207.062 53.2403C206.835 52.8704 206.718 52.3635 206.718 51.7148H206.518C206.518 52.3846 206.639 52.9323 206.891 53.3447C207.146 53.7602 207.529 54.0301 208.037 54.1501L208.083 53.9554ZM206.718 51.7148C206.718 50.6083 207.012 49.4632 207.622 48.2259L207.443 48.1374C206.822 49.3961 206.518 50.5714 206.518 51.7148H206.718ZM207.622 48.2259C208.286 46.8811 209.034 46.2426 209.888 46.2426V46.0426C208.914 46.0426 208.115 46.7751 207.443 48.1374L207.622 48.2259ZM209.888 46.2426C210.272 46.2426 210.575 46.3587 210.779 46.5948L210.93 46.4638C210.678 46.1725 210.313 46.0426 209.888 46.0426V46.2426ZM210.777 46.5918C210.903 46.75 210.983 46.9566 210.983 47.1973H211.183C211.183 46.9106 211.087 46.6601 210.933 46.4668L210.777 46.5918ZM210.983 47.1973C210.983 47.6183 210.865 48.0791 210.639 48.6176L210.824 48.6949C211.055 48.1436 211.183 47.6551 211.183 47.1973H210.983ZM210.639 48.6196C210.224 49.6733 209.59 50.3875 208.742 50.7437L208.819 50.9281C209.729 50.5461 210.396 49.7837 210.825 48.6929L210.639 48.6196ZM208.742 50.7437C208.203 50.9698 207.742 51.0875 207.357 51.0875V51.2875C207.78 51.2875 208.269 51.1591 208.819 50.9282L208.742 50.7437ZM207.259 51.1679C207.222 51.3516 207.204 51.5518 207.204 51.8027H207.404C207.404 51.5615 207.421 51.375 207.455 51.2071L207.259 51.1679ZM207.204 51.8027C207.204 52.1164 207.278 52.4442 207.385 52.766L207.575 52.7028C207.471 52.3918 207.404 52.0867 207.404 51.8027H207.204ZM207.385 52.7671C207.565 53.2866 208.1 53.5199 208.868 53.5199V53.3199C208.126 53.3199 207.711 53.0962 207.574 52.7017L207.385 52.7671ZM208.868 53.5199C210.705 53.5199 212.435 51.9587 214.106 48.9331L213.931 48.8364C212.263 51.8577 210.583 53.3199 208.868 53.3199V53.5199ZM214.106 48.9344C214.161 48.838 214.235 48.7914 214.335 48.7914V48.5914C214.154 48.5914 214.018 48.6855 213.932 48.8352L214.106 48.9344ZM214.335 48.7914C214.365 48.7914 214.398 48.8009 214.438 48.8273L214.549 48.6609C214.483 48.6171 214.411 48.5914 214.335 48.5914V48.7914ZM214.444 48.831C214.534 48.8826 214.569 48.954 214.569 49.043H214.769C214.769 48.8858 214.699 48.7463 214.543 48.6573L214.444 48.831ZM214.569 49.043C214.569 49.0805 214.556 49.137 214.537 49.2121L214.731 49.2606C214.747 49.1951 214.769 49.1109 214.769 49.043H214.569ZM214.547 49.1879C212.739 52.4525 210.848 54.0406 208.886 54.0406V54.2406C210.967 54.2406 212.908 52.5592 214.722 49.2848L214.547 49.1879ZM207.462 50.602C207.6 50.602 207.769 50.568 207.963 50.5099C208.159 50.4514 208.387 50.3665 208.643 50.2604L208.567 50.0756C208.313 50.1804 208.093 50.2625 207.906 50.3182C207.718 50.3744 207.571 50.402 207.462 50.402V50.602ZM208.643 50.2604C209.181 50.0376 209.635 49.5596 210.027 48.8821L209.854 48.7819C209.473 49.4404 209.048 49.8765 208.567 50.0756L208.643 50.2604ZM210.035 48.8662L210.175 48.4795L209.987 48.4111L209.847 48.7979L210.035 48.8662ZM210.178 48.4696C210.195 48.4015 210.211 48.3571 210.224 48.3318L210.045 48.2424C210.022 48.2874 210.002 48.3485 209.984 48.4211L210.178 48.4696ZM210.234 48.2871C210.234 48.2856 210.235 48.2815 210.237 48.276C210.238 48.2735 210.239 48.2714 210.24 48.2701C210.241 48.2685 210.241 48.2687 210.24 48.2699L210.099 48.1285C210.063 48.1636 210.034 48.2237 210.034 48.2871H210.234ZM210.262 48.2357C210.42 47.8324 210.515 47.5173 210.515 47.2852H210.315C210.315 47.4749 210.235 47.7575 210.076 48.1628L210.262 48.2357ZM210.515 47.2852C210.515 47.1226 210.463 46.9853 210.349 46.8914C210.238 46.8006 210.084 46.7633 209.906 46.7633V46.9633C210.061 46.9633 210.162 46.9963 210.222 47.0461C210.279 47.0928 210.315 47.1665 210.315 47.2852H210.515ZM209.906 46.7633C209.8 46.7633 209.682 46.7628 209.544 46.8023L209.599 46.9946C209.707 46.9637 209.8 46.9633 209.906 46.9633V46.7633ZM209.553 46.8002C209.34 46.8407 209.134 46.9747 208.931 47.1797C208.728 47.3854 208.521 47.6697 208.308 48.0247L208.48 48.1276C208.688 47.7796 208.886 47.5102 209.074 47.3203C209.262 47.1298 209.434 47.0265 209.59 46.9967L209.553 46.8002ZM208.307 48.0263C207.898 48.7387 207.578 49.5566 207.365 50.4795L207.56 50.5244C207.769 49.6192 208.082 48.8199 208.481 48.126L208.307 48.0263ZM217.569 59.4492L217.473 59.4799L217.478 59.4898L217.569 59.4492ZM216.866 53.1387L216.766 53.1393L216.766 53.1399L216.866 53.1387ZM217.094 44.1562L217.194 44.1618V44.1618L217.094 44.1562ZM217.657 35.9473L217.557 35.9381L217.557 35.939L217.657 35.9473ZM218.026 31.9922L218.125 32.0078L218.126 32V31.9922H218.026ZM218.149 31.7637L218.209 31.8437L218.215 31.8394L218.22 31.8344L218.149 31.7637ZM218.413 31.6758L218.432 31.5777L218.423 31.5758H218.413V31.6758ZM218.641 31.8164L218.555 31.8679L218.562 31.8784L218.57 31.8871L218.641 31.8164ZM218.729 32.0625L218.829 32.0736V32.0625H218.729ZM217.833 43.8574L217.932 43.8635L217.932 43.863L217.833 43.8574ZM217.586 52.9102L217.686 52.9095L217.686 52.9089L217.586 52.9102ZM218.237 59.2031L218.142 59.2332L218.142 59.2347L218.237 59.2031ZM218.008 59.6602L217.977 59.5653L217.97 59.5675L217.964 59.5707L218.008 59.6602ZM217.762 62.4023L217.673 62.4471L217.678 62.4574L217.685 62.4664L217.762 62.4023ZM217.71 62.1035L217.808 62.12L217.825 62.0213L217.726 62.0049L217.71 62.1035ZM217.463 61.9453L217.377 61.9972L217.385 62.0078L217.463 61.9453ZM217.411 61.6641L217.313 61.6444L217.312 61.6476L217.411 61.6641ZM217.569 61.4531L217.62 61.5391L217.626 61.5353L217.569 61.4531ZM218.905 61.207L218.976 61.1359L218.967 61.1289L218.905 61.207ZM219.045 61.5762L218.946 61.5637L218.946 61.5695L219.045 61.5762ZM218.254 62.4902L218.198 62.4078L218.194 62.4102L218.254 62.4902ZM217.903 59.5777C217.839 59.5777 217.794 59.5638 217.759 59.5401C217.724 59.5161 217.69 59.4759 217.66 59.4086L217.478 59.4898C217.518 59.5807 217.572 59.6548 217.647 59.7055C217.722 59.7565 217.808 59.7777 217.903 59.7777V59.5777ZM217.664 59.4187C217.229 58.0625 217.001 55.9656 216.966 53.1374L216.766 53.1399C216.801 55.9719 217.029 58.0937 217.474 59.4797L217.664 59.4187ZM216.966 53.1381C216.948 50.2925 217.018 47.3063 217.194 44.1618L216.994 44.1507C216.819 47.2992 216.748 50.2895 216.766 53.1393L216.966 53.1381ZM217.194 44.1618C217.37 40.9986 217.563 38.2749 217.756 35.9556L217.557 35.939C217.364 38.2602 217.17 40.9858 216.994 44.1507L217.194 44.1618ZM217.756 35.9564C217.968 33.6489 218.073 32.3375 218.125 32.0078L217.927 31.9766C217.874 32.3149 217.768 33.6402 217.557 35.9381L217.756 35.9564ZM218.126 31.9922C218.126 31.942 218.158 31.8816 218.209 31.8437L218.089 31.6837C217.999 31.7512 217.926 31.8666 217.926 31.9922H218.126ZM218.22 31.8344C218.262 31.7919 218.317 31.7758 218.413 31.7758V31.5758C218.297 31.5758 218.176 31.5948 218.078 31.693L218.22 31.8344ZM218.393 31.7738C218.47 31.7893 218.524 31.8158 218.555 31.8679L218.727 31.765C218.653 31.6412 218.531 31.5974 218.432 31.5777L218.393 31.7738ZM218.57 31.8871C218.614 31.9308 218.629 31.9873 218.629 32.0625H218.829C218.829 31.9619 218.809 31.8427 218.712 31.7457L218.57 31.8871ZM218.63 32.0515C218.612 32.2109 218.489 33.4249 218.295 35.6927L218.495 35.7097C218.688 33.4423 218.811 32.2305 218.828 32.0735L218.63 32.0515ZM218.295 35.6927C218.102 37.9614 217.909 40.687 217.733 43.8519L217.932 43.863C218.108 40.6998 218.301 37.9761 218.495 35.7097L218.295 35.6927ZM217.733 43.8514C217.539 47.0349 217.451 50.0433 217.486 52.9114L217.686 52.9089C217.651 50.0466 217.739 47.0432 217.932 43.8635L217.733 43.8514ZM217.486 52.9108C217.504 55.7775 217.715 57.8821 218.142 59.2332L218.332 59.173C217.915 57.8523 217.704 55.7733 217.686 52.9095L217.486 52.9108ZM218.142 59.2347C218.167 59.3097 218.157 59.3719 218.126 59.4472L218.312 59.5215C218.352 59.4211 218.377 59.3074 218.332 59.1715L218.142 59.2347ZM218.126 59.4472C218.106 59.4986 218.065 59.5357 217.977 59.5653L218.04 59.755C218.162 59.7143 218.262 59.646 218.312 59.5215L218.126 59.4472ZM217.964 59.5707C217.953 59.5763 217.941 59.5777 217.903 59.5777V59.7777C217.936 59.7777 217.994 59.7792 218.053 59.7496L217.964 59.5707ZM218.061 62.4605C217.976 62.4605 217.914 62.4284 217.839 62.3383L217.685 62.4664C217.786 62.5872 217.9 62.6605 218.061 62.6605V62.4605ZM217.852 62.3576C217.806 62.267 217.795 62.2005 217.808 62.12L217.611 62.0871C217.589 62.2174 217.613 62.3267 217.673 62.4471L217.852 62.3576ZM217.726 62.0049C217.652 61.9926 217.602 61.9584 217.542 61.8828L217.385 62.0078C217.466 62.108 217.556 62.1793 217.693 62.2022L217.726 62.0049ZM217.549 61.8939C217.509 61.8263 217.496 61.7624 217.509 61.6805L217.312 61.6476C217.291 61.7766 217.313 61.8886 217.378 61.9968L217.549 61.8939ZM217.509 61.6837C217.52 61.6275 217.553 61.5794 217.62 61.5389L217.517 61.3674C217.409 61.4323 217.337 61.5248 217.313 61.6445L217.509 61.6837ZM217.626 61.5353C217.845 61.3835 218.064 61.2826 218.3 61.2153L218.245 61.023C217.988 61.0963 217.75 61.2064 217.512 61.3709L217.626 61.5353ZM218.3 61.2153C218.526 61.1506 218.7 61.1711 218.842 61.2851L218.967 61.1289C218.758 60.9617 218.51 60.947 218.245 61.023L218.3 61.2153ZM218.834 61.2777C218.923 61.3662 218.959 61.4599 218.946 61.5638L219.145 61.5886C219.167 61.4112 219.098 61.2588 218.976 61.1363L218.834 61.2777ZM218.946 61.5695C218.939 61.6707 218.884 61.7912 218.759 61.9346C218.635 62.0773 218.449 62.2345 218.198 62.4079L218.311 62.5726C218.57 62.3944 218.77 62.2264 218.91 62.0659C219.049 61.9061 219.134 61.7453 219.145 61.5828L218.946 61.5695ZM218.194 62.4102C218.139 62.4518 218.107 62.4605 218.061 62.4605V62.6605C218.156 62.6605 218.229 62.6341 218.314 62.5702L218.194 62.4102Z" fill="#FCB454" mask="url(#path-2-outside-1_2379_14096)"/>
<path d="M6.688 18.096C5.84533 18.096 5.06667 17.9573 4.352 17.68C3.63733 17.392 3.01867 16.992 2.496 16.48C1.97333 15.968 1.56267 15.3653 1.264 14.672C0.976 13.9787 0.832 13.2213 0.832 12.4C0.832 11.5787 0.976 10.8213 1.264 10.128C1.56267 9.43467 1.97333 8.832 2.496 8.32C3.02933 7.808 3.65333 7.41333 4.368 7.136C5.08267 6.848 5.86133 6.704 6.704 6.704C7.51467 6.704 8.27733 6.84267 8.992 7.12C9.70667 7.38667 10.3093 7.792 10.8 8.336L10.048 9.088C9.58933 8.61867 9.08267 8.28267 8.528 8.08C7.97333 7.86667 7.376 7.76 6.736 7.76C6.064 7.76 5.44 7.87733 4.864 8.112C4.288 8.336 3.78667 8.66133 3.36 9.088C2.93333 9.504 2.59733 9.99467 2.352 10.56C2.11733 11.1147 2 11.728 2 12.4C2 13.072 2.11733 13.6907 2.352 14.256C2.59733 14.8107 2.93333 15.3013 3.36 15.728C3.78667 16.144 4.288 16.4693 4.864 16.704C5.44 16.928 6.064 17.04 6.736 17.04C7.376 17.04 7.97333 16.9333 8.528 16.72C9.08267 16.5067 9.58933 16.1653 10.048 15.696L10.8 16.448C10.3093 16.992 9.70667 17.4027 8.992 17.68C8.27733 17.9573 7.50933 18.096 6.688 18.096ZM23.116 6.8H24.284V18H23.116V6.8ZM16.108 18H14.924V6.8H16.108V18ZM23.228 12.832H15.98V11.792H23.228V12.832ZM34.4356 18.096C33.593 18.096 32.809 17.9573 32.0836 17.68C31.369 17.392 30.745 16.992 30.2116 16.48C29.689 15.9573 29.2783 15.3547 28.9796 14.672C28.6916 13.9787 28.5476 13.2213 28.5476 12.4C28.5476 11.5787 28.6916 10.8267 28.9796 10.144C29.2783 9.45067 29.689 8.848 30.2116 8.336C30.745 7.81333 31.369 7.41333 32.0836 7.136C32.7983 6.848 33.5823 6.704 34.4356 6.704C35.2783 6.704 36.057 6.848 36.7716 7.136C37.4863 7.41333 38.105 7.808 38.6276 8.32C39.161 8.832 39.5716 9.43467 39.8596 10.128C40.1583 10.8213 40.3076 11.5787 40.3076 12.4C40.3076 13.2213 40.1583 13.9787 39.8596 14.672C39.5716 15.3653 39.161 15.968 38.6276 16.48C38.105 16.992 37.4863 17.392 36.7716 17.68C36.057 17.9573 35.2783 18.096 34.4356 18.096ZM34.4356 17.04C35.1076 17.04 35.7263 16.928 36.2916 16.704C36.8676 16.4693 37.3636 16.144 37.7796 15.728C38.2063 15.3013 38.537 14.8107 38.7716 14.256C39.0063 13.6907 39.1236 13.072 39.1236 12.4C39.1236 11.728 39.0063 11.1147 38.7716 10.56C38.537 9.99467 38.2063 9.504 37.7796 9.088C37.3636 8.66133 36.8676 8.336 36.2916 8.112C35.7263 7.87733 35.1076 7.76 34.4356 7.76C33.7636 7.76 33.1396 7.87733 32.5636 8.112C31.9876 8.336 31.4863 8.66133 31.0596 9.088C30.6436 9.504 30.313 9.99467 30.0676 10.56C29.833 11.1147 29.7156 11.728 29.7156 12.4C29.7156 13.0613 29.833 13.6747 30.0676 14.24C30.313 14.8053 30.6436 15.3013 31.0596 15.728C31.4863 16.144 31.9876 16.4693 32.5636 16.704C33.1396 16.928 33.7636 17.04 34.4356 17.04ZM49.4575 18.096C48.6148 18.096 47.8308 17.9573 47.1055 17.68C46.3908 17.392 45.7668 16.992 45.2335 16.48C44.7108 15.9573 44.3002 15.3547 44.0015 14.672C43.7135 13.9787 43.5695 13.2213 43.5695 12.4C43.5695 11.5787 43.7135 10.8267 44.0015 10.144C44.3002 9.45067 44.7108 8.848 45.2335 8.336C45.7668 7.81333 46.3908 7.41333 47.1055 7.136C47.8202 6.848 48.6042 6.704 49.4575 6.704C50.3002 6.704 51.0788 6.848 51.7935 7.136C52.5082 7.41333 53.1268 7.808 53.6495 8.32C54.1828 8.832 54.5935 9.43467 54.8815 10.128C55.1802 10.8213 55.3295 11.5787 55.3295 12.4C55.3295 13.2213 55.1802 13.9787 54.8815 14.672C54.5935 15.3653 54.1828 15.968 53.6495 16.48C53.1268 16.992 52.5082 17.392 51.7935 17.68C51.0788 17.9573 50.3002 18.096 49.4575 18.096ZM49.4575 17.04C50.1295 17.04 50.7482 16.928 51.3135 16.704C51.8895 16.4693 52.3855 16.144 52.8015 15.728C53.2282 15.3013 53.5588 14.8107 53.7935 14.256C54.0282 13.6907 54.1455 13.072 54.1455 12.4C54.1455 11.728 54.0282 11.1147 53.7935 10.56C53.5588 9.99467 53.2282 9.504 52.8015 9.088C52.3855 8.66133 51.8895 8.336 51.3135 8.112C50.7482 7.87733 50.1295 7.76 49.4575 7.76C48.7855 7.76 48.1615 7.87733 47.5855 8.112C47.0095 8.336 46.5082 8.66133 46.0815 9.088C45.6655 9.504 45.3348 9.99467 45.0895 10.56C44.8548 11.1147 44.7375 11.728 44.7375 12.4C44.7375 13.0613 44.8548 13.6747 45.0895 14.24C45.3348 14.8053 45.6655 15.3013 46.0815 15.728C46.5082 16.144 47.0095 16.4693 47.5855 16.704C48.1615 16.928 48.7855 17.04 49.4575 17.04ZM62.6714 18.096C61.8394 18.096 61.0394 17.9627 60.2714 17.696C59.514 17.4187 58.9274 17.0667 58.5114 16.64L58.9754 15.728C59.37 16.112 59.898 16.4373 60.5594 16.704C61.2314 16.96 61.9354 17.088 62.6714 17.088C63.3754 17.088 63.946 17.0027 64.3834 16.832C64.8314 16.6507 65.1567 16.4107 65.3594 16.112C65.5727 15.8133 65.6794 15.4827 65.6794 15.12C65.6794 14.6827 65.5514 14.3307 65.2954 14.064C65.05 13.7973 64.7247 13.5893 64.3194 13.44C63.914 13.28 63.466 13.1413 62.9754 13.024C62.4847 12.9067 61.994 12.784 61.5034 12.656C61.0127 12.5173 60.5594 12.336 60.1434 12.112C59.738 11.888 59.4074 11.5947 59.1514 11.232C58.906 10.8587 58.7834 10.3733 58.7834 9.776C58.7834 9.22133 58.9274 8.71467 59.2154 8.256C59.514 7.78667 59.9674 7.41333 60.5754 7.136C61.1834 6.848 61.962 6.704 62.9114 6.704C63.5407 6.704 64.1647 6.79467 64.7834 6.976C65.402 7.14667 65.9354 7.38667 66.3834 7.696L65.9834 8.64C65.5034 8.32 64.9914 8.08533 64.4474 7.936C63.914 7.78667 63.3967 7.712 62.8954 7.712C62.2234 7.712 61.6687 7.80267 61.2314 7.984C60.794 8.16533 60.4687 8.41067 60.2554 8.72C60.0527 9.01867 59.9514 9.36 59.9514 9.744C59.9514 10.1813 60.074 10.5333 60.3194 10.8C60.5754 11.0667 60.906 11.2747 61.3114 11.424C61.7274 11.5733 62.1807 11.7067 62.6714 11.824C63.162 11.9413 63.6474 12.0693 64.1274 12.208C64.618 12.3467 65.066 12.528 65.4714 12.752C65.8874 12.9653 66.218 13.2533 66.4634 13.616C66.7194 13.9787 66.8474 14.4533 66.8474 15.04C66.8474 15.584 66.698 16.0907 66.3994 16.56C66.1007 17.0187 65.642 17.392 65.0234 17.68C64.4154 17.9573 63.6314 18.096 62.6714 18.096ZM72.0831 11.808H78.0031V12.816H72.0831V11.808ZM72.2111 16.976H78.9471V18H71.0271V6.8H78.7071V7.824H72.2111V16.976ZM91.7897 18V13.84L92.0617 14.576L87.3097 6.8H88.5737L92.7497 13.632H92.0777L96.2537 6.8H97.4377L92.6857 14.576L92.9577 13.84V18H91.7897ZM105.286 18.096C104.443 18.096 103.659 17.9573 102.934 17.68C102.219 17.392 101.595 16.992 101.062 16.48C100.539 15.9573 100.128 15.3547 99.8296 14.672C99.5416 13.9787 99.3976 13.2213 99.3976 12.4C99.3976 11.5787 99.5416 10.8267 99.8296 10.144C100.128 9.45067 100.539 8.848 101.062 8.336C101.595 7.81333 102.219 7.41333 102.934 7.136C103.648 6.848 104.432 6.704 105.286 6.704C106.128 6.704 106.907 6.848 107.622 7.136C108.336 7.41333 108.955 7.808 109.478 8.32C110.011 8.832 110.422 9.43467 110.71 10.128C111.008 10.8213 111.158 11.5787 111.158 12.4C111.158 13.2213 111.008 13.9787 110.71 14.672C110.422 15.3653 110.011 15.968 109.478 16.48C108.955 16.992 108.336 17.392 107.622 17.68C106.907 17.9573 106.128 18.096 105.286 18.096ZM105.286 17.04C105.958 17.04 106.576 16.928 107.142 16.704C107.718 16.4693 108.214 16.144 108.63 15.728C109.056 15.3013 109.387 14.8107 109.622 14.256C109.856 13.6907 109.974 13.072 109.974 12.4C109.974 11.728 109.856 11.1147 109.622 10.56C109.387 9.99467 109.056 9.504 108.63 9.088C108.214 8.66133 107.718 8.336 107.142 8.112C106.576 7.87733 105.958 7.76 105.286 7.76C104.614 7.76 103.99 7.87733 103.414 8.112C102.838 8.336 102.336 8.66133 101.91 9.088C101.494 9.504 101.163 9.99467 100.918 10.56C100.683 11.1147 100.566 11.728 100.566 12.4C100.566 13.0613 100.683 13.6747 100.918 14.24C101.163 14.8053 101.494 15.3013 101.91 15.728C102.336 16.144 102.838 16.4693 103.414 16.704C103.99 16.928 104.614 17.04 105.286 17.04ZM119.924 18.096C118.494 18.096 117.369 17.6853 116.548 16.864C115.726 16.0427 115.316 14.8267 115.316 13.216V6.8H116.5V13.168C116.5 14.4907 116.798 15.4667 117.396 16.096C117.993 16.7253 118.836 17.04 119.924 17.04C121.022 17.04 121.87 16.7253 122.468 16.096C123.065 15.4667 123.364 14.4907 123.364 13.168V6.8H124.516V13.216C124.516 14.8267 124.105 16.0427 123.284 16.864C122.473 17.6853 121.353 18.096 119.924 18.096ZM129.683 18V6.8H133.875C134.825 6.8 135.641 6.95467 136.323 7.264C137.006 7.56267 137.529 8 137.891 8.576C138.265 9.14133 138.451 9.82933 138.451 10.64C138.451 11.4293 138.265 12.112 137.891 12.688C137.529 13.2533 137.006 13.6907 136.323 14C135.641 14.2987 134.825 14.448 133.875 14.448H130.339L130.867 13.904V18H129.683ZM137.331 18L134.451 13.936H135.731L138.627 18H137.331ZM130.867 14L130.339 13.44H133.843C134.963 13.44 135.811 13.1947 136.387 12.704C136.974 12.2133 137.267 11.5253 137.267 10.64C137.267 9.744 136.974 9.05067 136.387 8.56C135.811 8.06933 134.963 7.824 133.843 7.824H130.339L130.867 7.264V14Z" fill="#216F6D"/>
</svg>
