<svg width="24" height="24" viewBox="0 0 24 24" fill="none" xmlns="http://www.w3.org/2000/svg">
<mask id="mask0_4637_25215" style="mask-type:alpha" maskUnits="userSpaceOnUse" x="0" y="0" width="24" height="24">
<rect width="24" height="24" fill="#D9D9D9"/>
</mask>
<g mask="url(#mask0_4637_25215)">
<path d="M12.5 13.4135L8.10208 17.8117C7.98201 17.9316 7.83109 17.993 7.64933 17.9959C7.46771 17.9986 7.31404 17.9372 7.18834 17.8117C7.06278 17.686 7 17.5337 7 17.3548C7 17.1759 7.06278 17.0236 7.18834 16.8979L11.5865 12.5L7.18834 8.10208C7.06842 7.98201 7.00701 7.83109 7.00412 7.64933C7.00137 7.46771 7.06278 7.31404 7.18834 7.18834C7.31404 7.06278 7.46633 7 7.64521 7C7.82409 7 7.97638 7.06278 8.10208 7.18834L12.5 11.5865L16.8979 7.18834C17.018 7.06842 17.1689 7.00701 17.3507 7.00412C17.5323 7.00137 17.686 7.06278 17.8117 7.18834C17.9372 7.31404 18 7.46633 18 7.64521C18 7.82409 17.9372 7.97638 17.8117 8.10208L13.4135 12.5L17.8117 16.8979C17.9316 17.018 17.993 17.1689 17.9959 17.3507C17.9986 17.5323 17.9372 17.686 17.8117 17.8117C17.686 17.9372 17.5337 18 17.3548 18C17.1759 18 17.0236 17.9372 16.8979 17.8117L12.5 13.4135Z" fill="#363636"/>
</g>
</svg>
