<svg width="21" height="21" viewBox="0 0 21 21" fill="none" xmlns="http://www.w3.org/2000/svg">
<path d="M10.5 11.7156L1.48951 20.7256C1.32892 20.8865 1.13184 20.9724 0.898258 20.9833C0.664963 20.9944 0.457001 20.9085 0.274372 20.7256C0.0914574 20.543 0 20.3405 0 20.1181C0 19.8956 0.0914574 19.6931 0.274372 19.5105L9.28443 10.5L0.274372 1.48951C0.113499 1.32892 0.0276233 1.13184 0.0167457 0.898257C0.00558188 0.664962 0.0914574 0.456999 0.274372 0.27437C0.457001 0.0914554 0.659524 0 0.881941 0C1.10436 0 1.30688 0.0914554 1.48951 0.27437L10.5 9.28443L19.5105 0.27437C19.6711 0.113497 19.8682 0.0276213 20.1017 0.0167437C20.335 0.00557992 20.543 0.0914554 20.7256 0.27437C20.9085 0.456999 21 0.659523 21 0.881941C21 1.10436 20.9085 1.30688 20.7256 1.48951L11.7156 10.5L20.7256 19.5105C20.8865 19.6711 20.9724 19.8682 20.9833 20.1017C20.9944 20.335 20.9085 20.543 20.7256 20.7256C20.543 20.9085 20.3405 21 20.1181 21C19.8956 21 19.6931 20.9085 19.5105 20.7256L10.5 11.7156Z" fill="#363636"/>
</svg>
