<svg width="126" height="69" viewBox="0 0 126 69" fill="none" xmlns="http://www.w3.org/2000/svg">
<path d="M74.416 9.4608C94.221 13.5427 106.707 32.4052 107.764 51.9838C108.47 65.06 103.271 76.8592 92.5958 84.7189C79.4779 94.3769 59.7897 99.343 45.175 90.0751C24.5202 76.9768 23.6001 47.129 37.4267 28.8463C54.7556 5.93269 93.4445 1.30868 113.897 22.5113C123.043 31.9932 126.795 46.8791 124.191 59.651C121.571 72.5047 111.26 81.5097 99.4954 86.3502C92.7026 89.1451 82.3011 91.3504 75.1279 92.0598C68.3698 92.7282 54.6845 92.8776 47.913 91.1354C24.4951 85.1103 20.1623 58.034 23.0253 37.6282C25.2642 21.67 33.4405 10.6152 48.6522 4.64842C64.1344 -1.42448 80.3251 -0.414683 92.5958 11.4728C110.219 28.5457 116.082 63.0392 96.1003 80.4503C87.3749 88.0531 76.983 91.4204 65.6547 93.0658C54.0535 94.7509 41.142 95.593 29.5415 93.4464C18.403 91.3854 6.99799 85.797 2.76465 74.6319C-2.02665 61.9952 3.78752 44.6977 10.0749 33.6043C22.1832 12.2405 51.3145 3.0663 74.6898 4.94749C87.4105 5.97123 97.3346 12.0299 103.383 23.327C109.646 35.0235 111.515 51.8192 108.914 64.7353C107.334 72.5781 102.881 80.5802 96.073 85.0995C88.1895 90.3327 77.4931 91.5415 68.2557 91.1898C55.6051 90.7081 41.5813 87.6486 31.2116 80.0696C20.0366 71.9021 18.004 57.0169 19.3291 44.1535C20.6312 31.5121 26.5107 19.3547 35.9756 10.7115C45.8085 1.73219 59.215 -0.484829 71.8971 2.66365C81.8565 5.13616 90.9375 10.5791 97.6336 18.3243C101.117 22.3529 103.079 25.5536 105.19 30.396C107.595 35.9097 107.778 40.9286 108.914 46.6548" stroke="#2AE5FF" stroke-width="0.4" stroke-linecap="round"/>
</svg>
