<svg width="32" height="32" viewBox="0 0 32 32" fill="none" xmlns="http://www.w3.org/2000/svg">
<path d="M13.04 25.54C14 25.83 14.97 26 16 26C18.6522 26 21.1957 24.9464 23.0711 23.0711C24.9464 21.1957 26 18.6522 26 16C26 14.6868 25.7413 13.3864 25.2388 12.1732C24.7362 10.9599 23.9997 9.85752 23.0711 8.92893C22.1425 8.00035 21.0401 7.26375 19.8268 6.7612C18.6136 6.25866 17.3132 6 16 6C14.6868 6 13.3864 6.25866 12.1732 6.7612C10.9599 7.26375 9.85752 8.00035 8.92893 8.92893C7.05357 10.8043 6 13.3478 6 16C6 20.25 8.67 23.9 12.44 25.34C12.35 24.56 12.26 23.27 12.44 22.38L13.59 17.44C13.59 17.44 13.3 16.86 13.3 15.94C13.3 14.56 14.16 13.53 15.14 13.53C16 13.53 16.4 14.16 16.4 14.97C16.4 15.83 15.83 17.06 15.54 18.24C15.37 19.22 16.06 20.08 17.06 20.08C18.84 20.08 20.22 18.18 20.22 15.5C20.22 13.1 18.5 11.46 16.03 11.46C13.21 11.46 11.55 13.56 11.55 15.77C11.55 16.63 11.83 17.5 12.29 18.07C12.38 18.13 12.38 18.21 12.35 18.36L12.06 19.45C12.06 19.62 11.95 19.68 11.78 19.56C10.5 19 9.76 17.18 9.76 15.71C9.76 12.55 12 9.68 16.32 9.68C19.76 9.68 22.44 12.15 22.44 15.43C22.44 18.87 20.31 21.63 17.26 21.63C16.29 21.63 15.34 21.11 15 20.5L14.33 22.87C14.1 23.73 13.47 24.88 13.04 25.57V25.54Z" fill="#151515"/>
</svg>
