<svg width="44" height="32" viewBox="0 0 44 32" fill="none" xmlns="http://www.w3.org/2000/svg">
<path d="M24.1928 15.1604C26.3672 8.05763 32.025 4.16196 33.4808 3.18939C36.1748 1.38937 38.7088 0.480346 40.3499 0.00730866C40.3499 0.00730866 40.3697 0.000682533 40.396 0.000682536C40.6052 0.404367 40.8144 0.807848 41.0235 1.21153C40.8319 1.26391 40.7262 1.28999 40.7262 1.28999C36.0229 2.94573 31.9734 6.36215 29.8464 10.7863C29.5426 11.4211 29.2783 12.0757 29.0472 12.7497C30.4278 12.056 31.9868 11.6633 33.6383 11.6633C39.2533 11.6633 43.8047 16.1726 43.8047 21.7422C43.8047 27.3052 39.2533 31.8145 33.6383 31.8145C29.4039 31.8145 25.7641 29.2489 24.2382 25.5971C23.9615 24.9348 23.8192 24.3943 23.6899 23.8627C22.7521 20.0074 23.7124 16.7294 24.1928 15.1604Z" fill="#F04A23"/>
<path d="M1.19477 15.1604C3.36913 8.05763 9.02715 4.16196 10.4827 3.18939C13.1767 1.38937 15.7107 0.480346 17.3518 0.00730866C17.3518 0.00730866 17.3717 0.000682536 17.398 0.000682538C17.6072 0.404367 17.8163 0.807848 18.0255 1.21153C17.8339 1.26391 17.7281 1.28999 17.7281 1.28999C13.0248 2.94573 8.97554 6.36215 6.8484 10.7863C6.54458 11.4211 6.28026 12.0757 6.04916 12.7497C7.4297 12.056 8.9887 11.6633 10.6403 11.6633C16.2552 11.6633 20.8066 16.1726 20.8066 21.7422C20.8066 27.3052 16.2552 31.8145 10.6403 31.8145C6.40583 31.8145 2.76609 29.2489 1.24011 25.5971C0.963454 24.9348 0.821166 24.3943 0.691823 23.8627C-0.245746 20.0074 0.714597 16.7294 1.19477 15.1604Z" fill="#F04A23"/>
</svg>
