<svg width="24" height="24" viewBox="0 0 24 24" fill="none" xmlns="http://www.w3.org/2000/svg">
<path d="M12.3443 13.398L7.27125 18.4713C7.13275 18.6096 6.95867 18.6804 6.749 18.6838C6.5395 18.6869 6.36225 18.6161 6.21725 18.4713C6.07242 18.3263 6 18.1506 6 17.9443C6 17.7379 6.07242 17.5623 6.21725 17.4173L11.2905 12.3443L6.21725 7.27125C6.07892 7.13275 6.00808 6.95867 6.00475 6.749C6.00158 6.5395 6.07242 6.36225 6.21725 6.21725C6.36225 6.07242 6.53792 6 6.74425 6C6.95058 6 7.12625 6.07242 7.27125 6.21725L12.3443 11.2905L17.4173 6.21725C17.5558 6.07892 17.7298 6.00808 17.9395 6.00475C18.149 6.00158 18.3263 6.07242 18.4713 6.21725C18.6161 6.36225 18.6885 6.53792 18.6885 6.74425C18.6885 6.95058 18.6161 7.12625 18.4713 7.27125L13.398 12.3443L18.4713 17.4173C18.6096 17.5558 18.6804 17.7298 18.6838 17.9395C18.6869 18.149 18.6161 18.3263 18.4713 18.4713C18.3263 18.6161 18.1506 18.6885 17.9443 18.6885C17.7379 18.6885 17.5623 18.6161 17.4173 18.4713L12.3443 13.398Z" fill="#216F6D"/>
</svg>
