<svg width="20" height="38" viewBox="0 0 20 38" fill="none" xmlns="http://www.w3.org/2000/svg">
<path d="M17.4302 19.0032L0.36001 35.7201C0.132299 35.9706 0.012558 36.2849 0.000780106 36.663C-0.0106411 37.0407 0.10339 37.3579 0.342878 37.6148C0.617701 37.8716 0.947308 38 1.3317 38C1.7161 38 2.03875 37.8707 2.29965 37.6121L19.1718 21.0082C19.4794 20.7198 19.6943 20.4033 19.8164 20.0585C19.9388 19.7134 20 19.365 20 19.0132C20 18.6614 19.9424 18.3098 19.8271 17.9584C19.7114 17.6066 19.493 17.2731 19.1718 16.9577L2.28734 0.382166C2.01251 0.123592 1.68844 -0.00376919 1.31511 8.49025e-05C0.941778 0.00428936 0.623411 0.135679 0.36001 0.394253C0.132299 0.653178 0.0163021 0.968512 0.0120201 1.34026C0.00773621 1.71235 0.123734 2.02769 0.36001 2.28626L17.4302 19.0032Z" fill="#5F9392"/>
</svg>
