<svg width="32" height="32" viewBox="0 0 32 32" fill="none" xmlns="http://www.w3.org/2000/svg">
<circle cx="16" cy="16" r="16" fill="black" fill-opacity="0.5"/>
<path d="M16.4558 18.8647V21.6385C16.4558 22.7308 15.2553 23.3231 14.467 22.6154L13.5327 21.77C13.4358 21.6823 13.4299 21.5262 13.5196 21.4308L16.0856 18.7015C16.2223 18.5561 16.4558 18.6593 16.4558 18.8647ZM20.4008 14.4922C20.314 14.1884 20.0161 14.0168 19.7225 14.1099C19.4361 14.2037 19.2755 14.526 19.3638 14.8307C19.7738 16.2522 19.4101 17.7938 18.4142 18.8538C18.2023 19.0792 18.2023 19.4446 18.4142 19.67C18.5198 19.7823 18.6587 19.8392 18.7975 19.8392C18.9364 19.8392 19.0752 19.783 19.1808 19.67C20.4623 18.3069 20.9302 16.323 20.4008 14.4922ZM22.5567 12.0452C22.4135 11.7659 22.0851 11.6637 21.8197 11.8176C21.5579 11.9706 21.4617 12.3215 21.6057 12.6007C23.0202 15.3423 22.5494 18.8085 20.4608 21.03C20.2489 21.2554 20.2489 21.6208 20.4608 21.8462C20.5664 21.9585 20.7053 22.0154 20.8442 22.0154C20.983 22.0154 21.1219 21.9593 21.2275 21.8462C23.6552 19.2639 24.202 15.2337 22.5567 12.0452ZM22.6247 8.66904C22.4128 8.44365 22.0692 8.44365 21.8573 8.66904L16.4551 14.4152V10.3613C16.4551 9.26901 15.2546 8.67668 14.4663 9.38438L11.7977 11.7922C11.5374 12.023 11.2048 12.1537 10.8649 12.1537H9.58479C8.98454 12.1537 8.5 12.6691 8.5 13.3076V18.6923C8.5 19.3307 8.98454 19.8461 9.58479 19.8461H10.8649C11.0073 19.8461 11.1468 19.8731 11.2821 19.9169L8.83988 22.5146C8.62798 22.74 8.62798 23.1054 8.83988 23.3308C8.94547 23.4431 9.08434 23.5 9.22319 23.5C9.36205 23.5 9.50092 23.4439 9.60651 23.3308L22.624 9.48448C22.8366 9.25909 22.8366 8.89443 22.6247 8.66904Z" fill="white"/>
</svg>
