<svg width="32" height="32" viewBox="0 0 32 32" fill="none" xmlns="http://www.w3.org/2000/svg">
<circle cx="16" cy="16" r="16" fill="black" fill-opacity="0.5"/>
<path d="M9.08506 12.111H10.3632C10.7061 12.111 11.0375 11.9802 11.2986 11.7422L13.9685 9.31019C14.7534 8.59542 15.9578 9.19521 15.9578 10.3012V21.6985C15.9578 22.8044 14.7534 23.405 13.9685 22.6895L11.2986 20.2574C11.0375 20.0194 10.7061 19.8887 10.3632 19.8887H9.08506C8.48611 19.8887 8 19.366 8 18.722V13.2784C8 12.6336 8.48611 12.111 9.08506 12.111ZM18.682 19.7106C19.6072 18.7205 20.1165 17.4021 20.1165 15.9998C20.1165 14.5975 19.6072 13.2792 18.682 12.2891C18.4694 12.062 18.1258 12.062 17.9146 12.2906C17.7026 12.5185 17.7041 12.8888 17.916 13.1159C18.635 13.8858 19.0314 14.9109 19.0314 16.0006C19.0314 17.0902 18.635 18.1153 17.916 18.8853C17.7041 19.1124 17.7026 19.4819 17.9146 19.7106C18.0202 19.8249 18.1598 19.8824 18.2987 19.8824C18.4376 19.8808 18.5757 19.8241 18.682 19.7106ZM20.3458 22.082C20.2069 22.082 20.0673 22.0253 19.9617 21.9109C19.7505 21.6831 19.7505 21.3136 19.9631 21.0857C21.2283 19.7293 21.9249 17.9233 21.9249 15.9998C21.9249 14.0764 21.2283 12.2712 19.9631 10.914C19.7505 10.6861 19.7505 10.3166 19.9617 10.0887C20.1729 9.86083 20.5166 9.86007 20.7292 10.088C22.1999 11.6653 23.01 13.7653 23.01 15.9998C23.01 18.2344 22.1999 20.3344 20.7292 21.9117C20.6229 22.0253 20.4847 22.082 20.3458 22.082Z" fill="white"/>
</svg>
