<svg width="32" height="32" viewBox="0 0 32 32" fill="none" xmlns="http://www.w3.org/2000/svg">
<path d="M16.0001 12.8753C14.2798 12.8753 12.8759 14.2792 12.8759 15.9995C12.8759 17.7198 14.2798 19.1237 16.0001 19.1237C17.7204 19.1237 19.1243 17.7198 19.1243 15.9995C19.1243 14.2792 17.7204 12.8753 16.0001 12.8753ZM25.3704 15.9995C25.3704 14.7058 25.3821 13.4237 25.3095 12.1323C25.2368 10.6323 24.8946 9.30109 23.7978 8.20421C22.6985 7.10499 21.3696 6.76515 19.8696 6.69249C18.5759 6.61984 17.2939 6.63156 16.0025 6.63156C14.7087 6.63156 13.4267 6.61984 12.1353 6.69249C10.6353 6.76515 9.30402 7.10734 8.20714 8.20421C7.10792 9.30343 6.76808 10.6323 6.69542 12.1323C6.62277 13.4261 6.63449 14.7081 6.63449 15.9995C6.63449 17.2909 6.62277 18.5753 6.69542 19.8667C6.76808 21.3667 7.11027 22.698 8.20714 23.7948C9.30636 24.8941 10.6353 25.2339 12.1353 25.3066C13.429 25.3792 14.711 25.3675 16.0025 25.3675C17.2962 25.3675 18.5782 25.3792 19.8696 25.3066C21.3696 25.2339 22.7009 24.8917 23.7978 23.7948C24.897 22.6956 25.2368 21.3667 25.3095 19.8667C25.3845 18.5753 25.3704 17.2933 25.3704 15.9995ZM16.0001 20.8066C13.34 20.8066 11.1931 18.6597 11.1931 15.9995C11.1931 13.3394 13.34 11.1925 16.0001 11.1925C18.6603 11.1925 20.8071 13.3394 20.8071 15.9995C20.8071 18.6597 18.6603 20.8066 16.0001 20.8066ZM21.004 12.1183C20.3829 12.1183 19.8814 11.6167 19.8814 10.9956C19.8814 10.3745 20.3829 9.87296 21.004 9.87296C21.6251 9.87296 22.1267 10.3745 22.1267 10.9956C22.1269 11.1431 22.0979 11.2892 22.0416 11.4255C21.9852 11.5618 21.9026 11.6856 21.7983 11.7899C21.694 11.8942 21.5701 11.9768 21.4339 12.0332C21.2976 12.0895 21.1515 12.1185 21.004 12.1183Z" fill="white"/>
</svg>
