<svg width="32" height="32" viewBox="0 0 32 32" fill="none" xmlns="http://www.w3.org/2000/svg">
<path d="M13.6631 18.5534L14.5706 18.3462L14.6606 18.3218C14.8167 18.2804 14.9603 18.2024 15.0793 18.0943C15.1982 17.9863 15.289 17.8514 15.3439 17.7012C15.3987 17.5509 15.416 17.3898 15.3943 17.2316C15.3726 17.0733 15.3125 16.9226 15.2192 16.7923C15.1183 16.6641 14.9925 16.5572 14.8492 16.4778C14.68 16.3838 14.5036 16.3031 14.3215 16.2365L13.3252 15.877C12.7665 15.6714 12.2059 15.4711 11.6433 15.2761C11.2771 15.1469 10.9652 15.0348 10.6976 14.9519C10.647 14.9361 10.5903 14.9214 10.5447 14.9056C10.304 14.8224 10.0522 14.7747 9.79745 14.7642C9.66478 14.7587 9.53255 14.7826 9.41048 14.8343C9.28842 14.886 9.17964 14.9641 9.09215 15.0628C9.04673 15.1146 9.00353 15.1683 8.96268 15.2237C8.8854 15.342 8.82132 15.4683 8.77156 15.6003C8.5866 16.1402 8.49412 16.7069 8.50029 17.2773C8.50276 17.7929 8.51632 18.4547 8.80362 18.9032C8.8728 19.018 8.96514 19.1176 9.07489 19.1957C9.27957 19.3346 9.48549 19.3529 9.70004 19.3675C10.0206 19.3907 10.3326 19.3127 10.6421 19.242L13.6594 18.5522L13.6631 18.5534ZM23.7975 13.7868C23.5492 13.2726 23.2158 12.803 22.811 12.3974C22.7077 12.3002 22.594 12.2144 22.4719 12.1414C22.4116 12.1092 22.3499 12.0796 22.287 12.0525C22.1646 12.0018 22.0323 11.9789 21.8998 11.9854C21.7673 11.992 21.6379 12.0278 21.5213 12.0902C21.3462 12.1756 21.1587 12.3121 20.9097 12.5412C20.8751 12.5753 20.832 12.6143 20.7938 12.6497C20.5878 12.8398 20.3585 13.0762 20.086 13.3505C19.6668 13.7697 19.2516 14.193 18.8406 14.6204L18.1033 15.376C17.9692 15.5146 17.8463 15.6633 17.7358 15.8209C17.642 15.9545 17.5762 16.1054 17.5422 16.2645C17.5216 16.3862 17.5245 16.5107 17.5509 16.6314C17.5509 16.6371 17.5521 16.6423 17.5546 16.6472C17.6119 16.8975 17.7657 17.1159 17.9832 17.256C18.2007 17.3962 18.4649 17.4471 18.7198 17.398L18.811 17.3809L22.7383 16.4839C23.0478 16.4132 23.3622 16.3474 23.6409 16.189C23.8271 16.0817 24.0046 15.9757 24.1267 15.7624C24.191 15.6444 24.2301 15.5145 24.2414 15.3809C24.303 14.852 24.0219 14.2511 23.7975 13.7868ZM16.7679 15.4187C17.0515 15.0653 17.0515 14.5388 17.0761 14.1085C17.1624 12.6692 17.2525 11.2298 17.324 9.79043C17.3511 9.24442 17.4103 8.70573 17.3782 8.15728C17.3511 7.7039 17.3474 7.18349 17.0576 6.81176C16.5484 6.15607 15.4584 6.20969 14.7136 6.31085C14.4851 6.34172 14.2578 6.38398 14.0317 6.4376C13.8065 6.49035 13.5831 6.55092 13.3622 6.6192C12.647 6.85076 11.6446 7.27368 11.4756 8.08659C11.3795 8.54607 11.6063 9.01651 11.7827 9.43577C11.996 9.944 12.2882 10.401 12.5533 10.88C13.2562 12.1427 13.9713 13.398 14.684 14.6545C14.8961 15.0299 15.1279 15.504 15.541 15.699C15.5681 15.7112 15.5961 15.7214 15.6248 15.7295C15.8098 15.799 16.0108 15.8124 16.2031 15.7685L16.2377 15.76C16.4156 15.7128 16.5766 15.6174 16.7025 15.4845L16.7679 15.4187ZM16.4275 19.2712C16.3021 19.0989 16.1192 18.9758 15.9111 18.9237C15.7029 18.8715 15.4828 18.8936 15.2894 18.986C15.2268 19.0175 15.167 19.0542 15.1107 19.0957C14.9509 19.2215 14.8076 19.3664 14.684 19.5272C14.652 19.5674 14.6224 19.621 14.5854 19.6539L13.9541 20.5131C13.5965 20.9933 13.2426 21.478 12.8924 21.9671C12.6643 22.284 12.4658 22.5509 12.3104 22.7874L12.2216 22.9214C12.0342 23.2078 11.9282 23.4163 11.8739 23.6027C11.8323 23.7258 11.8196 23.8567 11.8369 23.9854C11.8529 24.1195 11.8986 24.2499 11.9701 24.3657C12.0079 24.4226 12.049 24.4786 12.0934 24.5339C12.188 24.6413 12.2943 24.7382 12.4103 24.8227C13.2153 25.3605 14.149 25.6799 15.1181 25.749C15.2623 25.7536 15.4066 25.7426 15.5484 25.7161C15.6162 25.6994 15.6832 25.6799 15.7494 25.6576C15.8777 25.6096 15.9944 25.5357 16.0922 25.4406C16.1861 25.3498 16.2578 25.2389 16.3018 25.1164C16.3745 24.9373 16.4226 24.7081 16.4534 24.3693L16.4682 24.2109C16.4929 23.9294 16.5052 23.5991 16.5237 23.2103C16.5541 22.6131 16.5788 22.0163 16.5977 21.4199L16.6384 20.3596C16.6543 20.1046 16.6314 19.8486 16.5706 19.6003C16.5392 19.4842 16.4918 19.3733 16.4275 19.2712ZM23.5583 20.9312C23.3768 20.7495 23.17 20.5944 22.9442 20.4705L22.8061 20.3888C22.5607 20.2426 22.266 20.089 21.9195 19.9038C21.3902 19.6169 20.8579 19.3346 20.3227 19.0567L19.377 18.5607C19.3277 18.5461 19.2784 18.5119 19.2315 18.4888C19.0492 18.3981 18.8562 18.3301 18.6569 18.2865C18.5878 18.2732 18.5177 18.2659 18.4473 18.2645C18.2328 18.2658 18.0256 18.3418 17.8621 18.4791C17.6986 18.6164 17.5893 18.8062 17.5533 19.0153C17.5397 19.1343 17.5438 19.2546 17.5657 19.3724C17.6125 19.621 17.7259 19.8672 17.8419 20.0829L18.3474 21.0189C18.6277 21.5471 18.9138 22.0728 19.2056 22.596C19.393 22.9373 19.5509 23.2298 19.6964 23.4723C19.7259 23.5186 19.7539 23.5641 19.7802 23.6088C19.959 23.9001 20.102 24.0841 20.2475 24.2145C20.3438 24.3069 20.4598 24.3769 20.5869 24.4193C20.7141 24.4617 20.8492 24.4754 20.9824 24.4595C21.052 24.4507 21.1211 24.4389 21.1896 24.4242C21.3286 24.3864 21.4629 24.3337 21.5903 24.267C21.9754 24.0547 22.33 23.7924 22.6446 23.4869C23.0219 23.1213 23.356 22.7191 23.6162 22.2609C23.6532 22.1959 23.6844 22.1288 23.7099 22.0598C23.7337 21.9953 23.7547 21.9298 23.7728 21.8635C23.7884 21.7961 23.8003 21.7279 23.8086 21.6588C23.8211 21.5242 23.8051 21.3885 23.7617 21.2603C23.7202 21.1367 23.6506 21.0241 23.5583 20.9312Z" fill="#151515"/>
</svg>
