<svg width="32" height="32" viewBox="0 0 32 32" fill="none" xmlns="http://www.w3.org/2000/svg">
<path d="M15.9991 12.8753C14.2788 12.8753 12.8749 14.2792 12.8749 15.9995C12.8749 17.7198 14.2788 19.1237 15.9991 19.1237C17.7194 19.1237 19.1234 17.7198 19.1234 15.9995C19.1234 14.2792 17.7194 12.8753 15.9991 12.8753ZM25.3694 15.9995C25.3694 14.7058 25.3812 13.4237 25.3085 12.1323C25.2359 10.6323 24.8937 9.30109 23.7968 8.20421C22.6976 7.10499 21.3687 6.76515 19.8687 6.69249C18.5749 6.61984 17.2929 6.63156 16.0015 6.63156C14.7077 6.63156 13.4257 6.61984 12.1343 6.69249C10.6343 6.76515 9.30304 7.10734 8.20617 8.20421C7.10695 9.30343 6.7671 10.6323 6.69445 12.1323C6.62179 13.4261 6.63351 14.7081 6.63351 15.9995C6.63351 17.2909 6.62179 18.5753 6.69445 19.8667C6.7671 21.3667 7.10929 22.698 8.20617 23.7948C9.30538 24.8941 10.6343 25.2339 12.1343 25.3066C13.428 25.3792 14.7101 25.3675 16.0015 25.3675C17.2952 25.3675 18.5773 25.3792 19.8687 25.3066C21.3687 25.2339 22.6999 24.8917 23.7968 23.7948C24.896 22.6956 25.2359 21.3667 25.3085 19.8667C25.3835 18.5753 25.3694 17.2933 25.3694 15.9995ZM15.9991 20.8066C13.339 20.8066 11.1921 18.6597 11.1921 15.9995C11.1921 13.3394 13.339 11.1925 15.9991 11.1925C18.6593 11.1925 20.8062 13.3394 20.8062 15.9995C20.8062 18.6597 18.6593 20.8066 15.9991 20.8066ZM21.003 12.1183C20.3819 12.1183 19.8804 11.6167 19.8804 10.9956C19.8804 10.3745 20.3819 9.87296 21.003 9.87296C21.6241 9.87296 22.1257 10.3745 22.1257 10.9956C22.1259 11.1431 22.097 11.2892 22.0406 11.4255C21.9843 11.5618 21.9016 11.6856 21.7973 11.7899C21.693 11.8942 21.5692 11.9768 21.4329 12.0332C21.2966 12.0895 21.1505 12.1185 21.003 12.1183Z" fill="#151515"/>
</svg>
