<svg width="36" height="36" viewBox="0 0 36 36" fill="none" xmlns="http://www.w3.org/2000/svg">
<path d="M18.1381 29.7924C17.3304 29.7924 16.5227 29.7152 15.7375 29.563C14.9715 29.4145 14.2182 29.193 13.4981 28.9045C12.7915 28.6213 12.1101 28.2709 11.4729 27.8631C10.8421 27.4594 10.2489 26.9957 9.70984 26.485C9.17089 25.9744 8.68147 25.4124 8.25522 24.8147C7.8247 24.2109 7.45485 23.5654 7.15599 22.896C6.85144 22.214 6.61763 21.5002 6.46085 20.7745C6.30016 20.0306 6.21875 19.2654 6.21875 18.5002C6.21875 17.735 6.30016 16.9697 6.46085 16.2259C6.61763 15.5002 6.85144 14.7864 7.15599 14.1044C7.45485 13.4349 7.8247 12.7894 8.25522 12.1857C8.68136 11.5881 9.17077 11.0261 9.70984 10.5154C10.2489 10.0047 10.842 9.54104 11.4729 9.13732C12.1102 8.72946 12.7916 8.37907 13.4981 8.09593C14.2182 7.8074 14.9716 7.5859 15.7375 7.43737C16.5227 7.28514 17.3304 7.20801 18.1381 7.20801C18.9458 7.20801 19.7537 7.28514 20.5387 7.43737C21.3047 7.5859 22.0582 7.8074 22.7781 8.09593C23.4847 8.37907 24.1661 8.72946 24.8033 9.13732C24.907 9.20367 25.0141 9.27474 25.1216 9.3485L25.3298 9.49141L23.2692 11.4433L23.1197 11.3496C21.6394 10.4207 19.9167 9.92971 18.138 9.92971C13.1497 9.92971 9.09149 13.7744 9.09149 18.5002C9.09149 23.226 13.1497 27.0707 18.138 27.0707C23.1263 27.0707 27.1845 23.226 27.1845 18.5002C27.1845 17.7312 27.0763 16.9682 26.863 16.2323L26.8292 16.1158L29.0734 13.99L29.1974 14.2813C29.4644 14.9093 29.6723 15.5635 29.8154 16.2258C29.9761 16.9697 30.0575 17.7349 30.0575 18.5001C30.0575 19.2653 29.9761 20.0305 29.8154 20.7744C29.6586 21.5001 29.4248 22.2139 29.1202 22.8959C28.8214 23.5653 28.4515 24.2108 28.021 24.8146C27.5948 25.4123 27.1053 25.9742 26.5664 26.4849C26.0273 26.9956 25.4342 27.4593 24.8033 27.863C24.1661 28.2708 23.4847 28.6212 22.7781 28.9044C22.0581 29.1929 21.3046 29.4144 20.5387 29.5629C19.7535 29.7152 18.9458 29.7924 18.1381 29.7924Z" fill="white"/>
<path d="M17.8167 22.9046C17.4951 22.9046 17.1927 22.7859 16.9653 22.5705L12.8312 18.654C12.6038 18.4386 12.4785 18.1521 12.4785 17.8474C12.4785 17.5427 12.6038 17.2562 12.8312 17.0407L14.0271 15.9077C14.2545 15.6923 14.5569 15.5736 14.8786 15.5736C15.2002 15.5736 15.5026 15.6923 15.73 15.9077L17.8167 17.8847C19.0238 16.7413 26.8483 9.32965 26.9732 9.21144C27.2006 8.996 27.503 8.87744 27.8245 8.87744C28.146 8.87744 28.4485 8.99611 28.676 9.21155L29.8719 10.3446C30.0993 10.56 30.2245 10.8465 30.2245 11.1513C30.2245 11.456 30.0993 11.7425 29.8718 11.9579C29.8529 11.9758 20.5996 20.7407 20.5605 20.7778L18.6682 22.5706C18.4407 22.786 18.1383 22.9046 17.8167 22.9046Z" fill="#DEE894"/>
<g style="mix-blend-mode:multiply">
<path d="M30.3383 16.4758C30.1927 15.8013 29.9808 15.135 29.7088 14.4953L29.461 13.9126L29.33 14.0368L29.1615 14.1964L28.9921 14.3567L27.0726 16.1751L26.8946 16.3436L26.8923 16.3459L26.9279 16.4687L26.9598 16.5788C27.1679 17.2968 27.2735 18.0414 27.2735 18.7917C27.2735 23.403 23.3136 27.1545 18.4462 27.1545C17.6043 27.1545 16.7894 27.0423 16.0176 26.8327C14.4868 26.4172 13.125 25.6188 12.0552 24.5548C10.5465 23.0535 9.61906 21.0233 9.61906 18.7917C9.61906 14.1805 13.5789 10.4289 18.4462 10.4289C20.1818 10.4289 21.8626 10.908 23.307 11.8142L23.6057 12.0017L23.8591 11.7617L25.6112 10.102L25.9748 9.75759L25.6175 9.51251L25.5584 9.47187C25.449 9.39676 25.34 9.32435 25.2343 9.25676C24.5853 8.84137 23.8913 8.48448 23.1716 8.19617C22.5886 7.96243 21.9839 7.77192 21.3684 7.62776C21.2098 7.59049 21.0505 7.55636 20.8908 7.52538C20.0913 7.37034 19.2687 7.29175 18.4462 7.29175C17.6237 7.29175 16.8013 7.37034 16.0016 7.52538C15.2215 7.6766 14.4541 7.90226 13.7208 8.19617C13.0012 8.48448 12.3073 8.84137 11.6583 9.25676C11.0159 9.66789 10.4118 10.1401 9.86294 10.66C9.31403 11.18 8.81561 11.7524 8.38165 12.361C7.94319 12.9757 7.56659 13.6332 7.26216 14.315C6.95204 15.0097 6.71384 15.7367 6.55422 16.4758C6.39057 17.2333 6.30762 18.0125 6.30762 18.7917C6.30762 19.571 6.39057 20.3501 6.55422 21.1077C6.58705 21.2598 6.62331 21.4114 6.66277 21.5623C6.81493 22.1446 7.01591 22.7167 7.26216 23.2685C7.56659 23.9503 7.94319 24.6078 8.38165 25.2225C8.77508 25.7741 9.22113 26.2958 9.70995 26.7758C9.71019 26.7761 9.71054 26.7763 9.71078 26.7765C9.76103 26.8259 9.81174 26.8749 9.86294 26.9234C10.4118 27.4434 11.0159 27.9156 11.6583 28.3267C12.3073 28.7421 13.0012 29.099 13.7208 29.3873C13.8945 29.4569 14.0703 29.5227 14.2475 29.5846C14.7281 29.7523 15.2204 29.8913 15.7192 30H21.1733C21.6721 29.8913 22.1645 29.7523 22.6449 29.5846C22.8222 29.5227 22.9979 29.4569 23.1716 29.3873C23.8913 29.099 24.5853 28.7421 25.2343 28.3267C25.8767 27.9156 26.4807 27.4434 27.0296 26.9234C27.5785 26.4035 28.0768 25.8311 28.5109 25.2225C28.9494 24.6078 29.326 23.9503 29.6303 23.2685C29.9405 22.5738 30.1787 21.8468 30.3383 21.1077C30.502 20.3501 30.5849 19.571 30.5849 18.7917C30.5849 18.0125 30.502 17.2334 30.3383 16.4758ZM16.0895 29.6511C15.9827 29.6304 15.876 29.6083 15.7697 29.5846C15.6033 29.5478 15.4379 29.5073 15.2733 29.4634C14.803 29.3381 14.3407 29.1847 13.8917 29.0047C13.1981 28.7269 12.5293 28.383 11.9037 27.9825C11.2844 27.5862 10.7022 27.131 10.1729 26.6297C10.1212 26.5807 10.07 26.5312 10.0191 26.4813C9.55045 26.0202 9.12253 25.5194 8.74498 24.99C8.3224 24.3974 7.95931 23.7637 7.66601 23.1067C7.36715 22.4373 7.13761 21.7366 6.98379 21.0244C6.82607 20.2942 6.74608 19.543 6.74608 18.7917C6.74608 18.0405 6.82607 17.2893 6.98379 16.5591C7.13761 15.8469 7.36715 15.1462 7.66601 14.4767C7.95931 13.8198 8.3224 13.1861 8.74498 12.5935C9.16342 12.0068 9.64383 11.4551 10.1729 10.9538C10.7022 10.4524 11.2844 9.99728 11.9037 9.60098C12.5293 9.20052 13.1981 8.85664 13.8917 8.57878C14.5983 8.29553 15.3378 8.07807 16.0895 7.93235C16.8603 7.78292 17.6532 7.70714 18.4462 7.70714C19.2392 7.70714 20.0323 7.78292 20.803 7.93235C21.5548 8.07807 22.2942 8.29553 23.0009 8.57878C23.6757 8.84912 24.3272 9.18199 24.938 9.56876C24.955 9.57942 24.9719 9.5902 24.9888 9.60098C25.0335 9.6296 25.078 9.65857 25.1223 9.68787C25.1823 9.72739 25.242 9.76758 25.3012 9.80822L23.5491 11.4679C23.4876 11.4294 23.4256 11.3914 23.3631 11.3543C22.5286 10.8574 21.6051 10.4828 20.6209 10.2579C19.9232 10.0982 19.1949 10.0136 18.4462 10.0136C13.3371 10.0136 9.1806 13.9514 9.1806 18.7917C9.1806 19.502 9.27007 20.1927 9.43893 20.8544C9.82786 22.3787 10.6378 23.7491 11.7454 24.8484C13.4337 26.5243 15.8134 27.5699 18.4462 27.5699C23.5553 27.5699 27.7119 23.632 27.7119 18.7917C27.7119 17.9879 27.5972 17.209 27.3826 16.4688L29.1635 14.7819L29.3021 14.6505C29.4597 15.0211 29.5963 15.4005 29.7106 15.7856C29.7865 16.0412 29.8527 16.2994 29.9088 16.5591C30.0665 17.2893 30.1465 18.0405 30.1465 18.7917C30.1465 19.543 30.0665 20.2942 29.9088 21.0244C29.7549 21.7366 29.5254 22.4373 29.2265 23.1067C28.9331 23.7637 28.5701 24.3974 28.1476 24.99C27.7291 25.5767 27.2487 26.1284 26.7195 26.6297C26.1904 27.131 25.608 27.5862 24.9888 27.9825C24.3633 28.383 23.6945 28.7269 23.0009 29.0047C22.3947 29.2477 21.7644 29.4422 21.1228 29.5846C21.0165 29.6083 20.9099 29.6304 20.803 29.6511C20.0323 29.8006 19.2394 29.8764 18.4462 29.8764C17.6531 29.8764 16.8603 29.8006 16.0895 29.6511Z" fill="#DDDDDD"/>
</g>
<g style="mix-blend-mode:multiply">
<path d="M30.3351 10.4894L29.1392 9.35638C28.9113 9.14049 28.6198 9.00678 28.3047 8.97119C28.248 8.96468 28.1907 8.96143 28.1327 8.96143C27.7526 8.96143 27.3952 9.10165 27.1264 9.35627C27.006 9.47033 19.7289 16.3634 18.1249 17.8826L17.9721 17.7378L17.8169 17.5909L16.1889 16.0486C15.9617 15.8351 15.6718 15.7029 15.3587 15.6675C15.3021 15.661 15.2447 15.6577 15.1868 15.6577C14.8066 15.6577 14.4491 15.798 14.1803 16.0526L12.9844 17.1856C12.7155 17.4403 12.5674 17.7789 12.5674 18.1392C12.5674 18.194 12.5708 18.2482 12.5776 18.3017C12.6151 18.6001 12.7563 18.8763 12.9839 19.0923L16.8104 22.7173L17.1184 23.0091C17.3872 23.2638 17.7447 23.4041 18.1248 23.4041C18.505 23.4041 18.8625 23.2638 19.1313 23.0091L21.0237 21.2164C21.0895 21.1541 30.2884 12.4406 30.335 12.3965C30.6039 12.1418 30.752 11.8031 30.752 11.443C30.752 11.0828 30.604 10.7441 30.3351 10.4894ZM18.1248 22.9887C17.9809 22.9887 17.8371 22.959 17.7045 22.8997C17.6046 22.8551 17.511 22.7937 17.4284 22.7154L17.1204 22.4236L13.2944 18.799C12.9097 18.4346 12.9097 17.8437 13.2944 17.4794L14.4903 16.3464C14.6827 16.1642 14.9347 16.0731 15.1868 16.0731C15.4388 16.0731 15.6909 16.1642 15.8832 16.3464L18.1249 18.4701C18.207 18.3923 27.3017 9.77761 27.4364 9.65007C27.6287 9.46786 27.8807 9.37682 28.1327 9.37682C28.3848 9.37682 28.6368 9.46798 28.8292 9.65007L29.7171 10.4913L30.0251 10.7831C30.1077 10.8613 30.1725 10.9499 30.2196 11.0445C30.392 11.3907 30.3272 11.8166 30.025 12.1028C29.9784 12.1469 20.7795 20.8603 20.7136 20.9226L18.8212 22.7154C18.6289 22.8976 18.3769 22.9887 18.1248 22.9887Z" fill="#DDDDDD"/>
</g>
</svg>
