<svg width="32" height="32" viewBox="0 0 32 32" fill="none" xmlns="http://www.w3.org/2000/svg">
<path d="M26.32 6.68047L18.8307 14.1625C18.7263 14.2668 18.6139 14.3147 18.4937 14.306C18.3733 14.2973 18.2609 14.2408 18.1565 14.1363C18.0522 14.0319 18 13.9176 18 13.7935C18 13.6693 18.0522 13.555 18.1565 13.4506L25.6197 5.98019H19.1193C18.9804 5.98019 18.864 5.93357 18.77 5.84033C18.6761 5.74708 18.6292 5.6316 18.6292 5.49387C18.6292 5.35601 18.6761 5.23927 18.77 5.14364C18.864 5.04788 18.9804 5 19.1193 5H26.6939C26.8657 5 27.0097 5.05806 27.1258 5.17417C27.242 5.29041 27.3001 5.43436 27.3001 5.60602V13.1808C27.3001 13.3197 27.2535 13.4361 27.1603 13.5299C27.067 13.6239 26.9515 13.6709 26.8138 13.6709C26.676 13.6709 26.5592 13.6239 26.4634 13.5299C26.3678 13.4361 26.32 13.3197 26.32 13.1808V6.68047Z" fill="#363636"/>
<path d="M6.68047 26.3352L13.1808 26.3352C13.3197 26.3352 13.4361 26.3819 13.5299 26.4751C13.6239 26.5683 13.6709 26.6838 13.6709 26.8216C13.6709 26.9594 13.6239 27.0762 13.5299 27.1718C13.4361 27.2676 13.3197 27.3154 13.1808 27.3154L5.60602 27.3154C5.43436 27.3154 5.29041 27.2573 5.17417 27.1411C5.05806 27.025 5 26.881 5 26.7092L5 19.1346C5 18.9957 5.04662 18.8793 5.13987 18.7853C5.23311 18.6914 5.3486 18.6445 5.48633 18.6445C5.62418 18.6445 5.74093 18.6914 5.83656 18.7853C5.93231 18.8793 5.98019 18.9957 5.98019 19.1346L5.98019 25.635L13.4694 18.1529C13.5739 18.0486 13.6862 17.9976 13.8065 18C13.9269 18.0024 14.0393 18.0558 14.1437 18.1602C14.248 18.2645 14.3001 18.3788 14.3001 18.5031C14.3001 18.6273 14.248 18.7416 14.1437 18.846L6.68047 26.3352Z" fill="#363636"/>
</svg>
