<svg width="70" height="70" viewBox="0 0 70 70" fill="none" xmlns="http://www.w3.org/2000/svg">
<g clip-path="url(#clip0_6401_42995)">
<path d="M35.0113 0C20.3995 0 16.126 0.0154 15.2951 0.084C12.2963 0.3332 10.4308 0.8057 8.39728 1.8179C6.83068 2.5963 5.59518 3.4979 4.37578 4.7628C2.15538 7.0686 0.809278 9.905 0.322078 13.2776C0.0854778 14.9142 0.0161778 15.2481 0.00217778 23.6103C-0.00272222 26.3977 0.00217778 30.0657 0.00217778 34.986C0.00217778 49.5901 0.0182778 53.8608 0.0882778 54.6903C0.330478 57.6093 0.788278 59.4454 1.75708 61.4537C3.60928 65.2988 7.14638 68.1849 11.3128 69.2622C12.7555 69.6339 14.3494 69.8383 16.3948 69.9356C17.2614 69.9734 26.0961 70 34.9357 70C43.7753 70 52.6156 69.9895 53.4605 69.9461C55.8293 69.8348 57.2048 69.65 58.7259 69.2566C62.9196 68.1744 66.3923 65.331 68.2816 61.432C69.2315 59.472 69.7138 57.5652 69.9315 54.7995C69.9791 54.1961 69.9987 44.5802 69.9987 34.9769C69.9987 25.3736 69.977 15.7738 69.9301 15.1704C69.7096 12.3592 69.2273 10.4692 68.2466 8.4714C67.4416 6.8362 66.5484 5.6147 65.2506 4.3659C62.935 2.1539 60.1035 0.8071 56.7288 0.3206C55.0936 0.084 54.7681 0.014 46.4017 0H35.0099L35.0113 0Z" fill="url(#paint0_radial_6401_42995)"/>
<path d="M35.0113 0C20.3995 0 16.126 0.0154 15.2951 0.084C12.2963 0.3332 10.4308 0.8057 8.39728 1.8179C6.83068 2.5963 5.59518 3.4979 4.37578 4.7628C2.15538 7.0686 0.809278 9.905 0.322078 13.2776C0.0854778 14.9142 0.0161778 15.2481 0.00217778 23.6103C-0.00272222 26.3977 0.00217778 30.0657 0.00217778 34.986C0.00217778 49.5901 0.0182778 53.8608 0.0882778 54.6903C0.330478 57.6093 0.788278 59.4454 1.75708 61.4537C3.60928 65.2988 7.14638 68.1849 11.3128 69.2622C12.7555 69.6339 14.3494 69.8383 16.3948 69.9356C17.2614 69.9734 26.0961 70 34.9357 70C43.7753 70 52.6156 69.9895 53.4605 69.9461C55.8293 69.8348 57.2048 69.65 58.7259 69.2566C62.9196 68.1744 66.3923 65.331 68.2816 61.432C69.2315 59.472 69.7138 57.5652 69.9315 54.7995C69.9791 54.1961 69.9987 44.5802 69.9987 34.9769C69.9987 25.3736 69.977 15.7738 69.9301 15.1704C69.7096 12.3592 69.2273 10.4692 68.2466 8.4714C67.4416 6.8362 66.5484 5.6147 65.2506 4.3659C62.935 2.1539 60.1035 0.8071 56.7288 0.3206C55.0936 0.084 54.7681 0.014 46.4017 0H35.0099L35.0113 0Z" fill="url(#paint1_radial_6401_42995)"/>
<path d="M35.0113 0C20.3995 0 16.126 0.0154 15.2951 0.084C12.2963 0.3332 10.4308 0.8057 8.39728 1.8179C6.83068 2.5963 5.59518 3.4979 4.37578 4.7628C2.15538 7.0686 0.809278 9.905 0.322078 13.2776C0.0854778 14.9142 0.0161778 15.2481 0.00217778 23.6103C-0.00272222 26.3977 0.00217778 30.0657 0.00217778 34.986C0.00217778 49.5901 0.0182778 53.8608 0.0882778 54.6903C0.330478 57.6093 0.788278 59.4454 1.75708 61.4537C3.60928 65.2988 7.14638 68.1849 11.3128 69.2622C12.7555 69.6339 14.3494 69.8383 16.3948 69.9356C17.2614 69.9734 26.0961 70 34.9357 70C43.7753 70 52.6156 69.9895 53.4605 69.9461C55.8293 69.8348 57.2048 69.65 58.7259 69.2566C62.9196 68.1744 66.3923 65.331 68.2816 61.432C69.2315 59.472 69.7138 57.5652 69.9315 54.7995C69.9791 54.1961 69.9987 44.5802 69.9987 34.9769C69.9987 25.3736 69.977 15.7738 69.9301 15.1704C69.7096 12.3592 69.2273 10.4692 68.2466 8.4714C67.4416 6.8362 66.5484 5.6147 65.2506 4.3659C62.935 2.1539 60.1035 0.8071 56.7288 0.3206C55.0936 0.084 54.7681 0.014 46.4017 0H35.0099L35.0113 0Z" fill="url(#paint2_radial_6401_42995)"/>
<path d="M35.0113 0C20.3995 0 16.126 0.0154 15.2951 0.084C12.2963 0.3332 10.4308 0.8057 8.39728 1.8179C6.83068 2.5963 5.59518 3.4979 4.37578 4.7628C2.15538 7.0686 0.809278 9.905 0.322078 13.2776C0.0854778 14.9142 0.0161778 15.2481 0.00217778 23.6103C-0.00272222 26.3977 0.00217778 30.0657 0.00217778 34.986C0.00217778 49.5901 0.0182778 53.8608 0.0882778 54.6903C0.330478 57.6093 0.788278 59.4454 1.75708 61.4537C3.60928 65.2988 7.14638 68.1849 11.3128 69.2622C12.7555 69.6339 14.3494 69.8383 16.3948 69.9356C17.2614 69.9734 26.0961 70 34.9357 70C43.7753 70 52.6156 69.9895 53.4605 69.9461C55.8293 69.8348 57.2048 69.65 58.7259 69.2566C62.9196 68.1744 66.3923 65.331 68.2816 61.432C69.2315 59.472 69.7138 57.5652 69.9315 54.7995C69.9791 54.1961 69.9987 44.5802 69.9987 34.9769C69.9987 25.3736 69.977 15.7738 69.9301 15.1704C69.7096 12.3592 69.2273 10.4692 68.2466 8.4714C67.4416 6.8362 66.5484 5.6147 65.2506 4.3659C62.935 2.1539 60.1035 0.8071 56.7288 0.3206C55.0936 0.084 54.7681 0.014 46.4017 0H35.0099L35.0113 0Z" fill="url(#paint3_radial_6401_42995)"/>
<path d="M35.0144 8.98828C27.9458 8.98828 27.0589 9.01908 24.2827 9.14508C21.5121 9.27178 19.6207 9.70998 17.9659 10.3533C16.2544 11.0176 14.8019 11.9059 13.3557 13.3521C11.9081 14.7976 11.0184 16.2487 10.352 17.9588C9.70663 19.6129 9.26773 21.5036 9.14313 24.2707C9.01923 27.0448 8.98633 27.9317 8.98633 34.9947C8.98633 42.0577 9.01783 42.9418 9.14383 45.7159C9.27123 48.4844 9.71013 50.3744 10.3527 52.0278C11.0177 53.7386 11.9074 55.189 13.3543 56.6352C14.8005 58.0821 16.2523 58.9725 17.9631 59.6368C19.6193 60.2801 21.5107 60.7183 24.2813 60.845C27.0575 60.971 27.9437 61.0018 35.0116 61.0018C42.0795 61.0018 42.965 60.971 45.7412 60.845C48.5118 60.7183 50.4053 60.2801 52.0615 59.6368C53.773 58.9725 55.2227 58.0821 56.6689 56.6352C58.1165 55.1897 59.0062 53.7386 59.6726 52.0285C60.3124 50.3744 60.7513 48.4837 60.8815 45.7166C61.0061 42.9425 61.039 42.0584 61.039 34.9954C61.039 27.9324 61.0068 27.0462 60.8815 24.2721C60.7513 21.5036 60.3124 19.6136 59.6726 17.9602C59.0055 16.2494 58.1165 14.799 56.6689 13.3528C55.2213 11.9059 53.7737 11.0176 52.0601 10.354C50.4011 9.71068 48.5083 9.27248 45.7377 9.14578C42.9615 9.01978 42.0774 8.98898 35.0074 8.98898H35.0158L35.0144 8.98828ZM32.6799 13.6755C33.3729 13.6741 34.1464 13.6755 35.0144 13.6755C41.9633 13.6755 42.7872 13.7007 45.5312 13.8253C48.0687 13.9415 49.4463 14.365 50.3633 14.7206C51.5778 15.1917 52.4437 15.7552 53.3544 16.6659C54.2651 17.5759 54.8293 18.4432 55.3018 19.657C55.6581 20.5726 56.0823 21.9488 56.1978 24.4849C56.3224 27.2268 56.3497 28.05 56.3497 34.9905C56.3497 41.931 56.3224 42.7549 56.1978 45.4961C56.0816 48.0315 55.6581 49.4077 55.3018 50.324C54.83 51.5378 54.2651 52.4016 53.3544 53.3116C52.4437 54.2216 51.5785 54.7851 50.3633 55.2569C49.447 55.6146 48.0687 56.0374 45.5312 56.1529C42.7879 56.2775 41.9633 56.3048 35.0144 56.3048C28.0655 56.3048 27.2409 56.2775 24.4976 56.1529C21.9601 56.036 20.5825 55.6125 19.6648 55.2562C18.4503 54.7851 17.583 54.2216 16.6716 53.3109C15.7609 52.4009 15.1967 51.5357 14.7242 50.3219C14.3679 49.4063 13.9437 48.0301 13.8282 45.494C13.7036 42.7521 13.6784 41.9289 13.6784 34.9835C13.6784 28.0381 13.7036 27.2191 13.8282 24.4779C13.9444 21.9425 14.3679 20.5663 14.7242 19.6493C15.196 18.4355 15.7609 17.5689 16.6716 16.6582C17.5823 15.7482 18.4503 15.1847 19.6648 14.7122C20.5825 14.3545 21.9601 13.9317 24.4976 13.8155C26.8986 13.707 27.8289 13.6748 32.6799 13.6692V13.6755ZM48.9073 17.9931C47.1832 17.9931 45.7839 19.3896 45.7839 21.113C45.7839 22.8364 47.1832 24.2336 48.9073 24.2336C50.6314 24.2336 52.0307 22.8357 52.0307 21.113C52.0307 19.3903 50.6314 17.9924 48.9073 17.9924V17.9938V17.9931ZM35.0144 21.6401C27.6329 21.6401 21.6486 27.6202 21.6486 34.9961C21.6486 42.372 27.6329 48.3493 35.0144 48.3493C42.3959 48.3493 48.3781 42.372 48.3781 34.9961C48.3781 27.6202 42.3952 21.6401 35.0137 21.6401H35.0144ZM35.0144 26.3266C39.8052 26.3266 43.6902 30.2074 43.6902 34.9954C43.6902 39.7834 39.8059 43.6642 35.0144 43.6642C30.2229 43.6642 26.3386 39.7827 26.3386 34.9954C26.3386 30.2081 30.2222 26.3266 35.0144 26.3266Z" fill="white"/>
</g>
<defs>
<radialGradient id="paint0_radial_6401_42995" cx="0" cy="0" r="1" gradientUnits="userSpaceOnUse" gradientTransform="translate(67.8637 32.717) rotate(164.25) scale(44.7069 32.211)">
<stop stop-color="#FF005F"/>
<stop offset="1" stop-color="#FC01D8"/>
</radialGradient>
<radialGradient id="paint1_radial_6401_42995" cx="0" cy="0" r="1" gradientUnits="userSpaceOnUse" gradientTransform="translate(18.5191 75.3273) rotate(-90) scale(55.8836 59.2916)">
<stop stop-color="#FFCC00"/>
<stop offset="0.12" stop-color="#FFCC00"/>
<stop offset="0.57" stop-color="#FE4A05"/>
<stop offset="0.69" stop-color="#FF0F3F"/>
<stop offset="1" stop-color="#FE0657" stop-opacity="0"/>
</radialGradient>
<radialGradient id="paint2_radial_6401_42995" cx="0" cy="0" r="1" gradientUnits="userSpaceOnUse" gradientTransform="translate(36.8153 68.9804) rotate(-59.87) scale(23.114 30.0755)">
<stop stop-color="#FFCC00"/>
<stop offset="1" stop-color="#FFCC00" stop-opacity="0"/>
</radialGradient>
<radialGradient id="paint3_radial_6401_42995" cx="0" cy="0" r="1" gradientUnits="userSpaceOnUse" gradientTransform="translate(9.52319 2.91151) rotate(164.27) scale(44.2325 15.0729)">
<stop stop-color="#780CFF"/>
<stop offset="1" stop-color="#820BFF" stop-opacity="0"/>
</radialGradient>
<clipPath id="clip0_6401_42995">
<rect width="70" height="70" fill="white"/>
</clipPath>
</defs>
</svg>
