<svg width="70" height="75" viewBox="0 0 70 75" fill="none" xmlns="http://www.w3.org/2000/svg">
<g clip-path="url(#clip0_9769_50174)">
<path d="M35.0113 0.384644C20.3995 0.384644 16.126 0.400991 15.2951 0.473813C12.2963 0.738348 10.4308 1.23993 8.39728 2.31441C6.83068 3.14072 5.59518 4.0978 4.37578 5.44054C2.15538 7.88823 0.809278 10.8992 0.322078 14.4793C0.0854778 16.2166 0.0161778 16.5711 0.00217778 25.4479C-0.00272222 28.4068 0.00217778 32.3005 0.00217778 37.5236C0.00217778 53.0264 0.0182778 57.56 0.0882778 58.4405C0.330478 61.5391 0.788278 63.4882 1.75708 65.6201C3.60928 69.7018 7.14638 72.7655 11.3128 73.9091C12.7555 74.3037 14.3494 74.5207 16.3948 74.624C17.2614 74.6641 26.0961 74.6923 34.9357 74.6923C43.7753 74.6923 52.6156 74.6812 53.4605 74.6351C55.8293 74.517 57.2048 74.3208 58.7259 73.9032C62.9196 72.7544 66.3923 69.736 68.2816 65.5971C69.2315 63.5165 69.7138 61.4923 69.9315 58.5564C69.9791 57.9159 69.9987 47.7082 69.9987 37.514C69.9987 27.3197 69.977 17.1291 69.9301 16.4886C69.7096 13.5044 69.2273 11.4981 68.2466 9.37736C67.4416 7.64153 66.5484 6.34486 65.2506 5.01921C62.935 2.67109 60.1035 1.24141 56.7288 0.724973C55.0936 0.473813 54.7681 0.399505 46.4017 0.384644H35.0099L35.0113 0.384644Z" fill="url(#paint0_radial_9769_50174)"/>
<path d="M35.0113 0.384644C20.3995 0.384644 16.126 0.400991 15.2951 0.473813C12.2963 0.738348 10.4308 1.23993 8.39728 2.31441C6.83068 3.14072 5.59518 4.0978 4.37578 5.44054C2.15538 7.88823 0.809278 10.8992 0.322078 14.4793C0.0854778 16.2166 0.0161778 16.5711 0.00217778 25.4479C-0.00272222 28.4068 0.00217778 32.3005 0.00217778 37.5236C0.00217778 53.0264 0.0182778 57.56 0.0882778 58.4405C0.330478 61.5391 0.788278 63.4882 1.75708 65.6201C3.60928 69.7018 7.14638 72.7655 11.3128 73.9091C12.7555 74.3037 14.3494 74.5207 16.3948 74.624C17.2614 74.6641 26.0961 74.6923 34.9357 74.6923C43.7753 74.6923 52.6156 74.6812 53.4605 74.6351C55.8293 74.517 57.2048 74.3208 58.7259 73.9032C62.9196 72.7544 66.3923 69.736 68.2816 65.5971C69.2315 63.5165 69.7138 61.4923 69.9315 58.5564C69.9791 57.9159 69.9987 47.7082 69.9987 37.514C69.9987 27.3197 69.977 17.1291 69.9301 16.4886C69.7096 13.5044 69.2273 11.4981 68.2466 9.37736C67.4416 7.64153 66.5484 6.34486 65.2506 5.01921C62.935 2.67109 60.1035 1.24141 56.7288 0.724973C55.0936 0.473813 54.7681 0.399505 46.4017 0.384644H35.0099L35.0113 0.384644Z" fill="url(#paint1_radial_9769_50174)"/>
<path d="M35.0113 0.384644C20.3995 0.384644 16.126 0.400991 15.2951 0.473813C12.2963 0.738348 10.4308 1.23993 8.39728 2.31441C6.83068 3.14072 5.59518 4.0978 4.37578 5.44054C2.15538 7.88823 0.809278 10.8992 0.322078 14.4793C0.0854778 16.2166 0.0161778 16.5711 0.00217778 25.4479C-0.00272222 28.4068 0.00217778 32.3005 0.00217778 37.5236C0.00217778 53.0264 0.0182778 57.56 0.0882778 58.4405C0.330478 61.5391 0.788278 63.4882 1.75708 65.6201C3.60928 69.7018 7.14638 72.7655 11.3128 73.9091C12.7555 74.3037 14.3494 74.5207 16.3948 74.624C17.2614 74.6641 26.0961 74.6923 34.9357 74.6923C43.7753 74.6923 52.6156 74.6812 53.4605 74.6351C55.8293 74.517 57.2048 74.3208 58.7259 73.9032C62.9196 72.7544 66.3923 69.736 68.2816 65.5971C69.2315 63.5165 69.7138 61.4923 69.9315 58.5564C69.9791 57.9159 69.9987 47.7082 69.9987 37.514C69.9987 27.3197 69.977 17.1291 69.9301 16.4886C69.7096 13.5044 69.2273 11.4981 68.2466 9.37736C67.4416 7.64153 66.5484 6.34486 65.2506 5.01921C62.935 2.67109 60.1035 1.24141 56.7288 0.724973C55.0936 0.473813 54.7681 0.399505 46.4017 0.384644H35.0099L35.0113 0.384644Z" fill="url(#paint2_radial_9769_50174)"/>
<path d="M35.0113 0.384644C20.3995 0.384644 16.126 0.400991 15.2951 0.473813C12.2963 0.738348 10.4308 1.23993 8.39728 2.31441C6.83068 3.14072 5.59518 4.0978 4.37578 5.44054C2.15538 7.88823 0.809278 10.8992 0.322078 14.4793C0.0854778 16.2166 0.0161778 16.5711 0.00217778 25.4479C-0.00272222 28.4068 0.00217778 32.3005 0.00217778 37.5236C0.00217778 53.0264 0.0182778 57.56 0.0882778 58.4405C0.330478 61.5391 0.788278 63.4882 1.75708 65.6201C3.60928 69.7018 7.14638 72.7655 11.3128 73.9091C12.7555 74.3037 14.3494 74.5207 16.3948 74.624C17.2614 74.6641 26.0961 74.6923 34.9357 74.6923C43.7753 74.6923 52.6156 74.6812 53.4605 74.6351C55.8293 74.517 57.2048 74.3208 58.7259 73.9032C62.9196 72.7544 66.3923 69.736 68.2816 65.5971C69.2315 63.5165 69.7138 61.4923 69.9315 58.5564C69.9791 57.9159 69.9987 47.7082 69.9987 37.514C69.9987 27.3197 69.977 17.1291 69.9301 16.4886C69.7096 13.5044 69.2273 11.4981 68.2466 9.37736C67.4416 7.64153 66.5484 6.34486 65.2506 5.01921C62.935 2.67109 60.1035 1.24141 56.7288 0.724973C55.0936 0.473813 54.7681 0.399505 46.4017 0.384644H35.0099L35.0113 0.384644Z" fill="url(#paint3_radial_9769_50174)"/>
<path d="M35.0125 9.92603C27.9439 9.92603 27.057 9.95872 24.2808 10.0925C21.5102 10.227 19.6188 10.6921 17.964 11.375C16.2525 12.0802 14.8 13.0232 13.3538 14.5584C11.9062 16.0928 11.0165 17.6332 10.3501 19.4486C9.70468 21.2044 9.26578 23.2115 9.14118 26.1489C9.01728 29.0937 8.98438 30.0352 8.98438 37.5328C8.98438 45.0305 9.01588 45.969 9.14188 48.9138C9.26928 51.8527 9.70818 53.859 10.3508 55.6141C11.0158 57.4302 11.9055 58.9698 13.3524 60.505C14.7986 62.041 16.2504 62.9862 17.9612 63.6914C19.6174 64.3742 21.5088 64.8394 24.2794 64.9739C27.0556 65.1077 27.9418 65.1404 35.0097 65.1404C42.0776 65.1404 42.9631 65.1077 45.7393 64.9739C48.5099 64.8394 50.4034 64.3742 52.0596 63.6914C53.7711 62.9862 55.2208 62.041 56.667 60.505C58.1146 58.9706 59.0043 57.4302 59.6707 55.6148C60.3105 53.859 60.7494 51.8519 60.8796 48.9145C61.0042 45.9697 61.0371 45.0312 61.0371 37.5336C61.0371 30.0359 61.0049 29.0952 60.8796 26.1504C60.7494 23.2115 60.3105 21.2052 59.6707 19.45C59.0036 17.634 58.1146 16.0943 56.667 14.5591C55.2194 13.0232 53.7718 12.0802 52.0582 11.3758C50.3992 10.6929 48.5064 10.2277 45.7358 10.0932C42.9596 9.95946 42.0755 9.92677 35.0055 9.92677H35.0139L35.0125 9.92603ZM32.678 14.9017C33.371 14.9002 34.1445 14.9017 35.0125 14.9017C41.9614 14.9017 42.7853 14.9284 45.5293 15.0607C48.0668 15.184 49.4444 15.6336 50.3614 16.0111C51.5759 16.5112 52.4418 17.1094 53.3525 18.0761C54.2632 19.0421 54.8274 19.9628 55.2999 21.2513C55.6562 22.2232 56.0804 23.6841 56.1959 26.3763C56.3205 29.2869 56.3478 30.1608 56.3478 37.5284C56.3478 44.896 56.3205 45.7706 56.1959 48.6805C56.0797 51.3719 55.6562 52.8328 55.2999 53.8055C54.8281 55.094 54.2632 56.0109 53.3525 56.9769C52.4418 57.9429 51.5766 58.5411 50.3614 59.0419C49.4451 59.4216 48.0668 59.8705 45.5293 59.9931C42.786 60.1253 41.9614 60.1543 35.0125 60.1543C28.0636 60.1543 27.239 60.1253 24.4957 59.9931C21.9582 59.869 20.5806 59.4194 19.6629 59.0412C18.4484 58.5411 17.5811 57.9429 16.6697 56.9762C15.759 56.0102 15.1948 55.0917 14.7223 53.8032C14.366 52.8313 13.9418 51.3704 13.8263 48.6782C13.7017 45.7676 13.6765 44.8937 13.6765 37.5209C13.6765 30.1481 13.7017 29.2787 13.8263 26.3688C13.9425 23.6774 14.366 22.2165 14.7223 21.2431C15.1941 19.9546 15.759 19.0347 16.6697 18.0679C17.5804 17.1019 18.4484 16.5037 19.6629 16.0022C20.5806 15.6225 21.9582 15.1736 24.4957 15.0503C26.8967 14.9351 27.827 14.9009 32.678 14.895V14.9017ZM48.9054 19.485C47.1813 19.485 45.782 20.9674 45.782 22.7969C45.782 24.6263 47.1813 26.1095 48.9054 26.1095C50.6295 26.1095 52.0288 24.6256 52.0288 22.7969C52.0288 20.9681 50.6295 19.4842 48.9054 19.4842V19.4857V19.485ZM35.0125 23.3564C27.631 23.3564 21.6467 29.7045 21.6467 37.5343C21.6467 45.3641 27.631 51.7092 35.0125 51.7092C42.394 51.7092 48.3762 45.3641 48.3762 37.5343C48.3762 29.7045 42.3933 23.3564 35.0118 23.3564H35.0125ZM35.0125 28.3313C39.8033 28.3313 43.6883 32.4509 43.6883 37.5336C43.6883 42.6162 39.804 46.7358 35.0125 46.7358C30.221 46.7358 26.3367 42.6155 26.3367 37.5336C26.3367 32.4517 30.2203 28.3313 35.0125 28.3313Z" fill="white"/>
</g>
<defs>
<radialGradient id="paint0_radial_9769_50174" cx="0" cy="0" r="1" gradientUnits="userSpaceOnUse" gradientTransform="translate(67.8637 35.115) rotate(163.333) scale(44.9154 34.0345)">
<stop stop-color="#FF005F"/>
<stop offset="1" stop-color="#FC01D8"/>
</radialGradient>
<radialGradient id="paint1_radial_9769_50174" cx="0" cy="0" r="1" gradientUnits="userSpaceOnUse" gradientTransform="translate(18.5191 80.3475) rotate(-90) scale(59.3226 59.2916)">
<stop stop-color="#FFCC00"/>
<stop offset="0.12" stop-color="#FFCC00"/>
<stop offset="0.57" stop-color="#FE4A05"/>
<stop offset="0.69" stop-color="#FF0F3F"/>
<stop offset="1" stop-color="#FE0657" stop-opacity="0"/>
</radialGradient>
<radialGradient id="paint2_radial_9769_50174" cx="0" cy="0" r="1" gradientUnits="userSpaceOnUse" gradientTransform="translate(36.8153 73.61) rotate(-61.3331) scale(24.1859 30.5114)">
<stop stop-color="#FFCC00"/>
<stop offset="1" stop-color="#FFCC00" stop-opacity="0"/>
</radialGradient>
<radialGradient id="paint3_radial_9769_50174" cx="0" cy="0" r="1" gradientUnits="userSpaceOnUse" gradientTransform="translate(9.52319 3.47532) rotate(163.354) scale(44.4383 15.9264)">
<stop stop-color="#780CFF"/>
<stop offset="1" stop-color="#820BFF" stop-opacity="0"/>
</radialGradient>
<clipPath id="clip0_9769_50174">
<rect width="70" height="74.3077" fill="white" transform="translate(0 0.384644)"/>
</clipPath>
</defs>
</svg>
