<svg width="118" height="70" viewBox="0 0 118 70" fill="none" xmlns="http://www.w3.org/2000/svg">
<path d="M79.1261 32.9911C78.9816 33.5833 78.9094 34.19 78.6783 34.7678C77.7827 37.0211 76.3527 38.7978 74.1572 39.91C74.0127 39.9822 73.8539 40.04 73.695 40.0833C72.4239 40.4733 71.4128 39.7511 71.3261 38.4367C71.2828 37.6711 71.4272 36.9633 71.7305 36.27C72.2794 34.9989 73.1027 33.9445 74.1427 33.0489C74.5327 32.7022 74.995 32.7022 75.2983 33.0489C75.5872 33.3667 75.515 33.8 75.1105 34.1756C73.9983 35.1867 73.1027 36.3278 72.8283 37.8589C72.7994 37.9889 72.785 38.1189 72.7994 38.2633C72.8427 38.7544 73.0161 38.8555 73.4639 38.6822C76.165 37.6133 78.1583 33.7856 77.4794 30.9689C77.0316 29.12 75.8761 28.1956 73.8827 28.0223C72.1494 27.8778 70.575 28.2823 69.1161 29.1778C68.9283 29.2934 68.9428 29.4234 68.9428 29.5823C68.9283 31.6189 68.9139 33.67 69.0294 35.7067C69.1161 37.1367 69.2605 38.5522 69.5783 39.9533C69.6361 40.1989 69.6794 40.3578 69.9972 40.2855C70.2572 40.2133 70.5028 40.3578 70.6472 40.5889C71.095 41.3255 71.3694 42.12 71.1816 43.0011C71.0661 43.5789 70.6183 43.81 70.0694 43.6077C69.3183 43.3333 68.9283 42.7122 68.6539 42.0333C68.1483 40.7911 67.9317 39.4911 67.7728 38.1767C67.4694 35.5333 67.4261 32.89 67.4261 30.2323C67.4261 29.9578 67.455 29.7556 67.0506 29.6978C66.545 29.64 66.3717 29.0045 66.675 28.6C66.7039 28.5567 66.7472 28.4989 66.7906 28.47C67.5128 28.1523 67.4839 27.5167 67.4983 26.8667C67.6139 22.9234 67.845 18.9801 68.3072 15.0657C68.365 14.589 68.4372 14.1268 68.5528 13.6646C68.7117 13.0579 69.2461 12.7112 69.7516 12.8412C70.2139 12.9568 70.5461 13.5923 70.4305 14.1557C70.3872 14.3579 70.3005 14.5312 70.0983 14.6179C69.8672 14.7045 69.8094 14.849 69.7805 15.0801C69.5494 16.9145 69.4194 18.749 69.2894 20.5979C69.145 22.7212 69.0005 24.8445 68.9428 26.9678C68.9428 27.3289 69.015 27.3289 69.3328 27.2423C70.705 26.8523 71.8027 25.9856 72.9005 25.1767C74.7638 23.8045 76.5405 22.3023 77.9416 20.4534C79.7472 18.0845 80.8883 15.3979 81.3938 12.4657C81.5816 11.3823 81.5238 10.299 81.2494 9.23013C80.8449 7.6557 79.8049 6.80348 78.2449 6.57237C75.6883 6.19681 73.4494 6.97681 71.4561 8.5368C68.2639 11.0068 66.155 14.2568 64.6239 17.9256C64.1328 19.0956 63.7139 20.2801 63.5983 21.5656C63.5695 21.869 63.6272 22.1578 63.6272 22.4612C63.6417 22.8945 63.4106 23.1978 63.0061 23.2556C62.5872 23.3134 62.255 23.0967 62.1539 22.649C61.9806 21.7967 62.1106 20.959 62.3272 20.1356C63.2083 16.6112 64.9417 13.5201 67.1806 10.6746C68.6683 8.76791 70.445 7.19348 72.6116 6.11015C74.4461 5.18571 76.425 4.83904 78.4761 5.17126C80.7149 5.53237 82.4627 6.90459 82.8671 9.66346C83.1994 11.9457 82.6938 14.0834 81.9427 16.2212C80.4983 20.3379 77.7394 23.4001 74.3305 25.9567C74.0994 26.13 73.8827 26.2889 73.6227 26.4912C73.7816 26.6067 73.9116 26.5923 74.0561 26.6067C76.8583 26.8089 78.6494 28.4989 79.0249 31.2722C79.0683 31.6334 79.0972 31.98 79.1405 32.3411C79.1694 32.5867 79.2127 32.8178 79.1116 33.0633L79.1261 32.9911Z" fill="white"/>
<path d="M79.1262 32.988C79.1262 32.7425 79.1407 32.5114 79.1551 32.2658C79.1696 32.2658 79.1984 32.2658 79.2129 32.2658C79.2129 32.5114 79.2129 32.7569 79.2129 32.988C79.184 32.988 79.1551 32.988 79.1262 32.988Z" fill="white"/>
<path d="M117.506 28.2516C117.231 27.9193 116.827 27.876 116.466 28.1505C116.35 28.2371 116.249 28.3527 116.133 28.4538C114.805 29.7538 113.577 31.1549 112.421 32.6138C112.233 32.8449 112.046 33.076 111.8 33.3649C111.771 32.7293 111.728 32.1804 111.699 31.6316C111.54 29.696 111.41 27.7749 110.991 25.8682C110.905 25.4205 110.731 25.0594 110.24 24.9871C109.735 24.9149 109.46 25.2327 109.258 25.6227C108.998 26.1138 108.796 26.6194 108.565 27.1105C107.943 28.4971 107.438 29.9271 106.571 31.1982C106.383 31.4727 106.196 31.8916 105.849 31.8338C105.502 31.8049 105.387 31.3716 105.257 31.0538C104.766 29.7971 104.665 28.4827 104.679 27.1538C104.679 26.8216 104.679 26.4605 104.809 26.1427C105.04 25.5938 104.925 25.2038 104.477 25.0305C104.029 24.8571 103.668 25.0594 103.466 25.6227C103.249 26.2005 103.148 26.8071 103.22 27.4138C103.292 28.0493 103.047 28.526 102.657 28.9882C102.57 29.1038 102.469 29.2193 102.368 29.3349C101.718 30.0571 100.952 30.6349 100.071 31.1982C100.1 30.9816 100.1 30.8516 100.1 30.7216C100.143 29.2338 99.9413 27.8038 99.089 26.5327C98.3235 25.3916 97.2402 25.0449 95.9402 25.4927C95.0013 25.8249 94.2213 26.3738 93.6146 27.1682C93.5424 27.2694 93.4991 27.4427 93.2824 27.3849C93.3113 27.2982 93.3402 27.2405 93.3691 27.1682C94.0913 24.6405 94.7268 22.0694 95.2757 19.5127C96.0702 15.8727 96.7635 12.2183 96.8357 8.47722C96.8646 7.01834 96.7924 5.55946 96.0991 4.21613C95.7091 3.43614 95.0302 2.95947 94.1202 2.95947C93.2391 2.95947 92.6613 3.46503 92.2568 4.20169C91.8957 4.86613 91.6502 5.58835 91.5057 6.33946C90.928 8.96833 90.8846 11.655 90.8269 14.3416C90.798 16.2339 90.8702 18.1116 90.9424 20.0038C91.0291 22.6327 91.1735 25.2327 91.3902 27.8471C91.3902 28.0205 91.4191 28.1793 91.3324 28.3671C90.6969 29.6671 89.9746 30.9093 89.1224 32.0793C88.7613 32.5704 88.3713 33.0327 87.8224 33.3504C87.6058 33.4949 87.4758 33.4515 87.4035 33.1915C87.3747 33.0471 87.3169 32.9027 87.3024 32.7582C87.1002 31.6316 87.1724 30.4904 87.2735 29.3782C87.3602 28.266 87.5191 27.1538 87.7213 26.056C87.808 25.6082 87.6058 25.2183 87.2302 25.1171C86.7824 25.0016 86.4791 25.2038 86.2913 25.6949C86.1469 26.0994 86.0747 26.5471 85.7858 27.0094C85.7135 26.8938 85.6847 26.7927 85.6124 26.7349C84.0669 25.3049 82.3191 25.4783 81.1058 27.1827C80.0514 28.6993 79.4014 30.3749 79.2136 32.2238C79.1847 32.2527 79.1847 32.2816 79.1847 32.3104C79.1847 32.3104 79.1847 32.3104 79.1847 32.3393C79.1125 32.4982 79.1125 32.6427 79.1558 32.7871C79.1558 32.7871 79.1558 32.816 79.1847 32.816C79.1847 32.8593 79.2136 32.9027 79.228 32.9315C79.2569 33.0904 79.2714 33.2204 79.3147 33.3793C79.6469 34.7371 80.5569 35.2571 81.8858 34.8671C82.868 34.5782 83.6047 33.9427 84.2691 33.1915C84.8035 32.5849 85.2224 31.8916 85.6847 31.1116C85.7135 31.6749 85.7569 32.1227 85.7858 32.5849C85.8291 33.2782 86.0024 33.9138 86.4791 34.4338C86.8691 34.8527 87.3169 35.0115 87.8946 34.8526C88.8191 34.5782 89.4546 33.9427 90.0469 33.2493C90.6246 32.5849 91.0724 31.8338 91.5346 31.0971C91.6502 31.1549 91.6791 31.2271 91.6791 31.3138C91.7657 32.426 91.8813 33.5382 91.9535 34.6649C92.0402 36.066 92.1702 37.4526 92.4591 38.8249C92.5746 39.3448 92.8635 39.5615 93.3402 39.4748C93.7302 39.4171 93.9468 39.0849 93.8891 38.6082C93.7735 37.4093 93.6291 36.2104 93.5135 35.0115C93.3402 33.2927 93.4268 31.5882 93.9035 29.9271C94.2791 28.6416 94.9002 27.5294 96.2002 26.9516C97.0813 26.5616 97.5579 26.6916 98.0057 27.5294C98.699 28.8293 98.7568 30.2305 98.5257 31.6604C98.4535 32.0793 98.2513 32.3104 97.8902 32.4982C97.1535 32.8882 96.4313 33.3071 95.7668 33.8127C95.5068 34.0149 95.2468 34.2027 95.0735 34.4915C94.7991 34.9393 94.7991 35.676 95.0735 36.066C95.3624 36.456 95.9257 36.6726 96.3446 36.5282C97.4424 36.1382 98.4535 35.546 98.959 34.4915C99.4646 33.3938 100.302 32.7438 101.256 32.1371C102.065 31.6316 102.801 31.0249 103.495 30.2882C103.552 30.5338 103.61 30.7216 103.653 30.8949C103.812 31.516 104.058 32.0793 104.462 32.5849C105.127 33.4227 106.123 33.5382 106.99 32.8882C107.366 32.6138 107.64 32.2527 107.871 31.8482C108.565 30.7216 109.142 29.5227 109.648 28.2949C109.706 28.1649 109.72 27.9916 109.893 27.9049C110.168 30.1727 110.283 32.4404 110.37 34.7082C110.399 35.0549 110.312 35.3293 110.096 35.6182C107.308 39.576 104.867 43.7071 102.975 48.1704C102.296 49.7592 101.79 51.4059 101.313 53.067C101.097 54.2226 100.866 55.3637 100.793 56.5481C100.75 57.6603 100.765 58.7581 101.241 59.7836C101.819 61.0259 102.917 61.4447 104.202 60.9247C104.852 60.6503 105.445 60.2892 105.965 59.8125C107.943 58.0359 109.258 55.8548 110.067 53.327C110.471 52.027 110.731 50.7126 111.049 49.3981C111.193 48.387 111.381 47.3759 111.482 46.3504C111.858 42.9559 111.988 39.5471 111.872 36.1382C111.872 35.7915 111.959 35.5171 112.176 35.2426C113.793 33.1193 115.469 31.0393 117.419 29.2193C117.722 28.9305 117.751 28.526 117.491 28.2227L117.506 28.2516ZM84.8758 29.3782C84.3991 30.4327 83.8502 31.4582 83.0847 32.3393C82.7236 32.7582 82.3047 33.1338 81.7991 33.3649C80.9325 33.7549 80.6436 33.5815 80.658 32.3682C80.8313 30.9382 81.2791 29.3349 82.3625 27.9771C83.0847 27.0671 83.7347 27.0382 84.5724 27.8471C85.0347 28.2708 85.1358 28.7812 84.8758 29.3782ZM92.7335 23.9471L92.6613 24.1638C92.6613 24.1638 92.5891 24.1638 92.5602 24.1638C92.488 22.416 92.4157 20.6683 92.3435 18.9205C92.2568 16.7394 92.228 14.5439 92.3146 12.3628C92.4013 10.3117 92.4735 8.26056 93.008 6.25279C93.138 5.76168 93.3113 5.28502 93.5857 4.85169C93.9468 4.31724 94.4235 4.31724 94.7702 4.88057C95.1313 5.45835 95.2468 6.0939 95.3335 6.7439C95.5357 8.28945 95.3913 9.80611 95.2179 11.3372C94.7268 15.6127 93.8024 19.8161 92.7335 23.976V23.9471ZM110.399 40.5293C110.327 42.9415 110.182 45.3393 109.821 47.737C109.691 48.647 109.561 49.557 109.301 50.4381C108.983 52.0992 108.521 53.6881 107.799 55.1325C107.077 56.5625 106.08 57.877 104.722 58.9748C104.448 59.1914 104.159 59.4081 103.827 59.5525C103.133 59.8703 102.758 59.7114 102.483 58.9748C102.339 58.5414 102.281 58.0936 102.267 57.6603C102.209 55.9414 102.541 54.2803 103.032 52.6481C103.711 50.0626 104.737 47.607 105.95 45.2382C107.192 42.7971 108.608 40.4571 110.125 38.1749C110.197 38.0737 110.283 37.9582 110.399 37.7993C110.471 38.7526 110.399 39.6482 110.399 40.5293Z" fill="white"/>
<path d="M6.93112 27.6152C8.27445 27.2829 9.50222 26.7918 10.6867 26.1563C13.3011 24.7407 15.2366 22.6319 16.7389 20.1041C18.1255 17.793 19.2666 15.3808 19.7577 12.7086C20.0033 11.3653 20.1044 10.0219 19.8011 8.6786C19.5122 7.46527 18.8044 6.74305 17.8511 6.71416C17.0422 6.68527 16.2477 6.7575 15.4389 6.84416C11.9578 7.21971 9.28556 9.05415 6.93112 11.5097C4.98113 13.5464 3.60892 15.9586 2.39559 18.4719C2.26559 18.7319 2.17892 18.9341 2.46781 19.1652C2.67003 19.3385 2.67003 19.6274 2.58337 19.873C2.42448 20.3063 1.63004 20.5663 1.11004 20.3785C0.647819 20.2052 0.416709 19.743 0.604486 19.2374C2.3667 14.6875 4.89447 10.7008 9.01111 7.91304C11.6111 6.15083 14.4855 5.26972 17.6344 5.28417C19.1222 5.28417 20.1911 5.99194 20.8122 7.33527C21.4044 8.62082 21.5344 9.99304 21.3611 11.3653C20.5666 17.7208 17.5477 22.8485 12.55 26.8063C11.0044 28.0341 9.18445 28.7563 7.23446 29.1318C6.93112 29.1896 6.8589 29.3196 6.84446 29.594C6.78668 32.9307 6.7289 36.2674 6.88779 39.604C6.91668 40.1096 6.97446 40.6151 7.01779 41.1207C7.01779 41.2651 7.04668 41.3951 7.26334 41.4095C7.75445 41.4384 7.91334 41.7851 7.94223 42.204C7.97112 42.724 7.78334 43.2006 7.48001 43.6195C7.13335 44.0962 6.52668 43.9951 6.26668 43.4318C5.87668 42.5651 5.73224 41.6407 5.63113 40.7018C5.31335 37.914 5.31335 35.1118 5.29891 32.3096C5.29891 31.4429 5.3278 30.5763 5.35669 29.724C5.35669 29.4641 5.28446 29.3918 5.02447 29.4063C4.66336 29.4352 4.31669 29.4352 3.95558 29.4207C3.66669 29.4207 3.43558 29.2618 3.33447 28.9874C3.23336 28.7129 3.24781 28.4241 3.47892 28.1929C3.94114 27.7452 4.44669 27.3263 5.09669 27.2252C5.40002 27.1818 5.42891 27.0229 5.44335 26.7918C5.54446 24.3074 5.64557 21.823 5.74668 19.3385C5.74668 19.1363 5.74668 18.9197 5.79002 18.7174C5.83335 18.4141 5.79002 18.183 5.48669 17.9663C5.0678 17.6486 5.24113 17.0274 5.83335 16.5219C6.23779 16.1608 6.80112 16.1897 7.09001 16.5797C7.2489 16.7963 7.2489 17.0563 7.23446 17.3019C7.17668 18.9341 7.1189 20.5808 7.06112 22.213C7.00335 23.8163 6.94557 25.4196 6.88779 27.0374C6.88779 27.2107 6.88779 27.3985 6.88779 27.6152H6.93112Z" fill="white"/>
<path d="M59.7967 28.7395C59.5078 28.4217 59.0456 28.4506 58.6556 28.8262C57.7456 29.6928 56.8789 30.6028 56.0845 31.5562C55.4778 32.2784 54.8712 33.0295 54.2356 33.8239C54.149 32.6973 54.0912 31.6428 54.0045 30.6028C53.8745 29.1584 53.7301 27.6995 53.3834 26.284C53.2967 25.9229 53.0945 25.6629 52.7045 25.5906C52.329 25.5184 52.069 25.6918 51.8667 25.9806C51.7656 26.1395 51.6501 26.3129 51.5779 26.4862C51.1879 27.3529 50.8268 28.2051 50.4512 29.0573C50.0323 30.0251 49.599 30.9928 48.9779 31.8595C48.4723 32.5528 48.2268 32.5384 47.8657 31.744C47.5912 31.1662 47.4179 30.5451 47.3457 29.8951C47.2301 28.7395 47.0134 27.5984 47.4323 26.4573C47.5623 26.1251 47.4034 25.8073 47.0423 25.6484C46.7101 25.4895 46.3923 25.5618 46.1757 25.8651C46.0746 26.024 46.0023 26.2118 45.9446 26.3995C45.7423 27.0351 45.7423 27.714 45.7712 28.3784C45.7712 28.5806 45.7712 28.754 45.6557 28.9417C44.8179 30.3573 43.879 31.7295 42.839 33.0151C42.1746 33.8384 41.4379 34.6184 40.5712 35.225C39.7479 35.8028 39.1557 35.8028 38.3035 35.2539C37.639 34.835 37.1768 34.2428 36.8013 33.5639C35.9924 32.1339 35.6602 30.5451 35.3857 28.9417C34.7935 25.4029 34.9813 21.8496 35.2557 18.2962C35.2846 17.964 35.4146 17.8485 35.7179 17.7907C37.119 17.5162 38.5346 17.2707 39.9501 17.0974C41.6257 16.9096 43.3012 16.8807 44.9334 17.4729C45.3668 17.6174 45.7568 17.444 45.8868 17.0829C46.0457 16.6351 45.8868 16.2885 45.3668 16.1007C43.8212 15.5374 42.2324 15.4796 40.6146 15.6096C38.9824 15.7396 37.3646 15.9996 35.7468 16.3174C35.5302 16.3462 35.4579 16.3607 35.4868 16.1007C35.5591 15.6529 35.6457 15.2196 35.9346 14.8151C36.3246 14.2951 36.5557 13.7029 36.7435 13.0963C36.8446 12.7785 36.8879 12.4607 36.859 12.1285C36.8157 11.594 36.4257 11.1318 35.9779 11.0741C35.5302 11.0018 35.2557 11.2185 34.9957 11.7963C34.9235 11.9696 34.8513 12.1574 34.8079 12.3452C34.4179 13.6307 34.1868 14.9451 34.0279 16.274C33.9846 16.6207 33.8546 16.7362 33.5368 16.8374C30.9224 17.5018 28.3369 18.2673 25.8235 19.2062C25.318 19.394 25.1158 19.7696 25.2458 20.1596C25.3902 20.5929 25.8235 20.7373 26.3146 20.5496C28.4669 19.7551 30.6335 19.0907 32.8291 18.5129C33.8257 18.2385 33.7968 18.2385 33.7102 19.264C33.4502 22.2684 33.4357 25.2729 33.7968 28.2629C33.8257 28.4362 33.8546 28.6095 33.7679 28.7829C32.9735 30.2562 31.9913 31.5706 30.8646 32.7839C30.5613 33.1162 30.2435 33.4195 29.868 33.6651C29.7813 33.7373 29.6657 33.8528 29.5502 33.7951C29.4491 33.7228 29.478 33.5784 29.478 33.4628C29.5069 32.5962 29.6224 31.744 29.7524 30.8917C29.9402 29.7217 30.2002 28.5806 30.258 27.3962C30.3013 25.9806 29.5213 25.3018 28.1202 25.5473C27.6724 25.6195 27.2246 25.7206 26.7624 25.7929C26.4446 25.8362 26.2713 25.7929 26.4302 25.3884C26.7191 24.6373 26.878 23.8573 26.5602 23.0773C26.3724 22.6151 26.0835 22.2396 25.5347 22.1818C24.9858 22.124 24.5958 22.384 24.278 22.8029C23.5847 23.7418 23.5702 25.1284 24.2491 26.1106C24.3502 26.2551 24.4658 26.3706 24.3502 26.5729C23.3391 28.5951 22.3713 30.6462 21.028 32.4806C20.6958 32.9284 20.3491 33.3617 19.9013 33.6795C19.4391 34.0117 19.3525 33.9684 19.2369 33.4339C18.9336 32.0906 19.078 30.7473 19.1936 29.3895C19.2802 28.4506 19.4536 27.4973 19.598 26.5729C19.6702 26.1106 19.4247 25.764 19.0347 25.6918C18.6447 25.6195 18.3414 25.8362 18.1969 26.2695C18.0525 26.674 17.9225 27.0929 17.7925 27.5406C17.5758 27.3673 17.4314 27.2229 17.2725 27.0929C15.8858 25.9806 14.3258 26.1829 13.2569 27.5984C12.3614 28.7684 11.7981 30.0828 11.4658 31.4984C11.2492 32.3651 11.1336 33.2173 11.3936 34.0984C11.6825 35.1384 12.4192 35.5862 13.488 35.4273C14.0658 35.3406 14.5569 35.095 15.0336 34.7773C15.9869 34.1128 16.6658 33.1739 17.2725 32.2062C17.3736 32.0473 17.4169 31.8306 17.6047 31.7006C17.6336 32.2495 17.6769 32.7695 17.7202 33.2895C17.778 33.9395 17.9947 34.5317 18.4714 35.0084C18.8036 35.3262 19.1647 35.4417 19.6269 35.3406C20.3202 35.2106 20.8547 34.8206 21.3313 34.3439C22.2558 33.4628 22.9202 32.3795 23.5413 31.2817C24.2491 30.0251 24.8991 28.7251 25.5202 27.4395C25.5924 27.324 25.578 27.0929 25.8524 27.1651C26.618 27.3673 27.3835 27.2229 28.1346 27.0206C28.7991 26.8473 28.8857 26.9051 28.7991 27.5984C28.6402 28.8551 28.4091 30.1117 28.2213 31.354C28.1058 32.2495 27.9469 33.1451 28.0769 34.0695C28.2358 35.1817 29.1169 35.6584 30.1424 35.1817C30.4313 35.0517 30.7057 34.8784 30.9513 34.6906C31.6735 34.1273 32.2802 33.4484 32.8435 32.7262C33.3057 32.1484 33.7679 31.5417 34.2302 30.9206C34.4902 31.9317 34.7791 32.8995 35.2268 33.8095C35.8046 34.9939 36.5702 36.0195 37.7402 36.6839C38.8524 37.305 39.9357 37.2617 41.0046 36.6406C41.5246 36.3517 41.9724 36.005 42.3912 35.5862C43.619 34.3873 44.6879 33.0439 45.6268 31.6139C45.7423 31.4262 45.8146 31.2095 46.0312 31.094C46.219 31.8451 46.4501 32.5817 46.9701 33.1739C47.6345 33.9539 48.5734 34.055 49.3968 33.4484C49.7868 33.1451 50.0901 32.7551 50.3356 32.3362C51.0723 31.1228 51.6501 29.8373 52.1845 28.5229C52.329 28.6673 52.3001 28.8551 52.329 29.014C52.5167 30.8628 52.6034 32.7262 52.719 34.575C52.7623 35.355 52.589 35.9473 52.1412 36.5828C50.3501 39.1539 48.689 41.7972 47.2734 44.5706H48.8768C49.989 42.4761 51.2601 40.4395 52.5745 38.4606C52.6179 38.4028 52.6612 38.3595 52.7479 38.2439C52.7479 39.3995 52.7767 40.4684 52.7479 41.5517C52.7045 42.5483 52.6612 43.5739 52.5745 44.5706H54.0623C54.0912 44.2961 54.0912 44.0361 54.1201 43.7617C54.279 41.335 54.3367 38.9084 54.2645 36.4817C54.2645 36.3084 54.2645 36.135 54.3801 35.9762C55.9834 33.8528 57.6445 31.7873 59.5512 29.9384C59.9845 29.5195 60.0567 29.1295 59.7389 28.7829L59.7967 28.7395ZM17.1136 29.274C16.5791 30.5451 16.0014 31.7873 15.0769 32.8128C14.658 33.3039 14.1525 33.7084 13.5314 33.9106C12.9969 34.0984 12.7369 33.9539 12.7369 33.3906C12.7658 31.4551 13.3436 29.7073 14.6436 28.2195C14.8603 27.974 15.1347 27.8006 15.4525 27.7717C15.9436 27.7717 17.0125 28.5662 17.1714 29.014C17.2002 29.1151 17.1714 29.1873 17.128 29.2595L17.1136 29.274ZM50.2056 55.3461C49.469 56.8338 48.4145 58.0327 47.1579 59.0727C46.869 59.3183 46.5512 59.5205 46.2046 59.6505C45.6557 59.8383 45.3668 59.7227 45.1212 59.1883C44.8179 58.5238 44.789 57.8016 44.8323 57.0938C44.9046 55.6783 45.1501 54.3061 45.5112 52.9627H43.9946C43.6046 54.5083 43.3735 56.0538 43.4023 57.6572C43.4023 58.4949 43.5323 59.3183 43.9801 60.0694C44.5579 61.066 45.5112 61.4271 46.609 61.0227C47.2445 60.806 47.7934 60.4738 48.299 60.0405C49.9601 58.6105 51.2456 56.8772 52.0401 54.8261C52.2856 54.205 52.4879 53.5838 52.6756 52.9483H51.1734C50.9279 53.7572 50.6101 54.5516 50.2345 55.3316L50.2056 55.3461Z" fill="white"/>
<path d="M25.3334 24.0894C25.3767 24.2628 25.29 24.335 25.2467 24.4939C25.16 24.2772 25.2467 24.1905 25.3334 24.0894Z" fill="white"/>
<path d="M35.1855 50.2041V46.9686H37.7855V47.5897H35.8355V48.1819H37.0199V48.803H35.8355V49.5975H37.9155V50.2186H35.1999L35.1855 50.2041Z" fill="white"/>
<path d="M43.0857 47.3884L42.739 47.9229C42.5513 47.7929 42.3635 47.7062 42.1757 47.634C41.959 47.5618 41.7424 47.5184 41.5113 47.5184C41.309 47.5184 41.1646 47.5473 41.0635 47.6051C40.9335 47.6629 40.8613 47.7496 40.8613 47.8651C40.8613 47.9662 40.919 48.0384 41.049 48.0818C41.1357 48.1107 41.309 48.1395 41.569 48.1684L42.0024 48.2118C42.3924 48.2551 42.6957 48.3562 42.8835 48.5295C43.0857 48.7029 43.2013 48.9195 43.2013 49.194C43.2013 49.5118 43.0713 49.7862 42.8113 49.9884C42.5513 50.2051 42.1901 50.3062 41.7135 50.3062C41.3668 50.3062 41.049 50.2484 40.7601 50.1473C40.4713 50.0462 40.2402 49.9018 40.0524 49.7429L40.4424 49.194C40.6302 49.3384 40.8179 49.4684 41.0346 49.5551C41.2513 49.6418 41.4824 49.6851 41.7568 49.6851C41.9879 49.6851 42.1757 49.6418 42.3057 49.5695C42.4646 49.4829 42.5368 49.3673 42.5368 49.2229C42.5368 49.0784 42.4501 48.9773 42.2768 48.9051C42.219 48.8762 42.0601 48.8473 41.8146 48.8184L41.3379 48.7751C40.9046 48.7462 40.5868 48.6307 40.399 48.4429C40.269 48.3129 40.1968 48.1395 40.1968 47.9373C40.1968 47.6484 40.3124 47.4029 40.5435 47.2151C40.7746 47.0273 41.1068 46.9262 41.5401 46.9262C41.8579 46.9262 42.1613 46.984 42.4357 47.0851C42.6813 47.1718 42.8979 47.2729 43.0857 47.4173V47.3884Z" fill="white"/>
<path d="M48.3458 47.3884L47.9991 47.9229C47.8113 47.7929 47.6236 47.7062 47.4358 47.634C47.2191 47.5618 47.0025 47.5184 46.7713 47.5184C46.5691 47.5184 46.4247 47.5473 46.3236 47.6051C46.1936 47.6629 46.1214 47.7496 46.1214 47.8651C46.1214 47.9662 46.1791 48.0384 46.3091 48.0818C46.3958 48.1107 46.5691 48.1395 46.8291 48.1684L47.2625 48.2118C47.6525 48.2551 47.9558 48.3562 48.1436 48.5295C48.3458 48.7029 48.4613 48.9195 48.4613 49.194C48.4613 49.5118 48.3313 49.7862 48.0713 49.9884C47.8113 50.2051 47.4502 50.3062 46.9736 50.3062C46.6269 50.3062 46.3091 50.2484 46.0202 50.1473C45.7314 50.0462 45.5002 49.9018 45.3125 49.7429L45.7025 49.194C45.8902 49.3384 46.078 49.4684 46.2947 49.5551C46.5114 49.6418 46.7425 49.6851 47.0169 49.6851C47.248 49.6851 47.4358 49.6418 47.5658 49.5695C47.7247 49.4829 47.7969 49.3673 47.7969 49.2229C47.7969 49.0784 47.7102 48.9773 47.5369 48.9051C47.4791 48.8762 47.3202 48.8473 47.0747 48.8184L46.598 48.7751C46.1647 48.7462 45.8469 48.6307 45.6591 48.4429C45.5291 48.3129 45.4569 48.1395 45.4569 47.9373C45.4569 47.6484 45.5725 47.4029 45.8036 47.2151C46.0347 47.0273 46.3669 46.9262 46.8002 46.9262C47.118 46.9262 47.4213 46.984 47.6958 47.0851C47.9413 47.1718 48.158 47.2729 48.3458 47.4173V47.3884Z" fill="white"/>
<path d="M50.9311 50.2042V46.9686H53.5311V47.5897H51.5811V48.182H52.7655V48.8031H51.5811V49.5975H53.6611V50.2186H50.9455L50.9311 50.2042Z" fill="white"/>
<path d="M58.3529 50.2041L56.5762 48.1964V50.2041H55.9407V46.9686H56.3307L58.1073 48.9764V46.9686H58.7429V50.2041H58.3529Z" fill="white"/>
<path d="M62.5599 47.5897V50.2042H61.9244V47.5897H60.6822V46.9686H63.8022V47.5897H62.5599Z" fill="white"/>
<path d="M65.8825 50.2186V46.9831H66.5325V50.2186H65.8825Z" fill="white"/>
<path d="M71.571 50.2042L71.181 49.4097H69.7077L69.3177 50.2042H68.6099L70.1988 46.9686H70.6754L72.2788 50.2042H71.571ZM70.4299 47.922L69.9966 48.7886H70.8632L70.4299 47.922Z" fill="white"/>
<path d="M74.3594 50.2041V46.9686H75.0094V49.583H76.9449V50.2041H74.3594Z" fill="white"/>
<path d="M82.0284 47.3884L81.6817 47.9229C81.4939 47.7929 81.3061 47.7062 81.1184 47.634C80.9017 47.5618 80.685 47.5184 80.4539 47.5184C80.2517 47.5184 80.1073 47.5473 80.0061 47.6051C79.8761 47.6629 79.8039 47.7496 79.8039 47.8651C79.8039 47.9662 79.8617 48.0384 79.9917 48.0818C80.0784 48.1107 80.2517 48.1395 80.5117 48.1684L80.945 48.2118C81.335 48.2551 81.6384 48.3562 81.8261 48.5295C82.0284 48.7029 82.1439 48.9195 82.1439 49.194C82.1439 49.5118 82.0139 49.7862 81.7539 49.9884C81.4939 50.2051 81.1328 50.3062 80.6562 50.3062C80.3095 50.3062 79.9917 50.2484 79.7028 50.1473C79.4139 50.0462 79.1828 49.9018 78.9951 49.7429L79.385 49.194C79.5728 49.3384 79.7606 49.4684 79.9773 49.5551C80.1939 49.6418 80.425 49.6851 80.6995 49.6851C80.9306 49.6851 81.1184 49.6418 81.2484 49.5695C81.4073 49.4829 81.4795 49.3673 81.4795 49.2229C81.4795 49.0784 81.3928 48.9773 81.2195 48.9051C81.1617 48.8762 81.0028 48.8473 80.7573 48.8184L80.2806 48.7751C79.8473 48.7462 79.5295 48.6307 79.3417 48.4429C79.2117 48.3129 79.1395 48.1395 79.1395 47.9373C79.1395 47.6484 79.255 47.4029 79.4862 47.2151C79.7173 47.0273 80.0495 46.9262 80.4828 46.9262C80.8006 46.9262 81.1039 46.984 81.3784 47.0851C81.6239 47.1718 81.8406 47.2729 82.0284 47.4173V47.3884Z" fill="white"/>
<mask id="mask0_8036_55455" style="mask-type:luminance" maskUnits="userSpaceOnUse" x="110" y="19" width="6" height="6">
<path d="M115.559 19.7358H110.625V24.6702H115.559V19.7358Z" fill="white"/>
</mask>
<g mask="url(#mask0_8036_55455)">
<path d="M114.93 22.5007C114.93 21.5975 114.218 20.8652 113.34 20.8652C112.462 20.8652 111.75 21.5975 111.75 22.5007C111.75 23.404 112.462 24.1362 113.34 24.1362C114.218 24.1362 114.93 23.404 114.93 22.5007Z" stroke="white" stroke-width="0.335539"/>
<path d="M112.613 23.5662V21.4268H113.372C113.623 21.4268 113.818 21.4865 113.955 21.606C114.092 21.7246 114.16 21.8828 114.16 22.0807C114.16 22.2785 114.092 22.4387 113.955 22.5612C113.818 22.6826 113.623 22.7434 113.372 22.7434H112.978V23.5662H112.613ZM112.978 22.4612H113.372C113.53 22.4612 113.64 22.4245 113.702 22.351C113.765 22.2766 113.796 22.1864 113.796 22.0807C113.796 21.9749 113.765 21.8867 113.702 21.8162C113.64 21.7446 113.53 21.7089 113.372 21.7089H112.978V22.4612ZM113.829 23.5662L113.322 22.5788L113.712 22.5523L114.245 23.5662H113.829Z" fill="white"/>
</g>
</svg>
