<svg width="1024" height="1024" viewBox="0 0 1024 1024" fill="none" xmlns="http://www.w3.org/2000/svg">
<g clip-path="url(#clip0_7380_63029)">
<path d="M839.612 824.949C1007.87 656.696 1007.87 383.904 839.612 215.651C671.36 47.3981 398.568 47.3981 230.315 215.651C62.0619 383.904 62.0619 656.696 230.315 824.949C398.568 993.201 671.36 993.201 839.612 824.949Z" stroke="#FCE537" stroke-width="5.36059" stroke-miterlimit="10"/>
<path d="M513.549 858.195C487.227 869.091 445.48 882.132 394.609 879.616C261.207 873.008 177.954 765.162 163.907 747.001C49.256 598.48 49.1029 295.136 254.884 142.37C423.075 17.4792 677.911 40.9346 832.209 198.295C989.788 359.004 1004.89 620.994 862.381 796.647C698.719 998.38 405.768 989.453 236.308 867.057C212.459 849.837 106.954 772.054 72.4488 628.543C26.6321 437.969 128.571 227.264 300.044 131.233C504.994 16.4728 797.354 72.1354 913.405 269.996C1053.2 508.313 875.028 846.993 631.876 922.632C484.23 968.558 346.692 906.922 298.491 882.46" stroke="#FADF61" stroke-width="5.36059" stroke-miterlimit="10"/>
<path d="M138.921 513.689H138.493C137.23 513.546 136.395 512.996 135.824 511.876C135.539 510.755 135.681 509.635 136.537 508.799C139.328 506.273 141.59 504.582 143.546 503.747C145.359 502.911 146.765 502.626 147.885 502.626C149.006 502.769 149.841 503.054 150.269 503.319C150.961 503.889 151.389 504.439 151.532 505.132C151.674 505.845 151.532 506.538 151.104 507.231C182.234 501.057 206.377 485.207 223.062 459.394C239.891 433.724 248.59 410.03 249.425 388.414C249.568 385.338 249.425 381.548 248.875 377.066C248.162 372.441 246.777 368.367 244.25 364.72C241.867 361.073 238.077 358.975 232.882 358.404H231.762C207.782 358.404 188.285 364.72 172.842 377.209C157.562 389.697 145.909 402.879 137.923 416.631C129.916 430.383 125.006 440.203 123.193 445.948C123.885 445.663 124.598 445.663 125.291 445.948C125.841 446.233 126.412 446.641 126.697 447.354C126.982 448.046 127.125 448.759 126.84 449.452C126.554 450.165 126.147 450.715 125.434 451.143C124.456 451.571 123.478 451.856 122.072 452.121C120.809 452.406 119.688 452.121 118.568 451.571C117.305 450.736 116.734 449.595 116.734 448.209C116.734 446.824 119.974 439.51 126.269 426.186C132.585 412.862 142.262 399.395 155.301 385.5C177.752 363.477 203.687 352.537 233.147 352.822C248.019 354.513 255.313 366.431 255.028 388.577C254.457 404.02 249.69 421.256 240.583 440.467C231.476 459.679 218.275 476.65 201.304 491.523C184.19 506.253 163.43 513.689 138.88 513.689H138.921ZM158.561 612.438C157.868 612.438 157.297 612.153 156.747 611.745C149.169 600.092 147.641 547.223 152.408 452.956C152.693 446.376 152.978 441.038 153.121 436.821C152.286 437.106 151.573 437.106 150.88 436.678C150.187 436.25 149.759 435.7 149.474 434.987C149.332 434.294 149.474 433.581 149.759 432.889C150.737 431.198 151.593 430.077 152.286 429.384C153.121 428.671 153.691 428.264 154.241 428.121C154.812 427.979 155.219 427.836 155.505 427.979C156.768 427.979 157.746 428.671 158.459 429.792C158.601 430.077 158.601 430.22 158.601 430.342C158.744 430.627 158.744 430.912 158.744 431.463V437.493C158.601 439.041 158.601 441.14 158.459 443.666C158.316 446.335 158.174 449.411 158.031 453.078C154.669 534.144 154.669 583.528 157.888 600.907C158.174 600.479 158.438 600.214 158.724 599.929C159.437 599.501 160.129 599.216 160.822 599.358C161.515 599.501 162.228 599.786 162.635 600.479C162.92 600.764 163.185 601.314 163.328 602.17C163.613 603.005 163.613 604.146 163.185 605.674C162.9 607.08 162.207 608.893 160.944 610.991C160.516 611.704 159.824 612.112 158.988 612.397H158.561V612.438Z" fill="#008389"/>
<path d="M159.311 614.445H158.557C157.151 614.445 156.153 613.813 155.522 613.344L155.236 613.12L155.033 612.815C149.023 603.565 146.68 571.498 147.963 515.329C144.989 515.553 141.973 515.675 138.917 515.675H138.286C136.33 515.451 134.883 514.453 134.028 512.741L133.885 512.334C133.396 510.378 133.844 508.606 135.128 507.322C138.347 504.409 140.69 502.738 142.768 501.842C144.622 500.986 146.333 500.558 147.922 500.558H148.167C148.167 500.558 148.309 500.599 148.391 500.599C148.839 486.073 149.511 470.161 150.388 452.803C150.51 450.134 150.612 447.669 150.713 445.387C150.815 443.004 150.917 440.824 150.999 438.868C150.591 438.766 150.204 438.603 149.817 438.379C148.758 437.727 148.024 436.871 147.576 435.69L147.474 435.343C147.27 434.325 147.393 433.265 147.861 432.104L148.004 431.819C149.002 430.108 149.96 428.783 150.836 427.907C151.916 426.99 152.73 426.359 153.729 426.114L153.932 426.053C154.442 425.931 155.114 425.748 155.827 425.911C157.579 426.033 159.107 426.99 160.146 428.681C160.411 429.191 160.513 429.557 160.554 429.843C160.717 430.372 160.717 430.882 160.717 431.411V437.442C160.635 438.461 160.595 439.438 160.554 440.579C160.513 441.537 160.493 442.576 160.432 443.717C160.289 446.365 160.146 449.442 160.004 453.089C159.23 471.506 158.639 488.293 158.231 503.451C185.287 496.402 206.516 481.204 221.388 458.223C237.85 433.143 246.61 409.612 247.446 388.261C247.588 385.022 247.405 381.314 246.896 377.239C246.203 372.675 244.838 369.008 242.617 365.789C240.539 362.631 237.34 360.859 232.797 360.35H231.779C208.248 360.35 189.402 366.36 174.143 378.706C159.168 390.93 147.576 404.009 139.692 417.558C132.887 429.231 128.303 438.114 126.021 443.982C126.021 443.982 126.042 443.982 126.062 443.982C127.366 444.634 128.181 445.469 128.588 446.508C128.772 446.977 129.383 448.484 128.731 450.114C128.262 451.275 127.529 452.151 126.49 452.783L126.266 452.905C125.165 453.374 124.086 453.7 122.497 454.026C120.969 454.372 119.379 454.128 117.688 453.292L117.464 453.17C115.692 451.988 114.734 450.236 114.734 448.117C114.734 446.793 115.447 444.287 124.473 425.238C130.829 411.792 140.445 398.305 153.851 384.044C176.404 361.918 202.706 350.733 232.064 350.733C232.431 350.733 232.818 350.733 233.184 350.733H233.388C249.401 352.567 257.347 365.28 257.062 388.546C256.491 404.274 251.561 422.019 242.413 441.292C233.327 460.443 219.942 477.842 202.645 493C189.81 504.042 174.835 511.091 157.946 514.045C156.968 555.688 157.437 583.62 159.331 597.433C159.881 597.29 160.513 597.229 161.185 597.372C162.55 597.637 163.569 598.268 164.221 599.246C164.73 599.837 165.077 600.672 165.28 601.67C165.667 602.934 165.606 604.421 165.117 606.193C164.791 607.844 163.936 609.901 162.652 612.02C162.021 613.08 161.022 613.813 159.596 614.302L159.291 614.404L159.311 614.445ZM158.211 610.309C158.394 610.411 158.496 610.411 158.557 610.411H158.618C158.924 610.288 159.128 610.146 159.209 609.983C160.228 608.271 160.941 606.621 161.206 605.297C161.593 603.85 161.532 603.178 161.409 602.832L161.328 602.526C161.246 602.058 161.124 601.874 161.124 601.854L160.88 601.528C160.88 601.528 160.737 601.406 160.391 601.345C160.391 601.345 160.269 601.345 159.922 601.548C159.78 601.691 159.657 601.833 159.515 602.037L156.764 606.173L155.848 601.283C153.505 588.672 152.853 559.641 153.892 514.697C153.26 514.779 152.649 514.86 152.017 514.942C150.53 580.808 154.238 603.647 158.211 610.288V610.309ZM138.612 511.662H138.897C141.994 511.662 145.05 511.539 148.045 511.295C148.045 510.826 148.065 510.358 148.085 509.889L147.006 510.093L148.126 508.259C148.167 507.078 148.187 505.896 148.228 504.714C148.085 504.694 147.922 504.653 147.759 504.633C146.802 504.653 145.661 504.979 144.377 505.57C142.707 506.283 140.649 507.791 137.878 510.297C137.858 510.337 137.634 510.541 137.736 511.173C137.919 511.458 138.143 511.621 138.612 511.682V511.662ZM152.16 509.074C152.16 509.665 152.14 510.276 152.119 510.867C152.751 510.786 153.382 510.704 153.994 510.623C153.994 509.971 154.034 509.319 154.034 508.667C153.403 508.809 152.771 508.932 152.14 509.074H152.16ZM158.109 507.73C158.109 508.483 158.068 509.217 158.048 509.971C173.898 507.057 187.956 500.375 199.996 489.984C216.865 475.214 229.904 458.243 238.767 439.601C247.67 420.817 252.478 403.622 253.028 388.485C253.293 367.439 246.753 356.418 233.042 354.808C204.438 354.523 178.706 365.361 156.724 386.916C143.664 400.811 134.293 413.952 128.099 427.031C125.858 431.778 118.992 446.243 118.748 448.26C118.748 448.912 118.992 449.381 119.583 449.808C120.378 450.196 120.989 450.277 121.641 450.134C122.904 449.89 123.719 449.645 124.493 449.319C124.717 449.177 124.839 448.994 124.962 448.688C124.982 448.627 124.962 448.443 124.819 448.077C124.758 447.934 124.554 447.812 124.391 447.73C124.33 447.71 124.147 447.73 123.943 447.791L119.991 449.381L121.274 445.306C123.169 439.316 128.181 429.313 136.187 415.581C144.316 401.605 156.214 388.159 171.576 375.629C187.365 362.855 207.616 356.377 231.758 356.377H233.103C238.889 357.029 243.208 359.453 245.938 363.609C248.464 367.256 250.074 371.575 250.868 376.75C251.418 381.11 251.602 385.042 251.459 388.505C250.603 410.59 241.619 434.814 224.75 460.504C209.103 484.687 186.713 500.558 158.109 507.73ZM152.343 502.514C152.853 503.064 153.301 503.777 153.484 504.674C153.708 504.633 153.932 504.572 154.157 504.531C154.584 489.047 155.175 471.873 155.97 453.007C156.112 449.36 156.255 446.264 156.398 443.574C156.459 442.474 156.499 441.455 156.52 440.518C156.561 439.296 156.601 438.216 156.683 437.32V431.473C156.683 431.33 156.683 431.208 156.683 431.106L156.54 430.596C156.112 430.006 155.644 430.006 155.481 430.006H155.012C155.012 430.006 154.951 430.006 154.931 430.026L154.686 430.087C154.483 430.169 153.769 430.739 153.525 430.943C153.24 431.248 152.527 432.104 151.528 433.775C151.427 434.04 151.386 434.264 151.386 434.447C151.508 434.671 151.651 434.814 151.875 434.956C151.936 434.997 152.017 435.038 152.445 434.895L155.196 433.978L155.094 436.871C155.012 439.377 154.87 442.27 154.727 445.591C154.625 447.853 154.503 450.338 154.401 453.007C153.464 471.526 152.792 487.927 152.364 502.494L152.343 502.514Z" fill="#008389"/>
<path d="M200.611 554.775C197.107 554.775 194.438 553.512 192.747 551.128C190.934 548.317 189.936 544.955 189.936 540.881C189.936 535.685 191.056 529.655 193.44 522.932C196.109 515.353 199.613 508.772 204.095 503.149C207.457 499.075 211.816 496.976 217.012 496.976C222.207 496.976 227.667 500.195 233.269 506.939C235.103 501.744 236.509 497.526 237.487 494.307C237.772 492.902 238.75 492.209 240.156 492.209C241.276 492.209 241.969 492.637 242.397 493.33C242.824 493.88 242.947 494.593 242.947 495.143V495.571C240.42 508.895 239.157 520.813 239.157 531.203C239.157 540.045 240.278 545.648 242.234 548.032C242.804 548.459 243.212 548.582 243.354 548.582L244.067 548.439C248.407 547.176 253.052 542.694 258.227 535.115C263.422 527.536 267.619 520.243 270.858 513.377C271.408 512.256 272.264 511.686 273.384 511.686C275.361 511.686 276.338 512.664 276.338 514.497C276.338 515.475 274.383 519.55 270.308 526.701C261.201 542.979 252.909 552.086 245.208 553.919C244.515 554.062 243.945 554.205 243.252 554.205C241.439 554.205 239.891 553.369 238.485 551.964C235.959 549.295 234.553 545.791 234.145 541.451C233.718 537.112 233.595 533.587 233.595 530.653C233.595 527.292 233.738 523.645 234.023 519.998C225.609 539.353 216.074 550.721 205.419 553.94C203.606 554.49 202.058 554.775 200.652 554.775H200.611ZM200.611 549.03C201.446 549.03 202.567 548.887 203.83 548.459C213.507 545.505 222.492 533.73 230.764 512.969L230.621 512.827C225.426 505.961 220.658 502.457 216.034 502.457C211.124 503.149 206.499 507.917 202.017 516.616C201.039 518.715 199.776 521.669 198.513 525.723C196.557 531.753 195.559 536.949 195.559 541.431C195.559 546.483 197.25 549.01 200.611 549.01V549.03Z" fill="#008389"/>
<path d="M200.61 556.792C196.475 556.792 193.174 555.244 191.096 552.29C188.977 549.03 187.918 545.22 187.918 540.881C187.918 535.319 189.14 529.044 191.544 522.26C194.356 514.294 197.942 507.632 202.526 501.887C206.335 497.282 211.205 494.96 217.011 494.96C222.226 494.96 227.32 497.608 232.495 503.028C233.758 499.34 234.797 496.223 235.551 493.717C235.958 491.619 237.731 490.192 240.155 490.192C242.335 490.192 243.476 491.272 244.067 492.209C244.657 493.024 244.963 494.063 244.963 495.163L244.922 495.958C242.437 509.099 241.174 520.956 241.174 531.204C241.174 541.451 242.742 545.22 243.598 546.484H243.68C247.265 545.424 251.544 541.329 256.576 533.974C261.608 526.64 265.805 519.428 269.044 512.521C269.961 510.667 271.509 509.669 273.384 509.669C276.44 509.669 278.355 511.523 278.355 514.498C278.355 515.19 278.355 516.637 272.059 527.7C262.525 544.711 253.886 553.94 245.656 555.876L245.309 555.957C244.678 556.079 244.046 556.222 243.231 556.222C240.99 556.222 238.912 555.264 237.038 553.39C234.226 550.416 232.576 546.484 232.108 541.635C231.72 537.662 231.537 534.076 231.537 530.633C231.537 530.348 231.537 530.042 231.537 529.737C223.897 544.243 215.32 553.003 205.948 555.835C203.87 556.467 202.179 556.772 200.59 556.772L200.61 556.792ZM217.031 498.994C212.488 498.994 208.658 500.827 205.683 504.433C201.405 509.791 198.023 516.066 195.375 523.584C193.113 529.941 191.972 535.767 191.972 540.861C191.972 544.446 192.787 547.421 194.458 550.008C195.721 551.801 197.819 552.738 200.631 552.738C201.792 552.738 203.116 552.494 204.807 551.984C214.811 548.969 223.999 537.927 232.169 519.163L236.936 508.182L236.019 520.121C235.754 523.645 235.612 527.292 235.612 530.633C235.612 533.974 235.795 537.418 236.162 541.248C236.549 545.221 237.792 548.276 239.972 550.579C241.051 551.658 242.111 552.188 243.272 552.188C243.68 552.188 244.026 552.107 244.535 552.005L244.841 551.944C251.747 550.314 259.754 541.492 268.576 525.723C273.913 516.352 274.321 514.538 274.362 514.375C274.362 513.866 274.362 513.723 273.424 513.723C273.221 513.723 272.997 513.723 272.711 514.294C269.391 521.363 265.092 528.759 259.937 536.277C254.274 544.528 249.425 549.03 244.678 550.395L243.415 550.619C242.559 550.619 241.683 550.09 241.092 549.662L240.746 549.316C238.382 546.463 237.201 540.351 237.201 531.204C237.201 520.752 238.484 508.691 240.99 495.388V495.163C240.99 494.919 240.929 494.674 240.827 494.552L240.705 494.369C240.705 494.369 240.624 494.226 240.196 494.226C239.605 494.226 239.564 494.389 239.503 494.695C238.464 498.138 237.038 502.416 235.225 507.591L234.043 510.953L231.761 508.223C226.586 502.009 221.778 498.994 217.052 498.994H217.031ZM200.61 551.027C197.962 551.027 193.541 549.784 193.541 541.431C193.541 536.745 194.539 531.387 196.597 525.092C197.962 520.691 199.307 517.656 200.203 515.74C205.113 506.206 210.206 501.235 215.768 500.44H216.053C221.249 500.44 226.525 504.046 232.169 511.482L233.004 512.318L232.658 513.683C224.08 535.176 214.851 547.176 204.441 550.355C202.852 550.884 201.487 551.006 200.631 551.006L200.61 551.027ZM216.176 504.454C212.101 505.126 207.924 509.527 203.809 517.533C202.994 519.265 201.731 522.138 200.427 526.314C198.512 532.222 197.575 537.173 197.575 541.431C197.575 546.993 199.694 546.993 200.61 546.993C201.059 546.993 201.996 546.932 203.198 546.524C212.121 543.815 220.597 532.63 228.461 513.296C223.877 507.428 219.863 504.535 216.196 504.454H216.176Z" fill="#008389"/>
<path d="M311.974 553.935C310.996 553.935 310.018 553.792 309.162 553.385C306.086 551.979 304.538 548.332 304.68 542.444C304.823 536.699 305.801 528.977 307.492 519.3C308.327 515.083 308.898 510.743 309.59 506.261C310.161 501.922 310.161 498.968 309.59 497.562C307.899 496.299 305.108 496.299 301.033 497.419C297.387 498.682 293.312 498.968 288.972 498.255C287.709 497.969 286.589 497.541 285.468 497.134C284.063 500.088 282.392 503.45 280.558 507.097C279.438 509.48 278.175 512.006 276.912 514.675C276.484 515.368 275.934 515.796 275.221 516.081C274.528 516.366 273.815 516.224 273.122 515.939C272.409 515.511 271.859 515.103 271.716 514.248C271.431 513.555 271.431 512.842 271.859 512.149C273.122 509.623 274.243 507.097 275.363 504.856C275.458 504.76 275.506 504.665 275.506 504.57C277.462 500.781 279.153 497.277 280.558 494.2C277.054 490.981 275.221 486.764 275.363 481.447C275.506 478.35 276.341 475.559 277.747 472.89C279.295 470.364 281.251 468.673 283.635 468.265C284.063 468.123 284.755 468.123 285.591 468.265C286.568 468.408 287.404 468.958 288.402 469.814C289.237 470.506 290.093 471.912 290.786 473.746C292.334 478.228 291.336 484.421 287.832 491.98C288.524 492.265 289.38 492.53 290.215 492.815C293.455 493.243 296.531 492.958 299.75 491.98C301.991 491.409 304.375 491.002 306.758 491.002C309.142 490.859 311.383 491.837 313.502 493.528C315.193 495.076 315.886 498.01 315.6 502.37C315.315 506.567 314.48 512.597 313.074 520.176C312.504 523.13 311.954 526.634 311.383 530.689C310.813 534.906 310.405 538.695 310.263 542.2C310.12 545.561 310.548 547.68 311.383 548.23C311.933 548.373 312.646 548.373 313.624 547.945C316.843 546.397 320.632 543.32 324.707 538.695C328.924 533.928 332.714 529.161 336.218 524.251C339.58 519.341 341.698 515.694 342.676 513.453C343.104 512.74 343.512 512.19 344.225 511.905C344.938 511.619 345.63 511.619 346.466 511.905C347.158 512.19 347.586 512.74 348.014 513.453C348.299 514.146 348.299 514.859 348.014 515.551C347.036 517.935 344.795 521.725 341.148 527.062C337.502 532.257 333.427 537.575 328.802 542.627C324.177 547.823 319.818 551.327 315.763 553.14C314.358 553.711 313.094 553.975 311.974 553.975V553.935ZM284.348 473.705C283.92 473.847 283.227 474.683 282.392 476.088C281.699 477.637 281.271 479.45 280.986 481.691C280.986 482.669 281.129 483.79 281.414 484.91C281.699 486.173 282.249 487.436 283.105 488.557C285.631 482.812 286.467 478.472 285.489 475.661C285.346 475.09 285.203 474.825 284.939 474.54C284.796 474.255 284.653 473.99 284.511 473.827L284.368 473.684L284.348 473.705Z" fill="#008389"/>
<path d="M311.966 555.956C310.519 555.956 309.297 555.711 308.258 555.182C304.407 553.43 302.492 549.11 302.655 542.387C302.798 536.825 303.715 529.145 305.487 518.958C306.098 515.902 306.547 512.866 307.015 509.648C307.199 508.425 307.382 507.203 307.565 505.96C308.115 501.804 307.993 499.807 307.83 498.911C306.873 498.524 305.039 498.422 301.535 499.379C297.684 500.704 293.304 501.03 288.618 500.276C287.824 500.113 287.111 499.889 286.459 499.685C285.297 502.069 283.993 504.697 282.588 507.488L282.323 508.038C281.773 509.199 281.182 510.442 280.55 511.705C279.939 512.968 279.308 514.252 278.676 515.576C277.963 516.778 277.107 517.512 275.926 517.98C274.296 518.632 272.809 518.041 272.32 517.838L272.034 517.695C271.403 517.308 270.099 516.534 269.732 514.822C269.284 513.559 269.406 512.276 270.079 511.135C270.669 509.953 271.281 508.629 271.892 507.366C272.442 506.184 272.992 505.043 273.522 503.984L273.685 503.658C275.233 500.663 276.72 497.627 278.085 494.653C274.764 491.108 273.155 486.646 273.297 481.41C273.46 478.089 274.316 475.013 275.926 471.957C277.902 468.697 280.306 466.843 283.138 466.314C283.871 466.11 284.788 466.11 285.909 466.293C287.437 466.517 288.639 467.393 289.698 468.29C290.778 469.186 291.796 470.796 292.652 473.016C294.262 477.682 293.548 483.651 290.554 490.802L290.655 490.843C293.528 491.189 296.238 490.945 299.171 490.048C302.064 489.315 304.509 488.969 306.771 488.969C309.399 488.806 312.129 489.804 314.777 491.943C317.059 494.042 317.956 497.444 317.63 502.476C317.344 506.836 316.468 513.07 315.083 520.527C314.533 523.399 313.962 526.904 313.412 530.958C312.76 535.766 312.414 539.25 312.312 542.265C312.231 544.445 312.394 545.627 312.536 546.197C312.638 546.177 312.74 546.136 312.862 546.075C315.857 544.628 319.484 541.613 323.212 537.335C327.348 532.649 331.076 527.983 334.58 523.053C338.614 517.165 340.224 513.987 340.835 512.622L340.957 512.398C341.487 511.501 342.22 510.524 343.483 510.014C344.645 509.546 345.826 509.546 347.11 509.973C348.515 510.524 349.229 511.501 349.758 512.398L349.901 512.683C350.369 513.865 350.369 515.108 349.901 516.269C348.821 518.897 346.499 522.768 342.811 528.167C338.471 534.319 334.397 539.494 330.281 543.956C325.514 549.314 320.889 553.022 316.57 554.958C314.839 555.65 313.351 555.976 311.966 555.976V555.956ZM306.098 494.571C308.054 494.571 309.582 495.02 310.784 495.936L311.232 496.283L311.436 496.812C311.884 497.933 312.394 500.154 311.558 506.53C311.355 507.814 311.171 509.036 310.988 510.259C310.499 513.539 310.051 516.615 309.419 519.712C307.688 529.674 306.791 537.131 306.648 542.51C306.526 547.46 307.647 550.516 309.949 551.576C311.049 552.126 312.74 552.146 314.94 551.25C318.669 549.579 322.825 546.217 327.246 541.267C331.239 536.907 335.232 531.875 339.449 525.885C342.913 520.832 345.154 517.084 346.111 514.782C346.173 514.619 346.193 514.476 346.152 514.313C345.948 513.987 345.806 513.824 345.684 513.783C345.317 513.661 345.113 513.722 344.93 513.783C344.828 513.824 344.665 514.028 344.441 514.394C343.28 516.982 340.957 520.873 337.86 525.396C334.234 530.469 330.424 535.257 326.207 540.044C322.112 544.71 318.057 548.071 314.492 549.783C313.148 550.353 312.007 550.475 310.886 550.19L310.56 550.109L310.275 549.925C308.706 548.886 308.075 546.421 308.238 542.122C308.36 538.985 308.706 535.379 309.378 530.428C309.949 526.313 310.519 522.727 311.069 519.793C312.414 512.5 313.27 506.429 313.555 502.232C313.861 497.648 312.923 495.773 312.109 495.02C310.336 493.593 308.584 492.921 306.852 493.023C304.815 493.023 302.676 493.329 300.211 493.94C296.788 494.979 293.406 495.284 289.922 494.816L289.535 494.734C288.598 494.429 287.742 494.143 287.049 493.858L285.073 493.064L285.97 491.128C289.209 484.14 290.207 478.354 288.842 474.402C288.19 472.731 287.498 471.733 287.07 471.387C286.214 470.653 285.705 470.348 285.277 470.286C284.625 470.185 284.279 470.205 284.197 470.205L283.953 470.266C282.262 470.572 280.754 471.794 279.43 473.954C278.167 476.358 277.454 478.884 277.331 481.553C277.209 486.137 278.696 489.804 281.875 492.738L282.954 493.736L282.343 495.06C280.815 498.422 279.145 501.845 277.393 505.247C277.311 505.573 277.168 505.817 276.985 506.021C276.496 506.999 276.007 508.038 275.518 509.097C274.907 510.401 274.275 511.746 273.603 513.091C273.481 513.315 273.46 513.355 273.542 513.539L273.664 513.967C273.664 513.967 273.746 514.028 273.97 514.17C274.316 514.293 274.418 514.252 274.438 514.252C274.825 514.089 275.009 513.926 275.131 513.681C275.681 512.52 276.313 511.216 276.924 509.953C277.535 508.69 278.126 507.468 278.696 506.286L278.982 505.695C280.693 502.272 282.282 499.094 283.606 496.303L284.401 494.632L286.133 495.284C287.294 495.712 288.272 496.079 289.372 496.323C293.284 496.955 297.012 496.69 300.333 495.549C302.574 494.938 304.469 494.612 306.078 494.612L306.098 494.571ZM283.525 492.534L281.447 489.784C280.469 488.48 279.756 486.952 279.409 485.363C279.104 484.14 278.941 482.857 278.941 481.695V481.451C279.267 478.884 279.776 476.908 280.53 475.258L280.632 475.054C282.119 472.589 282.975 472.018 283.688 471.794L284.849 471.407L285.868 472.385C286.194 472.731 286.397 473.078 286.581 473.404C287.07 473.994 287.274 474.606 287.416 475.196C288.516 478.313 287.722 483.02 284.931 489.397L283.545 492.554L283.525 492.534ZM282.975 481.818C282.975 482.144 282.995 482.49 283.056 482.857C283.708 480.636 283.892 479.027 283.83 477.886C283.464 478.965 283.199 480.229 282.995 481.818H282.975Z" fill="#008389"/>
<path d="M288.084 453.646C286.964 453.646 286.129 453.096 285.416 451.833C285.13 450.998 285.13 450.285 285.558 449.592C285.843 449.042 286.394 448.471 287.107 448.186C288.512 447.636 294.4 445.517 304.791 442.013C315.161 438.652 327.649 435.005 342.237 431.215C356.966 427.568 371.411 425.042 385.713 423.636C399.893 422.231 411.669 423.351 420.775 426.998C421.468 427.283 422.038 427.833 422.324 428.546C422.466 429.259 422.466 429.952 422.181 430.787C421.896 431.48 421.346 431.908 420.633 432.193C419.94 432.478 419.227 432.478 418.534 432.193C409.835 428.832 398.487 427.854 384.45 429.382C370.433 430.93 356.253 433.436 341.809 437.225C327.364 441.015 315.018 444.519 305.055 447.881C295.093 451.242 289.775 453.076 289.062 453.483C288.777 453.626 288.349 453.626 288.084 453.626V453.646ZM379.825 566.147C378.012 566.29 376.321 565.862 374.63 565.169C359.758 560.402 349.795 543.981 345.028 515.927C342.501 499.099 341.523 481.7 342.216 463.466C343.051 445.232 344.457 429.524 346.841 416.2C349.225 402.876 351.466 395.155 353.707 393.056C354.827 392.221 355.948 392.078 357.211 392.628C358.902 393.464 359.88 394.869 360.43 396.703C360.858 398.944 360.572 401.47 359.595 404.282C358.617 407.093 357.496 409.762 356.233 412.126C354.827 414.367 353.849 416.058 353.279 416.893C352.994 417.321 352.729 417.606 352.301 417.728C349.632 432.743 348.084 450.977 347.676 472.43C347.106 493.741 349.367 513.381 354.399 531.207C359.309 547.2 366.746 556.735 376.565 559.811C380.905 561.36 385.957 559.669 391.723 554.759C397.611 549.991 403.499 543.533 409.264 535.689C415.152 527.846 420.062 520.409 424.28 513.116C424.707 512.403 425.257 511.853 425.97 511.71C426.684 511.567 427.376 511.567 428.069 511.995C428.782 512.423 429.189 512.973 429.475 513.686C429.617 514.399 429.475 515.092 429.189 515.785C427.926 518.168 424.707 523.363 419.512 531.35C414.174 539.336 408.001 547.058 400.85 554.351C393.699 561.787 386.691 565.719 379.805 566.127L379.825 566.147Z" fill="#008389"/>
<path d="M379.123 568.18C377.452 568.18 375.761 567.813 373.867 567.019C358.342 562.048 347.931 544.954 343.062 516.249C340.454 498.891 339.538 481.614 340.23 463.38C340.638 454.477 341.168 446.531 341.82 439.319C326.275 443.414 314.784 446.735 305.718 449.812C299.525 451.91 291.009 454.783 290.092 455.272C289.277 455.679 288.523 455.679 288.116 455.679C286.241 455.679 284.754 454.721 283.695 452.827L283.552 452.48C283.063 451.014 283.165 449.75 283.878 448.569C284.326 447.672 285.284 446.776 286.384 446.328C287.953 445.696 294.187 443.496 304.17 440.114C315.334 436.487 327.986 432.841 341.758 429.275C342.166 429.173 342.553 429.072 342.96 428.99C343.531 424.304 344.183 419.965 344.916 415.87C348.217 397.493 350.641 393.255 352.393 391.605L352.556 391.463C354.247 390.179 356.162 389.955 358.077 390.811C360.237 391.89 361.663 393.663 362.417 396.128L362.478 396.352C362.967 398.919 362.661 401.812 361.561 404.97C360.502 408.006 359.32 410.756 358.077 413.099C357.364 414.24 356.835 415.136 356.366 415.89C355.796 416.848 355.347 417.581 355.021 418.05C354.838 418.335 354.573 418.681 354.206 419.007C353.779 421.472 353.371 424.039 353.004 426.708C364.006 424.386 374.926 422.695 385.561 421.656C400.067 420.209 412.168 421.391 421.581 425.16C422.783 425.649 423.761 426.606 424.25 427.808L424.351 428.175C424.576 429.316 424.514 430.355 424.148 431.455C423.638 432.718 422.742 433.574 421.438 434.083C420.256 434.552 419.014 434.552 417.832 434.083C409.418 430.824 398.253 429.907 384.705 431.414C373.398 432.657 362.539 434.47 351.782 436.915C350.682 447.591 350.01 459.509 349.765 472.528C349.215 493.594 351.456 513.152 356.427 530.714C361.093 545.892 368.101 555.08 377.249 557.953C380.916 559.256 385.337 557.667 390.491 553.287C396.216 548.662 401.982 542.367 407.707 534.544C413.431 526.904 418.301 519.569 422.599 512.154C423.374 510.829 424.433 510.014 425.635 509.77C426.98 509.505 428.141 509.668 429.18 510.3C430.219 510.911 430.952 511.787 431.421 512.969L431.523 513.315C431.727 514.334 431.604 515.393 431.136 516.554L431.054 516.758C429.771 519.203 426.47 524.5 421.295 532.486C415.693 540.88 409.336 548.703 402.389 555.793C394.912 563.555 387.394 567.732 380.04 568.18C379.754 568.2 379.469 568.221 379.184 568.221L379.123 568.18ZM345.976 438.26C345.263 445.778 344.692 454.131 344.264 463.563C343.572 481.512 344.488 498.565 347.055 515.637C351.66 542.693 361.154 558.706 375.272 563.25C377.045 563.983 378.369 564.228 379.693 564.146H379.714C386.029 563.759 392.651 560.01 399.415 552.982C406.199 546.055 412.413 538.415 417.852 530.265C422.885 522.503 426.083 517.349 427.367 514.965C427.469 514.68 427.53 514.456 427.53 514.252C427.387 513.987 427.244 513.865 427.061 513.743C426.959 513.682 426.837 513.62 426.389 513.702C426.389 513.702 426.226 513.845 426.042 514.15C421.683 521.709 416.732 529.145 410.925 536.907C405.017 544.975 398.987 551.515 393.038 556.343C386.763 561.701 380.997 563.514 375.945 561.722C365.514 558.442 357.629 548.377 352.536 531.793C347.443 513.804 345.14 493.838 345.711 472.385C345.955 459.835 346.587 448.284 347.626 437.852C347.076 437.975 346.546 438.117 345.996 438.26H345.976ZM287.301 451.014C287.749 451.747 287.932 451.645 288.238 451.625C288.258 451.625 288.299 451.625 288.319 451.625C289.175 451.177 292.537 449.995 304.435 445.981C313.704 442.844 325.419 439.462 341.331 435.285C341.636 435.204 341.942 435.122 342.268 435.041C342.329 434.43 342.39 433.839 342.451 433.228C328.883 436.752 316.414 440.358 305.433 443.903C294.859 447.469 289.134 449.526 287.871 450.036C287.647 450.137 287.443 450.341 287.382 450.463C287.28 450.647 287.24 450.728 287.301 450.993V451.014ZM346.607 432.229C346.546 432.82 346.485 433.411 346.403 434.002C346.954 433.859 347.504 433.737 348.054 433.615C348.115 433.024 348.196 432.433 348.257 431.863C347.707 431.985 347.157 432.107 346.607 432.25V432.229ZM352.434 430.926C352.373 431.496 352.291 432.066 352.23 432.657C362.682 430.335 373.255 428.603 384.257 427.401C398.457 425.832 410.253 426.831 419.299 430.335C419.543 430.437 419.706 430.437 419.93 430.335C420.175 430.233 420.318 430.131 420.358 430.049C420.46 429.744 420.46 429.479 420.419 429.194C420.338 429.051 420.216 428.949 420.073 428.909C411.272 425.404 399.802 424.304 385.948 425.669C375.008 426.749 363.782 428.521 352.454 430.946L352.434 430.926ZM355.062 394.6C353.982 395.7 351.823 400.06 348.869 416.562C348.237 420.148 347.646 423.937 347.137 427.971C347.687 427.849 348.237 427.727 348.808 427.584C349.276 424.019 349.806 420.617 350.376 417.377L350.58 416.196L351.721 415.809C351.965 415.32 352.373 414.627 352.903 413.751C353.371 412.977 353.921 412.08 354.573 411.041C355.653 408.984 356.753 406.437 357.751 403.585C358.587 401.16 358.852 399.001 358.526 397.167C358.077 395.802 357.405 394.946 356.366 394.417C355.877 394.213 355.551 394.233 355.062 394.58V394.6Z" fill="#008389"/>
<path d="M423.282 730.534C420.613 730.534 418.372 729.841 416.681 728.435C408.552 722.262 407.004 707.247 411.628 683.696C416.396 660.124 428.171 632.07 446.976 599.677C456.225 583.969 465.067 570.502 473.481 558.991C472.504 531.223 470.813 511.725 468.857 500.785C467.736 503.311 466.616 505.98 465.353 508.792V508.934C461.135 519.447 456.938 527.881 452.864 534.462C448.932 540.92 444.45 543.997 439.825 543.446C435.2 542.733 431.696 538.822 429.027 531.671C426.786 524.662 425.38 517.084 425.238 508.955C424.952 500.683 425.808 495.203 427.764 492.412C428.314 491.841 428.884 491.434 429.72 491.434C430.433 491.434 431.125 491.719 431.676 492.147C432.389 492.697 432.653 493.41 432.653 494.103C432.653 494.795 432.511 495.508 431.961 496.058C431.39 497.179 430.983 499.848 430.84 504.065C430.698 508.119 430.983 512.764 431.676 517.817C432.246 523.012 433.509 527.637 435.18 531.711C436.871 535.501 438.684 537.599 440.64 537.885C442.616 538.027 444.857 536.336 447.241 532.689C449.767 529.185 452.008 524.968 454.249 520.058C456.49 515.148 458.303 510.951 459.852 507.162C459.994 507.019 459.994 506.877 460.137 506.734C462.378 501.131 464.191 497.199 465.332 495.101C466.595 492.86 467.858 491.597 469.122 491.454C469.672 491.454 470.242 491.454 470.813 491.739C471.505 492.024 472.076 492.452 472.504 493.145C473.481 494.979 474.602 501.274 476.008 511.807C477.271 522.462 478.249 535.644 479.084 551.637C489.047 538.74 497.175 528.92 503.491 522.319C509.807 515.718 513.168 512.357 513.454 512.357C514.024 511.807 514.717 511.522 515.41 511.664C516.245 511.664 516.815 511.949 517.386 512.5C517.936 513.213 518.221 513.763 518.221 514.598C518.078 515.291 517.793 516.004 517.243 516.554C516.815 516.554 513.168 520.343 506.16 527.779C499.294 535.073 490.31 546.014 479.369 560.601C479.94 578.142 479.655 596.519 478.391 615.445C477.128 634.515 474.459 652.484 470.262 669.027C466.208 685.713 460.178 699.179 452.171 709.427C445.59 717.556 439.967 723.037 435.2 726.113C430.433 729.067 426.501 730.595 423.282 730.595V730.534ZM473.644 568.383C466.636 578.346 459.342 589.694 451.764 602.468C439.56 623.371 430.453 642.44 424.545 659.696C418.657 676.952 415.295 691.254 414.725 702.48C414.297 713.848 415.988 720.999 419.92 723.811C425.808 727.172 435.078 721.142 447.832 705.862C454.983 696.592 460.463 684.388 464.252 669.394C468.184 654.236 470.711 637.836 472.116 620.152C473.522 602.468 473.93 585.232 473.665 568.404L473.644 568.383Z" fill="#008389"/>
<path d="M423.284 732.557C420.106 732.557 417.457 731.702 415.399 729.99C406.7 723.369 404.785 708.089 409.654 683.295C414.462 659.54 426.442 631.058 445.246 598.644C454.068 583.69 462.869 570.142 471.446 558.346C470.672 536.954 469.47 519.779 467.922 507.963C467.738 508.391 467.535 508.839 467.331 509.267L467.229 509.654C463.195 519.759 458.937 528.438 454.598 535.487C449.097 544.513 443.392 545.878 439.603 545.409C434.163 544.574 430.129 540.316 427.155 532.329C424.69 524.608 423.365 516.764 423.243 508.941C422.938 500.221 423.895 494.415 426.136 491.196L426.36 490.931C427.094 490.197 428.133 489.342 429.763 489.342C430.863 489.342 432.004 489.729 432.941 490.462C434.102 491.379 434.713 492.642 434.713 494.028C434.713 495.25 434.387 496.269 433.715 497.084C433.511 497.654 433.043 499.406 432.88 504.051C432.737 508.004 433.022 512.527 433.695 517.457C434.204 522.183 435.345 526.666 437.077 530.842C438.951 535.059 440.418 535.711 440.968 535.793C441.273 535.854 442.903 535.589 445.593 531.494C447.895 528.295 450.054 524.404 452.458 519.127C454.618 514.381 456.452 510.204 458.041 506.313L458.326 505.803C458.326 505.803 458.387 505.702 458.428 505.64C460.363 500.792 462.258 496.595 463.603 494.048C465.273 491.094 467.005 489.566 468.94 489.342H469.164C469.837 489.342 470.754 489.342 471.731 489.81C472.771 490.238 473.626 490.951 474.258 491.99C475.093 493.559 476.091 496.921 478.027 511.426C479.107 520.533 480.023 531.881 480.838 546.02C489.578 534.856 496.546 526.584 502.067 520.818C508.709 513.871 511.072 511.488 512.233 510.673C513.232 509.776 514.454 509.369 515.636 509.552C516.879 509.593 517.897 510.041 518.834 510.978L518.997 511.162C519.67 511.997 520.281 512.975 520.281 514.523L520.24 514.931C519.996 516.153 519.486 517.151 518.712 517.925L518.121 518.516H517.918C516.39 519.881 511.194 525.362 507.67 529.11C500.763 536.445 491.942 547.243 481.45 561.198C482 579.025 481.653 597.32 480.451 615.534C479.168 635.01 476.397 653.163 472.261 669.482C468.146 686.351 461.952 700.205 453.803 710.615C447.1 718.887 441.396 724.49 436.343 727.749C431.087 730.989 426.849 732.557 423.325 732.557H423.284ZM469.694 493.946L470.855 500.425C472.974 512.18 474.584 532.411 475.521 558.916V559.609L475.134 560.18C466.496 571.996 457.613 585.626 448.73 600.702C430.15 632.708 418.333 660.783 413.627 684.09C409.145 706.887 410.591 721.271 417.926 726.833C419.311 727.973 421.084 728.524 423.304 728.524C426.055 728.524 429.6 727.159 434.163 724.327C438.747 721.352 444.309 715.872 450.625 708.089C458.387 698.147 464.356 684.823 468.329 668.484C472.424 652.389 475.134 634.481 476.417 615.248C477.64 596.912 477.966 578.536 477.395 560.607V559.894L477.803 559.324C488.58 544.961 497.646 533.857 504.736 526.319C512.295 518.313 514.8 515.705 516.002 514.869C516.104 514.727 516.165 514.543 516.227 514.34C516.206 514.218 516.125 514.055 515.921 513.769C515.738 513.606 515.656 513.586 515.452 513.586L515.065 513.545C515.065 513.545 515.025 513.586 514.923 513.708L514.332 514.299H514.189C513.395 515.012 511.194 517.172 505.001 523.63C498.889 530.007 490.964 539.541 480.736 552.784L477.416 557.083L477.13 551.643C476.254 535.039 475.256 522.061 474.054 511.936C472.669 501.505 471.568 495.454 470.774 493.987C470.692 493.844 470.509 493.661 470.102 493.498C469.878 493.396 469.653 493.376 469.348 493.376C469.144 493.437 468.37 493.824 467.147 496.004C466.557 497.124 464.805 500.567 462.075 507.392L461.769 507.943C461.769 507.943 461.728 508.024 461.687 508.065C460.098 511.936 458.285 516.112 456.146 520.798C453.62 526.299 451.338 530.435 448.934 533.776C446.204 537.952 443.392 539.99 440.56 539.806C437.708 539.399 435.426 536.995 433.389 532.452C431.494 527.868 430.272 523.019 429.722 517.966C429.009 512.853 428.724 508.126 428.866 503.929C429.09 497.308 429.926 495.637 430.211 495.087L430.578 494.557C430.578 494.557 430.679 494.313 430.679 494.028C430.679 493.926 430.679 493.804 430.455 493.641C430.252 493.478 429.966 493.376 429.742 493.376C429.702 493.376 429.62 493.376 429.335 493.641C428.194 495.393 426.951 499.447 427.257 508.819C427.379 516.296 428.622 523.752 430.944 530.985C433.328 537.382 436.343 540.805 440.133 541.395C444.818 541.966 448.73 537.341 451.155 533.368C455.331 526.584 459.426 518.231 463.338 508.493V508.452L463.521 507.922C464.255 506.272 464.947 504.683 465.62 503.134C466.088 502.034 466.557 500.975 467.025 499.936L469.694 493.905V493.946ZM423.467 726.771C421.837 726.771 420.33 726.364 418.924 725.569L418.761 725.468C414.238 722.249 412.282 714.71 412.731 702.425C413.301 691.139 416.54 676.959 422.652 659.071C428.499 641.958 437.708 622.583 450.034 601.476C457.613 588.702 465.008 577.191 472.017 567.249L475.582 562.196L475.684 568.39C475.989 586.379 475.48 603.371 474.136 620.342C472.669 638.82 470.081 655.037 466.21 669.93C462.36 685.19 456.716 697.699 449.443 707.132C438.36 720.395 429.966 726.812 423.467 726.812V726.771ZM421.023 722.106C424.384 723.94 431.494 722.31 446.306 704.565C453.192 695.641 458.591 683.621 462.319 668.891C466.129 654.222 468.675 638.229 470.122 619.995C471.304 605.164 471.833 590.291 471.731 574.746C465.864 583.344 459.772 593.001 453.518 603.513C441.335 624.376 432.228 643.506 426.483 660.375C420.574 677.672 417.315 691.872 416.765 702.609C416.276 715.709 418.802 720.456 421.023 722.126V722.106Z" fill="#008389"/>
<path d="M625.911 589.418C624.363 589.418 623.1 589.133 622.122 588.583C621.286 588.155 620.431 587.605 620.023 587.177C617.497 584.508 616.234 581.004 616.519 576.522C616.804 571.204 618.76 565.724 622.122 559.979C625.626 554.091 630.108 548.895 635.446 544.413C636.138 543.843 636.851 543.7 637.544 543.7C638.379 543.7 639.093 544.128 639.643 544.678C640.193 545.228 640.335 545.941 640.335 546.634C640.335 547.327 639.907 547.897 639.357 548.447C634.59 552.522 630.515 557.147 627.439 562.199C624.363 567.394 622.672 572.284 622.244 576.786C622.244 577.764 622.244 578.885 622.529 580.148C622.814 581.411 623.364 582.389 624.22 583.367C624.933 583.795 625.626 583.917 626.604 583.795C627.582 583.673 628.417 583.51 628.987 583.245C634.733 581.146 640.906 575.951 647.649 567.802C654.372 559.673 658.162 550.281 658.997 539.605C658.712 523.612 652.967 513.528 641.741 509.31C631.228 506.234 620.431 506.356 609.327 509.738C597.409 516.482 589.687 519.558 586.183 518.723C585.47 518.438 584.92 518.03 584.635 517.317C584.207 516.604 584.207 516.054 584.35 515.341C584.9 513.935 587.141 512.264 591.358 510.146C595.575 508.169 600.628 506.214 606.801 504.543C623.772 495.436 640.743 481.827 657.856 463.593C667.248 452.367 674.827 438.208 680.572 420.809C686.175 403.41 686.46 388.538 681 376.212C675.948 366.82 666.27 362.195 651.826 362.46C639.052 363.153 627.847 366.942 618.027 373.971C608.207 380.837 600.22 388.416 593.905 396.422C582.129 411.152 573.43 425.882 567.664 440.612C561.776 455.342 559.535 465.712 560.941 471.885C561.083 472.72 560.941 473.433 560.513 473.983C560.085 474.533 559.535 474.961 558.679 475.246C557.987 475.389 557.131 475.246 556.581 474.961C555.888 474.533 555.46 473.983 555.175 473.148C553.627 465.712 556.01 454.201 562.184 438.636C568.499 423.07 577.464 407.77 589.26 393.04C595.84 384.483 604.54 376.64 615.072 369.204C625.585 361.767 637.789 357.693 651.683 357C661.911 357 669.775 358.834 675.235 362.338C680.572 365.842 684.219 369.631 686.318 373.849C692.206 387.315 692.348 403.166 686.46 421.542C680.572 439.919 672.566 455.056 662.481 466.995C650.42 480.462 636.811 492.095 621.796 501.915C625.993 501.487 630.21 501.487 634.142 501.915C641.435 502.485 648.159 505.419 654.474 510.757C660.79 516.237 664.294 525.914 664.844 539.789C664.009 551.137 659.934 561.527 652.641 570.634C645.347 579.741 638.196 585.649 631.045 588.318C629.089 589.01 627.398 589.438 625.85 589.438L625.911 589.418ZM608.39 612.562C608.105 612.562 607.82 612.562 607.555 612.419C603.908 611.441 600.974 608.345 598.57 603.17C594.496 593.35 592.112 578.477 591.134 558.695C590.156 538.913 590.156 518.01 590.991 496.271C591.827 474.391 593.09 455.464 594.496 439.613C596.044 423.763 597.307 414.778 598.142 412.68C598.285 412.395 598.692 411.845 599.12 411.274C599.548 410.561 600.098 410.154 600.811 409.726C601.504 409.298 602.36 409.155 603.337 409.298C605.436 409.869 606.556 411.824 606.556 415.186C606.556 416.021 606.271 416.592 605.721 417.162C605.151 417.712 604.458 417.855 603.623 417.997H603.195C603.052 417.855 602.91 417.855 602.91 417.855H602.767C601.504 426.126 599.956 442.955 598.285 468.482C596.472 493.867 595.901 519.823 596.329 546.328C596.757 572.691 599.548 591.639 604.886 602.864C605.171 603.292 605.456 603.699 605.599 604.127C605.456 603.007 605.171 601.886 604.764 601.051C604.336 600.073 604.071 599.36 603.786 598.667C603.358 598.117 603.215 597.832 603.215 597.832C602.787 597.139 602.787 596.426 602.93 595.734C603.073 595.02 603.623 594.47 604.336 594.043C605.028 593.757 605.742 593.615 606.434 593.757C607.27 594.043 607.84 594.45 608.268 595.02C608.41 595.306 608.818 596.141 609.674 597.689C610.366 599.238 611.079 601.194 611.487 603.435C611.915 605.818 611.915 608.202 611.202 610.586C610.488 611.849 609.653 612.541 608.39 612.541V612.562Z" fill="#008389"/>
<path d="M608.388 614.575C608.042 614.575 607.492 614.575 606.86 614.331C602.704 613.149 599.383 609.767 596.735 604.022C592.619 594.1 590.134 579.33 589.115 558.814C588.524 546.814 588.28 534.121 588.382 520.858C587.261 520.96 586.426 520.858 585.754 520.696L585.489 520.614C584.226 520.125 583.35 519.31 582.881 518.251C582.168 516.988 582.249 515.887 582.433 514.991L582.535 514.645C583.207 512.954 585.041 511.344 588.565 509.409C588.667 505.069 588.81 500.669 588.973 496.227C589.747 476.058 590.928 456.968 592.477 439.467C594.025 423.637 595.288 414.388 596.266 411.964C596.551 411.393 596.918 410.884 597.509 410.11C598.079 409.152 598.935 408.541 599.77 408.052C600.85 407.4 602.154 407.155 603.601 407.359L603.845 407.4C605.618 407.869 608.572 409.519 608.572 415.244C608.572 416.568 608.123 417.648 607.146 418.626C606.29 419.461 605.332 419.766 604.517 419.929C603.254 429.057 601.808 445.824 600.3 468.662C599.444 480.54 598.854 492.642 598.528 505.09C600.972 504.214 603.478 503.419 606.086 502.706C622.711 493.742 639.641 480.132 656.428 462.245C665.596 451.284 673.114 437.124 678.696 420.215C684.258 402.979 684.421 388.86 679.185 377.064C674.52 368.406 665.576 364.27 651.905 364.514C639.478 365.187 628.762 368.833 619.227 375.638C609.855 382.198 601.889 389.614 595.512 397.682C584.002 412.086 575.261 426.775 569.577 441.342C563.873 455.623 561.632 465.749 562.936 471.433C563.241 473.287 562.691 474.489 562.161 475.182C561.448 476.119 560.532 476.771 559.35 477.158L559.126 477.219C558.046 477.443 556.722 477.28 555.703 476.771C554.46 476.037 553.727 475.08 553.279 473.776L553.218 473.552C551.588 465.729 553.931 454.055 560.328 437.899C566.807 421.885 576.015 406.381 587.709 391.794C594.188 383.38 602.765 375.455 613.93 367.57C624.728 359.951 637.4 355.713 651.6 355C662.194 355 670.486 356.895 676.333 360.643C681.997 364.372 685.847 368.385 688.129 372.949C694.282 387.006 694.363 403.529 688.394 422.15C682.445 440.69 674.255 456.214 664.028 468.275C653.515 480.01 641.719 490.502 628.843 499.568C630.717 499.589 632.571 499.691 634.364 499.894C641.943 500.485 649.175 503.602 655.797 509.205C662.581 515.093 666.309 525.341 666.88 539.704V539.826V539.948C666.004 551.765 661.766 562.522 654.248 571.914C646.629 581.428 639.274 587.418 631.777 590.209C629.332 591.085 627.539 591.452 625.889 591.452C623.994 591.452 622.385 591.085 621.101 590.331C620.184 589.883 619.166 589.19 618.575 588.62C615.539 585.401 614.174 581.306 614.48 576.396C614.765 570.936 616.701 565.231 620.368 558.956C623.933 552.967 628.558 547.547 634.14 542.862C635.138 542.067 636.239 541.68 637.542 541.68C638.439 541.68 639.783 541.945 641.087 543.249C641.943 544.104 642.371 545.245 642.371 546.631C642.371 548.322 641.21 549.463 640.782 549.89C635.953 554.026 632.082 558.488 629.169 563.255C626.317 568.043 624.666 572.668 624.279 576.966C624.279 577.7 624.279 578.657 624.524 579.717C624.687 580.45 624.992 581.082 625.522 581.774C625.706 581.836 625.93 581.856 626.337 581.795C626.765 581.734 627.784 581.591 628.11 581.428L628.313 581.347C633.651 579.391 639.478 574.542 646.12 566.515C652.557 558.732 656.225 549.625 657.019 539.439C656.754 524.424 651.539 515.113 641.067 511.181C631.186 508.288 620.755 508.41 610.161 511.568C605.292 514.319 601.4 516.274 598.283 517.68C598.161 526.97 598.181 536.485 598.344 546.284C598.65 565.843 600.3 581.245 603.254 592.287C603.254 592.287 603.254 592.287 603.275 592.287L603.56 592.144C604.721 591.676 605.781 591.554 606.799 591.757L607.023 591.818C608.205 592.206 609.122 592.837 609.835 593.774L610.039 594.1C610.181 594.385 610.589 595.2 611.404 596.688C612.361 598.786 613.033 600.925 613.441 603.024C613.95 605.978 613.848 608.606 613.115 611.112L612.952 611.519C611.852 613.516 610.303 614.514 608.388 614.514V614.575ZM608.286 610.541H608.388C608.612 610.541 608.877 610.541 609.325 609.808C609.814 607.974 609.876 605.998 609.488 603.798C609.061 601.557 608.348 599.703 607.818 598.521C607.166 597.319 606.758 596.525 606.555 596.117C606.432 595.975 606.249 595.852 605.944 595.73C605.74 595.73 605.516 595.771 605.23 595.852C605.006 595.995 604.904 596.117 604.884 596.158C604.803 596.586 604.884 596.708 604.925 596.79C605.027 596.952 605.129 597.136 605.373 597.441L605.74 598.175C605.984 598.766 606.229 599.397 606.595 600.253C607.044 601.129 607.41 602.474 607.594 603.879L603.682 604.755C603.641 604.613 603.417 604.287 603.254 604.042L603.071 603.737C597.611 592.246 594.759 573.483 594.331 546.366C594.188 537.116 594.147 528.152 594.249 519.351C593.618 519.575 593.007 519.779 592.456 519.962C592.334 533.47 592.558 546.386 593.17 558.569C594.168 578.617 596.551 592.939 600.463 602.372C602.582 606.976 605.088 609.645 608.103 610.46L608.327 610.521L608.286 610.541ZM637.563 545.714C637.176 545.714 636.972 545.775 636.727 545.979C631.532 550.359 627.193 555.411 623.872 561.014C620.551 566.719 618.799 571.832 618.534 576.64C618.29 580.471 619.268 583.445 621.488 585.808C621.651 585.971 622.283 586.42 623.016 586.786C624.544 587.662 626.5 587.805 630.412 586.42C637.094 583.934 644.062 578.189 651.111 569.388C658.079 560.668 662.031 550.705 662.866 539.765C662.316 526.624 659.057 517.375 653.189 512.281C647.159 507.208 640.884 504.458 634.018 503.928C630.188 503.521 626.072 503.521 622.038 503.928L613.828 504.743L620.734 500.22C635.627 490.482 649.175 478.849 661.012 465.647C670.853 454.034 678.798 438.978 684.584 420.928C690.248 403.264 690.228 387.699 684.523 374.66C682.608 370.85 679.206 367.346 674.173 364.025C668.999 360.704 661.44 359.014 651.722 359.014C638.398 359.686 626.419 363.679 616.273 370.85C605.455 378.511 597.142 386.171 590.908 394.28C579.458 408.602 570.453 423.76 564.117 439.406C558.128 454.503 555.805 465.688 557.19 472.615C557.333 473.002 557.496 473.124 557.679 473.246C557.72 473.246 558.026 473.307 558.25 473.287C558.657 473.124 558.841 472.941 558.983 472.778C558.983 472.778 559.085 472.635 559.024 472.228C557.537 465.749 559.778 455.114 565.869 439.875C571.716 424.941 580.64 409.885 592.395 395.176C599.017 386.803 607.268 379.102 616.945 372.338C626.948 365.187 638.683 361.193 651.804 360.48C666.941 360.195 677.433 365.166 682.852 375.292C688.496 388.005 688.374 403.488 682.588 421.478C676.822 438.897 669.06 453.505 659.484 464.934C642.269 483.29 624.911 497.205 607.838 506.373L607.41 506.536C604.273 507.392 601.319 508.349 598.446 509.429C598.426 510.713 598.385 511.996 598.365 513.3C601.095 512.016 604.395 510.285 608.388 508.023L608.796 507.86C620.205 504.397 631.512 504.254 642.35 507.433C654.513 511.996 660.748 522.814 661.053 539.622C660.177 550.848 656.204 560.709 649.237 569.143C642.167 577.679 635.811 582.915 629.801 585.156C628.986 585.543 628.008 585.706 626.908 585.849C625.502 586.053 624.32 585.849 623.2 585.177L622.914 585.014L622.69 584.769C621.57 583.465 620.897 582.162 620.572 580.674C620.246 579.187 620.246 577.904 620.246 576.864C620.714 571.771 622.548 566.576 625.706 561.259C628.843 556.104 632.999 551.316 638.052 546.997C638.276 546.773 638.337 546.651 638.337 546.631C638.337 546.427 638.296 546.264 638.215 546.182C637.95 545.918 637.726 545.795 637.542 545.795L637.563 545.714ZM586.833 516.804C587.221 516.886 587.75 516.886 588.423 516.804C588.423 515.928 588.443 515.032 588.463 514.135C586.996 515.113 586.487 515.704 586.324 515.969C586.324 516.132 586.324 516.173 586.406 516.295L586.548 516.58C586.548 516.58 586.711 516.743 586.833 516.804ZM592.538 511.874C592.518 513.178 592.497 514.461 592.477 515.745C593.027 515.541 593.638 515.317 594.27 515.052C594.29 513.707 594.31 512.383 594.351 511.059C593.74 511.324 593.149 511.589 592.558 511.874H592.538ZM602.623 411.291C602.154 411.291 601.95 411.434 601.848 411.475C601.278 411.821 601.013 412.025 600.83 412.33C600.402 412.921 600.056 413.349 599.913 413.593C599.689 414.164 598.568 418.218 596.47 439.814C594.922 457.233 593.76 476.261 592.966 496.349C592.823 500.057 592.701 503.745 592.619 507.392C593.21 507.127 593.821 506.882 594.412 506.618C594.738 493.518 595.349 480.825 596.246 468.357C597.855 443.888 599.424 426.306 600.748 417.566L601.013 415.855H602.745C603.03 415.855 603.315 415.896 603.56 415.977C603.947 415.916 604.171 415.834 604.273 415.753C604.497 415.529 604.517 415.447 604.517 415.223C604.517 412.025 603.417 411.475 602.908 411.312C602.806 411.312 602.704 411.312 602.602 411.312L602.623 411.291Z" fill="#008389"/>
<path d="M680.06 554.775C676.556 554.775 673.887 553.512 672.196 551.128C670.383 548.317 669.385 544.955 669.385 540.881C669.385 535.685 670.505 529.655 672.889 522.932C675.558 515.353 679.062 508.772 683.544 503.149C686.906 499.075 691.266 496.976 696.461 496.976C701.656 496.976 707.116 500.195 712.719 506.939C714.552 501.744 715.958 497.526 716.936 494.307C717.221 492.902 718.199 492.209 719.605 492.209C720.725 492.209 721.418 492.637 721.846 493.33C722.274 493.88 722.396 494.593 722.396 495.143V495.571C719.87 508.895 718.607 520.813 718.607 531.203C718.607 540.045 719.727 545.648 721.683 548.032C722.253 548.459 722.661 548.582 722.803 548.582L723.516 548.439C727.856 547.176 732.501 542.694 737.676 535.115C742.871 527.536 747.068 520.243 750.307 513.377C750.857 512.256 751.713 511.686 752.834 511.686C754.81 511.686 755.788 512.664 755.788 514.497C755.788 515.475 753.832 519.55 749.757 526.701C740.65 542.979 732.358 552.086 724.657 553.919C723.965 554.062 723.394 554.205 722.702 554.205C720.888 554.205 719.34 553.369 717.934 551.964C715.408 549.295 714.002 545.791 713.595 541.451C713.187 537.112 713.045 533.587 713.045 530.653C713.045 527.292 713.187 523.645 713.472 519.998C705.058 539.353 695.524 550.721 684.868 553.94C683.055 554.49 681.507 554.775 680.101 554.775H680.06ZM680.06 549.03C680.896 549.03 682.016 548.887 683.279 548.459C692.957 545.505 701.941 533.73 710.213 512.969L710.07 512.827C704.875 505.961 700.108 502.457 695.483 502.457C690.573 503.149 685.948 507.917 681.466 516.616C680.488 518.715 679.225 521.669 677.962 525.723C676.006 531.753 675.008 536.949 675.008 541.431C675.008 546.483 676.699 549.01 680.06 549.01V549.03Z" fill="#008389"/>
<path d="M680.06 556.792C675.924 556.792 672.623 555.244 670.545 552.29C668.427 549.03 667.367 545.22 667.367 540.881C667.367 535.319 668.59 529.044 670.994 522.26C673.805 514.294 677.391 507.632 681.975 501.887C685.785 497.282 690.654 494.96 696.46 494.96C701.676 494.96 706.769 497.608 711.944 503.028C713.207 499.34 714.246 496.223 715 493.717C715.407 491.619 717.18 490.192 719.604 490.192C721.784 490.192 722.925 491.272 723.516 492.209C724.107 493.024 724.412 494.063 724.412 495.163L724.371 495.958C721.886 509.099 720.623 520.956 720.623 531.204C720.623 541.451 722.192 545.22 723.047 546.484H723.129C726.714 545.424 730.993 541.329 736.025 533.974C741.057 526.64 745.254 519.428 748.493 512.521C749.41 510.667 750.959 509.669 752.833 509.669C755.889 509.669 757.804 511.523 757.804 514.498C757.804 515.19 757.804 516.637 751.509 527.7C741.974 544.711 733.336 553.94 725.105 555.876L724.759 555.957C724.127 556.079 723.495 556.222 722.681 556.222C720.439 556.222 718.361 555.264 716.487 553.39C713.676 550.416 712.025 546.484 711.557 541.635C711.17 537.662 710.986 534.056 710.986 530.633C710.986 530.348 710.986 530.042 710.986 529.757C703.346 544.263 694.769 553.023 685.398 555.855C683.319 556.487 681.628 556.792 680.039 556.792H680.06ZM696.46 498.994C691.917 498.994 688.087 500.827 685.112 504.433C680.834 509.791 677.452 516.066 674.803 523.605C672.542 529.961 671.401 535.788 671.401 540.881C671.401 544.467 672.216 547.462 673.887 550.029C675.15 551.821 677.248 552.759 680.06 552.759C681.221 552.759 682.545 552.514 684.236 552.005C694.239 548.99 703.428 537.947 711.597 519.184L716.365 508.202L715.448 520.141C715.183 523.686 715.041 527.333 715.041 530.654C715.041 533.974 715.224 537.418 715.591 541.268C715.978 545.241 717.221 548.297 719.4 550.599C720.48 551.679 721.54 552.209 722.701 552.209C723.108 552.209 723.455 552.127 723.964 552.025L724.27 551.964C731.176 550.334 739.183 541.513 748.004 525.744C753.322 516.372 753.75 514.559 753.79 514.396C753.79 513.886 753.79 513.744 752.853 513.744C752.65 513.744 752.425 513.744 752.14 514.314C748.819 521.384 744.521 528.779 739.366 536.297C733.702 544.548 728.854 549.051 724.107 550.416L722.843 550.64C721.988 550.64 721.112 550.11 720.521 549.682L720.175 549.336C717.811 546.484 716.63 540.372 716.63 531.224C716.63 520.773 717.913 508.712 720.419 495.408V495.184C720.419 494.939 720.358 494.695 720.256 494.573L720.134 494.389C720.134 494.389 720.052 494.247 719.625 494.247C719.034 494.247 718.993 494.41 718.932 494.715C717.893 498.158 716.467 502.437 714.653 507.612L713.472 510.973L711.19 508.243C706.015 502.029 701.207 499.014 696.481 499.014L696.46 498.994ZM680.06 551.027C677.411 551.027 672.99 549.784 672.99 541.431C672.99 536.725 673.988 531.387 676.026 525.092C677.391 520.691 678.735 517.635 679.632 515.74C684.542 506.206 689.635 501.235 695.197 500.44H695.482C700.677 500.44 705.954 504.046 711.597 511.482L712.433 512.318L712.086 513.683C703.509 535.176 694.28 547.176 683.87 550.355C682.28 550.884 680.915 551.006 680.06 551.006V551.027ZM695.625 504.454C691.55 505.126 687.374 509.527 683.258 517.533C682.443 519.265 681.18 522.138 679.876 526.314C677.961 532.222 677.024 537.173 677.024 541.431C677.024 546.993 679.143 546.993 680.06 546.993C680.508 546.993 681.445 546.932 682.647 546.524C691.571 543.815 700.046 532.63 707.91 513.296C703.326 507.428 699.312 504.535 695.645 504.454H695.625Z" fill="#008389"/>
<path d="M761.093 585.077C760.523 585.077 759.973 584.934 759.402 584.506C758.832 584.078 758.567 583.528 758.424 582.815C758.139 581.98 757.589 578.598 756.733 572.853C755.756 566.965 755.185 559.936 754.92 551.522C753.372 536.364 751.823 518.273 750.296 497.512C748.89 476.752 747.912 455.849 747.504 434.804C747.077 413.758 747.79 395.381 749.46 379.388C751.151 363.395 754.513 352.598 759.423 346.852C762.092 344.326 765.025 343.063 768.244 343.348C772.462 343.776 775.823 345.875 778.349 349.521C782.974 357.1 784.665 369.304 783.545 385.847C782.567 402.39 780.04 420.074 776.108 438.858C772.319 457.662 768.387 474.206 764.597 488.508C760.808 502.81 758.282 511.509 757.304 514.606C757.589 517.275 757.732 519.923 758.017 522.449C759.708 515.869 762.356 510.103 766.146 505.051C769.935 500.141 775.13 496.494 781.711 494.395C791.388 491.584 798.417 496.494 803.184 508.84C805.853 516.826 806.403 525.668 804.875 535.346C809.928 532.269 814.695 528.887 819.035 525.24C823.517 521.451 827.041 517.397 829.71 512.894C830.138 512.181 830.688 511.774 831.401 511.631C832.237 511.346 832.95 511.489 833.642 511.774C834.355 512.202 834.763 512.752 834.906 513.587C835.191 514.3 835.048 514.993 834.62 515.685C831.259 521.431 826.614 526.626 820.868 531.128C815.123 535.61 809.093 539.685 802.92 543.189C801.229 548.099 798.845 552.296 795.626 556.106C792.407 559.895 788.332 562.686 783.422 564.377C781.874 565.09 780.611 565.355 779.49 565.09C778.512 564.948 777.535 564.663 776.964 564.113C776.414 563.542 775.986 563.135 775.701 562.849C774.723 561.444 774.438 559.773 774.58 557.939C774.723 556.126 775.416 554.578 776.679 553.315C780.326 549.811 785.928 546.164 793.507 542.089C795.055 541.254 796.583 540.276 797.989 539.42C800.801 529.05 800.658 519.495 797.704 510.674C797.276 509.125 796.441 507.312 795.32 505.356C794.2 503.258 792.509 501.567 790.696 500.304C788.74 499.04 786.214 498.898 783.402 499.754C776.944 501.995 772.034 505.927 768.672 511.529C765.311 517.132 763.192 523.59 762.071 530.884C760.951 538.177 760.523 545.471 760.808 552.622C761.929 563.99 762.907 573.668 763.905 581.939C764.047 582.632 763.905 583.345 763.477 583.895C762.927 584.445 762.356 584.873 761.664 585.016H761.114L761.093 585.077ZM767.409 349.012C766.003 349.012 764.74 349.725 763.477 350.968C759.26 355.878 756.326 365.983 754.778 381.12C753.229 396.42 752.679 414.369 753.087 435.13C753.514 455.89 754.492 476.936 756.163 498.389C760.38 482.966 764.72 465.282 769.08 445.214C773.297 425.167 776.231 406.505 777.779 389.249C779.185 371.993 777.922 359.932 773.704 352.781C772.156 350.54 770.2 349.277 767.816 348.992H767.389L767.409 349.012ZM794.342 548.181C788.027 551.542 783.402 554.639 780.733 557.288C780.448 557.573 780.305 558.001 780.163 558.408C780.163 558.958 780.163 559.386 780.305 559.671C780.305 559.576 780.353 559.529 780.448 559.529C780.59 559.529 780.876 559.386 781.426 559.243C787.028 557.002 791.388 553.356 794.342 548.16V548.181Z" fill="#008389"/>
<path d="M761.847 587.082H761.093C760.013 587.082 759.036 586.756 758.18 586.104C757.304 585.452 756.733 584.536 756.469 583.334C756.244 582.58 755.837 580.583 754.737 573.167C753.779 567.443 753.188 560.577 752.903 551.613C751.396 537.005 749.847 518.812 748.279 497.685C746.791 475.641 745.874 455.105 745.467 434.874C745.06 414.338 745.711 395.615 747.443 379.214C749.155 362.997 752.659 351.67 757.874 345.578L758.017 345.435C761.195 342.42 764.679 341.055 768.407 341.381C773.215 341.87 777.107 344.233 780 348.41C784.848 356.355 786.702 368.967 785.541 386.019C784.584 402.256 782.057 420.185 778.064 439.315C774.56 456.653 770.689 473.4 766.533 489.067C764.19 497.929 762.295 504.713 760.971 509.358C762.03 507.443 763.212 505.63 764.516 503.898C768.652 498.54 774.214 494.73 781.079 492.53C791.796 489.433 799.843 494.69 805.038 508.177C807.422 515.307 808.196 523.09 807.381 531.402C811.089 528.958 814.553 526.39 817.71 523.762C822.03 520.116 825.371 516.245 827.938 511.925C828.631 510.764 829.629 510.01 830.831 509.746C832.318 509.297 833.54 509.644 834.335 509.97L834.62 510.112C835.802 510.805 836.535 511.824 836.8 513.127C837.085 514.004 837.208 515.287 836.291 516.795C832.807 522.744 828.019 528.122 822.05 532.788C816.345 537.229 810.458 541.222 804.509 544.645C802.757 549.473 800.332 553.691 797.093 557.48C793.589 561.595 789.188 564.57 784.013 566.363C783.545 566.587 782.933 566.831 782.241 567.015V568.033L781.772 567.137C780.896 567.32 779.918 567.381 778.94 567.137C777.473 566.933 776.292 566.424 775.477 565.629C774.906 565.059 774.499 564.651 774.214 564.366L773.969 564.081C772.808 562.41 772.319 560.312 772.502 557.867C772.686 555.545 773.582 553.568 775.192 551.959C778.838 548.434 784.339 544.767 792.488 540.387C793.589 539.796 794.668 539.124 795.707 538.492L796.176 538.207C798.661 528.53 798.519 519.749 795.728 511.396C795.341 509.99 794.607 508.36 793.507 506.425C792.611 504.734 791.225 503.246 789.473 502.024C787.762 500.924 785.5 501.25 783.911 501.739C777.942 503.817 773.48 507.382 770.322 512.639C767.185 517.854 765.127 523.946 763.986 531.26C762.886 538.411 762.479 545.602 762.744 552.611C763.946 564.672 764.883 573.819 765.82 581.765C766.044 582.885 765.759 584.189 765.005 585.188L764.822 585.391C764.17 586.043 763.273 586.797 761.969 587.062L761.766 587.103L761.847 587.082ZM760.869 348.288C756.224 353.768 753.066 364.321 751.457 379.642C749.745 395.859 749.093 414.419 749.501 434.792C749.908 454.962 750.825 475.437 752.292 497.399C753.861 518.465 755.409 536.618 756.917 551.327C757.222 560.251 757.793 566.933 758.73 572.515C759.871 580.278 760.238 581.846 760.339 582.172L760.401 582.417C760.482 582.784 760.543 582.824 760.604 582.885C760.767 583.008 760.89 583.048 761.093 583.048H761.378C761.521 582.987 761.704 582.845 761.908 582.661C761.949 582.559 761.929 582.458 761.908 582.376C760.93 574.247 759.993 565.079 758.791 552.855C758.506 545.46 758.934 538.024 760.075 530.608C761.277 522.744 763.538 516.183 766.94 510.52C770.546 504.51 775.864 500.252 782.73 497.868C786.254 496.809 789.351 497.073 791.775 498.642C794.098 500.252 795.931 502.248 797.093 504.448C798.336 506.628 799.191 508.564 799.639 510.194C802.695 519.321 802.797 529.385 799.925 540L799.721 540.774L797.887 541.894C796.787 542.567 795.626 543.28 794.465 543.911C786.641 548.108 781.426 551.572 778.064 554.811C777.168 555.708 776.679 556.787 776.577 558.132C776.475 559.578 776.679 560.719 777.249 561.595C777.534 561.881 777.901 562.247 778.39 562.736C778.39 562.736 778.696 562.981 779.776 563.144H779.816L778.512 560.556C778.146 559.843 778.146 559.11 778.146 558.376V558.05L778.248 557.745C778.248 557.745 778.268 557.684 778.288 557.643C778.472 557.113 778.716 556.421 779.307 555.85C782.098 553.059 786.845 549.86 793.385 546.377L799.517 543.117L796.094 549.168C792.998 554.607 788.373 558.621 782.322 561.066V562.716C782.322 562.716 782.485 562.634 782.567 562.594C787.232 560.984 791.042 558.397 794.077 554.852C797.133 551.266 799.395 547.253 801.004 542.587L801.249 541.874L801.921 541.507C807.911 538.105 813.88 534.092 819.626 529.609C825.187 525.27 829.649 520.258 832.868 514.757C833.011 514.513 833.011 514.411 833.011 514.411L832.889 514.004C832.868 513.841 832.827 513.759 832.705 513.657C832.338 513.535 832.175 513.555 832.013 513.616L831.768 513.678C831.768 513.678 831.585 513.718 831.422 514.004C828.631 518.71 825.004 522.907 820.318 526.859C816.019 530.465 811.171 533.929 805.914 537.148L802.186 539.429L802.879 535.11C804.366 525.8 803.816 517.202 801.269 509.562C795.463 494.527 787.66 494.853 782.281 496.421C776.271 498.337 771.361 501.698 767.755 506.384C764.17 511.172 761.623 516.632 759.973 523.049L757.263 533.704L756.02 522.764C755.857 521.399 755.755 519.993 755.633 518.567C755.531 517.345 755.429 516.122 755.307 514.9L755.267 514.472L755.389 514.065C756.428 510.805 758.954 502.024 762.662 488.068C766.798 472.483 770.648 455.818 774.132 438.541C778.085 419.594 780.57 401.849 781.528 385.795C782.628 369.578 780.978 357.741 776.618 350.631C774.458 347.513 771.626 345.782 768.041 345.415C765.555 345.191 763.192 346.148 760.869 348.308V348.288ZM755.063 510.092L754.146 498.54C752.516 477.719 751.497 456.999 751.049 435.159C750.621 414.44 751.192 396.185 752.74 380.905C754.309 365.422 757.406 354.909 761.908 349.632C763.742 347.799 765.494 346.963 767.368 346.963H768.02C770.995 347.33 773.46 348.899 775.334 351.629C779.796 359.187 781.202 371.493 779.755 389.401C778.248 406.29 775.314 425.217 771.015 445.611C766.9 464.558 762.56 482.486 758.078 498.887L755.022 510.072L755.063 510.092ZM767.389 351.018C766.9 351.018 766.125 351.16 764.883 352.383C762.275 355.439 758.628 363.079 756.774 381.313C755.246 396.43 754.676 414.521 755.104 435.078C755.47 452.639 756.183 469.468 757.304 486.214C760.686 473.155 763.966 459.261 767.103 444.775C771.361 424.524 774.275 405.781 775.762 389.055C777.147 372.022 775.905 360.491 771.952 353.788C770.852 352.179 769.426 351.221 767.674 350.997H767.389V351.018Z" fill="#008389"/>
<path d="M828.667 730.542C825.998 730.542 823.757 729.849 822.066 728.443C813.937 722.27 812.388 707.255 817.013 683.704C821.78 660.132 833.556 632.078 852.361 599.684C861.61 583.977 870.452 570.51 878.866 558.999C877.888 531.23 876.197 511.733 874.241 500.793C873.121 503.319 872 505.988 870.737 508.799V508.942C866.52 519.455 862.323 527.889 858.248 534.47C854.316 540.928 849.834 544.004 845.21 543.454C840.585 542.741 837.081 538.83 834.412 531.679C832.171 524.67 830.765 517.091 830.622 508.962C830.337 500.691 831.193 495.21 833.149 492.419C833.699 491.849 834.269 491.441 835.104 491.441C835.818 491.441 836.51 491.727 837.081 492.154C837.773 492.705 838.059 493.418 838.059 494.11C838.059 494.803 837.916 495.516 837.366 496.066C836.795 497.187 836.388 499.856 836.245 504.073C836.103 508.127 836.388 512.772 837.081 517.825C837.631 523.02 838.894 527.645 840.585 531.719C842.276 535.509 844.089 537.607 846.065 537.892C848.021 538.035 850.262 536.344 852.646 532.697C855.172 529.193 857.413 524.976 859.654 520.066C861.895 515.156 863.708 510.959 865.257 507.17C865.399 507.027 865.399 506.884 865.542 506.742C867.783 501.139 869.596 497.207 870.737 495.109C872 492.868 873.264 491.604 874.527 491.462C875.077 491.462 875.647 491.462 876.218 491.747C876.91 492.032 877.481 492.46 877.909 493.153C878.887 494.986 880.007 501.282 881.413 511.815C882.676 522.47 883.654 535.651 884.489 551.644C894.452 538.748 902.581 528.928 908.896 522.327C915.212 515.726 918.574 512.365 918.859 512.365C919.429 511.815 920.122 511.529 920.815 511.672C921.65 511.672 922.22 511.957 922.791 512.507C923.341 513.22 923.626 513.77 923.626 514.606C923.484 515.298 923.198 516.012 922.648 516.562C922.22 516.562 918.574 520.351 911.565 527.787C904.699 535.081 895.715 546.021 884.774 560.609C885.345 578.15 885.06 596.527 883.797 615.453C882.533 634.523 879.864 652.492 875.668 669.035C871.613 685.721 865.583 699.187 857.576 709.435C850.996 717.564 845.373 723.044 840.605 726.121C835.838 729.075 831.906 730.603 828.687 730.603L828.667 730.542ZM879.029 568.391C872.021 578.354 864.727 589.702 857.148 602.476C844.945 623.378 835.838 642.448 829.93 659.704C824.042 676.96 820.68 691.262 820.11 702.488C819.682 713.856 821.373 721.007 825.305 723.819C831.193 727.18 840.463 721.15 853.216 705.87C860.367 696.6 865.848 684.396 869.637 669.402C873.569 654.244 876.095 637.843 877.481 620.16C878.887 602.476 879.314 585.24 879.029 568.411V568.391Z" fill="#008389"/>
<path d="M828.669 732.554C825.49 732.554 822.842 731.698 820.784 729.987C812.085 723.365 810.17 708.085 815.039 683.291C819.847 659.536 831.827 631.054 850.631 598.64C859.453 583.686 868.254 570.138 876.831 558.342C876.057 536.95 874.855 519.755 873.306 507.959C873.123 508.387 872.919 508.835 872.716 509.283L872.614 509.671C868.58 519.755 864.322 528.455 859.982 535.504C854.482 544.529 848.757 545.894 844.967 545.426C839.548 544.611 835.494 540.332 832.519 532.346C830.054 524.624 828.73 516.781 828.608 508.957C828.322 500.238 829.26 494.411 831.501 491.212L831.725 490.948C832.458 490.214 833.497 489.358 835.127 489.358C836.227 489.358 837.348 489.745 838.305 490.479C839.467 491.416 840.078 492.659 840.078 494.044C840.078 495.267 839.752 496.306 839.079 497.1C838.876 497.671 838.407 499.423 838.244 504.068C838.102 508.061 838.387 512.563 839.079 517.473C839.589 522.2 840.709 526.682 842.441 530.859C844.315 535.076 845.782 535.728 846.332 535.809C846.638 535.87 848.268 535.606 850.957 531.511C853.239 528.332 855.419 524.421 857.823 519.144C859.962 514.458 861.796 510.261 863.405 506.329L863.69 505.82C863.69 505.82 863.751 505.718 863.792 505.657C865.728 500.829 867.622 496.611 868.967 494.065C870.638 491.11 872.369 489.583 874.305 489.358H874.529C875.201 489.358 876.118 489.358 877.116 489.827C878.135 490.234 879.011 490.968 879.622 491.987C880.478 493.576 881.476 496.937 883.412 511.423C884.491 520.529 885.408 531.877 886.223 546.016C894.963 534.831 901.951 526.56 907.452 520.815C914.114 513.847 916.457 511.463 917.618 510.648C918.596 509.752 919.839 509.365 921.021 509.528C922.263 509.569 923.282 510.017 924.219 510.954L924.382 511.137C925.034 511.973 925.645 512.951 925.645 514.499L925.604 514.886C925.36 516.108 924.851 517.107 924.077 517.881L923.486 518.472H923.282C921.713 519.857 916.355 525.541 913.034 529.066C906.128 536.4 897.306 547.198 886.814 561.154C887.364 578.98 887.018 597.255 885.816 615.489C884.532 634.966 881.761 653.118 877.626 669.437C873.51 686.306 867.317 700.16 859.167 710.571C852.465 718.843 846.76 724.445 841.708 727.705C836.451 730.944 832.214 732.513 828.689 732.513L828.669 732.554ZM875.079 493.942L876.24 500.421C878.359 512.176 879.969 532.407 880.906 558.913V559.605L880.519 560.176C871.88 571.992 862.998 585.622 854.115 600.698C835.534 632.704 823.718 660.779 819.012 684.086C814.53 706.883 815.976 721.267 823.311 726.829C824.696 727.97 826.468 728.52 828.689 728.52C831.439 728.52 834.984 727.155 839.548 724.323C844.132 721.348 849.694 715.888 856.01 708.085C863.772 698.143 869.741 684.819 873.714 668.48C877.809 652.385 880.519 634.477 881.802 615.245C883.024 596.909 883.35 578.512 882.78 560.604V559.891L883.187 559.32C893.965 544.957 903.031 533.854 910.121 526.315C917.679 518.309 920.185 515.701 921.408 514.866C921.509 514.723 921.571 514.54 921.632 514.336C921.611 514.214 921.55 514.051 921.326 513.766C921.143 513.603 921.061 513.582 920.858 513.582L920.47 513.541C920.47 513.541 920.43 513.582 920.328 513.704L919.737 514.295H919.594C918.8 515.008 916.6 517.168 910.426 523.626C904.335 529.983 896.389 539.517 886.162 552.78L882.841 557.079L882.556 551.639C881.68 535.035 880.682 522.057 879.48 511.932C878.094 501.501 876.994 495.45 876.199 493.983C876.077 493.8 875.894 493.637 875.527 493.494C875.303 493.392 875.079 493.372 874.773 493.372C874.57 493.433 873.795 493.82 872.573 496C871.982 497.121 870.23 500.564 867.5 507.389L867.194 507.939C867.194 507.939 867.154 508.02 867.113 508.061C865.503 511.973 863.69 516.149 861.571 520.794C859.045 526.315 856.763 530.431 854.359 533.772C851.629 537.949 848.797 539.986 845.986 539.803C843.134 539.395 840.832 536.991 838.815 532.448C836.92 527.864 835.697 522.995 835.147 517.962C834.434 512.889 834.149 508.143 834.292 503.925C834.516 497.304 835.351 495.633 835.636 495.083L836.003 494.554C836.003 494.554 836.105 494.309 836.105 494.024C836.105 493.922 836.105 493.8 835.881 493.637C835.677 493.494 835.392 493.372 835.168 493.372C835.127 493.372 835.045 493.372 834.76 493.637C833.619 495.389 832.377 499.443 832.682 508.815C832.804 516.292 834.047 523.728 836.37 530.981C838.753 537.378 841.769 540.801 845.558 541.392C850.244 541.962 854.156 537.337 856.58 533.365C860.757 526.58 864.852 518.227 868.763 508.489V508.448L868.947 507.918C869.68 506.268 870.393 504.679 871.065 503.11C871.534 502.031 872.003 500.951 872.451 499.912L875.12 493.881L875.079 493.942ZM828.852 726.768C827.222 726.768 825.715 726.36 824.309 725.566C819.623 722.224 817.647 714.686 818.095 702.422C818.665 691.135 821.905 676.955 828.017 659.067C833.864 641.954 843.073 622.579 855.398 601.472C862.998 588.678 870.393 577.167 877.381 567.245L880.946 562.193L881.048 568.386C881.354 586.376 880.845 603.387 879.5 620.338C878.033 638.796 875.446 655.013 871.595 669.926C867.745 685.186 862.101 697.695 854.828 707.128C843.745 720.391 835.351 726.808 828.852 726.808V726.768ZM877.096 574.743C871.249 583.34 865.137 592.977 858.903 603.51C846.719 624.372 837.633 643.502 831.867 660.371C825.959 677.668 822.699 691.868 822.149 702.605C821.66 715.868 824.248 720.574 826.489 722.184C829.647 723.977 836.737 722.469 851.67 704.581C858.556 695.658 863.955 683.638 867.683 668.908C871.493 654.219 874.04 638.246 875.486 620.012C876.668 605.18 877.198 590.328 877.096 574.763V574.743Z" fill="#008389"/>
<path d="M503.717 685.755L505.905 681.466C508.487 683.567 511.659 685.186 516.407 685.186C519.82 685.186 523.234 683.567 523.234 680.7C523.234 677.834 519.952 676.937 516.735 676.149C510.915 674.793 504.92 672.933 504.92 666.632C504.92 660.724 510.543 657.683 516.407 657.683C520.958 657.683 524.459 658.952 527.632 661.096L525.444 665.45C522.621 663.634 519.689 662.803 516.407 662.803C514.307 662.803 510.697 663.678 510.697 666.566C510.697 669.104 513.519 669.935 517.348 670.854C523.365 672.277 529.163 674.508 529.163 680.678C529.163 687.33 522.621 690.306 516.363 690.306C509.471 690.306 505.817 687.724 503.717 685.755Z" fill="#1F6D6C"/>
<path d="M544.566 658.171H569.138V663.051H550.233V670.774H568.065V675.61H550.233V684.93H569.816V689.81H544.566V658.149V658.171Z" fill="#1F6D6C"/>
<path d="M597.011 658.166H602.394L616.66 689.826H610.905L608.411 684.356H591.016L588.522 689.826H582.768L597.033 658.166H597.011ZM606.442 679.849L602.832 671.644C601.475 668.515 599.703 664.27 599.703 664.27C599.703 664.27 597.996 668.471 596.574 671.644L592.964 679.849H606.442Z" fill="#1F6D6C"/>
<path d="M635.254 663.045H624.117V658.166H652.058V663.045H640.921V689.804H635.254V663.045Z" fill="#1F6D6C"/>
<path d="M675.121 663.045H663.984V658.166H691.925V663.045H680.788V689.804H675.121V663.045Z" fill="#1F6D6C"/>
<path d="M706.133 658.171H711.8V684.93H730.748V689.81H706.133V658.149V658.171Z" fill="#1F6D6C"/>
<path d="M745.6 658.171H770.171V663.051H751.267V670.774H769.099V675.61H751.267V684.93H770.849V689.81H745.6V658.149V658.171Z" fill="#1F6D6C"/>
<path d="M486.408 164.149C492.184 164.149 497.72 159.072 497.457 153.099C497.195 147.126 492.6 142.05 486.408 142.05C480.632 142.05 475.096 147.126 475.359 153.099C475.621 159.072 480.216 164.149 486.408 164.149Z" fill="#E6E894"/>
<path d="M634.977 316.697C644.014 316.697 644.036 302.65 634.977 302.65C625.919 302.65 625.919 316.697 634.977 316.697Z" fill="#F09C3D"/>
<path d="M580.567 224.582C586.081 224.582 591.354 219.746 591.091 214.057C590.829 208.369 586.474 203.533 580.567 203.533C575.053 203.533 569.78 208.369 570.043 214.057C570.305 219.746 574.659 224.582 580.567 224.582Z" fill="#F9D31F"/>
<path d="M402.758 358.249C408.534 358.249 414.07 353.173 413.807 347.2C413.544 341.227 408.95 336.15 402.758 336.15C396.981 336.15 391.446 341.227 391.708 347.2C391.971 353.173 396.566 358.249 402.758 358.249Z" fill="#EE7345"/>
<path d="M463.708 255.844C471.06 255.844 478.084 249.389 477.755 241.797C477.427 234.205 471.585 227.75 463.708 227.75C456.357 227.75 449.333 234.205 449.661 241.797C449.99 249.389 455.832 255.844 463.708 255.844Z" fill="#ECEDF1"/>
<path d="M389.708 254.044C397.06 254.044 404.084 247.589 403.755 239.997C403.427 232.405 397.585 225.95 389.708 225.95C382.357 225.95 375.333 232.405 375.661 239.997C375.99 247.589 381.832 254.044 389.708 254.044Z" fill="#F09C3D"/>
<path d="M518.991 305.386C525.467 305.386 525.489 295.3 518.991 295.3C512.493 295.3 512.493 305.386 518.991 305.386Z" fill="#91CFD0"/>
<path d="M611.118 164.296C618.886 164.296 626.325 157.469 625.975 149.44C625.625 141.41 619.455 134.583 611.118 134.583C603.351 134.583 595.912 141.41 596.262 149.44C596.612 157.469 602.782 164.296 611.118 164.296Z" fill="#91CFD0"/>
<path d="M293.492 317.299C299.268 317.299 304.804 312.223 304.541 306.25C304.279 300.276 299.684 295.2 293.492 295.2C287.716 295.2 282.18 300.276 282.443 306.25C282.705 312.223 287.3 317.299 293.492 317.299Z" fill="#E6E894"/>
<path d="M720.266 242.907C728.887 242.907 728.887 229.517 720.266 229.517C711.646 229.517 711.646 242.907 720.266 242.907Z" fill="#ECEDF1"/>
<g clip-path="url(#clip1_7380_63029)">
<mask id="mask0_7380_63029" style="mask-type:luminance" maskUnits="userSpaceOnUse" x="896" y="452" width="30" height="31">
<path d="M925.882 452.258H896.016V482.124H925.882V452.258Z" fill="white"/>
</mask>
<g mask="url(#mask0_7380_63029)">
<path d="M924.699 467.199C924.699 459.606 918.543 453.45 910.95 453.45C903.357 453.45 897.201 459.606 897.201 467.199C897.201 474.792 903.357 480.948 910.95 480.948C918.543 480.948 924.699 474.792 924.699 467.199Z" stroke="#008389" stroke-width="1.7508"/>
<path d="M904.65 476.169V458.184H911.21C913.384 458.184 915.064 458.686 916.25 459.691C917.436 460.687 918.029 462.017 918.029 463.681C918.029 465.344 917.436 466.691 916.25 467.72C915.064 468.741 913.384 469.252 911.21 469.252H907.8V476.169H904.65ZM907.8 466.88H911.21C912.577 466.88 913.528 466.571 914.063 465.954C914.607 465.328 914.879 464.57 914.879 463.681C914.879 462.791 914.607 462.05 914.063 461.457C913.528 460.856 912.577 460.555 911.21 460.555H907.8V466.88ZM915.163 476.169L910.777 467.868L914.15 467.646L918.757 476.169H915.163Z" fill="#008389"/>
</g>
</g>
</g>
<defs>
<clipPath id="clip0_7380_63029">
<rect width="909.725" height="897.451" fill="white" transform="translate(58.8008 59.7334)"/>
</clipPath>
<clipPath id="clip1_7380_63029">
<rect width="29.8667" height="29.8667" fill="white" transform="translate(896 452.267)"/>
</clipPath>
</defs>
</svg>
