<svg width="80" height="80" viewBox="0 0 80 80" fill="none" xmlns="http://www.w3.org/2000/svg">
<g clip-path="url(#clip0_2817_22470)">
<path d="M67.4159 66.9851C81.5685 52.6389 81.5685 29.3791 67.4159 15.0329C53.2632 0.686752 30.3173 0.686752 16.1647 15.0329C2.01203 29.3791 2.01203 52.6389 16.1647 66.9851C30.3173 81.3313 53.2632 81.3313 67.4159 66.9851Z" stroke="#FCE537" stroke-width="0.350609" stroke-miterlimit="10"/>
<path d="M39.9925 69.821C37.7784 70.7501 34.2669 71.862 29.9878 71.6475C18.7667 71.0841 11.7638 61.8885 10.5823 60.34C0.938371 47.6762 0.925489 21.8114 18.2348 8.78571C32.3823 -1.86319 53.8178 0.136744 66.7966 13.5542C80.0514 27.2571 81.3213 49.5959 69.3346 64.5731C55.5681 81.774 30.9265 81.0128 16.6723 70.5766C14.6662 69.1084 5.79161 62.4761 2.88924 50.2396C-0.964642 33.9901 7.60996 16.0243 22.0335 7.83612C39.2729 -1.94901 63.8648 2.7971 73.6265 19.6678C85.385 39.9881 70.3983 68.8658 49.9456 75.3153C37.5263 79.2312 25.9573 73.9757 21.9028 71.89" stroke="#FADF61" stroke-width="0.350609" stroke-miterlimit="10"/>
<path d="M6.10385 40.2958H6.0652C5.95109 40.2827 5.87563 40.2324 5.8241 40.1298C5.79833 40.0272 5.81122 39.9246 5.88852 39.8481C6.14066 39.6167 6.34494 39.4619 6.52163 39.3854C6.68543 39.3089 6.81242 39.2828 6.91364 39.2828C7.01486 39.2958 7.09032 39.322 7.12897 39.3462C7.19155 39.3984 7.23019 39.4488 7.24308 39.5123C7.25596 39.5775 7.24308 39.641 7.20443 39.7044C10.0166 39.1391 12.1975 37.6877 13.7049 35.324C15.2251 32.9733 16.0109 30.8036 16.0864 28.8242C16.0993 28.5425 16.0864 28.1955 16.0367 27.785C15.9723 27.3615 15.8471 26.9884 15.6189 26.6545C15.4036 26.3205 15.0613 26.1284 14.5919 26.0761H14.4907C12.3245 26.0761 10.5632 26.6545 9.16818 27.7981C7.78785 28.9417 6.73512 30.1488 6.01367 31.408C5.29037 32.6673 4.84683 33.5666 4.68303 34.0927C4.7456 34.0665 4.81002 34.0665 4.87259 34.0927C4.92229 34.1188 4.97382 34.1561 4.99958 34.2214C5.02535 34.2848 5.03823 34.3501 5.01247 34.4135C4.9867 34.4788 4.94989 34.5292 4.88548 34.5684C4.79714 34.6076 4.70879 34.6337 4.5818 34.6579C4.4677 34.6841 4.36647 34.6579 4.26525 34.6076C4.15114 34.5311 4.09961 34.4266 4.09961 34.2997C4.09961 34.1729 4.39224 33.5031 4.96093 32.283C5.53147 31.0629 6.40568 29.8297 7.58356 28.5574C9.61172 26.5407 11.9546 25.5388 14.6159 25.565C15.9594 25.7198 16.6183 26.8112 16.5925 28.8391C16.541 30.2532 16.1103 31.8315 15.2876 33.5908C14.465 35.3501 13.2724 36.9041 11.7393 38.266C10.1933 39.6149 8.31789 40.2958 6.10017 40.2958H6.10385ZM7.87803 49.3384C7.81545 49.3384 7.76392 49.3123 7.71423 49.275C7.02959 48.2079 6.89155 43.3666 7.32222 34.7344C7.34798 34.1318 7.37375 33.643 7.38663 33.2569C7.31117 33.283 7.24676 33.283 7.18418 33.2438C7.12161 33.2046 7.08296 33.1543 7.05719 33.089C7.04431 33.0255 7.05719 32.9602 7.08296 32.8968C7.1713 32.742 7.2486 32.6393 7.31117 32.5759C7.38663 32.5106 7.43816 32.4733 7.48786 32.4602C7.53939 32.4472 7.5762 32.4341 7.60196 32.4472C7.71607 32.4472 7.80441 32.5106 7.86883 32.6132C7.88171 32.6393 7.88171 32.6524 7.88171 32.6636C7.89459 32.6897 7.89459 32.7158 7.89459 32.7662V33.3184C7.88171 33.4602 7.88171 33.6524 7.86883 33.8837C7.85594 34.1281 7.84306 34.4098 7.83018 34.7456C7.52651 42.1689 7.52651 46.6911 7.81729 48.2825C7.84306 48.2433 7.86699 48.2191 7.89275 48.1929C7.95717 48.1538 8.01974 48.1276 8.08232 48.1407C8.14489 48.1538 8.20931 48.1799 8.24612 48.2433C8.27188 48.2694 8.29581 48.3198 8.30869 48.3982C8.33446 48.4746 8.33446 48.5791 8.29581 48.719C8.27004 48.8478 8.20747 49.0138 8.09336 49.206C8.05471 49.2713 7.99214 49.3086 7.91668 49.3347H7.87803V49.3384Z" fill="#008389"/>
<path d="M7.9468 49.5222H7.8787C7.75171 49.5222 7.66153 49.4644 7.60448 49.4215L7.57871 49.401L7.56031 49.373C7.01738 48.526 6.80573 45.5895 6.92168 40.446C6.65297 40.4666 6.38059 40.4778 6.10452 40.4778H6.04747C5.87079 40.4572 5.74012 40.3658 5.66282 40.2091L5.64993 40.1718C5.60576 39.9927 5.64625 39.8304 5.7622 39.7129C6.05299 39.4461 6.26464 39.2931 6.45236 39.211C6.61984 39.1327 6.77444 39.0935 6.918 39.0935H6.94008C6.94008 39.0935 6.95296 39.0972 6.96033 39.0972C7.00082 37.767 7.06155 36.31 7.14069 34.7205C7.15173 34.4761 7.16093 34.2504 7.17014 34.0414C7.17934 33.8231 7.18854 33.6235 7.1959 33.4444C7.15909 33.4351 7.12412 33.4202 7.08916 33.3996C6.99345 33.3399 6.9272 33.2616 6.88671 33.1534L6.87751 33.1217C6.8591 33.0284 6.87014 32.9314 6.91247 32.825L6.92536 32.7989C7.01554 32.6422 7.10204 32.5209 7.18118 32.4407C7.27872 32.3568 7.35234 32.2989 7.44252 32.2765L7.46092 32.2709C7.50694 32.2597 7.56767 32.243 7.63209 32.2579C7.79036 32.2691 7.9284 32.3568 8.02226 32.5116C8.04618 32.5582 8.05539 32.5918 8.05907 32.6179C8.07379 32.6665 8.07379 32.7131 8.07379 32.7616V33.3138C8.06643 33.4071 8.06275 33.4966 8.05907 33.6011C8.05539 33.6888 8.05355 33.784 8.04802 33.8884C8.03514 34.131 8.02226 34.4127 8.00938 34.7466C7.93944 36.4331 7.88607 37.9704 7.84926 39.3584C10.2934 38.7129 12.2111 37.3212 13.5546 35.2167C15.0417 32.9202 15.8331 30.7654 15.9085 28.8102C15.9214 28.5136 15.9049 28.1741 15.8588 27.8009C15.7963 27.383 15.673 27.0472 15.4724 26.7525C15.2846 26.4633 14.9957 26.301 14.5853 26.2543H14.4932C12.3675 26.2543 10.6651 26.8047 9.28664 27.9353C7.93392 29.0546 6.88671 30.2524 6.17446 31.493C5.55975 32.562 5.14565 33.3754 4.93952 33.9127C4.93952 33.9127 4.94136 33.9127 4.94321 33.9127C5.06099 33.9724 5.13461 34.0489 5.17142 34.144C5.18798 34.1869 5.2432 34.325 5.1843 34.4742C5.14197 34.5806 5.07572 34.6608 4.98185 34.7186L4.96161 34.7298C4.86223 34.7727 4.76468 34.8026 4.62113 34.8324C4.4831 34.8641 4.33954 34.8418 4.18679 34.7653L4.16654 34.7541C4.00642 34.6459 3.91992 34.4854 3.91992 34.2914C3.91992 34.1701 3.98434 33.9407 4.79965 32.1963C5.37387 30.965 6.24255 29.73 7.45356 28.4241C9.49093 26.398 11.8669 25.3738 14.519 25.3738C14.5521 25.3738 14.5871 25.3738 14.6202 25.3738H14.6386C16.0852 25.5417 16.803 26.7058 16.7772 28.8364C16.7257 30.2766 16.2803 31.9015 15.4539 33.6664C14.6331 35.4201 13.4239 37.0133 11.8614 38.4013C10.7019 39.4125 9.34921 40.058 7.82349 40.3285C7.73515 44.1418 7.77748 46.6996 7.94864 47.9645C7.99833 47.9514 8.05539 47.9458 8.11612 47.9589C8.23943 47.9831 8.33145 48.0409 8.39035 48.1305C8.43636 48.1846 8.46764 48.2611 8.48605 48.3525C8.52102 48.4682 8.5155 48.6044 8.47133 48.7667C8.44188 48.9178 8.36458 49.1062 8.24863 49.3002C8.19158 49.3972 8.1014 49.4644 7.97257 49.5092L7.94496 49.5185L7.9468 49.5222ZM7.84742 49.1435C7.86398 49.1529 7.87318 49.1529 7.8787 49.1529H7.88423C7.91183 49.1417 7.93024 49.1286 7.9376 49.1137C8.02962 48.957 8.09404 48.8058 8.11796 48.6846C8.15293 48.5521 8.14741 48.4906 8.13637 48.4588L8.129 48.4309C8.12164 48.3879 8.1106 48.3712 8.1106 48.3693L8.08851 48.3394C8.08851 48.3394 8.07563 48.3283 8.04434 48.3227C8.04434 48.3227 8.0333 48.3227 8.00201 48.3413C7.98913 48.3544 7.97809 48.3674 7.96521 48.3861L7.71675 48.7648L7.63393 48.3171C7.42228 47.1622 7.36338 44.5037 7.45724 40.3882C7.40019 40.3957 7.34498 40.4031 7.28792 40.4106C7.15357 46.4421 7.48853 48.5335 7.84742 49.1417V49.1435ZM6.07692 40.1102H6.10268C6.38243 40.1102 6.65849 40.099 6.92904 40.0767C6.92904 40.0337 6.93088 39.9908 6.93272 39.9479L6.83518 39.9666L6.9364 39.7987C6.94008 39.6905 6.94192 39.5823 6.9456 39.4741C6.93272 39.4722 6.918 39.4685 6.90327 39.4666C6.81677 39.4685 6.71371 39.4983 6.59776 39.5524C6.44684 39.6177 6.26096 39.7558 6.01066 39.9852C6.00882 39.989 5.98857 40.0076 5.99778 40.0655C6.01434 40.0916 6.03459 40.1065 6.07692 40.1121V40.1102ZM7.30081 39.8733C7.30081 39.9274 7.29897 39.9834 7.29713 40.0375C7.35418 40.03 7.41123 40.0226 7.46645 40.0151C7.46645 39.9554 7.47013 39.8957 7.47013 39.836C7.41307 39.8491 7.35602 39.8602 7.29897 39.8733H7.30081ZM7.83821 39.7502C7.83821 39.8192 7.83453 39.8864 7.83269 39.9554C9.26455 39.6886 10.5345 39.0767 11.6222 38.1252C13.146 36.7727 14.3239 35.2186 15.1245 33.5116C15.9288 31.7915 16.3631 30.2169 16.4128 28.8308C16.4367 26.9036 15.846 25.8943 14.6073 25.7469C12.0234 25.7208 9.6989 26.7133 7.71306 28.6871C6.53334 29.9595 5.68674 31.1628 5.12725 32.3605C4.9248 32.7952 4.30457 34.1198 4.28249 34.3045C4.28249 34.3642 4.30457 34.4071 4.35795 34.4462C4.42972 34.4817 4.48494 34.4892 4.54383 34.4761C4.65794 34.4537 4.73155 34.4313 4.80149 34.4015C4.82174 34.3884 4.83278 34.3716 4.84382 34.3436C4.84566 34.338 4.84382 34.3212 4.83094 34.2877C4.82542 34.2746 4.80701 34.2634 4.79229 34.256C4.78677 34.2541 4.7702 34.256 4.7518 34.2615L4.39475 34.4071L4.5107 34.0339C4.68186 33.4855 5.13461 32.5694 5.8579 31.312C6.59224 30.0322 7.66705 28.8009 9.05474 27.6536C10.4811 26.4838 12.3105 25.8906 14.4914 25.8906H14.6129C15.1356 25.9503 15.5257 26.1723 15.7723 26.5528C16.0006 26.8868 16.146 27.2823 16.2177 27.7562C16.2674 28.1554 16.284 28.5155 16.2711 28.8326C16.1938 30.8549 15.3822 33.0732 13.8583 35.4257C12.4448 37.6402 10.4222 39.0935 7.83821 39.7502ZM7.31737 39.2726C7.36338 39.3229 7.40387 39.3882 7.42044 39.4703C7.44068 39.4666 7.46092 39.461 7.48117 39.4573C7.51982 38.0394 7.57319 36.4667 7.64497 34.7391C7.65785 34.4052 7.67073 34.1216 7.68362 33.8754C7.68914 33.7746 7.69282 33.6813 7.69466 33.5955C7.69834 33.4836 7.70202 33.3847 7.70938 33.3026V32.7672C7.70938 32.7541 7.70938 32.7429 7.70938 32.7336L7.6965 32.687C7.65785 32.6329 7.61552 32.6329 7.6008 32.6329H7.55847C7.55847 32.6329 7.55295 32.6329 7.55111 32.6347L7.52902 32.6403C7.51062 32.6478 7.4462 32.7 7.42412 32.7187C7.39835 32.7467 7.33393 32.825 7.24375 32.978C7.23455 33.0023 7.23087 33.0228 7.23087 33.0396C7.24191 33.0601 7.2548 33.0732 7.27504 33.0862C7.28056 33.0899 7.28792 33.0937 7.32657 33.0806L7.57503 32.9967L7.56583 33.2616C7.55847 33.4911 7.54558 33.756 7.5327 34.0601C7.5235 34.2671 7.51246 34.4947 7.50325 34.7391C7.41859 36.435 7.35786 37.9368 7.31921 39.2707L7.31737 39.2726Z" fill="#008389"/>
<path d="M11.6753 44.0586C11.3588 44.0586 11.1177 43.943 10.9649 43.7247C10.8011 43.4672 10.7109 43.1594 10.7109 42.7863C10.7109 42.3106 10.8122 41.7583 11.0275 41.1427C11.2686 40.4487 11.5851 39.8461 11.99 39.3312C12.2937 38.9581 12.6876 38.7659 13.1569 38.7659C13.6262 38.7659 14.1194 39.0607 14.6255 39.6782C14.7912 39.2025 14.9182 38.8163 15.0065 38.5215C15.0323 38.3928 15.1206 38.3293 15.2476 38.3293C15.3488 38.3293 15.4114 38.3685 15.4501 38.432C15.4887 38.4823 15.4998 38.5476 15.4998 38.598V38.6372C15.2715 39.8573 15.1574 40.9487 15.1574 41.9001C15.1574 42.7098 15.2587 43.2228 15.4353 43.4411C15.4869 43.4803 15.5237 43.4915 15.5366 43.4915L15.601 43.4784C15.993 43.3628 16.4126 42.9523 16.8801 42.2583C17.3494 41.5643 17.7285 40.8964 18.0212 40.2677C18.0708 40.1651 18.1481 40.1129 18.2494 40.1129C18.4279 40.1129 18.5162 40.2024 18.5162 40.3703C18.5162 40.4599 18.3396 40.833 17.9715 41.4878C17.1488 42.9784 16.3997 43.8124 15.704 43.9803C15.6415 43.9933 15.5899 44.0064 15.5274 44.0064C15.3636 44.0064 15.2237 43.9299 15.0967 43.8012C14.8685 43.5568 14.7415 43.2359 14.7047 42.8385C14.666 42.4412 14.655 42.1184 14.655 41.8498C14.655 41.5419 14.6679 41.208 14.6936 40.874C13.9335 42.6464 13.0722 43.6874 12.1097 43.9821C11.9459 44.0325 11.806 44.0586 11.679 44.0586H11.6753ZM11.6753 43.5325C11.7508 43.5325 11.852 43.5195 11.9661 43.4803C12.8403 43.2098 13.652 42.1315 14.3992 40.2304L14.3863 40.2173C13.917 39.5886 13.4863 39.2677 13.0685 39.2677C12.625 39.3312 12.2072 39.7677 11.8023 40.5643C11.714 40.7565 11.5999 41.027 11.4858 41.3983C11.3091 41.9505 11.2189 42.4262 11.2189 42.8367C11.2189 43.2993 11.3717 43.5307 11.6753 43.5307V43.5325Z" fill="#008389"/>
<path d="M11.6739 44.2442C11.3003 44.2442 11.0022 44.1024 10.8145 43.8319C10.623 43.5334 10.5273 43.1845 10.5273 42.7871C10.5273 42.2778 10.6378 41.7032 10.8549 41.082C11.1089 40.3525 11.4328 39.7425 11.8469 39.2164C12.1911 38.7947 12.631 38.5821 13.1555 38.5821C13.6266 38.5821 14.0868 38.8246 14.5542 39.3208C14.6683 38.9832 14.7622 38.6977 14.8303 38.4683C14.8671 38.2761 15.0272 38.1455 15.2462 38.1455C15.4432 38.1455 15.5462 38.2444 15.5996 38.3302C15.653 38.4048 15.6806 38.5 15.6806 38.6007L15.6769 38.6735C15.4524 39.8768 15.3383 40.9626 15.3383 41.901C15.3383 42.8394 15.48 43.1845 15.5573 43.3002H15.5646C15.8885 43.2032 16.275 42.8282 16.7296 42.1547C17.1842 41.4831 17.5633 40.8227 17.856 40.1902C17.9388 40.0204 18.0787 39.929 18.248 39.929C18.524 39.929 18.6971 40.0988 18.6971 40.3712C18.6971 40.4346 18.6971 40.5671 18.1284 41.5801C17.267 43.1379 16.4867 43.983 15.7431 44.1602L15.7119 44.1677C15.6548 44.1789 15.5978 44.192 15.5241 44.192C15.3217 44.192 15.134 44.1043 14.9646 43.9326C14.7107 43.6603 14.5616 43.3002 14.5193 42.8562C14.4843 42.4924 14.4677 42.164 14.4677 41.8487C14.4677 41.8226 14.4677 41.7946 14.4677 41.7667C13.7776 43.095 13.0027 43.8972 12.1561 44.1565C11.9684 44.2143 11.8157 44.2423 11.6721 44.2423L11.6739 44.2442ZM13.1573 38.9515C12.7469 38.9515 12.4009 39.1194 12.1322 39.4496C11.7457 39.9402 11.4402 40.5148 11.2009 41.2032C10.9967 41.7853 10.8936 42.3189 10.8936 42.7853C10.8936 43.1136 10.9672 43.386 11.1181 43.6229C11.2322 43.7871 11.4218 43.8729 11.6758 43.8729C11.7807 43.8729 11.9003 43.8505 12.0531 43.8039C12.9567 43.5278 13.7868 42.5166 14.5248 40.7984L14.9554 39.7928L14.8726 40.8861C14.8487 41.2088 14.8358 41.5428 14.8358 41.8487C14.8358 42.1547 14.8524 42.47 14.8855 42.8207C14.9205 43.1845 15.0327 43.4644 15.2297 43.6752C15.3272 43.7741 15.4229 43.8226 15.5278 43.8226C15.5646 43.8226 15.5959 43.8151 15.6419 43.8058L15.6695 43.8002C16.2934 43.6509 17.0167 42.8431 17.8136 41.3991C18.2958 40.541 18.3326 40.3749 18.3363 40.36C18.3363 40.3133 18.3363 40.3003 18.2517 40.3003C18.2333 40.3003 18.213 40.3003 18.1872 40.3525C17.8873 40.9999 17.4989 41.6771 17.0333 42.3655C16.5217 43.1211 16.0836 43.5334 15.6548 43.6584L15.5407 43.6789C15.4634 43.6789 15.3843 43.6304 15.3309 43.5912L15.2996 43.5595C15.0861 43.2983 14.9794 42.7386 14.9794 41.901C14.9794 40.9439 15.0953 39.8395 15.3217 38.6212V38.6007C15.3217 38.5783 15.3162 38.5559 15.307 38.5447L15.2959 38.528C15.2959 38.528 15.2886 38.5149 15.2499 38.5149C15.1965 38.5149 15.1929 38.5298 15.1873 38.5578C15.0935 38.8731 14.9646 39.2649 14.8008 39.7387L14.6941 40.0466L14.488 39.7966C14.0205 39.2276 13.5862 38.9515 13.1592 38.9515H13.1573ZM11.6739 43.7162C11.4347 43.7162 11.0353 43.6024 11.0353 42.8375C11.0353 42.4084 11.1255 41.9178 11.3114 41.3413C11.4347 40.9383 11.5561 40.6604 11.6371 40.485C12.0807 39.6119 12.5408 39.1567 13.0432 39.0839H13.069C13.5383 39.0839 14.015 39.4141 14.5248 40.0951L14.6002 40.1716L14.5689 40.2966C13.7941 42.2648 12.9604 43.3636 12.0199 43.6547C11.8764 43.7032 11.7531 43.7144 11.6758 43.7144L11.6739 43.7162ZM13.08 39.4514C12.7119 39.513 12.3347 39.916 11.9629 40.6492C11.8893 40.8077 11.7752 41.0708 11.6574 41.4532C11.4844 41.9943 11.3997 42.4476 11.3997 42.8375C11.3997 43.3468 11.5911 43.3468 11.6739 43.3468C11.7144 43.3468 11.7991 43.3412 11.9077 43.3039C12.7138 43.0558 13.4794 42.0316 14.1898 40.2611C13.7757 39.7238 13.4132 39.4589 13.0819 39.4514H13.08Z" fill="#008389"/>
<path d="M21.7347 43.9826C21.6464 43.9826 21.5581 43.9696 21.4808 43.9322C21.2029 43.8035 21.063 43.4696 21.0759 42.9304C21.0887 42.4043 21.1771 41.6972 21.3298 40.8111C21.4053 40.4249 21.4568 40.0275 21.5194 39.6171C21.5709 39.2197 21.5709 38.9492 21.5194 38.8205C21.3667 38.7048 21.1145 38.7048 20.7464 38.8074C20.417 38.9231 20.0489 38.9492 19.6569 38.8839C19.5428 38.8578 19.4416 38.8186 19.3403 38.7813C19.2133 39.0518 19.0624 39.3596 18.8968 39.6936C18.7956 39.9119 18.6815 40.1432 18.5673 40.3876C18.5287 40.451 18.479 40.4902 18.4146 40.5163C18.352 40.5424 18.2876 40.5294 18.225 40.5033C18.1606 40.4641 18.1109 40.4268 18.098 40.3484C18.0723 40.285 18.0723 40.2197 18.1109 40.1562C18.225 39.9249 18.3263 39.6936 18.4275 39.4884C18.4361 39.4797 18.4404 39.4709 18.4404 39.4622C18.617 39.1152 18.7698 38.7944 18.8968 38.5126C18.5802 38.2179 18.4146 37.8317 18.4275 37.3448C18.4404 37.0612 18.5158 36.8056 18.6428 36.5612C18.7827 36.3299 18.9594 36.175 19.1747 36.1377C19.2133 36.1247 19.2759 36.1247 19.3514 36.1377C19.4397 36.1508 19.5152 36.2012 19.6054 36.2795C19.6808 36.3429 19.7581 36.4717 19.8207 36.6396C19.9606 37.05 19.8704 37.6172 19.5538 38.3093C19.6164 38.3354 19.6937 38.3597 19.7692 38.3858C20.0618 38.425 20.3397 38.3988 20.6305 38.3093C20.8329 38.2571 21.0483 38.2197 21.2636 38.2197C21.4789 38.2067 21.6814 38.2962 21.8728 38.4511C22.0255 38.5929 22.0881 38.8615 22.0623 39.2608C22.0366 39.6451 21.9611 40.1973 21.8341 40.8913C21.7826 41.1618 21.7329 41.4827 21.6814 41.854C21.6298 42.2401 21.593 42.5871 21.5801 42.908C21.5673 43.2158 21.6059 43.4099 21.6814 43.4602C21.7311 43.4733 21.7955 43.4733 21.8838 43.4341C22.1746 43.2923 22.5169 43.0106 22.885 42.5871C23.266 42.1506 23.6083 41.714 23.9249 41.2644C24.2285 40.8148 24.4199 40.4809 24.5083 40.2756C24.5469 40.2104 24.5837 40.16 24.6482 40.1339C24.7126 40.1077 24.7751 40.1077 24.8506 40.1339C24.9132 40.16 24.9518 40.2104 24.9905 40.2756C25.0162 40.3391 25.0162 40.4044 24.9905 40.4678C24.9021 40.6861 24.6997 41.0331 24.3702 41.5219C24.0408 41.9976 23.6727 42.4845 23.2549 42.9472C22.8372 43.4229 22.4433 43.7438 22.0771 43.9099C21.9501 43.9621 21.836 43.9863 21.7347 43.9863V43.9826ZM19.2391 36.6358C19.2005 36.6489 19.1379 36.7254 19.0624 36.8541C18.9998 36.9959 18.9612 37.1619 18.9354 37.3672C18.9354 37.4567 18.9483 37.5593 18.9741 37.6619C18.9999 37.7776 19.0495 37.8933 19.1268 37.9959C19.3551 37.4698 19.4305 37.0724 19.3422 36.8149C19.3293 36.7627 19.3164 36.7385 19.2925 36.7123C19.2796 36.6862 19.2667 36.662 19.2538 36.647L19.2409 36.634L19.2391 36.6358Z" fill="#008389"/>
<path d="M21.7357 44.167C21.605 44.167 21.4946 44.1446 21.4007 44.0961C21.0529 43.9357 20.8799 43.5402 20.8946 42.9245C20.9075 42.4152 20.9903 41.7119 21.1504 40.7791C21.2056 40.4992 21.2461 40.2212 21.2885 39.9265C21.305 39.8145 21.3216 39.7026 21.3382 39.5888C21.3878 39.2082 21.3768 39.0254 21.3621 38.9433C21.2756 38.9079 21.1099 38.8985 20.7934 38.9862C20.4455 39.1075 20.0498 39.1373 19.6265 39.0683C19.5548 39.0534 19.4904 39.0329 19.4315 39.0142C19.3266 39.2325 19.2088 39.4731 19.0818 39.7287L19.0578 39.7791C19.0082 39.8854 18.9548 39.9992 18.8977 40.1149C18.8425 40.2306 18.7855 40.3481 18.7284 40.4694C18.664 40.5794 18.5867 40.6466 18.48 40.6895C18.3327 40.7492 18.1984 40.6951 18.1542 40.6765L18.1284 40.6634C18.0714 40.6279 17.9536 40.5571 17.9205 40.4003C17.88 40.2847 17.891 40.1671 17.9517 40.0627C18.0051 39.9545 18.0603 39.8332 18.1155 39.7175C18.1652 39.6093 18.2149 39.5049 18.2628 39.4078L18.2775 39.378C18.4174 39.1037 18.5517 38.8258 18.675 38.5534C18.375 38.2288 18.2297 37.8202 18.2425 37.3407C18.2573 37.0366 18.3346 36.7549 18.48 36.4751C18.6585 36.1766 18.8756 36.0068 19.1315 35.9583C19.1977 35.9397 19.2805 35.9397 19.3818 35.9565C19.5198 35.977 19.6284 36.0572 19.7241 36.1393C19.8216 36.2214 19.9137 36.3688 19.991 36.5721C20.1363 36.9993 20.0719 37.546 19.8014 38.2008L19.8106 38.2045C20.0701 38.2362 20.3149 38.2139 20.5799 38.1318C20.8412 38.0646 21.0621 38.0329 21.2664 38.0329C21.5038 38.018 21.7504 38.1094 21.9897 38.3053C22.1958 38.4974 22.2768 38.809 22.2473 39.2698C22.2216 39.669 22.1424 40.2399 22.0173 40.9227C21.9676 41.1858 21.916 41.5067 21.8664 41.8779C21.8075 42.3182 21.7762 42.6372 21.767 42.9133C21.7596 43.1129 21.7743 43.2211 21.7872 43.2734C21.7964 43.2715 21.8056 43.2678 21.8167 43.2622C22.0872 43.1297 22.4148 42.8536 22.7516 42.4618C23.1252 42.0328 23.462 41.6055 23.7786 41.1541C24.143 40.6149 24.2884 40.3239 24.3436 40.1989L24.3546 40.1783C24.4025 40.0963 24.4687 40.0067 24.5828 39.9601C24.6877 39.9172 24.7945 39.9172 24.9104 39.9563C25.0374 40.0067 25.1018 40.0963 25.1497 40.1783L25.1626 40.2045C25.2049 40.3127 25.2049 40.4265 25.1626 40.5328C25.065 40.7735 24.8552 41.1279 24.5221 41.6223C24.1301 42.1857 23.762 42.6596 23.3902 43.0682C22.9596 43.5588 22.5418 43.8984 22.1516 44.0756C21.9952 44.139 21.8608 44.1689 21.7357 44.1689V44.167ZM21.2056 38.5459C21.3823 38.5459 21.5204 38.587 21.6289 38.6709L21.6694 38.7026L21.6878 38.7511C21.7283 38.8538 21.7743 39.0571 21.6989 39.641C21.6805 39.7586 21.6639 39.8705 21.6473 39.9824C21.6032 40.2828 21.5627 40.5645 21.5056 40.8481C21.3492 41.7604 21.2682 42.4432 21.2553 42.9357C21.2443 43.3891 21.3455 43.6689 21.5535 43.7659C21.6529 43.8163 21.8056 43.8181 22.0044 43.7361C22.3412 43.5831 22.7166 43.2753 23.116 42.8219C23.4767 42.4227 23.8375 41.9619 24.2184 41.4134C24.5313 40.9507 24.7338 40.6074 24.8203 40.3966C24.8258 40.3817 24.8276 40.3686 24.8239 40.3537C24.8055 40.3239 24.7927 40.3089 24.7816 40.3052C24.7485 40.294 24.7301 40.2996 24.7135 40.3052C24.7043 40.3089 24.6896 40.3276 24.6693 40.3612C24.5644 40.5981 24.3546 40.9544 24.0749 41.3686C23.7473 41.8331 23.4031 42.2716 23.0222 42.71C22.6522 43.1372 22.286 43.445 21.9639 43.6017C21.8424 43.654 21.7394 43.6652 21.6381 43.639L21.6087 43.6316L21.5829 43.6148C21.4412 43.5196 21.3842 43.2939 21.3989 42.9003C21.4099 42.613 21.4412 42.2827 21.502 41.8294C21.5535 41.4525 21.605 41.1242 21.6547 40.8556C21.7762 40.1877 21.8535 39.6317 21.8792 39.2474C21.9068 38.8276 21.8222 38.656 21.7486 38.587C21.5885 38.4564 21.4302 38.3948 21.2737 38.4041C21.0897 38.4041 20.8964 38.4321 20.6738 38.4881C20.3646 38.5832 20.059 38.6112 19.7443 38.5683L19.7094 38.5609C19.6247 38.5329 19.5474 38.5068 19.4848 38.4806L19.3063 38.4079L19.3873 38.2306C19.6799 37.5907 19.7701 37.0609 19.6468 36.699C19.5879 36.546 19.5253 36.4546 19.4867 36.4229C19.4094 36.3557 19.3634 36.3277 19.3247 36.3221C19.2658 36.3128 19.2345 36.3147 19.2272 36.3147L19.2051 36.3203C19.0523 36.3482 18.9161 36.4602 18.7965 36.6579C18.6824 36.8781 18.618 37.1094 18.6069 37.3538C18.5959 37.7736 18.7302 38.1094 19.0174 38.378L19.1149 38.4694L19.0597 38.5907C18.9217 38.8985 18.7707 39.212 18.6125 39.5235C18.6051 39.5534 18.5922 39.5757 18.5757 39.5944C18.5315 39.684 18.4873 39.7791 18.4431 39.8761C18.3879 39.9955 18.3309 40.1186 18.2701 40.2418C18.2591 40.2623 18.2573 40.266 18.2646 40.2828L18.2757 40.322C18.2757 40.322 18.283 40.3276 18.3033 40.3406C18.3346 40.3518 18.3438 40.3481 18.3456 40.3481C18.3806 40.3332 18.3971 40.3183 18.4082 40.2959C18.4579 40.1895 18.5149 40.0701 18.5701 39.9545C18.6253 39.8388 18.6787 39.7269 18.7303 39.6187L18.756 39.5646C18.9106 39.2511 19.0542 38.9601 19.1738 38.7045L19.2456 38.5515L19.402 38.6112C19.5069 38.6504 19.5953 38.684 19.6946 38.7064C20.048 38.7642 20.3848 38.74 20.6848 38.6355C20.8872 38.5795 21.0584 38.5497 21.2038 38.5497L21.2056 38.5459ZM19.1664 38.3594L18.9787 38.1075C18.8904 37.9881 18.826 37.8482 18.7947 37.7027C18.7671 37.5907 18.7523 37.4732 18.7523 37.3669V37.3445C18.7818 37.1094 18.8278 36.9284 18.8959 36.7773L18.9051 36.7587C19.0394 36.5329 19.1167 36.4807 19.1812 36.4602L19.2861 36.4247L19.3781 36.5143C19.4075 36.546 19.4259 36.5777 19.4425 36.6076C19.4867 36.6617 19.5051 36.7176 19.518 36.7717C19.6173 37.0572 19.5456 37.4881 19.2934 38.0721L19.1683 38.3612L19.1664 38.3594ZM19.1167 37.3781C19.1167 37.4079 19.1186 37.4396 19.1241 37.4732C19.183 37.2699 19.1996 37.1225 19.194 37.018C19.1609 37.1169 19.137 37.2325 19.1186 37.3781H19.1167Z" fill="#008389"/>
<path d="M19.5833 34.7994C19.4821 34.7994 19.4066 34.749 19.3422 34.6334C19.3164 34.5569 19.3164 34.4916 19.3551 34.4281C19.3808 34.3778 19.4305 34.3255 19.4949 34.2994C19.6219 34.249 20.1538 34.055 21.0924 33.7341C22.0292 33.4263 23.1574 33.0924 24.4752 32.7454C25.8058 32.4114 27.1107 32.1801 28.4027 32.0513C29.6836 31.9226 30.7474 32.0252 31.57 32.3592C31.6326 32.3853 31.6842 32.4357 31.7099 32.501C31.7228 32.5663 31.7228 32.6297 31.697 32.7062C31.6713 32.7696 31.6216 32.8088 31.5572 32.8349C31.4946 32.861 31.4302 32.861 31.3676 32.8349C30.5817 32.5271 29.5566 32.4375 28.2885 32.5774C27.0223 32.7192 25.7414 32.9487 24.4365 33.2957C23.1316 33.6427 22.0163 33.9636 21.1164 34.2714C20.2164 34.5792 19.736 34.7472 19.6716 34.7845C19.6458 34.7975 19.6072 34.7975 19.5833 34.7975V34.7994ZM27.8708 45.1013C27.707 45.1143 27.5542 45.0752 27.4015 45.0117C26.0579 44.5752 25.158 43.0715 24.7273 40.5026C24.4991 38.9616 24.4107 37.3683 24.4733 35.6986C24.5488 34.0289 24.6758 32.5905 24.8911 31.3704C25.1064 30.1503 25.3089 29.4432 25.5113 29.2511C25.6125 29.1746 25.7138 29.1615 25.8279 29.2119C25.9806 29.2884 26.069 29.4171 26.1187 29.585C26.1573 29.7902 26.1316 30.0216 26.0432 30.279C25.9549 30.5365 25.8536 30.7809 25.7395 30.9973C25.6125 31.2025 25.5242 31.3573 25.4727 31.4338C25.4469 31.473 25.423 31.4991 25.3843 31.5103C25.1432 32.8853 25.0034 34.555 24.9666 36.5195C24.915 38.4709 25.1193 40.2694 25.5739 41.9018C26.0174 43.3663 26.6892 44.2394 27.5763 44.5211C27.9683 44.6629 28.4247 44.508 28.9456 44.0584C29.4775 43.6219 30.0094 43.0305 30.5302 42.3122C31.0621 41.5939 31.5056 40.913 31.8866 40.2451C31.9253 40.1798 31.9749 40.1294 32.0394 40.1164C32.1038 40.1033 32.1663 40.1033 32.2289 40.1425C32.2933 40.1817 32.3301 40.232 32.3559 40.2973C32.3688 40.3626 32.3559 40.4261 32.3301 40.4895C32.216 40.7078 31.9253 41.1835 31.4559 41.9148C30.9737 42.6461 30.4161 43.3532 29.7701 44.0211C29.1241 44.702 28.491 45.0621 27.8689 45.0994L27.8708 45.1013Z" fill="#008389"/>
<path d="M27.8073 45.2867C27.6563 45.2867 27.5036 45.2532 27.3324 45.1804C25.93 44.7252 24.9896 43.1599 24.5497 40.5313C24.3141 38.9418 24.2313 37.3598 24.2939 35.69C24.3307 34.8748 24.3785 34.1472 24.4374 33.4868C23.0332 33.8617 21.9952 34.1658 21.1762 34.4475C20.6167 34.6397 19.8474 34.9027 19.7646 34.9475C19.6909 34.9848 19.6228 34.9848 19.586 34.9848C19.4167 34.9848 19.2824 34.8972 19.1867 34.7237L19.1738 34.6919C19.1296 34.5576 19.1388 34.4419 19.2032 34.3337C19.2437 34.2517 19.3302 34.1696 19.4296 34.1285C19.5713 34.0707 20.1345 33.8692 21.0363 33.5595C22.0449 33.2274 23.1878 32.8935 24.4319 32.567C24.4687 32.5577 24.5037 32.5484 24.5405 32.5409C24.592 32.1118 24.6509 31.7144 24.7172 31.3394C25.0153 29.6567 25.2343 29.2686 25.3926 29.1175L25.4073 29.1044C25.5601 28.9869 25.7331 28.9664 25.9061 29.0447C26.1012 29.1436 26.23 29.3059 26.2981 29.5317L26.3036 29.5522C26.3478 29.7872 26.3202 30.0522 26.2208 30.3413C26.1251 30.6193 26.0184 30.8712 25.9061 31.0857C25.8417 31.1902 25.7938 31.2723 25.7515 31.3413C25.7 31.429 25.6595 31.4961 25.63 31.5391C25.6135 31.5652 25.5895 31.5969 25.5564 31.6267C25.5178 31.8525 25.481 32.0875 25.4478 32.3319C26.4417 32.1193 27.4281 31.9644 28.3888 31.8693C29.6992 31.7368 30.7925 31.845 31.6427 32.1902C31.7513 32.2349 31.8397 32.3226 31.8838 32.4327L31.893 32.4663C31.9133 32.5707 31.9078 32.6659 31.8746 32.7666C31.8286 32.8823 31.7476 32.9607 31.6299 33.0073C31.5231 33.0502 31.4108 33.0502 31.3041 33.0073C30.544 32.7088 29.5354 32.6248 28.3115 32.7629C27.2901 32.8767 26.3091 33.0427 25.3374 33.2666C25.238 34.2442 25.1773 35.3356 25.1552 36.5277C25.1055 38.4567 25.308 40.2477 25.757 41.8559C26.1785 43.2458 26.8116 44.0872 27.6379 44.3502C27.9692 44.4696 28.3686 44.3241 28.8342 43.923C29.3514 43.4995 29.8722 42.923 30.3894 42.2066C30.9066 41.507 31.3464 40.8354 31.7348 40.1563C31.8047 40.035 31.9004 39.9604 32.009 39.938C32.1305 39.9138 32.2354 39.9287 32.3292 39.9865C32.4231 40.0425 32.4893 40.1227 32.5317 40.2309L32.5409 40.2626C32.5593 40.3559 32.5482 40.4529 32.5059 40.5593L32.4985 40.5779C32.3826 40.8018 32.0844 41.2869 31.617 42.0182C31.1109 42.7868 30.5366 43.5032 29.909 44.1524C29.2336 44.8632 28.5545 45.2457 27.8901 45.2867C27.8643 45.2886 27.8386 45.2905 27.8128 45.2905L27.8073 45.2867ZM24.8129 33.3897C24.7485 34.0782 24.6969 34.8431 24.6583 35.7068C24.5957 37.3504 24.6785 38.9119 24.9104 40.4753C25.3264 42.9529 26.184 44.4192 27.4594 44.8353C27.6195 44.9024 27.7392 44.9248 27.8588 44.9173H27.8606C28.4312 44.8819 29.0293 44.5386 29.6403 43.895C30.2532 43.2607 30.8145 42.5611 31.3059 41.8148C31.7605 41.104 32.0495 40.632 32.1654 40.4138C32.1746 40.3876 32.1801 40.3671 32.1801 40.3485C32.1673 40.3242 32.1544 40.313 32.1378 40.3018C32.1286 40.2962 32.1176 40.2906 32.0771 40.2981C32.0771 40.2981 32.0624 40.3112 32.0458 40.3391C31.6519 41.0313 31.2047 41.7122 30.6802 42.423C30.1465 43.1618 29.6017 43.7607 29.0643 44.2028C28.4974 44.6935 27.9766 44.8595 27.5202 44.6953C26.5779 44.395 25.8656 43.4734 25.4055 41.9548C24.9454 40.3074 24.7374 38.4791 24.7889 36.5146C24.811 35.3654 24.8681 34.3076 24.9619 33.3524C24.9123 33.3636 24.8644 33.3767 24.8147 33.3897H24.8129ZM19.5124 34.5576C19.5529 34.6248 19.5695 34.6154 19.5971 34.6136C19.5989 34.6136 19.6026 34.6136 19.6044 34.6136C19.6817 34.5725 19.9854 34.4643 21.0602 34.0968C21.8976 33.8095 22.9559 33.4998 24.3933 33.1174C24.4209 33.1099 24.4485 33.1024 24.4779 33.095C24.4834 33.039 24.489 32.9849 24.4945 32.9289C23.2687 33.2517 22.1424 33.5819 21.1504 33.9065C20.1952 34.233 19.6781 34.4214 19.5639 34.4681C19.5437 34.4774 19.5253 34.496 19.5198 34.5072C19.5106 34.524 19.5069 34.5315 19.5124 34.5557V34.5576ZM24.8699 32.8375C24.8644 32.8916 24.8589 32.9457 24.8515 32.9998C24.9012 32.9868 24.9509 32.9756 25.0006 32.9644C25.0061 32.9103 25.0135 32.8562 25.019 32.8039C24.9693 32.8151 24.9196 32.8263 24.8699 32.8394V32.8375ZM25.3963 32.7181C25.3908 32.7704 25.3834 32.8226 25.3779 32.8767C26.322 32.664 27.2772 32.5054 28.2711 32.3954C29.5538 32.2517 30.6195 32.3431 31.4366 32.664C31.4587 32.6733 31.4734 32.6733 31.4937 32.664C31.5157 32.6547 31.5286 32.6454 31.5323 32.6379C31.5415 32.6099 31.5415 32.5857 31.5378 32.5595C31.5305 32.5465 31.5194 32.5372 31.5065 32.5334C30.7115 32.2125 29.6753 32.1118 28.4238 32.2368C27.4355 32.3357 26.4214 32.498 25.3981 32.72L25.3963 32.7181ZM25.6337 29.3917C25.5362 29.4925 25.3411 29.8917 25.0742 31.4029C25.0172 31.7312 24.9638 32.0782 24.9178 32.4476C24.9675 32.4364 25.0172 32.4252 25.0687 32.4122C25.111 32.0857 25.1589 31.7741 25.2104 31.4775L25.2288 31.3693L25.3319 31.3338C25.354 31.2891 25.3908 31.2256 25.4386 31.1454C25.481 31.0745 25.5306 30.9924 25.5895 30.8973C25.6871 30.7089 25.7865 30.4757 25.8766 30.2145C25.9521 29.9925 25.976 29.7947 25.9466 29.6268C25.9061 29.5018 25.8454 29.4235 25.7515 29.3749C25.7073 29.3563 25.6779 29.3582 25.6337 29.3899V29.3917Z" fill="#008389"/>
<path d="M31.7953 60.1529C31.5542 60.1529 31.3518 60.0894 31.199 59.9607C30.4647 59.3954 30.3248 58.0205 30.7426 55.8638C31.1733 53.7053 32.237 51.1364 33.9358 48.17C34.7713 46.7317 35.5701 45.4985 36.3302 44.4444C36.2418 41.9016 36.0891 40.1162 35.9124 39.1144C35.8112 39.3457 35.71 39.5901 35.5958 39.8476V39.8606C35.2149 40.8233 34.8357 41.5956 34.4677 42.1982C34.1125 42.7896 33.7076 43.0713 33.2898 43.021C32.872 42.9557 32.5554 42.5975 32.3143 41.9426C32.1119 41.3009 31.9849 40.6069 31.972 39.8625C31.9463 39.105 32.0236 38.6032 32.2002 38.3476C32.2499 38.2954 32.3015 38.2581 32.3769 38.2581C32.4413 38.2581 32.5039 38.2842 32.5536 38.3234C32.618 38.3737 32.6419 38.439 32.6419 38.5025C32.6419 38.5659 32.6291 38.6312 32.5794 38.6816C32.5278 38.7842 32.491 39.0286 32.4781 39.4147C32.4653 39.786 32.491 40.2114 32.5536 40.674C32.6051 41.1498 32.7192 41.5732 32.8702 41.9464C33.0229 42.2934 33.1867 42.4855 33.3634 42.5116C33.5419 42.5247 33.7444 42.3699 33.9597 42.0359C34.1879 41.715 34.3904 41.3289 34.5928 40.8792C34.7953 40.4296 34.9591 40.0453 35.0989 39.6983C35.1118 39.6852 35.1118 39.6722 35.1247 39.6591C35.3271 39.1461 35.4909 38.786 35.594 38.5939C35.7081 38.3886 35.8222 38.273 35.9363 38.2599C35.986 38.2599 36.0376 38.2599 36.0891 38.286C36.1517 38.3122 36.2032 38.3513 36.2418 38.4148C36.3302 38.5827 36.4314 39.1591 36.5584 40.1237C36.6725 41.0994 36.7608 42.3064 36.8363 43.7709C37.7363 42.59 38.4706 41.6908 39.0411 41.0863C39.6117 40.4819 39.9154 40.174 39.9411 40.174C39.9927 40.1237 40.0552 40.0975 40.1178 40.1106C40.1933 40.1106 40.2448 40.1367 40.2963 40.1871C40.346 40.2524 40.3718 40.3028 40.3718 40.3793C40.3589 40.4427 40.3331 40.508 40.2834 40.5584C40.2448 40.5584 39.9154 40.9054 39.2822 41.5863C38.662 42.2542 37.8504 43.256 36.8621 44.5918C36.9136 46.1981 36.8878 47.8809 36.7737 49.614C36.6596 51.3602 36.4185 53.0057 36.0394 54.5206C35.6731 56.0485 35.1284 57.2817 34.4051 58.2201C33.8106 58.9645 33.3027 59.4663 32.872 59.748C32.4413 60.0185 32.0861 60.1585 31.7953 60.1585V60.1529ZM36.3449 45.3045C35.7118 46.2168 35.0529 47.2559 34.3683 48.4256C33.2658 50.3397 32.4432 52.086 31.9094 53.6661C31.3776 55.2463 31.0739 56.556 31.0224 57.5839C30.9837 58.6249 31.1365 59.2798 31.4917 59.5372C32.0236 59.845 32.861 59.2928 34.0131 57.8936C34.6591 57.0448 35.1541 55.9272 35.4965 54.5542C35.8517 53.1661 36.0799 51.6643 36.2069 50.045C36.3339 48.4256 36.3707 46.8473 36.3467 45.3063L36.3449 45.3045Z" fill="#008389"/>
<path d="M31.7942 60.3388C31.5071 60.3388 31.2678 60.2604 31.0819 60.1037C30.2961 59.4974 30.1231 58.0982 30.5629 55.8277C30.9973 53.6524 32.0795 51.0443 33.7782 48.0761C34.5751 46.7068 35.3702 45.4662 36.145 44.386C36.0751 42.4271 35.9665 40.8544 35.8266 39.7723C35.81 39.8115 35.7916 39.8525 35.7732 39.8917L35.764 39.9272C35.3996 40.8525 35.015 41.6472 34.623 42.2927C34.126 43.1192 33.6107 43.2442 33.2684 43.2013C32.777 43.1248 32.4126 42.7349 32.1439 42.0036C31.9212 41.2965 31.8016 40.5783 31.7905 39.8619C31.7629 39.0634 31.8494 38.5317 32.0519 38.2369L32.0721 38.2127C32.1384 38.1455 32.2322 38.0671 32.3795 38.0671C32.4788 38.0671 32.5819 38.1026 32.6666 38.1697C32.7715 38.2537 32.8267 38.3694 32.8267 38.4962C32.8267 38.6082 32.7972 38.7014 32.7365 38.7761C32.7181 38.8283 32.6758 38.9888 32.661 39.4141C32.6482 39.776 32.6739 40.1902 32.7347 40.6417C32.7807 41.0745 32.8837 41.4849 33.0402 41.8674C33.2095 42.2536 33.342 42.3133 33.3917 42.3207C33.4193 42.3263 33.5665 42.3021 33.8095 41.9271C34.0174 41.6342 34.2125 41.2779 34.4297 40.7947C34.6248 40.36 34.7904 39.9775 34.934 39.6212L34.9598 39.5746C34.9598 39.5746 34.9653 39.5652 34.969 39.5596C35.1438 39.1156 35.315 38.7313 35.4364 38.4981C35.5873 38.2276 35.7438 38.0877 35.9186 38.0671H35.9389C35.9996 38.0671 36.0824 38.0671 36.1708 38.11C36.2646 38.1492 36.3419 38.2145 36.399 38.3097C36.4744 38.4533 36.5646 38.7611 36.7395 40.0895C36.837 40.9234 36.9198 41.9625 36.9934 43.2573C37.783 42.2349 38.4124 41.4775 38.9112 40.9495C39.5112 40.3133 39.7246 40.0951 39.8296 40.0204C39.9197 39.9383 40.0302 39.901 40.1369 39.9178C40.2492 39.9216 40.3412 39.9626 40.4259 40.0484L40.4406 40.0652C40.5013 40.1417 40.5565 40.2312 40.5565 40.373L40.5528 40.4103C40.5308 40.5223 40.4847 40.6137 40.4148 40.6846L40.3614 40.7387H40.343C40.205 40.8637 39.7357 41.3655 39.4173 41.7088C38.7934 42.3804 37.9965 43.3692 37.0487 44.6471C37.0983 46.2796 37.0671 47.9549 36.9585 49.6227C36.8425 51.4063 36.5922 53.0685 36.2186 54.5629C35.8468 56.1076 35.2874 57.3762 34.5512 58.3295C33.9457 59.087 33.4304 59.6 32.9739 59.8985C32.4991 60.1951 32.1163 60.3388 31.7979 60.3388H31.7942ZM35.9867 38.4888L36.0916 39.082C36.283 40.1585 36.4284 42.011 36.5131 44.4382V44.5016L36.4781 44.5539C35.6978 45.6359 34.8953 46.884 34.0929 48.2646C32.4144 51.1954 31.347 53.7663 30.9218 55.9005C30.5169 57.9881 30.6476 59.3052 31.3102 59.8146C31.4353 59.919 31.5954 59.9694 31.796 59.9694C32.0445 59.9694 32.3647 59.8444 32.777 59.5851C33.1911 59.3127 33.6935 58.8109 34.2641 58.0982C34.9653 57.1878 35.5045 55.9677 35.8634 54.4715C36.2333 52.9976 36.4781 51.3577 36.5941 49.5966C36.7045 47.9176 36.7339 46.2348 36.6824 44.593V44.5277L36.7192 44.4755C37.6928 43.1603 38.5118 42.1435 39.1523 41.4532C39.8351 40.72 40.0614 40.4812 40.17 40.4047C40.1792 40.3917 40.1848 40.3749 40.1903 40.3562C40.1884 40.345 40.1811 40.3301 40.1627 40.304C40.1461 40.2891 40.1387 40.2872 40.1203 40.2872L40.0854 40.2835C40.0854 40.2835 40.0817 40.2872 40.0725 40.2984L40.0191 40.3525H40.0062C39.9345 40.4178 39.7357 40.6156 39.1762 41.207C38.6241 41.7909 37.9081 42.664 36.9842 43.8766L36.6842 44.2703L36.6585 43.7722C36.5793 42.2517 36.4892 41.0633 36.3806 40.1361C36.2554 39.1809 36.156 38.6268 36.0843 38.4925C36.0769 38.4794 36.0603 38.4626 36.0235 38.4477C36.0033 38.4384 35.983 38.4365 35.9554 38.4365C35.937 38.4421 35.8671 38.4776 35.7567 38.6772C35.7033 38.7798 35.545 39.0951 35.2984 39.7201L35.2708 39.7704C35.2708 39.7704 35.2671 39.7779 35.2634 39.7816C35.1199 40.1361 34.9561 40.5186 34.7628 40.9476C34.5346 41.4514 34.3285 41.8301 34.1113 42.136C33.8647 42.5185 33.6107 42.705 33.3549 42.6883C33.0972 42.6509 32.8911 42.4308 32.7071 42.0148C32.5359 41.595 32.4255 41.151 32.3758 40.6883C32.3114 40.2201 32.2856 39.7872 32.2985 39.4029C32.3187 38.7966 32.3942 38.6436 32.4199 38.5932L32.4531 38.5447C32.4531 38.5447 32.4623 38.5223 32.4623 38.4962C32.4623 38.4869 32.4623 38.4757 32.442 38.4608C32.4236 38.4459 32.3979 38.4365 32.3776 38.4365C32.3739 38.4365 32.3666 38.4365 32.3408 38.4608C32.2377 38.6212 32.1255 38.9925 32.1531 39.8507C32.1641 40.5353 32.2764 41.2182 32.4862 41.8804C32.7015 42.4662 32.9739 42.7797 33.3162 42.8338C33.7395 42.886 34.0929 42.4625 34.3119 42.0987C34.6892 41.4775 35.0591 40.7126 35.4125 39.8208V39.8171L35.4291 39.7686C35.4953 39.6175 35.5579 39.4719 35.6186 39.3302C35.661 39.2294 35.7033 39.1324 35.7456 39.0373L35.9867 38.485V38.4888ZM31.8108 59.809C31.6635 59.809 31.5273 59.7716 31.4003 59.6989L31.3856 59.6896C30.977 59.3948 30.8004 58.7045 30.8409 57.5796C30.8924 56.546 31.185 55.2475 31.7371 53.6095C32.2654 52.0424 33.0972 50.2682 34.2107 48.3355C34.8953 47.1657 35.5634 46.1117 36.1965 45.2012L36.5186 44.7386L36.5278 45.3057C36.5554 46.953 36.5094 48.509 36.3879 50.063C36.2554 51.7551 36.0217 53.2401 35.672 54.6039C35.3242 56.0012 34.8144 57.1467 34.1573 58.0105C33.1561 59.225 32.3979 59.8127 31.8108 59.8127V59.809ZM31.5899 59.3817C31.8936 59.5496 32.5359 59.4004 33.8739 57.7754C34.496 56.9583 34.9837 55.8576 35.3205 54.5088C35.6646 53.1655 35.8947 51.701 36.0254 50.0313C36.1321 48.6731 36.18 47.3112 36.1708 45.8878C35.6407 46.6751 35.0904 47.5594 34.5254 48.522C33.4248 50.4324 32.6022 52.1842 32.0831 53.7289C31.5494 55.3128 31.255 56.6132 31.2053 57.5963C31.1611 58.7959 31.3893 59.2306 31.5899 59.3836V59.3817Z" fill="#008389"/>
<path d="M50.0935 47.235C49.9536 47.235 49.8395 47.2089 49.7512 47.1585C49.6757 47.1194 49.5984 47.069 49.5616 47.0298C49.3334 46.7854 49.2193 46.4645 49.2451 46.0541C49.2708 45.5672 49.4475 45.0653 49.7512 44.5392C50.0678 44.0001 50.4727 43.5243 50.9548 43.1139C51.0174 43.0617 51.0818 43.0486 51.1444 43.0486C51.2199 43.0486 51.2843 43.0878 51.334 43.1382C51.3837 43.1885 51.3966 43.2538 51.3966 43.3173C51.3966 43.3807 51.3579 43.4329 51.3082 43.4833C50.8775 43.8564 50.5095 44.2799 50.2316 44.7426C49.9536 45.2183 49.8009 45.6661 49.7622 46.0784C49.7622 46.1679 49.7622 46.2705 49.788 46.3862C49.8138 46.5018 49.8635 46.5914 49.9408 46.6809C50.0052 46.7201 50.0678 46.7313 50.1561 46.7201C50.2444 46.7089 50.3199 46.694 50.3714 46.6698C50.8904 46.4776 51.4481 46.0019 52.0573 45.2556C52.6646 44.5112 53.0069 43.6512 53.0824 42.6736C53.0566 41.2091 52.5376 40.2856 51.5235 39.8995C50.5739 39.6177 49.5984 39.6289 48.5954 39.9386C47.5187 40.5561 46.8212 40.8379 46.5047 40.7614C46.4402 40.7352 46.3906 40.6979 46.3648 40.6326C46.3261 40.5673 46.3261 40.517 46.339 40.4517C46.3887 40.3229 46.5912 40.17 46.9721 39.9759C47.3531 39.795 47.8095 39.6159 48.3672 39.4629C49.9003 38.629 51.4334 37.3827 52.9793 35.713C53.8278 34.6851 54.5124 33.3885 55.0314 31.7952C55.5375 30.202 55.5633 28.8401 55.0701 27.7114C54.6136 26.8514 53.7394 26.4279 52.4346 26.4521C51.2806 26.5156 50.2684 26.8626 49.3813 27.5062C48.4942 28.1349 47.7727 28.8289 47.2022 29.5621C46.1384 30.9109 45.3526 32.2598 44.8317 33.6086C44.2998 34.9575 44.0974 35.907 44.2244 36.4723C44.2372 36.5488 44.2244 36.6141 44.1857 36.6645C44.1471 36.7149 44.0974 36.754 44.0201 36.7802C43.9575 36.7932 43.8802 36.7802 43.8305 36.754C43.7679 36.7149 43.7293 36.6645 43.7035 36.588C43.5636 35.907 43.779 34.853 44.3366 33.4277C44.9072 32.0023 45.717 30.6013 46.7826 29.2524C47.377 28.4689 48.1629 27.7506 49.1144 27.0697C50.0641 26.3887 51.1665 26.0156 52.4217 25.9521C53.3456 25.9521 54.056 26.1201 54.5492 26.4409C55.0314 26.7618 55.3609 27.1088 55.5504 27.495C56.0823 28.7282 56.0952 30.1796 55.5633 31.8624C55.0314 33.5452 54.3081 34.9313 53.3971 36.0246C52.3076 37.2577 51.0782 38.323 49.7218 39.2222C50.1009 39.1831 50.4819 39.1831 50.8371 39.2222C51.4959 39.2745 52.1033 39.5431 52.6738 40.0319C53.2444 40.5338 53.5609 41.4199 53.6106 42.6904C53.5351 43.7296 53.1671 44.681 52.5082 45.5149C51.8493 46.3489 51.2033 46.8899 50.5573 47.1343C50.3806 47.1977 50.2279 47.2369 50.088 47.2369L50.0935 47.235ZM48.5107 49.3544C48.485 49.3544 48.4592 49.3544 48.4353 49.3413C48.1058 49.2518 47.8408 48.9682 47.6237 48.4943C47.2556 47.5951 47.0402 46.2332 46.9519 44.4217C46.8636 42.6102 46.8636 40.6961 46.939 38.7055C47.0145 36.7018 47.1286 34.9686 47.2556 33.5172C47.3954 32.0658 47.5095 31.243 47.585 31.0509C47.5979 31.0247 47.6347 30.9744 47.6733 30.9221C47.712 30.8568 47.7617 30.8195 47.8261 30.7803C47.8887 30.7412 47.966 30.7281 48.0543 30.7412C48.2439 30.7934 48.3451 30.9725 48.3451 31.2803C48.3451 31.3568 48.3193 31.4091 48.2696 31.4613C48.2181 31.5117 48.1555 31.5247 48.0801 31.5378H48.0414C48.0285 31.5247 48.0157 31.5247 48.0157 31.5247H48.0028C47.8887 32.2822 47.7488 33.8232 47.5979 36.1608C47.4341 38.4853 47.3826 40.8621 47.4212 43.2893C47.4599 45.7034 47.712 47.4384 48.1942 48.4663C48.22 48.5055 48.2457 48.5428 48.2586 48.582C48.2457 48.4794 48.22 48.3768 48.1831 48.3003C48.1445 48.2107 48.1206 48.1455 48.0948 48.082C48.0562 48.0316 48.0433 48.0055 48.0433 48.0055C48.0046 47.9421 48.0046 47.8768 48.0175 47.8134C48.0304 47.7481 48.0801 47.6977 48.1445 47.6585C48.2071 47.6324 48.2715 47.6194 48.3341 47.6324C48.4095 47.6585 48.4611 47.6958 48.4997 47.7481C48.5126 47.7742 48.5494 47.8507 48.6267 47.9925C48.6893 48.1343 48.7537 48.3134 48.7905 48.5186C48.8291 48.7369 48.8291 48.9551 48.7647 49.1734C48.7003 49.2891 48.6249 49.3525 48.5107 49.3525V49.3544Z" fill="#008389"/>
<path d="M48.5116 49.538C48.4803 49.538 48.4306 49.538 48.3735 49.5157C47.9981 49.4075 47.6981 49.0978 47.4588 48.5717C47.0871 47.6631 46.8625 46.3105 46.7705 44.4319C46.7171 43.333 46.6951 42.1708 46.7043 40.9562C46.603 40.9656 46.5276 40.9562 46.4668 40.9413L46.4429 40.9339C46.3288 40.8891 46.2497 40.8145 46.2073 40.7174C46.1429 40.6018 46.1503 40.501 46.1668 40.4189L46.1761 40.3872C46.2368 40.2324 46.4024 40.085 46.7208 39.9078C46.73 39.5104 46.7429 39.1074 46.7576 38.7007C46.8276 36.8538 46.9343 35.1057 47.0742 33.5031C47.2141 32.0535 47.3282 31.2066 47.4165 30.9846C47.4423 30.9323 47.4754 30.8857 47.5288 30.8148C47.5803 30.7271 47.6576 30.6711 47.7331 30.6264C47.8306 30.5667 47.9484 30.5443 48.0791 30.5629L48.1011 30.5667C48.2613 30.6096 48.5281 30.7607 48.5281 31.2849C48.5281 31.4062 48.4876 31.5051 48.3993 31.5946C48.322 31.6711 48.2355 31.6991 48.1619 31.714C48.0478 32.5498 47.9171 34.0852 47.7809 36.1765C47.7036 37.2642 47.6502 38.3724 47.6208 39.5123C47.8417 39.432 48.068 39.3593 48.3036 39.294C49.8054 38.4731 51.3348 37.2269 52.8513 35.5889C53.6795 34.5852 54.3586 33.2886 54.8629 31.7401C55.3654 30.1618 55.3801 28.869 54.9071 27.7888C54.4856 26.9959 53.6777 26.6172 52.4427 26.6396C51.3201 26.7011 50.352 27.0351 49.4907 27.6582C48.6441 28.2589 47.9245 28.938 47.3484 29.6768C46.3086 30.9957 45.519 32.3409 45.0055 33.6748C44.4902 34.9826 44.2878 35.9098 44.4056 36.4303C44.4332 36.6 44.3835 36.7101 44.3356 36.7735C44.2712 36.8594 44.1884 36.9191 44.0816 36.9545L44.0614 36.9601C43.9638 36.9806 43.8442 36.9657 43.7522 36.9191C43.6399 36.8519 43.5737 36.7642 43.5332 36.6448L43.5277 36.6243C43.3804 35.9079 43.5921 34.8389 44.17 33.3595C44.7552 31.8931 45.5871 30.4734 46.6435 29.1376C47.2288 28.3671 48.0036 27.6414 49.0122 26.9194C49.9876 26.2217 51.1324 25.8336 52.4151 25.7683C53.3722 25.7683 54.1212 25.9418 54.6494 26.2851C55.1611 26.6265 55.5089 26.994 55.715 27.4119C56.2709 28.6992 56.2782 30.2122 55.739 31.9174C55.2016 33.6151 54.4617 35.0367 53.5378 36.1411C52.5881 37.2157 51.5225 38.1765 50.3594 39.0067C50.5287 39.0085 50.6962 39.0179 50.8581 39.0365C51.5428 39.0906 52.1961 39.3761 52.7943 39.8891C53.4071 40.4283 53.7439 41.3667 53.7955 42.6819V42.6931V42.7043C53.7163 43.7864 53.3335 44.7714 52.6544 45.6315C51.9661 46.5027 51.3017 47.0512 50.6244 47.3068C50.4035 47.387 50.2416 47.4206 50.0925 47.4206C49.9213 47.4206 49.7759 47.387 49.66 47.318C49.5772 47.2769 49.4852 47.2135 49.4318 47.1613C49.1576 46.8665 49.0343 46.4915 49.0619 46.0419C49.0876 45.5419 49.2625 45.0195 49.5937 44.4449C49.9158 43.8964 50.3336 43.4002 50.8379 42.9711C50.9281 42.8983 51.0274 42.8629 51.1452 42.8629C51.2262 42.8629 51.3477 42.8871 51.4655 43.0065C51.5428 43.0849 51.5814 43.1894 51.5814 43.3162C51.5814 43.4711 51.4765 43.5756 51.4379 43.6147C51.0017 43.9935 50.652 44.402 50.3888 44.8386C50.1312 45.277 49.9821 45.7005 49.9471 46.0941C49.9471 46.1613 49.9471 46.249 49.9692 46.346C49.9839 46.4132 50.0115 46.471 50.0594 46.5344C50.0759 46.54 50.0962 46.5419 50.133 46.5363C50.1716 46.5307 50.2637 46.5176 50.2931 46.5027L50.3115 46.4952C50.7937 46.3161 51.3201 45.8721 51.9201 45.1371C52.5016 44.4244 52.8329 43.5905 52.9047 42.6577C52.8808 41.2827 52.4096 40.4301 51.4636 40.0701C50.571 39.8052 49.6287 39.8164 48.6717 40.1055C48.2318 40.3574 47.8803 40.5365 47.5987 40.6652C47.5877 41.5159 47.5895 42.3872 47.6042 43.2845C47.6318 45.0755 47.7809 46.4859 48.0478 47.4971C48.0478 47.4971 48.0478 47.4971 48.0496 47.4971L48.0754 47.484C48.1803 47.4411 48.276 47.4299 48.368 47.4486L48.3883 47.4542C48.495 47.4896 48.5778 47.5474 48.6422 47.6333L48.6606 47.6631C48.6735 47.6892 48.7103 47.7639 48.784 47.9C48.8705 48.0922 48.9312 48.2881 48.968 48.4802C49.014 48.7508 49.0048 48.9914 48.9386 49.2209L48.9238 49.2582C48.8244 49.441 48.6846 49.5325 48.5116 49.5325V49.538ZM48.5024 49.1687H48.5116C48.5318 49.1687 48.5557 49.1687 48.5962 49.1015C48.6404 48.9336 48.6459 48.7526 48.611 48.5511C48.5723 48.3459 48.5079 48.1762 48.46 48.0679C48.4011 47.9579 48.3643 47.8851 48.3459 47.8478C48.3349 47.8347 48.3183 47.8236 48.2907 47.8124C48.2723 47.8124 48.2521 47.8161 48.2263 47.8236C48.2061 47.8366 48.1969 47.8478 48.195 47.8515C48.1877 47.8907 48.195 47.9019 48.1987 47.9094C48.2079 47.9243 48.2171 47.9411 48.2392 47.9691L48.2723 48.0362C48.2944 48.0903 48.3165 48.1482 48.3496 48.2265C48.3901 48.3067 48.4232 48.4299 48.4398 48.5586L48.0864 48.6388C48.0827 48.6258 48.0625 48.5959 48.0478 48.5735L48.0312 48.5455C47.538 47.4933 47.2803 45.7751 47.2417 43.292C47.2288 42.445 47.2251 41.6241 47.2343 40.8182C47.1773 40.8387 47.122 40.8574 47.0723 40.8742C47.0613 42.1111 47.0815 43.2939 47.1368 44.4095C47.2269 46.2452 47.4423 47.5568 47.7956 48.4205C47.987 48.8422 48.2134 49.0866 48.4858 49.1612L48.506 49.1668L48.5024 49.1687ZM51.1471 43.2323C51.1121 43.2323 51.0937 43.2379 51.0716 43.2565C50.6023 43.6576 50.2103 44.1203 49.9103 44.6334C49.6103 45.1557 49.452 45.624 49.4281 46.0643C49.406 46.415 49.4944 46.6874 49.695 46.9038C49.7097 46.9187 49.7667 46.9598 49.833 46.9934C49.971 47.0736 50.1477 47.0866 50.5011 46.9598C51.1047 46.7322 51.7342 46.2061 52.371 45.4001C53.0004 44.6016 53.3574 43.6894 53.4329 42.6875C53.3832 41.4842 53.0887 40.6372 52.5587 40.1708C52.0139 39.7063 51.4471 39.4544 50.8268 39.4059C50.4808 39.3686 50.1091 39.3686 49.7447 39.4059L49.003 39.4805L49.6269 39.0664C50.9722 38.1746 52.1961 37.1094 53.2654 35.9004C54.1543 34.837 54.8721 33.4584 55.3948 31.8054C55.9064 30.1879 55.9046 28.7626 55.3893 27.5686C55.2163 27.2198 54.9089 26.8989 54.4543 26.5948C53.9869 26.2907 53.3041 26.1358 52.4262 26.1358C51.2225 26.1974 50.1404 26.5631 49.2238 27.2198C48.2465 27.9212 47.4956 28.6227 46.9325 29.3652C45.8981 30.6767 45.0847 32.0647 44.5123 33.4975C43.9712 34.8799 43.7614 35.9042 43.8865 36.5385C43.8994 36.5739 43.9142 36.5851 43.9307 36.5963C43.9344 36.5963 43.962 36.6019 43.9822 36.6C44.0191 36.5851 44.0356 36.5683 44.0485 36.5534C44.0485 36.5534 44.0577 36.5403 44.0522 36.503C43.9178 35.9098 44.1203 34.9359 44.6706 33.5404C45.1988 32.173 46.0049 30.7943 47.0668 29.4473C47.665 28.6805 48.4103 27.9753 49.2845 27.3559C50.1882 26.7011 51.2483 26.3355 52.4335 26.2702C53.801 26.244 54.7488 26.6992 55.2384 27.6265C55.7482 28.7906 55.7371 30.2085 55.2144 31.8558C54.6936 33.4509 53.9924 34.7885 53.1274 35.8351C51.5722 37.5161 50.0042 38.7903 48.4619 39.6298L48.4232 39.6447C48.1398 39.7231 47.8729 39.8108 47.6134 39.9096C47.6116 40.0272 47.6079 40.1447 47.6061 40.2641C47.8527 40.1466 48.1508 39.988 48.5116 39.7809L48.5484 39.766C49.579 39.4488 50.6005 39.4358 51.5796 39.7268C52.6783 40.1447 53.2415 41.1353 53.2691 42.6745C53.19 43.7024 52.8311 44.6054 52.2016 45.3777C51.563 46.1594 50.9888 46.6389 50.4459 46.8441C50.3723 46.8796 50.2839 46.8945 50.1845 46.9075C50.0575 46.9262 49.9508 46.9075 49.8496 46.846L49.8238 46.831L49.8036 46.8087C49.7023 46.6893 49.6416 46.5699 49.6122 46.4337C49.5827 46.2975 49.5827 46.18 49.5827 46.0848C49.625 45.6184 49.7907 45.1427 50.0759 44.6557C50.3594 44.1837 50.7348 43.7453 51.1912 43.3498C51.2115 43.3293 51.217 43.3181 51.217 43.3162C51.217 43.2976 51.2133 43.2827 51.206 43.2752C51.182 43.2509 51.1618 43.2397 51.1452 43.2397L51.1471 43.2323ZM46.5644 40.585C46.5994 40.5924 46.6472 40.5924 46.7079 40.585C46.7079 40.5048 46.7098 40.4227 46.7116 40.3406C46.5791 40.4301 46.5331 40.4842 46.5184 40.5085C46.5184 40.5234 46.5184 40.5272 46.5257 40.5383L46.5386 40.5645C46.5386 40.5645 46.5533 40.5794 46.5644 40.585ZM47.0797 40.1335C47.0779 40.2529 47.076 40.3704 47.0742 40.488C47.1239 40.4693 47.1791 40.4488 47.2361 40.4245C47.238 40.3014 47.2398 40.1801 47.2435 40.0589C47.1883 40.0831 47.1349 40.1074 47.0815 40.1335H47.0797ZM47.9907 30.923C47.9484 30.923 47.93 30.9361 47.9208 30.9398C47.8693 30.9715 47.8453 30.9902 47.8288 31.0181C47.7901 31.0722 47.7588 31.1114 47.7459 31.1338C47.7257 31.186 47.6245 31.5573 47.4349 33.5348C47.295 35.1299 47.1901 36.8724 47.1184 38.7119C47.1055 39.0515 47.0944 39.3891 47.0871 39.7231C47.1404 39.6988 47.1957 39.6764 47.249 39.6522C47.2785 38.4526 47.3337 37.2903 47.4147 36.1486C47.5601 33.908 47.7018 32.2979 47.8214 31.4976L47.8453 31.3409H48.0018C48.0275 31.3409 48.0533 31.3446 48.0754 31.3521C48.1104 31.3465 48.1306 31.339 48.1398 31.3316C48.16 31.311 48.1619 31.3036 48.1619 31.2831C48.1619 30.9902 48.0625 30.9398 48.0165 30.9249C48.0073 30.9249 47.9981 30.9249 47.9889 30.9249L47.9907 30.923Z" fill="#008389"/>
<path d="M54.9898 44.0586C54.6732 44.0586 54.4321 43.943 54.2794 43.7247C54.1156 43.4672 54.0254 43.1594 54.0254 42.7863C54.0254 42.3106 54.1266 41.7583 54.3419 41.1427C54.583 40.4487 54.8996 39.8461 55.3045 39.3312C55.6082 38.9581 56.002 38.7659 56.4713 38.7659C56.9406 38.7659 57.4339 39.0607 57.94 39.6782C58.1056 39.2025 58.2326 38.8163 58.321 38.5215C58.3467 38.3928 58.4351 38.3293 58.5621 38.3293C58.6633 38.3293 58.7259 38.3685 58.7645 38.432C58.8032 38.4823 58.8142 38.5476 58.8142 38.598V38.6372C58.586 39.8573 58.4719 40.9487 58.4719 41.9001C58.4719 42.7098 58.5731 43.2228 58.7498 43.4411C58.8013 43.4803 58.8381 43.4915 58.851 43.4915L58.9154 43.4784C59.3074 43.3628 59.7271 42.9523 60.1945 42.2583C60.6638 41.5643 61.043 40.8964 61.3356 40.2677C61.3853 40.1651 61.4626 40.1129 61.5638 40.1129C61.7423 40.1129 61.8307 40.2024 61.8307 40.3703C61.8307 40.4599 61.654 40.833 61.2859 41.4878C60.4632 42.9784 59.7142 43.8124 59.0185 43.9803C58.9559 43.9933 58.9044 44.0064 58.8418 44.0064C58.678 44.0064 58.5381 43.9299 58.4112 43.8012C58.1829 43.5568 58.056 43.2359 58.0191 42.8385C57.9823 42.4412 57.9694 42.1184 57.9694 41.8498C57.9694 41.5419 57.9823 41.208 58.0081 40.874C57.248 42.6464 56.3867 43.6874 55.4241 43.9821C55.2603 44.0325 55.1205 44.0586 54.9935 44.0586H54.9898ZM54.9898 43.5325C55.0652 43.5325 55.1665 43.5195 55.2806 43.4803C56.1548 43.2098 56.9664 42.1315 57.7136 40.2304L57.7007 40.2173C57.2314 39.5886 56.8008 39.2677 56.383 39.2677C55.9394 39.3312 55.5217 39.7677 55.1168 40.5643C55.0284 40.7565 54.9143 41.027 54.8002 41.3983C54.6235 41.9505 54.5334 42.4262 54.5334 42.8367C54.5334 43.2993 54.6861 43.5307 54.9898 43.5307V43.5325Z" fill="#008389"/>
<path d="M54.9884 44.2439C54.6148 44.2439 54.3166 44.1022 54.1289 43.8316C53.9375 43.5331 53.8418 43.1843 53.8418 42.7869C53.8418 42.2776 53.9522 41.703 54.1694 41.0817C54.4234 40.3523 54.7473 39.7422 55.1614 39.2161C55.5055 38.7945 55.9454 38.5818 56.4699 38.5818C56.9411 38.5818 57.4012 38.8243 57.8687 39.3206C57.9828 38.9829 58.0766 38.6975 58.1447 38.468C58.1816 38.2759 58.3417 38.1453 58.5607 38.1453C58.7576 38.1453 58.8607 38.2441 58.914 38.33C58.9674 38.4046 58.995 38.4997 58.995 38.6005L58.9913 38.6732C58.7668 39.8766 58.6527 40.9623 58.6527 41.9007C58.6527 42.8391 58.7944 43.1843 58.8717 43.2999H58.8791C59.203 43.2029 59.5895 42.8279 60.0441 42.1545C60.4987 41.4828 60.8778 40.8224 61.1704 40.19C61.2532 40.0202 61.3931 39.9288 61.5624 39.9288C61.8385 39.9288 62.0115 40.0986 62.0115 40.3709C62.0115 40.4344 62.0115 40.5668 61.4428 41.5799C60.5815 43.1376 59.8011 43.9828 59.0576 44.16L59.0263 44.1675C58.9693 44.1786 58.9122 44.1917 58.8386 44.1917C58.6361 44.1917 58.4484 44.104 58.2791 43.9324C58.0251 43.66 57.876 43.2999 57.8337 42.8559C57.7987 42.4921 57.7822 42.1619 57.7822 41.8485C57.7822 41.8224 57.7822 41.7944 57.7822 41.7683C57.092 43.0966 56.3172 43.8988 55.4706 44.1581C55.2829 44.216 55.1301 44.2439 54.9865 44.2439H54.9884ZM56.4699 38.9512C56.0595 38.9512 55.7135 39.1191 55.4448 39.4493C55.0583 39.94 54.7528 40.5146 54.5136 41.2049C54.3093 41.7869 54.2062 42.3205 54.2062 42.7869C54.2062 43.1153 54.2798 43.3895 54.4307 43.6246C54.5448 43.7887 54.7344 43.8746 54.9884 43.8746C55.0933 43.8746 55.2129 43.8522 55.3657 43.8055C56.2693 43.5294 57.0994 42.5183 57.8374 40.8L58.268 39.7945L58.1852 40.8877C58.1613 41.2123 58.1484 41.5463 58.1484 41.8504C58.1484 42.1545 58.165 42.4697 58.1981 42.8224C58.2331 43.1861 58.3454 43.466 58.5423 43.6768C58.6398 43.7757 58.7355 43.8242 58.8404 43.8242C58.8772 43.8242 58.9085 43.8167 58.9545 43.8074L58.9821 43.8018C59.606 43.6525 60.3293 42.8447 61.1262 41.4008C61.6066 40.5426 61.6453 40.3765 61.6489 40.3616C61.6489 40.315 61.6489 40.3019 61.5643 40.3019C61.5459 40.3019 61.5256 40.3019 61.4999 40.3541C61.1999 41.0015 60.8115 41.6787 60.3459 42.3671C59.8343 43.1227 59.3962 43.535 58.9674 43.66L58.8533 43.6805C58.776 43.6805 58.6969 43.632 58.6435 43.5928L58.6122 43.5611C58.3987 43.2999 58.292 42.7403 58.292 41.9026C58.292 40.9455 58.4079 39.8411 58.6343 38.6229V38.6023C58.6343 38.58 58.6288 38.5576 58.6196 38.5464L58.6085 38.5296C58.6085 38.5296 58.6012 38.5165 58.5625 38.5165C58.5091 38.5165 58.5055 38.5314 58.4999 38.5594C58.4061 38.8747 58.2773 39.2665 58.1135 39.7404L58.0067 40.0482L57.8006 39.7982C57.3331 39.2292 56.8988 38.9531 56.4718 38.9531L56.4699 38.9512ZM54.9884 43.716C54.7491 43.716 54.3498 43.6022 54.3498 42.8373C54.3498 42.4063 54.4399 41.9175 54.624 41.3411C54.7473 40.9381 54.8688 40.6582 54.9497 40.4847C55.3933 39.6116 55.8534 39.1564 56.3558 39.0837H56.3816C56.8509 39.0837 57.3276 39.4139 57.8374 40.0948L57.9128 40.1713L57.8816 40.2963C57.1067 42.2645 56.273 43.3634 55.3326 43.6544C55.189 43.7029 55.0657 43.7141 54.9884 43.7141V43.716ZM56.3945 39.4512C56.0264 39.5128 55.6491 39.9157 55.2773 40.6489C55.2037 40.8075 55.0896 41.0705 54.9718 41.453C54.7988 41.994 54.7142 42.4474 54.7142 42.8373C54.7142 43.3466 54.9056 43.3466 54.9884 43.3466C55.0289 43.3466 55.1135 43.341 55.2221 43.3037C56.0282 43.0556 56.7939 42.0313 57.5043 40.2609C57.0902 39.7236 56.7276 39.4587 56.3963 39.4512H56.3945Z" fill="#008389"/>
<path d="M62.3089 46.8339C62.2573 46.8339 62.2076 46.8209 62.1561 46.7817C62.1046 46.7425 62.0806 46.6921 62.0678 46.6268C62.042 46.5503 61.9923 46.2407 61.915 45.7146C61.8267 45.1754 61.7751 44.5318 61.7512 43.7613C61.6113 42.3732 61.4715 40.7166 61.3334 38.8155C61.2064 36.9145 61.1181 35.0004 61.0813 33.0732C61.0426 31.146 61.1071 29.4632 61.258 27.9987C61.4107 26.5342 61.7144 25.5454 62.158 25.0193C62.399 24.788 62.6641 24.6723 62.9549 24.6985C63.3358 24.7376 63.6395 24.9298 63.8677 25.2637C64.2855 25.9577 64.4383 27.0752 64.337 28.5901C64.2487 30.105 64.0205 31.7243 63.6653 33.4444C63.3229 35.1664 62.9677 36.6813 62.6254 37.9909C62.2831 39.3006 62.0549 40.0972 61.9665 40.3808C61.9923 40.6252 62.0052 40.8677 62.031 41.099C62.1837 40.4964 62.423 39.9685 62.7653 39.5058C63.1076 39.0562 63.5769 38.7222 64.1714 38.5301C65.0456 38.2726 65.6805 38.7222 66.1112 39.8528C66.3523 40.5841 66.402 41.3938 66.264 42.28C66.7204 41.9983 67.1511 41.6886 67.5431 41.3546C67.948 41.0076 68.2664 40.6364 68.5075 40.2241C68.5461 40.1588 68.5958 40.1215 68.6602 40.1084C68.7357 40.0823 68.8001 40.0953 68.8627 40.1215C68.9271 40.1606 68.9639 40.211 68.9768 40.2875C69.0025 40.3528 68.9897 40.4162 68.951 40.4796C68.6473 41.0058 68.2277 41.4815 67.7087 41.8938C67.1897 42.3042 66.6449 42.6773 66.0873 42.9982C65.9345 43.4478 65.7192 43.8321 65.4284 44.181C65.1376 44.528 64.7695 44.7836 64.326 44.9385C64.1861 45.0038 64.072 45.028 63.9708 45.0038C63.8824 44.9907 63.7941 44.9646 63.7426 44.9142C63.6929 44.862 63.6542 44.8247 63.6285 44.7985C63.5401 44.6698 63.5144 44.5168 63.5272 44.3489C63.5401 44.1829 63.6027 44.0411 63.7168 43.9254C64.0462 43.6045 64.5524 43.2706 65.237 42.8975C65.3769 42.821 65.5149 42.7314 65.6419 42.6531C65.8959 41.7035 65.883 40.8285 65.6161 40.0207C65.5775 39.8789 65.502 39.7129 65.4008 39.5338C65.2996 39.3416 65.1468 39.1868 64.983 39.0711C64.8063 38.9554 64.5781 38.9424 64.3241 39.0207C63.7407 39.226 63.2972 39.586 62.9935 40.0991C62.6898 40.6121 62.4984 41.2035 62.3972 41.8714C62.296 42.5393 62.2573 43.2072 62.2831 43.862C62.3843 44.903 62.4727 45.7892 62.5628 46.5466C62.5757 46.61 62.5628 46.6753 62.5242 46.7257C62.4745 46.7761 62.423 46.8153 62.3604 46.8283H62.3107L62.3089 46.8339ZM62.8794 25.2171C62.7524 25.2171 62.6383 25.2824 62.5242 25.3962C62.1432 25.8458 61.8782 26.7711 61.7383 28.1573C61.5985 29.5584 61.5488 31.202 61.5856 33.103C61.6242 35.0041 61.7126 36.9313 61.8635 38.8957C62.2445 37.4835 62.6365 35.8641 63.0303 34.0265C63.4113 32.1907 63.6763 30.4818 63.8162 28.9017C63.9432 27.3215 63.8291 26.2171 63.4481 25.5622C63.3082 25.357 63.1315 25.2413 62.9162 25.2152H62.8776L62.8794 25.2171ZM65.3125 43.4553C64.7419 43.7631 64.3241 44.0467 64.083 44.2892C64.0573 44.3153 64.0444 44.3545 64.0315 44.3918C64.0315 44.4422 64.0315 44.4814 64.0444 44.5075C64.0444 44.4988 64.0487 44.4944 64.0573 44.4944C64.0702 44.4944 64.0959 44.4814 64.1456 44.4683C64.6517 44.2631 65.0456 43.9292 65.3125 43.4534V43.4553Z" fill="#008389"/>
<path d="M62.377 47.018H62.3089C62.2114 47.018 62.1231 46.9881 62.0458 46.9284C61.9666 46.8687 61.9151 46.7848 61.8912 46.6747C61.8709 46.6057 61.8341 46.4229 61.7347 45.7438C61.6482 45.2195 61.5948 44.5908 61.5691 43.77C61.4329 42.4323 61.293 40.7663 61.1513 38.8317C61.017 36.8131 60.9341 34.9326 60.8973 33.08C60.8605 31.1995 60.9194 29.485 61.0758 27.9832C61.2304 26.4981 61.547 25.4609 62.0181 24.903L62.031 24.89C62.3181 24.6139 62.6329 24.4889 62.9697 24.5187C63.404 24.5635 63.7555 24.7799 64.0169 25.1624C64.4549 25.8899 64.6224 27.0448 64.5175 28.6063C64.431 30.0932 64.2028 31.7349 63.842 33.4867C63.5255 35.0743 63.1758 36.6079 62.8003 38.0425C62.5887 38.8541 62.4175 39.4753 62.2979 39.9007C62.3936 39.7253 62.5003 39.5593 62.6181 39.4007C62.9917 38.91 63.4942 38.5612 64.1144 38.3597C65.0825 38.0761 65.8095 38.5574 66.2788 39.7925C66.4941 40.4454 66.564 41.1581 66.4904 41.9193C66.8254 41.6954 67.1382 41.4603 67.4235 41.2197C67.8137 40.8857 68.1155 40.5313 68.3474 40.1357C68.41 40.0294 68.5002 39.9604 68.6088 39.9361C68.7431 39.8951 68.8535 39.9268 68.9253 39.9566L68.9511 39.9697C69.0578 40.0331 69.1241 40.1264 69.148 40.2458C69.1738 40.326 69.1848 40.4436 69.102 40.5816C68.7873 41.1264 68.3548 41.6189 67.8155 42.0461C67.3002 42.4528 66.7683 42.8185 66.2309 43.1319C66.0726 43.5741 65.8536 43.9602 65.561 44.3073C65.2444 44.6841 64.8469 44.9565 64.3794 45.1207C64.3371 45.1412 64.2819 45.1636 64.2193 45.1804V45.2736L64.177 45.1916C64.0978 45.2083 64.0095 45.2139 63.9212 45.1916C63.7887 45.1729 63.6819 45.1263 63.6083 45.0535C63.5568 45.0013 63.5199 44.9639 63.4942 44.9378L63.4721 44.9117C63.3672 44.7587 63.323 44.5666 63.3396 44.3427C63.3561 44.13 63.4371 43.9491 63.5825 43.8017C63.912 43.4789 64.4089 43.1431 65.1451 42.742C65.2444 42.6879 65.342 42.6263 65.4358 42.5685L65.4782 42.5424C65.7027 41.6562 65.6898 40.8521 65.4377 40.0872C65.4027 39.9585 65.3365 39.8093 65.2371 39.632C65.1561 39.4772 65.0309 39.341 64.8727 39.2291C64.7181 39.1283 64.5138 39.1582 64.3702 39.2029C63.831 39.3932 63.4279 39.7197 63.1427 40.201C62.8592 40.6786 62.6733 41.2365 62.5703 41.9062C62.4709 42.561 62.4341 43.2196 62.458 43.8614C62.5666 44.9658 62.6513 45.8035 62.7359 46.5311C62.7562 46.6337 62.7304 46.7531 62.6623 46.8445L62.6457 46.8631C62.5868 46.9228 62.5059 46.9919 62.3881 47.0161L62.3697 47.0198L62.377 47.018ZM62.2887 25.1512C61.8691 25.653 61.5838 26.6194 61.4384 28.0223C61.2838 29.5074 61.2249 31.2069 61.2617 33.0725C61.2985 34.9195 61.3814 36.7944 61.5139 38.8056C61.6556 40.7346 61.7955 42.3969 61.9316 43.7438C61.9593 44.561 62.0108 45.1729 62.0955 45.6841C62.1985 46.3949 62.2316 46.5385 62.2408 46.5684L62.2464 46.5908C62.2537 46.6243 62.2592 46.6281 62.2648 46.6337C62.2795 46.6449 62.2905 46.6486 62.3089 46.6486H62.3347C62.3476 46.643 62.3642 46.6299 62.3826 46.6131C62.3862 46.6038 62.3844 46.5945 62.3826 46.587C62.2942 45.8426 62.2096 45.0031 62.101 43.8838C62.0752 43.2065 62.1139 42.5256 62.2169 41.8465C62.3255 41.1264 62.5298 40.5257 62.8371 40.007C63.1629 39.4567 63.6433 39.0668 64.2635 38.8485C64.5819 38.7515 64.8616 38.7757 65.0806 38.9194C65.2905 39.0668 65.4561 39.2496 65.561 39.4511C65.6733 39.6507 65.7506 39.8279 65.791 39.9772C66.0671 40.813 66.0763 41.7346 65.8168 42.7066L65.7984 42.7775L65.6328 42.8801C65.5334 42.9416 65.4285 43.0069 65.3236 43.0648C64.6168 43.4491 64.1457 43.7662 63.842 44.0629C63.761 44.1449 63.7169 44.2438 63.7077 44.367C63.6985 44.4994 63.7169 44.6039 63.7684 44.6841C63.7942 44.7102 63.8273 44.7438 63.8715 44.7886C63.8715 44.7886 63.8991 44.811 63.9966 44.8259H64.0003L63.8825 44.589C63.8494 44.5237 63.8494 44.4565 63.8494 44.3893V44.3595L63.8586 44.3315C63.8586 44.3315 63.8604 44.3259 63.8623 44.3222C63.8788 44.2737 63.9009 44.2102 63.9543 44.158C64.2064 43.9024 64.6353 43.6095 65.226 43.2905L65.78 42.992L65.4708 43.5461C65.1911 44.0442 64.7733 44.4117 64.2267 44.6356V44.7867C64.2267 44.7867 64.2414 44.7793 64.2488 44.7755C64.6702 44.6281 65.0144 44.3912 65.2886 44.0666C65.5647 43.7382 65.769 43.3707 65.9144 42.9435L65.9364 42.8782L65.9972 42.8446C66.5383 42.5331 67.0775 42.1655 67.5965 41.7551C68.099 41.3577 68.502 40.8988 68.7928 40.3951C68.8057 40.3727 68.8057 40.3633 68.8057 40.3633L68.7946 40.326C68.7928 40.3111 68.7891 40.3037 68.7781 40.2943C68.745 40.2831 68.7302 40.285 68.7155 40.2906L68.6934 40.2962C68.6934 40.2962 68.6769 40.2999 68.6621 40.326C68.41 40.757 68.0824 41.1413 67.6591 41.5032C67.2708 41.8335 66.8327 42.1506 66.3579 42.4454L66.0211 42.6543L66.0837 42.2588C66.218 41.4062 66.1683 40.6189 65.9383 39.9193C65.4138 38.5425 64.7089 38.5724 64.223 38.716C63.6801 38.8914 63.2365 39.1992 62.9108 39.6283C62.5868 40.0667 62.3568 40.5667 62.2077 41.1544L61.9629 42.1301L61.8507 41.1283C61.8359 41.0033 61.8267 40.8745 61.8157 40.7439C61.8065 40.632 61.7973 40.5201 61.7863 40.4081L61.7826 40.3689L61.7936 40.3316C61.8875 40.0331 62.1157 39.2291 62.4507 37.9511C62.8243 36.5239 63.1721 34.9979 63.4868 33.4158C63.8439 31.6808 64.0684 30.0559 64.1549 28.5858C64.2543 27.1007 64.1052 26.0168 63.7114 25.3657C63.5163 25.0803 63.2604 24.9217 62.9365 24.8881C62.712 24.8676 62.4985 24.9553 62.2887 25.153V25.1512ZM61.7642 39.9678L61.6814 38.91C61.5341 37.0034 61.4421 35.1061 61.4016 33.1061C61.363 31.2088 61.4145 29.5372 61.5544 28.138C61.6961 26.7201 61.9758 25.7575 62.3826 25.2743C62.5482 25.1064 62.7065 25.0299 62.8758 25.0299H62.9347C63.2034 25.0635 63.4261 25.2071 63.5954 25.4571C63.9985 26.1493 64.1254 27.2761 63.9948 28.916C63.8586 30.4626 63.5936 32.1957 63.2052 34.0632C62.8335 35.7982 62.4415 37.4399 62.0366 38.9418L61.7605 39.966L61.7642 39.9678ZM62.8776 25.4012C62.8335 25.4012 62.7635 25.4142 62.6513 25.5262C62.4157 25.806 62.0862 26.5056 61.9188 28.1753C61.7807 29.5596 61.7292 31.2163 61.7679 33.0987C61.801 34.7068 61.8654 36.2478 61.9666 37.7813C62.2721 36.5855 62.5684 35.3131 62.8519 33.9867C63.2365 32.1323 63.4997 30.4159 63.6341 28.8843C63.7592 27.3246 63.6469 26.2687 63.2899 25.6549C63.1905 25.5075 63.0617 25.4198 62.9034 25.3993H62.8776V25.4012Z" fill="#008389"/>
<path d="M68.4164 60.1529C68.1753 60.1529 67.9729 60.0894 67.8201 59.9607C67.0858 59.3954 66.9459 58.0205 67.3637 55.8638C67.7944 53.7053 68.8581 51.1364 70.5569 48.17C71.3924 46.7317 72.1912 45.4985 72.9513 44.4444C72.8629 41.9016 72.7102 40.1162 72.5335 39.1144C72.4323 39.3457 72.331 39.5901 72.2169 39.8476V39.8606C71.836 40.8233 71.4568 41.5956 71.0887 42.1982C70.7335 42.7896 70.3286 43.0713 69.9109 43.021C69.4931 42.9557 69.1765 42.5975 68.9354 41.9426C68.733 41.3009 68.606 40.6069 68.5931 39.8625C68.5673 39.105 68.6446 38.6032 68.8213 38.3476C68.871 38.2954 68.9226 38.2581 68.998 38.2581C69.0624 38.2581 69.125 38.2842 69.1765 38.3234C69.2391 38.3737 69.2649 38.439 69.2649 38.5025C69.2649 38.5659 69.252 38.6312 69.2023 38.6816C69.1508 38.7842 69.114 39.0286 69.1011 39.4147C69.0882 39.786 69.114 40.2114 69.1765 40.674C69.2262 41.1498 69.3403 41.5732 69.4931 41.9464C69.6458 42.2934 69.8096 42.4855 69.9882 42.5116C70.1649 42.5247 70.3673 42.3699 70.5826 42.0359C70.8108 41.715 71.0133 41.3289 71.2157 40.8792C71.4182 40.4296 71.582 40.0453 71.7219 39.6983C71.7347 39.6852 71.7347 39.6722 71.7476 39.6591C71.9501 39.1461 72.1139 38.786 72.2169 38.5939C72.331 38.3886 72.4452 38.273 72.5593 38.2599C72.609 38.2599 72.6605 38.2599 72.712 38.286C72.7746 38.3122 72.8261 38.3513 72.8648 38.4148C72.9531 38.5827 73.0543 39.1591 73.1813 40.1237C73.2954 41.0994 73.3838 42.3064 73.4592 43.7709C74.3592 42.59 75.0935 41.6908 75.6641 41.0863C76.2346 40.4819 76.5383 40.174 76.5641 40.174C76.6156 40.1237 76.6782 40.0975 76.7407 40.1106C76.8162 40.1106 76.8677 40.1367 76.9193 40.1871C76.969 40.2524 76.9947 40.3028 76.9947 40.3793C76.9818 40.4427 76.9561 40.508 76.9064 40.5584C76.8677 40.5584 76.5383 40.9054 75.9052 41.5863C75.2849 42.2542 74.4733 43.256 73.485 44.5918C73.5365 46.1981 73.5108 47.8809 73.3967 49.614C73.2826 51.3602 73.0415 53.0057 72.6623 54.5206C72.2961 56.0485 71.7513 57.2817 71.028 58.2201C70.4336 58.9645 69.9256 59.4663 69.4949 59.748C69.0643 60.0185 68.7091 60.1585 68.4183 60.1585L68.4164 60.1529ZM72.966 45.3045C72.3329 46.2168 71.674 47.2559 70.9894 48.4256C69.8869 50.3397 69.0643 52.086 68.5305 53.6661C67.9987 55.2463 67.695 56.556 67.6434 57.5839C67.6048 58.6249 67.7576 59.2798 68.1128 59.5372C68.6446 59.845 69.482 59.2928 70.6342 57.8936C71.2802 57.0448 71.7752 55.9272 72.1176 54.5542C72.4728 53.1661 72.701 51.6643 72.8261 50.045C72.9531 48.4256 72.9918 46.8473 72.966 45.3063V45.3045Z" fill="#008389"/>
<path d="M68.4153 60.3372C68.1282 60.3372 67.8889 60.2588 67.703 60.1021C66.9172 59.4958 66.7442 58.0966 67.184 55.8261C67.6184 53.6508 68.7006 51.0427 70.3993 48.0745C71.1962 46.7052 71.9913 45.4645 72.7661 44.3843C72.6962 42.4254 72.5876 40.8509 72.4477 39.7707C72.4311 39.8099 72.4127 39.8509 72.3943 39.8919L72.3851 39.9274C72.0207 40.8509 71.6361 41.6475 71.244 42.293C70.7471 43.1195 70.23 43.2444 69.8876 43.2015C69.3981 43.1269 69.0318 42.7351 68.7631 42.0038C68.5404 41.2968 68.4208 40.5785 68.4098 39.8621C68.384 39.0636 68.4687 38.5301 68.6711 38.2372L68.6914 38.2129C68.7576 38.1457 68.8515 38.0674 68.9987 38.0674C69.0981 38.0674 69.1993 38.1028 69.2858 38.17C69.3907 38.2558 69.4459 38.3696 69.4459 38.4965C69.4459 38.6084 69.4165 38.7036 69.3558 38.7763C69.3374 38.8285 69.295 38.989 69.2803 39.4144C69.2674 39.78 69.2932 40.1923 69.3558 40.6419C69.4018 41.0747 69.503 41.4852 69.6594 41.8676C69.8288 42.2538 69.9613 42.3135 70.011 42.321C70.0386 42.3266 70.1858 42.3023 70.4287 41.9273C70.6349 41.6363 70.8318 41.2781 71.049 40.7949C71.2422 40.3658 71.4078 39.9815 71.5532 39.6214L71.579 39.5748C71.579 39.5748 71.5845 39.5655 71.5882 39.5599C71.763 39.1177 71.9342 38.7315 72.0557 38.4983C72.2066 38.2278 72.363 38.0879 72.5379 38.0674H72.5581C72.6189 38.0674 72.7017 38.0674 72.7919 38.1103C72.8839 38.1476 72.963 38.2148 73.0182 38.308C73.0955 38.4536 73.1857 38.7614 73.3605 40.0878C73.4581 40.9218 73.5409 41.9609 73.6145 43.2556C74.4041 42.2314 75.0354 41.474 75.5323 40.9479C76.1341 40.3098 76.3457 40.0916 76.4506 40.0169C76.539 39.9349 76.6513 39.8994 76.758 39.9143C76.8703 39.9181 76.9623 39.9591 77.0469 40.0449L77.0617 40.0617C77.1206 40.1382 77.1758 40.2278 77.1758 40.3695L77.1721 40.405C77.15 40.5169 77.104 40.6083 77.0341 40.6792L76.9807 40.7333H76.9623C76.8206 40.8602 76.3365 41.3807 76.0365 41.7035C75.4126 42.3751 74.6157 43.3638 73.6679 44.6418C73.7176 46.2742 73.6863 47.9477 73.5777 49.6174C73.4618 51.4009 73.2115 53.0632 72.8379 54.5575C72.4661 56.1022 71.9066 57.3709 71.1704 58.3242C70.5649 59.0816 70.0496 59.5947 69.5932 59.8932C69.1183 60.1898 68.7355 60.3334 68.4171 60.3334L68.4153 60.3372ZM72.6078 38.4871L72.7127 39.0804C72.9041 40.1569 73.0495 42.0094 73.1342 44.4366V44.5L73.0992 44.5522C72.3189 45.6343 71.5164 46.8824 70.714 48.2629C69.0355 51.1938 67.9681 53.7646 67.5429 55.8989C67.138 57.9865 67.2687 59.3036 67.9313 59.8129C68.0564 59.9174 68.2165 59.9678 68.4171 59.9678C68.6656 59.9678 68.9858 59.8428 69.3981 59.5835C69.8122 59.3111 70.3146 58.8111 70.8852 58.0966C71.5864 57.1862 72.1256 55.966 72.4845 54.4698C72.8544 52.996 73.0992 51.3561 73.2152 49.595C73.3256 47.9159 73.355 46.2313 73.3035 44.5914V44.5261L73.3403 44.4739C74.3139 43.1586 75.1329 42.1419 75.7734 41.4516C76.4562 40.7184 76.6825 40.4796 76.793 40.4031C76.8022 40.3901 76.8077 40.3733 76.8132 40.3546C76.8114 40.3434 76.8059 40.3285 76.7856 40.3024C76.769 40.2875 76.7617 40.2856 76.7433 40.2856L76.7083 40.2819C76.7083 40.2819 76.7046 40.2856 76.6954 40.2968L76.6421 40.3509H76.6292C76.5574 40.4162 76.3586 40.6139 75.801 41.2053C75.2507 41.7874 74.5329 42.6605 73.609 43.875L73.309 44.2687L73.2833 43.7706C73.2041 42.2501 73.1139 41.0617 73.0053 40.1345C72.8802 39.1793 72.7808 38.6252 72.709 38.4909C72.698 38.4741 72.6814 38.4592 72.6483 38.4461C72.6281 38.4368 72.6078 38.4349 72.5802 38.4349C72.5618 38.4405 72.4919 38.476 72.3814 38.6756C72.3281 38.7782 72.1698 39.0935 71.9232 39.7184L71.8956 39.7688C71.8956 39.7688 71.8919 39.7763 71.8882 39.78C71.7428 40.1382 71.579 40.5207 71.3876 40.946C71.1594 41.4516 70.9533 41.8285 70.7361 42.1344C70.4895 42.5169 70.2336 42.7034 69.9797 42.6866C69.722 42.6493 69.514 42.4292 69.3318 42.0131C69.1607 41.5934 69.0502 41.1475 69.0006 40.6867C68.9361 40.2222 68.9104 39.7875 68.9233 39.4013C68.9435 38.795 69.019 38.642 69.0447 38.5916L69.0779 38.5431C69.0779 38.5431 69.0871 38.5207 69.0871 38.4946C69.0871 38.4853 69.0871 38.4741 69.0668 38.4592C69.0484 38.4461 69.0226 38.4349 69.0024 38.4349C68.9987 38.4349 68.9913 38.4349 68.9656 38.4592C68.8625 38.6196 68.7503 38.9909 68.7779 39.849C68.7889 40.5337 68.9012 41.2147 69.111 41.8788C69.3263 42.4646 69.5987 42.778 69.941 42.8322C70.3643 42.8844 70.7177 42.4609 70.9367 42.0971C71.314 41.4759 71.6839 40.711 72.0373 39.8192V39.8155L72.0538 39.767C72.1201 39.6158 72.1845 39.4703 72.2452 39.3267C72.2876 39.2278 72.3299 39.1289 72.3704 39.0338L72.6115 38.4815L72.6078 38.4871ZM68.4319 59.8073C68.2846 59.8073 68.1484 59.77 68.0214 59.6973C67.5981 59.3913 67.4196 58.701 67.4601 57.5779C67.5116 56.5444 67.8043 55.2459 68.3564 53.6079C68.8846 52.0408 69.7165 50.2666 70.8299 48.3338C71.5164 47.1622 72.1845 46.1082 72.8158 45.1996L73.1379 44.7369L73.1471 45.3041C73.1747 46.9514 73.1287 48.5092 73.0072 50.0614C72.8747 51.7516 72.6409 53.2367 72.2931 54.6023C71.9453 55.9996 71.4355 57.1451 70.7784 58.0089C69.7772 59.2234 69.019 59.8111 68.4319 59.8111V59.8073ZM72.79 45.8862C72.2618 46.6734 71.7097 47.5559 71.1465 48.5204C70.0459 50.4308 69.2251 52.1826 68.7042 53.7273C68.1705 55.3112 67.876 56.6115 67.8264 57.5947C67.7822 58.8092 68.0159 59.2402 68.2184 59.3876C68.5036 59.5517 69.1441 59.4137 70.4931 57.7757C71.1152 56.9586 71.6029 55.8578 71.9397 54.509C72.2839 53.1639 72.514 51.7013 72.6446 50.0315C72.7514 48.6734 72.7992 47.3133 72.79 45.888V45.8862Z" fill="#008389"/>
<path d="M41.3164 55.1182L41.5005 54.7525C41.7176 54.9316 41.9845 55.0697 42.3839 55.0697C42.671 55.0697 42.9581 54.9316 42.9581 54.6872C42.9581 54.4428 42.682 54.3663 42.4115 54.2992C41.9219 54.1835 41.4176 54.0249 41.4176 53.4876C41.4176 52.9839 41.8906 52.7246 42.3839 52.7246C42.7667 52.7246 43.0611 52.8328 43.328 53.0156L43.144 53.3869C42.9065 53.2321 42.6599 53.1612 42.3839 53.1612C42.2072 53.1612 41.9035 53.2358 41.9035 53.482C41.9035 53.6985 42.1409 53.7693 42.463 53.8477C42.9691 53.969 43.4568 54.1593 43.4568 54.6854C43.4568 55.2525 42.9065 55.5062 42.3802 55.5062C41.8004 55.5062 41.4931 55.2861 41.3164 55.1182Z" fill="#1F6D6C"/>
<path d="M44.7539 52.7668H46.8207V53.1828H45.2306V53.8413H46.7305V54.2537H45.2306V55.0484H46.8778V55.4644H44.7539V52.7649V52.7668Z" fill="#1F6D6C"/>
<path d="M49.1649 52.7649H49.6177L50.8176 55.4644H50.3336L50.1238 54.998H48.6606L48.4508 55.4644H47.9668L49.1668 52.7649H49.1649ZM49.9581 54.6137L49.6545 53.9141C49.5404 53.6473 49.3913 53.2854 49.3913 53.2854C49.3913 53.2854 49.2477 53.6436 49.1281 53.9141L48.8244 54.6137H49.9581Z" fill="#1F6D6C"/>
<path d="M52.3821 53.1809H51.4453V52.7649H53.7955V53.1809H52.8588V55.4626H52.3821V53.1809Z" fill="#1F6D6C"/>
<path d="M55.7337 53.1809H54.7969V52.7649H57.1471V53.1809H56.2103V55.4626H55.7337V53.1809Z" fill="#1F6D6C"/>
<path d="M58.3398 52.7668H58.8165V55.0484H60.4103V55.4644H58.3398V52.7649V52.7668Z" fill="#1F6D6C"/>
<path d="M61.6641 52.7668H63.7309V53.1828H62.1407V53.8413H63.6407V54.2537H62.1407V55.0484H63.7879V55.4644H61.6641V52.7649V52.7668Z" fill="#1F6D6C"/>
<path d="M37.7056 10.6413C38.1914 10.6413 38.6571 10.2085 38.635 9.69921C38.6129 9.1899 38.2264 8.75708 37.7056 8.75708C37.2197 8.75708 36.7541 9.1899 36.7761 9.69921C36.7982 10.2085 37.1847 10.6413 37.7056 10.6413Z" fill="#E6E894"/>
<path d="M50.2043 23.6474C50.9644 23.6474 50.9662 22.4497 50.2043 22.4497C49.4423 22.4497 49.4423 23.6474 50.2043 23.6474Z" fill="#F09C3D"/>
<path d="M45.6282 15.793C46.092 15.793 46.5356 15.3807 46.5135 14.8956C46.4914 14.4106 46.1251 13.9983 45.6282 13.9983C45.1644 13.9983 44.7209 14.4106 44.743 14.8956C44.7651 15.3807 45.1313 15.793 45.6282 15.793Z" fill="#F9D31F"/>
<path d="M30.6724 27.1902C31.1582 27.1902 31.6239 26.7574 31.6018 26.248C31.5797 25.7387 31.1932 25.3059 30.6724 25.3059C30.1865 25.3059 29.7209 25.7387 29.7429 26.248C29.765 26.7574 30.1515 27.1902 30.6724 27.1902Z" fill="#EE7345"/>
<path d="M35.7997 18.4584C36.4181 18.4584 37.0088 17.9081 36.9812 17.2607C36.9536 16.6133 36.4622 16.063 35.7997 16.063C35.1813 16.063 34.5905 16.6133 34.6181 17.2607C34.6457 17.9081 35.1371 18.4584 35.7997 18.4584Z" fill="#ECEDF1"/>
<path d="M29.5712 18.3056C30.1896 18.3056 30.7803 17.7552 30.7527 17.1079C30.7251 16.4605 30.2337 15.9102 29.5712 15.9102C28.9528 15.9102 28.362 16.4605 28.3896 17.1079C28.4172 17.7552 28.9086 18.3056 29.5712 18.3056Z" fill="#F09C3D"/>
<path d="M40.4471 22.6848C40.9918 22.6848 40.9937 21.8247 40.4471 21.8247C39.9005 21.8247 39.9005 22.6848 40.4471 22.6848Z" fill="#91CFD0"/>
<path d="M48.196 10.6553C48.8493 10.6553 49.4751 10.0733 49.4456 9.38858C49.4162 8.7039 48.8972 8.12183 48.196 8.12183C47.5426 8.12183 46.9169 8.7039 46.9463 9.38858C46.9758 10.0733 47.4948 10.6553 48.196 10.6553Z" fill="#91CFD0"/>
<path d="M21.479 23.7021C21.9649 23.7021 22.4305 23.2693 22.4084 22.76C22.3863 22.2507 21.9998 21.8179 21.479 21.8179C20.9931 21.8179 20.5275 22.2507 20.5496 22.76C20.5717 23.2693 20.9582 23.7021 21.479 23.7021Z" fill="#E6E894"/>
<path d="M57.3778 17.3576C58.103 17.3576 58.103 16.2158 57.3778 16.2158C56.6527 16.2158 56.6527 17.3576 57.3778 17.3576Z" fill="#ECEDF1"/>
</g>
<defs>
<clipPath id="clip0_2817_22470">
<rect width="76.5217" height="76.5217" fill="white" transform="translate(1.74023 1.7395)"/>
</clipPath>
</defs>
</svg>
