<svg width="410" height="186" viewBox="0 0 410 186" fill="none" xmlns="http://www.w3.org/2000/svg">
<ellipse cx="126.961" cy="17.8357" rx="5.85145" ry="5.83571" fill="#74E2E2"/>
<ellipse cx="168.225" cy="51.0065" rx="2.77174" ry="2.76429" fill="#E4E8EC"/>
<ellipse cx="78.6072" cy="19.3713" rx="4.92754" ry="4.91429" fill="#D9D9D9"/>
<ellipse cx="114.644" cy="41.7936" rx="4.00362" ry="3.99286" fill="#FFDB34"/>
<ellipse cx="135.584" cy="79.2643" rx="2.77174" ry="2.76429" fill="#FFA44D"/>
<ellipse cx="90.9259" cy="75.2706" rx="1.84783" ry="1.84286" fill="#77DFDF"/>
<ellipse cx="46.2692" cy="94.0065" rx="4.00362" ry="3.99286" fill="#FF7C4E"/>
<ellipse cx="41.9621" cy="52.8503" rx="5.23551" ry="5.22143" fill="#FF9F42"/>
<ellipse cx="69.99" cy="53.1565" rx="4.92754" ry="4.91429" fill="#E0F461"/>
<ellipse cx="4.69565" cy="77.7287" rx="3.69565" ry="3.68571" fill="#E0F461"/>
<ellipse cx="354.961" cy="98.8357" rx="5.85145" ry="5.83571" fill="#74E2E2"/>
<ellipse cx="396.225" cy="132.006" rx="2.77174" ry="2.76429" fill="#E4E8EC"/>
<ellipse cx="306.607" cy="100.371" rx="4.92754" ry="4.91429" fill="#D9D9D9"/>
<ellipse cx="342.644" cy="122.794" rx="4.00362" ry="3.99286" fill="#FFDB34"/>
<ellipse cx="363.584" cy="160.264" rx="2.77174" ry="2.76429" fill="#FFA44D"/>
<ellipse cx="318.926" cy="156.271" rx="1.84783" ry="1.84286" fill="#77DFDF"/>
<ellipse cx="274.269" cy="175.007" rx="4.00362" ry="3.99286" fill="#FF7C4E"/>
<ellipse cx="269.962" cy="133.85" rx="5.23551" ry="5.22143" fill="#FF9F42"/>
<ellipse cx="297.99" cy="134.156" rx="4.92754" ry="4.91429" fill="#E0F461"/>
<ellipse cx="232.696" cy="158.729" rx="3.69565" ry="3.68571" fill="#E0F461"/>
<g clip-path="url(#clip0_2984_132395)">
<path d="M240.153 140.175C262.828 117.5 262.828 80.7372 240.153 58.0625C217.478 35.3878 180.715 35.3878 158.041 58.0625C135.366 80.7372 135.366 117.5 158.041 140.175C180.715 162.85 217.478 162.85 240.153 140.175Z" stroke="#FCE537" stroke-width="0.722424" stroke-miterlimit="10"/>
<path d="M196.204 144.655C192.657 146.124 187.031 147.881 180.175 147.542C162.197 146.651 150.978 132.117 149.085 129.67C133.634 109.655 133.613 68.7742 161.345 48.1866C184.012 31.3556 218.355 34.5166 239.149 55.7234C260.385 77.3814 262.42 112.689 243.215 136.361C221.159 163.547 181.679 162.344 158.842 145.849C155.628 143.529 141.409 133.046 136.759 113.706C130.585 88.0231 144.322 59.6274 167.431 46.6857C195.051 31.22 234.451 38.7214 250.091 65.3862C268.93 97.5031 244.919 143.146 212.151 153.339C192.253 159.528 173.718 151.222 167.222 147.925" stroke="#FADF61" stroke-width="0.722424" stroke-miterlimit="10"/>
<path d="M141.914 97.9959H141.852C141.669 97.9752 141.549 97.8956 141.466 97.7334C141.425 97.5713 141.445 97.4091 141.569 97.2882C141.973 96.9226 142.3 96.6778 142.584 96.5569C142.846 96.436 143.049 96.3947 143.212 96.3947C143.374 96.4154 143.495 96.4567 143.557 96.495C143.657 96.5776 143.719 96.6572 143.739 96.7574C143.76 96.8606 143.739 96.9609 143.678 97.0611C148.183 96.1677 151.677 93.8736 154.092 90.1377C156.528 86.4223 157.787 82.993 157.908 79.8645C157.928 79.4193 157.908 78.8708 157.828 78.2221C157.725 77.5528 157.524 76.963 157.159 76.4352C156.814 75.9074 156.265 75.6037 155.513 75.5211H155.351C151.881 75.5211 149.059 76.4352 146.824 78.2427C144.612 80.0503 142.926 81.9581 141.77 83.9484C140.611 85.9388 139.9 87.36 139.638 88.1915C139.738 88.1503 139.841 88.1503 139.942 88.1915C140.021 88.2328 140.104 88.2918 140.145 88.395C140.186 88.4953 140.207 88.5985 140.166 88.6987C140.124 88.8019 140.065 88.8815 139.962 88.9435C139.821 89.0054 139.679 89.0467 139.476 89.085C139.293 89.1263 139.131 89.085 138.969 89.0054C138.786 88.8845 138.703 88.7194 138.703 88.5188C138.703 88.3183 139.172 87.2598 140.083 85.3313C140.997 83.4029 142.398 81.4538 144.285 79.4429C147.534 76.2553 151.288 74.6719 155.552 74.7132C157.704 74.9579 158.76 76.6829 158.719 79.8881C158.636 82.1232 157.946 84.6178 156.628 87.3984C155.31 90.179 153.399 92.6352 150.943 94.7877C148.466 96.9196 145.461 97.9959 141.908 97.9959H141.914ZM144.757 112.288C144.656 112.288 144.574 112.247 144.494 112.188C143.397 110.501 143.176 102.849 143.866 89.2059C143.908 88.2535 143.949 87.4809 143.969 86.8705C143.849 86.9118 143.745 86.9118 143.645 86.8499C143.545 86.788 143.483 86.7084 143.442 86.6052C143.421 86.5049 143.442 86.4017 143.483 86.3015C143.624 86.0567 143.748 85.8945 143.849 85.7943C143.969 85.6911 144.052 85.6321 144.132 85.6115C144.214 85.5908 144.273 85.5702 144.314 85.5908C144.497 85.5908 144.639 85.6911 144.742 85.8533C144.763 85.8945 144.763 85.9152 144.763 85.9329C144.783 85.9742 144.783 86.0154 144.783 86.095V86.9679C144.763 87.192 144.763 87.4957 144.742 87.8613C144.721 88.2476 144.701 88.6928 144.68 89.2236C144.194 100.956 144.194 108.104 144.659 110.619C144.701 110.557 144.739 110.519 144.78 110.478C144.884 110.416 144.984 110.374 145.084 110.395C145.184 110.416 145.288 110.457 145.346 110.557C145.388 110.598 145.426 110.678 145.447 110.802C145.488 110.923 145.488 111.088 145.426 111.309C145.385 111.513 145.285 111.775 145.102 112.079C145.04 112.182 144.94 112.241 144.819 112.282H144.757V112.288Z" fill="#008389"/>
<path d="M144.866 112.579H144.757C144.553 112.579 144.409 112.488 144.317 112.42L144.276 112.387L144.247 112.343C143.377 111.004 143.038 106.363 143.223 98.2337C142.793 98.2661 142.356 98.2838 141.914 98.2838H141.823C141.54 98.2514 141.33 98.1069 141.206 97.8592L141.186 97.8002C141.115 97.5171 141.18 97.2606 141.366 97.0748C141.832 96.6532 142.171 96.4114 142.471 96.2816C142.74 96.1578 142.987 96.0959 143.217 96.0959H143.253C143.253 96.0959 143.273 96.1018 143.285 96.1018C143.35 93.9994 143.447 91.6965 143.574 89.1842C143.592 88.7979 143.607 88.4411 143.621 88.1109C143.636 87.7659 143.651 87.4504 143.663 87.1673C143.604 87.1526 143.548 87.129 143.492 87.0965C143.338 87.0022 143.232 86.8783 143.167 86.7073L143.153 86.6572C143.123 86.5098 143.141 86.3564 143.209 86.1884L143.229 86.1471C143.374 85.8994 143.512 85.7077 143.639 85.5809C143.795 85.4482 143.913 85.3568 144.058 85.3214L144.087 85.3126C144.161 85.2949 144.258 85.2684 144.362 85.292C144.615 85.3097 144.836 85.4482 144.987 85.693C145.025 85.7667 145.04 85.8198 145.046 85.8611C145.069 85.9377 145.069 86.0114 145.069 86.0881V86.9609C145.057 87.1083 145.052 87.2499 145.046 87.415C145.04 87.5536 145.037 87.704 145.028 87.8691C145.007 88.2524 144.987 88.6977 144.966 89.2255C144.854 91.8911 144.768 94.3208 144.709 96.5146C148.625 95.4944 151.698 93.2947 153.85 89.9686C156.233 86.3387 157.501 82.933 157.622 79.8428C157.642 79.374 157.616 78.8373 157.542 78.2476C157.442 77.5871 157.244 77.0563 156.923 76.5904C156.622 76.1334 156.159 75.8769 155.502 75.8031H155.354C151.948 75.8031 149.221 76.673 147.012 78.4599C144.845 80.2291 143.167 82.1221 142.026 84.083C141.041 85.7726 140.378 87.0582 140.048 87.9074C140.048 87.9074 140.051 87.9074 140.054 87.9074C140.242 88.0018 140.36 88.1227 140.419 88.2731C140.446 88.3409 140.534 88.5591 140.44 88.795C140.372 88.9631 140.266 89.0898 140.115 89.1813L140.083 89.199C139.924 89.2668 139.768 89.3139 139.538 89.3611C139.316 89.4113 139.086 89.3759 138.842 89.255L138.809 89.2373C138.553 89.0663 138.414 88.8127 138.414 88.506C138.414 88.3143 138.517 87.9517 139.824 85.1947C140.744 83.2485 142.135 81.2965 144.076 79.2325C147.34 76.0302 151.146 74.4114 155.395 74.4114C155.449 74.4114 155.505 74.4114 155.558 74.4114H155.587C157.905 74.6768 159.055 76.5167 159.013 79.8841C158.931 82.1605 158.217 84.7288 156.893 87.5182C155.578 90.29 153.641 92.8081 151.138 95.0019C149.28 96.6001 147.113 97.6203 144.668 98.0479C144.527 104.075 144.594 108.118 144.869 110.117C144.948 110.096 145.04 110.087 145.137 110.108C145.335 110.146 145.482 110.238 145.576 110.379C145.65 110.465 145.7 110.586 145.73 110.73C145.786 110.913 145.777 111.128 145.706 111.385C145.659 111.624 145.535 111.921 145.349 112.228C145.258 112.381 145.113 112.488 144.907 112.558L144.863 112.573L144.866 112.579ZM144.707 111.98C144.733 111.995 144.748 111.995 144.757 111.995H144.765C144.81 111.977 144.839 111.957 144.851 111.933C144.998 111.685 145.102 111.447 145.14 111.255C145.196 111.046 145.187 110.948 145.169 110.898L145.158 110.854C145.146 110.786 145.128 110.76 145.128 110.757L145.093 110.709C145.093 110.709 145.072 110.692 145.022 110.683C145.022 110.683 145.004 110.683 144.954 110.712C144.934 110.733 144.916 110.754 144.895 110.783L144.497 111.382L144.364 110.674C144.025 108.849 143.931 104.647 144.081 98.1423C143.99 98.1541 143.902 98.1658 143.81 98.1776C143.595 107.711 144.132 111.016 144.707 111.977V111.98ZM141.87 97.7029H141.911C142.359 97.7029 142.802 97.6852 143.235 97.6498C143.235 97.582 143.238 97.5142 143.241 97.4464L143.085 97.4759L143.247 97.2105C143.253 97.0395 143.256 96.8684 143.262 96.6974C143.241 96.6945 143.217 96.6886 143.194 96.6856C143.055 96.6886 142.89 96.7357 142.704 96.8213C142.463 96.9245 142.165 97.1427 141.764 97.5054C141.761 97.5112 141.728 97.5407 141.743 97.6321C141.77 97.6734 141.802 97.697 141.87 97.7059V97.7029ZM143.831 97.3284C143.831 97.4139 143.828 97.5024 143.825 97.5879C143.916 97.5761 144.008 97.5643 144.096 97.5525C144.096 97.4582 144.102 97.3638 144.102 97.2695C144.011 97.2901 143.919 97.3078 143.828 97.3284H143.831ZM144.692 97.1338C144.692 97.2429 144.686 97.3491 144.683 97.4582C146.977 97.0365 149.012 96.0693 150.754 94.5655C153.196 92.4277 155.083 89.9715 156.366 87.2735C157.654 84.5548 158.35 82.0661 158.43 79.8753C158.468 76.8293 157.521 75.2341 155.537 75.0011C151.397 74.9598 147.673 76.5285 144.491 79.6482C142.601 81.6592 141.245 83.5611 140.348 85.4541C140.024 86.1412 139.03 88.2347 138.995 88.5267C138.995 88.621 139.03 88.6888 139.116 88.7508C139.231 88.8068 139.319 88.8186 139.414 88.7979C139.596 88.7625 139.714 88.7272 139.826 88.68C139.859 88.6593 139.877 88.6328 139.894 88.5886C139.897 88.5797 139.894 88.5532 139.874 88.5001C139.865 88.4795 139.835 88.4618 139.812 88.45C139.803 88.447 139.776 88.45 139.747 88.4588L139.175 88.6888L139.361 88.0991C139.635 87.2322 140.36 85.7844 141.519 83.797C142.696 81.7742 144.418 79.8281 146.641 78.0146C148.926 76.1658 151.857 75.2282 155.351 75.2282H155.546C156.383 75.3225 157.008 75.6734 157.403 76.2749C157.769 76.8027 158.002 77.4279 158.117 78.1768C158.197 78.8078 158.223 79.3769 158.203 79.8782C158.079 83.0746 156.778 86.5805 154.337 90.2988C152.072 93.7989 148.832 96.0959 144.692 97.1338ZM143.857 96.379C143.931 96.4586 143.996 96.5618 144.022 96.6915C144.055 96.6856 144.087 96.6768 144.12 96.6709C144.182 94.4299 144.267 91.9442 144.382 89.2137C144.403 88.6859 144.423 88.2377 144.444 87.8485C144.453 87.6892 144.459 87.5418 144.462 87.4062C144.468 87.2292 144.474 87.073 144.485 86.9432V86.097C144.485 86.0763 144.485 86.0586 144.485 86.0439L144.465 85.9702C144.403 85.8846 144.335 85.8846 144.311 85.8846H144.244C144.244 85.8846 144.235 85.8846 144.232 85.8876L144.196 85.8964C144.167 85.9082 144.064 85.9908 144.028 86.0203C143.987 86.0645 143.884 86.1884 143.739 86.4302C143.725 86.4685 143.719 86.5009 143.719 86.5275C143.736 86.5599 143.757 86.5805 143.789 86.6012C143.798 86.6071 143.81 86.613 143.872 86.5923L144.27 86.4596L144.255 86.8783C144.244 87.241 144.223 87.6597 144.202 88.1404C144.188 88.4677 144.17 88.8274 144.155 89.2137C144.019 91.894 143.922 94.2677 143.86 96.376L143.857 96.379Z" fill="#008389"/>
<path d="M150.85 103.942C150.343 103.942 149.956 103.76 149.712 103.415C149.449 103.008 149.305 102.521 149.305 101.931C149.305 101.179 149.467 100.307 149.812 99.3336C150.198 98.2367 150.705 97.2842 151.354 96.4704C151.841 95.8807 152.472 95.577 153.223 95.577C153.975 95.577 154.766 96.0428 155.577 97.0188C155.842 96.2669 156.045 95.6566 156.187 95.1907C156.228 94.9872 156.37 94.887 156.573 94.887C156.735 94.887 156.836 94.9489 156.898 95.0491C156.959 95.1288 156.977 95.232 156.977 95.3116V95.3735C156.611 97.3019 156.429 99.0269 156.429 100.531C156.429 101.81 156.591 102.621 156.874 102.966C156.956 103.028 157.015 103.046 157.036 103.046L157.139 103.025C157.767 102.842 158.44 102.194 159.189 101.097C159.941 100 160.548 98.9443 161.017 97.9506C161.096 97.7885 161.22 97.7059 161.382 97.7059C161.668 97.7059 161.81 97.8474 161.81 98.1128C161.81 98.2543 161.527 98.8441 160.937 99.8791C159.619 102.235 158.419 103.553 157.304 103.818C157.204 103.839 157.122 103.86 157.021 103.86C156.759 103.86 156.535 103.739 156.331 103.535C155.966 103.149 155.762 102.642 155.703 102.014C155.641 101.386 155.624 100.876 155.624 100.451C155.624 99.9646 155.644 99.4368 155.686 98.9089C154.468 101.71 153.088 103.356 151.546 103.821C151.283 103.901 151.059 103.942 150.856 103.942H150.85ZM150.85 103.111C150.971 103.111 151.133 103.09 151.316 103.028C152.716 102.601 154.017 100.896 155.214 97.8917L155.193 97.871C154.441 96.8773 153.751 96.3701 153.082 96.3701C152.371 96.4704 151.702 97.1604 151.053 98.4195C150.912 98.7232 150.729 99.1507 150.546 99.7375C150.263 100.61 150.119 101.362 150.119 102.011C150.119 102.742 150.363 103.108 150.85 103.108V103.111Z" fill="#008389"/>
<path d="M150.845 104.234C150.246 104.234 149.769 104.01 149.468 103.583C149.161 103.111 149.008 102.559 149.008 101.931C149.008 101.126 149.185 100.218 149.533 99.2362C149.94 98.0832 150.459 97.119 151.122 96.2875C151.673 95.6211 152.378 95.285 153.219 95.285C153.973 95.285 154.711 95.6683 155.459 96.4526C155.642 95.9189 155.793 95.4678 155.902 95.1051C155.961 94.8014 156.217 94.595 156.568 94.595C156.884 94.595 157.049 94.7513 157.134 94.8869C157.22 95.0048 157.264 95.1552 157.264 95.3144L157.258 95.4294C156.898 97.3313 156.716 99.0475 156.716 100.531C156.716 102.014 156.943 102.559 157.067 102.742H157.078C157.597 102.589 158.217 101.996 158.945 100.932C159.673 99.8701 160.281 98.8263 160.749 97.8267C160.882 97.5584 161.106 97.4139 161.377 97.4139C161.82 97.4139 162.097 97.6822 162.097 98.1127C162.097 98.213 162.097 98.4223 161.186 100.023C159.806 102.486 158.556 103.821 157.364 104.101L157.314 104.113C157.223 104.131 157.131 104.152 157.013 104.152C156.689 104.152 156.388 104.013 156.117 103.742C155.71 103.311 155.471 102.742 155.403 102.04C155.347 101.465 155.321 100.946 155.321 100.448C155.321 100.407 155.321 100.363 155.321 100.318C154.215 102.418 152.974 103.686 151.617 104.096C151.317 104.187 151.072 104.231 150.842 104.231L150.845 104.234ZM153.221 95.8688C152.564 95.8688 152.01 96.1342 151.579 96.6561C150.96 97.4316 150.47 98.3398 150.087 99.4278C149.76 100.348 149.595 101.191 149.595 101.928C149.595 102.447 149.713 102.878 149.954 103.252C150.137 103.512 150.441 103.647 150.848 103.647C151.016 103.647 151.208 103.612 151.452 103.538C152.9 103.102 154.23 101.504 155.412 98.788L156.102 97.1986L155.97 98.9266C155.931 99.4367 155.911 99.9645 155.911 100.448C155.911 100.932 155.937 101.43 155.99 101.984C156.046 102.559 156.226 103.002 156.542 103.335C156.698 103.491 156.851 103.568 157.019 103.568C157.078 103.568 157.128 103.556 157.202 103.541L157.246 103.532C158.246 103.296 159.405 102.02 160.682 99.7374C161.454 98.3811 161.513 98.1186 161.519 98.095C161.519 98.0213 161.519 98.0007 161.383 98.0007C161.354 98.0007 161.321 98.0007 161.28 98.0832C160.8 99.1064 160.177 100.177 159.431 101.265C158.612 102.459 157.91 103.111 157.223 103.308L157.04 103.341C156.916 103.341 156.789 103.264 156.704 103.202L156.654 103.152C156.312 102.739 156.141 101.855 156.141 100.531C156.141 99.018 156.326 97.2724 156.689 95.3469V95.3144C156.689 95.2791 156.68 95.2437 156.666 95.226L156.648 95.1994C156.648 95.1994 156.636 95.1788 156.574 95.1788C156.489 95.1788 156.483 95.2024 156.474 95.2466C156.323 95.745 156.117 96.3642 155.855 97.1131L155.684 97.5997L155.353 97.2045C154.604 96.3052 153.908 95.8688 153.224 95.8688H153.221ZM150.845 103.4C150.462 103.4 149.822 103.22 149.822 102.011C149.822 101.333 149.966 100.557 150.264 99.646C150.462 99.0091 150.656 98.5698 150.786 98.2926C151.496 96.9126 152.234 96.1931 153.039 96.0782H153.08C153.832 96.0782 154.596 96.6001 155.412 97.6763L155.533 97.7972L155.483 97.9948C154.242 101.106 152.906 102.842 151.399 103.302C151.169 103.379 150.972 103.397 150.848 103.397L150.845 103.4ZM153.098 96.659C152.508 96.7563 151.903 97.3933 151.308 98.5521C151.19 98.8027 151.007 99.2185 150.818 99.823C150.541 100.678 150.405 101.395 150.405 102.011C150.405 102.816 150.712 102.816 150.845 102.816C150.91 102.816 151.045 102.807 151.219 102.748C152.511 102.356 153.737 100.737 154.876 97.9388C154.212 97.0895 153.631 96.6708 153.101 96.659H153.098Z" fill="#008389"/>
<path d="M166.965 103.82C166.823 103.82 166.682 103.8 166.558 103.741C166.113 103.537 165.888 103.009 165.909 102.157C165.93 101.326 166.071 100.208 166.316 98.8074C166.437 98.197 166.519 97.569 166.62 96.9203C166.702 96.2922 166.702 95.8646 166.62 95.6612C166.375 95.4784 165.971 95.4784 165.381 95.6405C164.853 95.8234 164.264 95.8646 163.636 95.7614C163.453 95.7202 163.291 95.6582 163.128 95.5993C162.925 96.0268 162.683 96.5133 162.418 97.0412C162.256 97.3862 162.073 97.7518 161.89 98.1381C161.828 98.2383 161.749 98.3002 161.645 98.3415C161.545 98.3828 161.442 98.3622 161.342 98.3209C161.238 98.259 161.159 98.2 161.138 98.0761C161.097 97.9759 161.097 97.8727 161.159 97.7724C161.342 97.4068 161.504 97.0412 161.666 96.7168C161.68 96.703 161.687 96.6893 161.687 96.6755C161.97 96.1271 162.214 95.6199 162.418 95.1747C161.911 94.7088 161.645 94.0984 161.666 93.3288C161.687 92.8806 161.807 92.4766 162.011 92.0903C162.235 91.7247 162.518 91.48 162.863 91.421C162.925 91.4004 163.025 91.4004 163.146 91.421C163.288 91.4416 163.409 91.5213 163.553 91.6451C163.674 91.7453 163.798 91.9488 163.898 92.2142C164.122 92.8629 163.978 93.7593 163.471 94.8532C163.571 94.8945 163.695 94.9329 163.816 94.9741C164.284 95.0361 164.73 94.9948 165.196 94.8532C165.52 94.7707 165.865 94.7117 166.21 94.7117C166.555 94.6911 166.879 94.8326 167.186 95.0773C167.431 95.3014 167.531 95.7261 167.49 96.3571C167.448 96.9645 167.327 97.8373 167.124 98.9342C167.041 99.3618 166.962 99.8689 166.879 100.456C166.797 101.066 166.738 101.615 166.717 102.122C166.696 102.608 166.758 102.915 166.879 102.995C166.959 103.015 167.062 103.015 167.204 102.953C167.669 102.729 168.218 102.284 168.808 101.615C169.418 100.925 169.966 100.235 170.474 99.5239C170.96 98.8133 171.267 98.2855 171.408 97.9611C171.47 97.8579 171.529 97.7783 171.632 97.737C171.736 97.6958 171.836 97.6958 171.957 97.737C172.057 97.7783 172.119 97.8579 172.181 97.9611C172.222 98.0614 172.222 98.1646 172.181 98.2649C172.039 98.6099 171.715 99.1583 171.187 99.9309C170.659 100.683 170.07 101.452 169.4 102.184C168.731 102.936 168.1 103.443 167.513 103.705C167.31 103.788 167.127 103.826 166.965 103.826V103.82ZM162.966 92.2083C162.904 92.2289 162.804 92.3498 162.683 92.5533C162.583 92.7774 162.521 93.0398 162.48 93.3642C162.48 93.5057 162.5 93.6679 162.542 93.8301C162.583 94.0129 162.663 94.1957 162.786 94.3579C163.152 93.5263 163.273 92.8983 163.131 92.4914C163.111 92.4088 163.09 92.3705 163.052 92.3292C163.031 92.2879 163.011 92.2496 162.99 92.226L162.969 92.2053L162.966 92.2083Z" fill="#008389"/>
<path d="M166.963 104.112C166.754 104.112 166.577 104.077 166.427 104C165.87 103.747 165.592 103.122 165.616 102.149C165.637 101.344 165.769 100.232 166.026 98.7576C166.114 98.3153 166.179 97.8759 166.247 97.41C166.274 97.2331 166.3 97.0562 166.327 96.8763C166.406 96.2748 166.389 95.9858 166.365 95.8561C166.226 95.8001 165.961 95.7853 165.454 95.9239C164.896 96.1156 164.263 96.1628 163.584 96.0537C163.469 96.0301 163.366 95.9976 163.272 95.9681C163.104 96.3131 162.915 96.6935 162.712 97.0975L162.673 97.1771C162.594 97.3452 162.508 97.525 162.417 97.7079C162.328 97.8907 162.237 98.0764 162.145 98.2681C162.042 98.4421 161.918 98.5482 161.747 98.616C161.511 98.7104 161.296 98.6249 161.225 98.5954L161.184 98.5748C161.093 98.5187 160.904 98.4067 160.851 98.159C160.786 97.9762 160.804 97.7904 160.901 97.6253C160.987 97.4543 161.075 97.2626 161.163 97.0798C161.243 96.9088 161.323 96.7436 161.399 96.5903L161.423 96.5431C161.647 96.1097 161.862 95.6703 162.06 95.2398C161.579 94.7268 161.346 94.081 161.367 93.3232C161.391 92.8426 161.514 92.3973 161.747 91.955C162.033 91.4832 162.381 91.2149 162.791 91.1382C162.897 91.1087 163.03 91.1087 163.192 91.1353C163.413 91.1677 163.587 91.2945 163.741 91.4242C163.897 91.554 164.044 91.7869 164.168 92.1083C164.401 92.7836 164.298 93.6475 163.864 94.6825L163.879 94.6884C164.295 94.7385 164.687 94.7032 165.112 94.5734C165.53 94.4673 165.884 94.4171 166.212 94.4171C166.592 94.3936 166.987 94.538 167.37 94.8476C167.701 95.1514 167.83 95.6438 167.783 96.3721C167.742 97.0031 167.615 97.9054 167.415 98.9846C167.335 99.4004 167.252 99.9076 167.173 100.494C167.078 101.19 167.028 101.694 167.014 102.131C167.002 102.446 167.025 102.617 167.046 102.7C167.061 102.697 167.076 102.691 167.093 102.682C167.527 102.473 168.052 102.036 168.591 101.417C169.19 100.739 169.729 100.064 170.237 99.3503C170.82 98.4981 171.053 98.0381 171.142 97.8405L171.159 97.8081C171.236 97.6784 171.342 97.5368 171.525 97.4631C171.693 97.3953 171.864 97.3953 172.05 97.4572C172.253 97.5368 172.357 97.6784 172.433 97.8081L172.454 97.8494C172.522 98.0204 172.522 98.2003 172.454 98.3684C172.298 98.7487 171.961 99.309 171.428 100.09C170.8 100.981 170.21 101.73 169.614 102.376C168.924 103.151 168.255 103.688 167.63 103.968C167.379 104.068 167.164 104.115 166.963 104.115V104.112ZM166.114 95.228C166.397 95.228 166.619 95.2929 166.792 95.4256L166.857 95.4757L166.887 95.5524C166.952 95.7146 167.025 96.036 166.905 96.9589C166.875 97.1447 166.848 97.3216 166.822 97.4985C166.751 97.9732 166.686 98.4185 166.595 98.8667C166.344 100.309 166.215 101.388 166.194 102.166C166.176 102.883 166.338 103.325 166.672 103.478C166.831 103.558 167.076 103.561 167.394 103.431C167.934 103.189 168.535 102.703 169.175 101.986C169.753 101.355 170.331 100.627 170.941 99.7601C171.443 99.0289 171.767 98.4863 171.905 98.1531C171.914 98.1295 171.917 98.1089 171.911 98.0853C171.882 98.0381 171.861 98.0145 171.844 98.0086C171.79 97.9909 171.761 97.9998 171.734 98.0086C171.72 98.0145 171.696 98.044 171.664 98.0971C171.496 98.4716 171.159 99.0348 170.711 99.6894C170.186 100.424 169.635 101.117 169.025 101.809C168.432 102.485 167.845 102.971 167.329 103.219C167.135 103.301 166.969 103.319 166.807 103.278L166.76 103.266L166.719 103.24C166.492 103.089 166.4 102.732 166.424 102.11C166.442 101.656 166.492 101.134 166.589 100.418C166.672 99.822 166.754 99.3031 166.834 98.8785C167.028 97.8229 167.152 96.9441 167.193 96.3367C167.238 95.6733 167.102 95.402 166.984 95.2929C166.728 95.0865 166.474 94.9892 166.223 95.0039C165.929 95.0039 165.619 95.0482 165.262 95.1366C164.767 95.287 164.277 95.3312 163.773 95.2634L163.717 95.2516C163.581 95.2074 163.458 95.1661 163.357 95.1248L163.071 95.0098L163.201 94.7297C163.67 93.7183 163.814 92.8809 163.617 92.3088C163.522 92.0671 163.422 91.9226 163.36 91.8724C163.236 91.7663 163.163 91.7221 163.101 91.7132C163.006 91.6985 162.956 91.7014 162.944 91.7014L162.909 91.7103C162.664 91.7545 162.446 91.9314 162.254 92.244C162.072 92.5919 161.968 92.9576 161.951 93.3438C161.933 94.0073 162.148 94.538 162.608 94.9626L162.765 95.1071L162.676 95.2988C162.455 95.7853 162.213 96.2807 161.96 96.7731C161.948 96.8203 161.927 96.8557 161.901 96.8852C161.83 97.0267 161.759 97.1771 161.688 97.3304C161.6 97.5191 161.508 97.7138 161.411 97.9084C161.393 97.9408 161.391 97.9467 161.402 97.9732L161.42 98.0352C161.42 98.0352 161.432 98.044 161.464 98.0646C161.514 98.0823 161.529 98.0764 161.532 98.0764C161.588 98.0529 161.615 98.0293 161.632 97.9939C161.712 97.8258 161.803 97.6371 161.892 97.4543C161.98 97.2715 162.066 97.0945 162.148 96.9235L162.19 96.838C162.437 96.3426 162.667 95.8826 162.859 95.4787L162.974 95.2369L163.225 95.3312C163.393 95.3931 163.534 95.4462 163.693 95.4816C164.26 95.573 164.799 95.5347 165.28 95.3696C165.604 95.2811 165.878 95.2339 166.111 95.2339L166.114 95.228ZM162.847 94.9332L162.546 94.5351C162.405 94.3464 162.302 94.1252 162.252 93.8952C162.207 93.7183 162.184 93.5325 162.184 93.3645V93.3291C162.231 92.9576 162.305 92.6715 162.414 92.4327L162.428 92.4032C162.644 92.0464 162.768 91.9638 162.871 91.9314L163.039 91.8754L163.186 92.0169C163.233 92.0671 163.263 92.1172 163.289 92.1644C163.36 92.2499 163.39 92.3383 163.41 92.4238C163.57 92.875 163.455 93.5561 163.051 94.4791L162.85 94.9361L162.847 94.9332ZM162.768 93.3822C162.768 93.4293 162.77 93.4795 162.779 93.5325C162.874 93.2111 162.9 92.9782 162.891 92.8131C162.838 92.9693 162.8 93.1522 162.77 93.3822H162.768Z" fill="#008389"/>
<path d="M163.517 89.3054C163.354 89.3054 163.234 89.2258 163.13 89.043C163.089 88.9221 163.089 88.8189 163.151 88.7187C163.192 88.639 163.272 88.5565 163.375 88.5152C163.579 88.4356 164.431 88.1289 165.935 87.6217C167.435 87.1352 169.243 86.6074 171.354 86.059C173.486 85.5311 175.577 85.1655 177.647 84.962C179.699 84.7586 181.403 84.9208 182.721 85.4486C182.822 85.4899 182.904 85.5695 182.945 85.6727C182.966 85.7759 182.966 85.8761 182.925 85.997C182.883 86.0973 182.804 86.1592 182.701 86.2005C182.6 86.2418 182.497 86.2418 182.397 86.2005C181.138 85.714 179.495 85.5724 177.464 85.7936C175.435 86.0177 173.383 86.3804 171.292 86.9288C169.202 87.4773 167.415 87.9844 165.973 88.471C164.531 88.9575 163.761 89.2229 163.658 89.2818C163.617 89.3025 163.555 89.3025 163.517 89.3025V89.3054ZM176.794 105.588C176.532 105.609 176.287 105.547 176.043 105.446C173.89 104.756 172.448 102.38 171.758 98.3195C171.393 95.8839 171.251 93.3658 171.351 90.7267C171.472 88.0876 171.676 85.8142 172.021 83.8858C172.366 81.9574 172.69 80.8398 173.014 80.5361C173.176 80.4152 173.339 80.3946 173.521 80.4742C173.766 80.5951 173.908 80.7985 173.987 81.0639C174.049 81.3883 174.008 81.7539 173.866 82.1608C173.725 82.5677 173.563 82.954 173.38 83.2961C173.176 83.6204 173.035 83.8651 172.952 83.986C172.911 84.048 172.873 84.0892 172.811 84.1069C172.425 86.2801 172.2 88.9192 172.141 92.0241C172.059 95.1084 172.386 97.9509 173.115 100.531C173.825 102.846 174.901 104.226 176.323 104.671C176.951 104.895 177.682 104.65 178.516 103.94C179.369 103.25 180.221 102.315 181.055 101.18C181.907 100.044 182.618 98.9682 183.228 97.9126C183.29 97.8094 183.37 97.7298 183.473 97.7091C183.576 97.6885 183.677 97.6885 183.777 97.7504C183.88 97.8123 183.939 97.892 183.98 97.9952C184.001 98.0984 183.98 98.1986 183.939 98.2989C183.756 98.6439 183.29 99.3958 182.538 100.552C181.766 101.708 180.872 102.825 179.837 103.881C178.803 104.957 177.788 105.526 176.792 105.585L176.794 105.588Z" fill="#008389"/>
<path d="M176.688 105.882C176.447 105.882 176.202 105.829 175.928 105.714C173.681 104.994 172.174 102.52 171.469 98.3657C171.092 95.8534 170.959 93.353 171.059 90.7139C171.118 89.4253 171.195 88.2754 171.289 87.2315C169.04 87.8242 167.377 88.3048 166.064 88.7501C165.168 89.0538 163.935 89.4696 163.803 89.5403C163.685 89.5993 163.576 89.5993 163.517 89.5993C163.245 89.5993 163.03 89.4607 162.877 89.1865L162.856 89.1364C162.785 88.9241 162.8 88.7413 162.903 88.5702C162.968 88.4405 163.107 88.3107 163.266 88.2459C163.493 88.1545 164.395 87.836 165.84 87.3465C167.456 86.8217 169.287 86.2939 171.281 85.7778C171.34 85.7631 171.396 85.7484 171.455 85.7366C171.537 85.0584 171.631 84.4303 171.738 83.8376C172.215 81.1779 172.566 80.5646 172.82 80.3257L172.843 80.3051C173.088 80.1193 173.365 80.0869 173.642 80.2108C173.955 80.367 174.161 80.6236 174.271 80.9804L174.279 81.0128C174.35 81.3843 174.306 81.803 174.147 82.2601C173.993 82.6994 173.822 83.0975 173.642 83.4366C173.539 83.6017 173.463 83.7315 173.395 83.8406C173.312 83.9791 173.247 84.0853 173.2 84.1531C173.174 84.1944 173.135 84.2445 173.082 84.2917C173.02 84.6485 172.961 85.02 172.908 85.4063C174.501 85.0702 176.081 84.8254 177.62 84.675C179.72 84.4657 181.471 84.6367 182.833 85.1822C183.007 85.253 183.149 85.3916 183.22 85.5655L183.234 85.6186C183.267 85.7837 183.258 85.9341 183.205 86.0933C183.131 86.2762 183.002 86.4 182.813 86.4737C182.642 86.5415 182.462 86.5415 182.291 86.4737C181.073 86.0019 179.457 85.8692 177.496 86.0875C175.86 86.2673 174.288 86.5297 172.731 86.8836C172.572 88.4287 172.475 90.1537 172.439 92.0379C172.36 95.0868 172.684 97.9175 173.404 100.459C174.079 102.656 175.093 103.986 176.417 104.402C176.948 104.59 177.588 104.36 178.334 103.726C179.162 103.057 179.997 102.146 180.825 101.014C181.654 99.9079 182.359 98.8463 182.981 97.773C183.093 97.5814 183.246 97.4634 183.42 97.428C183.615 97.3897 183.783 97.4133 183.933 97.5047C184.084 97.5932 184.19 97.7199 184.258 97.891L184.272 97.9411C184.302 98.0885 184.284 98.2419 184.216 98.4099L184.205 98.4394C184.019 98.7933 183.541 99.5599 182.792 100.716C181.981 101.931 181.061 103.063 180.056 104.089C178.974 105.213 177.886 105.817 176.821 105.882C176.78 105.885 176.739 105.888 176.697 105.888L176.688 105.882ZM171.891 87.0782C171.788 88.1663 171.705 89.3752 171.643 90.7404C171.543 93.3382 171.676 95.8063 172.047 98.2772C172.714 102.193 174.088 104.511 176.131 105.168C176.388 105.274 176.579 105.31 176.771 105.298H176.774C177.688 105.242 178.646 104.699 179.625 103.682C180.607 102.68 181.507 101.574 182.294 100.394C183.022 99.2709 183.485 98.5249 183.671 98.1799C183.686 98.1387 183.694 98.1062 183.694 98.0767C183.674 98.0384 183.653 98.0207 183.627 98.003C183.612 97.9942 183.594 97.9853 183.529 97.9971C183.529 97.9971 183.506 98.0178 183.479 98.062C182.848 99.1559 182.132 100.232 181.291 101.356C180.436 102.523 179.563 103.47 178.702 104.169C177.794 104.944 176.96 105.207 176.228 104.947C174.719 104.472 173.578 103.016 172.84 100.616C172.103 98.0119 171.77 95.1222 171.853 92.0172C171.888 90.2008 171.979 88.5289 172.13 87.0192C172.05 87.0369 171.974 87.0576 171.894 87.0782H171.891ZM163.399 88.9241C163.464 89.0302 163.49 89.0155 163.534 89.0125C163.537 89.0125 163.543 89.0125 163.546 89.0125C163.67 88.9477 164.157 88.7766 165.879 88.1957C167.22 87.7417 168.916 87.2522 171.219 86.6477C171.263 86.6359 171.307 86.6241 171.354 86.6123C171.363 86.5239 171.372 86.4383 171.381 86.3499C169.417 86.86 167.612 87.3819 166.023 87.895C164.493 88.411 163.664 88.7088 163.481 88.7825C163.449 88.7973 163.419 88.8268 163.411 88.8445C163.396 88.871 163.39 88.8828 163.399 88.9211V88.9241ZM171.982 86.2054C171.974 86.2909 171.965 86.3764 171.953 86.4619C172.032 86.4413 172.112 86.4236 172.192 86.4059C172.201 86.3204 172.212 86.2349 172.221 86.1523C172.142 86.17 172.062 86.1877 171.982 86.2083V86.2054ZM172.826 86.0167C172.817 86.0992 172.805 86.1818 172.796 86.2673C174.309 85.9312 175.839 85.6805 177.431 85.5066C179.487 85.2795 181.194 85.424 182.503 85.9312C182.539 85.9459 182.562 85.9459 182.595 85.9312C182.63 85.9164 182.651 85.9017 182.657 85.8899C182.671 85.8457 182.671 85.8073 182.665 85.766C182.654 85.7454 182.636 85.7307 182.615 85.7248C181.341 85.2176 179.681 85.0584 177.676 85.2559C176.093 85.4122 174.468 85.6687 172.829 86.0196L172.826 86.0167ZM173.206 80.7592C173.05 80.9184 172.737 81.5494 172.31 83.9379C172.218 84.4568 172.133 85.0053 172.059 85.5891C172.139 85.5714 172.218 85.5537 172.301 85.5331C172.369 85.0171 172.445 84.5247 172.528 84.0558L172.557 83.8848L172.722 83.8288C172.758 83.758 172.817 83.6577 172.893 83.531C172.961 83.4189 173.041 83.2892 173.135 83.1388C173.292 82.841 173.451 82.4724 173.595 82.0596C173.716 81.7087 173.754 81.3961 173.707 81.1307C173.642 80.9332 173.545 80.8093 173.395 80.7327C173.324 80.7032 173.277 80.7061 173.206 80.7563V80.7592Z" fill="#008389"/>
<path d="M183.075 129.38C182.689 129.38 182.365 129.28 182.12 129.077C180.943 128.183 180.719 126.01 181.389 122.601C182.079 119.19 183.783 115.129 186.505 110.441C187.843 108.168 189.123 106.218 190.341 104.552C190.199 100.533 189.955 97.7115 189.671 96.1281C189.509 96.4937 189.347 96.88 189.164 97.2869V97.3076C188.554 98.8291 187.947 100.05 187.357 101.002C186.788 101.937 186.139 102.382 185.47 102.303C184.8 102.199 184.293 101.633 183.907 100.598C183.582 99.5839 183.379 98.487 183.358 97.3105C183.317 96.1134 183.441 95.3202 183.724 94.9162C183.804 94.8336 183.886 94.7747 184.007 94.7747C184.11 94.7747 184.211 94.8159 184.29 94.8779C184.393 94.9575 184.432 95.0607 184.432 95.1609C184.432 95.2612 184.411 95.3644 184.331 95.444C184.249 95.6062 184.19 95.9925 184.169 96.6028C184.149 97.1896 184.19 97.8619 184.29 98.5932C184.373 99.3451 184.556 100.014 184.797 100.604C185.042 101.153 185.305 101.456 185.588 101.498C185.874 101.518 186.198 101.274 186.543 100.746C186.909 100.239 187.233 99.6282 187.557 98.9175C187.882 98.2069 188.144 97.5995 188.368 97.051C188.389 97.0304 188.389 97.0098 188.409 96.9891C188.734 96.1782 188.996 95.6091 189.161 95.3054C189.344 94.9811 189.527 94.7983 189.71 94.7776C189.789 94.7776 189.872 94.7776 189.955 94.8189C190.055 94.8602 190.137 94.9221 190.199 95.0223C190.341 95.2877 190.503 96.1989 190.706 97.7233C190.889 99.2655 191.031 101.173 191.152 103.488C192.594 101.621 193.77 100.2 194.684 99.2448C195.598 98.2895 196.085 97.8029 196.126 97.8029C196.209 97.7233 196.309 97.682 196.409 97.7027C196.53 97.7027 196.613 97.744 196.695 97.8236C196.775 97.9268 196.816 98.0064 196.816 98.1273C196.795 98.2276 196.754 98.3308 196.675 98.4104C196.613 98.4104 196.085 98.9588 195.07 100.035C194.077 101.091 192.776 102.674 191.193 104.785C191.276 107.324 191.234 109.984 191.051 112.723C190.869 115.483 190.482 118.084 189.875 120.478C189.288 122.893 188.415 124.842 187.257 126.325C186.304 127.502 185.49 128.295 184.8 128.74C184.11 129.168 183.541 129.389 183.075 129.389V129.38ZM190.364 105.912C189.35 107.354 188.294 108.996 187.198 110.845C185.431 113.87 184.113 116.63 183.258 119.128C182.406 121.625 181.919 123.695 181.837 125.32C181.775 126.965 182.02 128 182.589 128.407C183.441 128.894 184.783 128.021 186.628 125.809C187.663 124.468 188.457 122.701 189.005 120.531C189.574 118.337 189.94 115.964 190.143 113.404C190.347 110.845 190.406 108.35 190.367 105.915L190.364 105.912Z" fill="#008389"/>
<path d="M183.079 129.673C182.619 129.673 182.235 129.549 181.937 129.301C180.678 128.343 180.401 126.131 181.106 122.543C181.802 119.105 183.536 114.982 186.257 110.291C187.534 108.127 188.808 106.166 190.049 104.459C189.937 101.362 189.763 98.8767 189.539 97.1665C189.513 97.2284 189.483 97.2933 189.454 97.3552L189.439 97.4113C188.855 98.8738 188.239 100.13 187.611 101.15C186.815 102.456 185.989 102.654 185.44 102.586C184.653 102.465 184.069 101.849 183.639 100.693C183.282 99.5756 183.09 98.4403 183.073 97.3081C183.028 96.046 183.167 95.2057 183.491 94.7398L183.524 94.7014C183.63 94.5953 183.78 94.4714 184.016 94.4714C184.175 94.4714 184.341 94.5275 184.476 94.6336C184.644 94.7663 184.733 94.9491 184.733 95.1496C184.733 95.3266 184.686 95.474 184.588 95.5919C184.559 95.6745 184.491 95.9281 184.467 96.6004C184.447 97.1724 184.488 97.827 184.585 98.5406C184.659 99.2247 184.824 99.8734 185.075 100.478C185.346 101.088 185.558 101.183 185.638 101.194C185.682 101.203 185.918 101.165 186.307 100.572C186.641 100.109 186.953 99.5461 187.301 98.7824C187.614 98.0954 187.879 97.4909 188.109 96.9277L188.15 96.854C188.15 96.854 188.159 96.8392 188.165 96.8304C188.445 96.1286 188.719 95.5212 188.914 95.1526C189.156 94.725 189.406 94.5039 189.687 94.4714H189.719C189.816 94.4714 189.949 94.4714 190.091 94.5393C190.241 94.6012 190.365 94.7044 190.456 94.8548C190.577 95.0818 190.722 95.5683 191.002 97.6678C191.158 98.9858 191.291 100.628 191.409 102.675C192.674 101.059 193.682 99.8616 194.481 99.0271C195.442 98.0216 195.784 97.6766 195.952 97.5587C196.097 97.4289 196.274 97.37 196.445 97.3965C196.625 97.4024 196.772 97.4673 196.908 97.6029L196.931 97.6295C197.029 97.7504 197.117 97.8919 197.117 98.116L197.111 98.175C197.076 98.3519 197.002 98.4964 196.89 98.6084L196.805 98.6939H196.775C196.554 98.8915 195.802 99.6847 195.292 100.227C194.292 101.289 193.016 102.852 191.497 104.871C191.577 107.451 191.527 110.099 191.353 112.735C191.167 115.554 190.766 118.182 190.167 120.544C189.572 122.985 188.675 124.99 187.496 126.497C186.526 127.694 185.7 128.505 184.969 128.977C184.208 129.446 183.595 129.673 183.084 129.673H183.079ZM189.796 95.1378L189.964 96.0755C190.27 97.7769 190.503 100.705 190.639 104.541V104.641L190.583 104.724C189.333 106.434 188.047 108.407 186.761 110.589C184.072 115.221 182.362 119.284 181.681 122.658C181.032 125.957 181.242 128.039 182.303 128.844C182.504 129.009 182.76 129.089 183.082 129.089C183.48 129.089 183.993 128.891 184.653 128.481C185.317 128.051 186.122 127.258 187.036 126.131C188.159 124.692 189.023 122.764 189.598 120.399C190.191 118.07 190.583 115.478 190.769 112.694C190.946 110.04 190.993 107.381 190.91 104.786V104.683L190.969 104.6C192.529 102.521 193.841 100.914 194.867 99.8233C195.961 98.6644 196.324 98.287 196.498 98.1661C196.513 98.1455 196.522 98.1189 196.53 98.0895C196.527 98.0718 196.516 98.0482 196.486 98.0069C196.46 97.9833 196.448 97.9804 196.418 97.9804L196.362 97.9745C196.362 97.9745 196.356 97.9804 196.342 97.998L196.256 98.0836H196.236C196.121 98.1868 195.802 98.4993 194.906 99.434C194.021 100.357 192.874 101.737 191.394 103.654L190.913 104.276L190.872 103.488C190.745 101.085 190.601 99.207 190.427 97.7415C190.226 96.2318 190.067 95.356 189.952 95.1437C189.94 95.1231 189.914 95.0966 189.855 95.073C189.822 95.0582 189.79 95.0553 189.746 95.0553C189.716 95.0641 189.604 95.1201 189.427 95.4357C189.342 95.5978 189.088 96.0962 188.693 97.084L188.649 97.1636C188.649 97.1636 188.643 97.1754 188.637 97.1813C188.407 97.7415 188.144 98.346 187.835 99.0242C187.469 99.8203 187.139 100.419 186.791 100.902C186.396 101.507 185.989 101.802 185.579 101.775C185.166 101.716 184.836 101.368 184.541 100.711C184.267 100.047 184.09 99.3456 184.01 98.6143C183.907 97.8742 183.866 97.1901 183.887 96.5827C183.919 95.6244 184.04 95.3826 184.081 95.303L184.134 95.2263C184.134 95.2263 184.149 95.1909 184.149 95.1496C184.149 95.1349 184.149 95.1172 184.117 95.0936C184.087 95.07 184.046 95.0553 184.013 95.0553C184.007 95.0553 183.996 95.0553 183.954 95.0936C183.789 95.3472 183.609 95.934 183.654 97.2904C183.671 98.3725 183.851 99.4517 184.187 100.499C184.532 101.424 184.969 101.92 185.517 102.005C186.195 102.088 186.761 101.418 187.112 100.844C187.717 99.8616 188.31 98.6526 188.876 97.2432V97.2373L188.902 97.1606C189.008 96.9218 189.109 96.6918 189.206 96.4677C189.274 96.3085 189.342 96.1551 189.409 96.0047L189.796 95.1319V95.1378ZM183.105 128.835C182.869 128.835 182.651 128.776 182.448 128.661L182.424 128.646C181.769 128.181 181.486 127.09 181.551 125.312C181.634 123.678 182.103 121.626 182.987 119.037C183.833 116.56 185.166 113.756 186.95 110.701C188.047 108.852 189.117 107.186 190.132 105.747L190.648 105.016L190.663 105.912C190.707 108.516 190.633 110.975 190.438 113.431C190.226 116.106 189.852 118.453 189.291 120.608C188.734 122.817 187.917 124.627 186.865 125.993C185.261 127.912 184.046 128.841 183.105 128.841V128.835ZM182.751 128.16C183.238 128.425 184.267 128.189 186.411 125.621C187.407 124.33 188.189 122.59 188.728 120.458C189.28 118.335 189.648 116.02 189.858 113.381C190.029 111.235 190.105 109.082 190.091 106.832C189.241 108.077 188.36 109.474 187.454 110.996C185.691 114.015 184.373 116.784 183.542 119.226C182.686 121.729 182.215 123.784 182.135 125.338C182.064 127.234 182.43 127.921 182.751 128.163V128.16Z" fill="#008389"/>
<path d="M212.406 108.957C212.182 108.957 211.999 108.916 211.857 108.836C211.736 108.774 211.612 108.695 211.554 108.633C211.188 108.247 211.005 107.739 211.046 107.091C211.088 106.321 211.371 105.528 211.857 104.696C212.364 103.844 213.013 103.092 213.786 102.444C213.886 102.361 213.989 102.34 214.089 102.34C214.21 102.34 214.313 102.402 214.393 102.482C214.473 102.562 214.493 102.665 214.493 102.765C214.493 102.865 214.431 102.948 214.352 103.027C213.662 103.617 213.072 104.287 212.627 105.018C212.182 105.77 211.937 106.477 211.875 107.129C211.875 107.271 211.875 107.433 211.916 107.616C211.957 107.798 212.037 107.94 212.161 108.082C212.264 108.143 212.364 108.161 212.506 108.143C212.647 108.126 212.768 108.102 212.851 108.064C213.682 107.76 214.576 107.008 215.552 105.829C216.525 104.652 217.073 103.293 217.194 101.748C217.153 99.4331 216.322 97.9735 214.697 97.3631C213.175 96.9178 211.612 96.9355 210.005 97.425C208.28 98.401 207.163 98.8463 206.656 98.7254C206.553 98.6841 206.473 98.6251 206.432 98.5219C206.37 98.4187 206.37 98.3391 206.39 98.2359C206.47 98.0324 206.794 97.7906 207.405 97.484C208.015 97.198 208.746 96.9149 209.64 96.6731C212.096 95.355 214.552 93.3853 217.029 90.7463C218.389 89.1216 219.485 87.0722 220.317 84.5541C221.128 82.0359 221.169 79.8834 220.379 78.0994C219.648 76.7401 218.247 76.0708 216.156 76.1091C214.308 76.2093 212.686 76.7578 211.265 77.7751C209.843 78.7688 208.687 79.8657 207.773 81.0245C206.069 83.1564 204.81 85.2883 203.975 87.4202C203.123 89.5521 202.799 91.0529 203.002 91.9464C203.023 92.0673 203.002 92.1705 202.94 92.2501C202.879 92.3297 202.799 92.3916 202.675 92.4329C202.575 92.4536 202.451 92.4329 202.371 92.3916C202.271 92.3297 202.209 92.2501 202.168 92.1292C201.944 91.0529 202.289 89.3869 203.182 87.1342C204.096 84.8814 205.394 82.6669 207.101 80.535C208.053 79.2966 209.313 78.1614 210.837 77.0851C212.359 76.0088 214.125 75.4191 216.136 75.3188C217.616 75.3188 218.754 75.5842 219.544 76.0914C220.317 76.5986 220.845 77.147 221.148 77.7574C222.001 79.7065 222.021 82.0005 221.169 84.6602C220.317 87.3199 219.158 89.5108 217.699 91.2387C215.953 93.1878 213.983 94.8715 211.81 96.2927C212.417 96.2308 213.028 96.2308 213.597 96.2927C214.653 96.3753 215.626 96.7999 216.54 97.5724C217.454 98.3656 217.961 99.7663 218.041 101.774C217.92 103.417 217.33 104.921 216.274 106.239C215.219 107.557 214.184 108.412 213.149 108.798C212.866 108.898 212.621 108.96 212.397 108.96L212.406 108.957ZM209.87 112.307C209.829 112.307 209.787 112.307 209.749 112.286C209.221 112.145 208.797 111.697 208.449 110.948C207.859 109.526 207.514 107.374 207.372 104.511C207.231 101.648 207.231 98.6222 207.352 95.4759C207.473 92.3091 207.655 89.5698 207.859 87.2757C208.083 84.9816 208.266 83.6813 208.387 83.3776C208.407 83.3363 208.466 83.2567 208.528 83.1741C208.59 83.0709 208.67 83.0119 208.773 82.95C208.873 82.8881 208.997 82.8674 209.139 82.8881C209.442 82.9706 209.604 83.2537 209.604 83.7402C209.604 83.8611 209.563 83.9437 209.484 84.0263C209.401 84.1059 209.301 84.1265 209.18 84.1472H209.118C209.097 84.1265 209.077 84.1265 209.077 84.1265H209.056C208.873 85.3237 208.649 87.7593 208.407 91.454C208.145 95.128 208.062 98.8846 208.124 102.721C208.186 106.536 208.59 109.279 209.363 110.903C209.404 110.965 209.445 111.024 209.466 111.086C209.445 110.924 209.404 110.762 209.345 110.641C209.283 110.499 209.245 110.396 209.203 110.296C209.142 110.216 209.121 110.175 209.121 110.175C209.059 110.075 209.059 109.972 209.08 109.871C209.1 109.768 209.18 109.689 209.283 109.627C209.383 109.585 209.487 109.565 209.587 109.585C209.708 109.627 209.79 109.686 209.852 109.768C209.873 109.809 209.932 109.93 210.056 110.154C210.156 110.379 210.259 110.662 210.318 110.986C210.38 111.331 210.38 111.676 210.277 112.021C210.174 112.204 210.053 112.304 209.87 112.304V112.307Z" fill="#008389"/>
<path d="M209.87 112.598C209.82 112.598 209.74 112.598 209.649 112.563C209.047 112.392 208.567 111.902 208.183 111.071C207.588 109.635 207.228 107.497 207.081 104.528C206.995 102.791 206.96 100.954 206.974 99.0342C206.812 99.0489 206.691 99.0342 206.594 99.0106L206.556 98.9988C206.373 98.928 206.246 98.8101 206.178 98.6567C206.075 98.4739 206.087 98.3147 206.113 98.1849L206.128 98.1348C206.225 97.8901 206.491 97.6571 207.001 97.377C207.016 96.7489 207.036 96.112 207.06 95.4692C207.172 92.55 207.343 89.7871 207.567 87.2542C207.791 84.9631 207.974 83.6244 208.116 83.2735C208.157 83.191 208.21 83.1172 208.295 83.0052C208.378 82.8666 208.502 82.7782 208.623 82.7074C208.779 82.613 208.968 82.5776 209.177 82.6071L209.212 82.613C209.469 82.6808 209.897 82.9197 209.897 83.7483C209.897 83.9399 209.832 84.0962 209.69 84.2377C209.566 84.3586 209.428 84.4029 209.31 84.4265C209.127 85.7475 208.918 88.1742 208.699 91.4797C208.576 93.1987 208.49 94.9503 208.443 96.7519C208.797 96.6251 209.159 96.5101 209.537 96.4069C211.943 95.1095 214.393 93.1398 216.823 90.5508C218.15 88.9645 219.238 86.9151 220.046 84.4677C220.851 81.9732 220.874 79.9297 220.117 78.2225C219.441 76.9693 218.147 76.3707 216.168 76.4061C214.37 76.5034 212.819 77.0312 211.439 78.0161C210.082 78.9655 208.929 80.0388 208.006 81.2065C206.34 83.2912 205.075 85.4172 204.253 87.5255C203.427 89.5925 203.103 91.058 203.291 91.8807C203.336 92.149 203.256 92.323 203.179 92.4232C203.076 92.5589 202.944 92.6532 202.773 92.7093L202.74 92.7181C202.584 92.7505 202.392 92.727 202.245 92.6532C202.065 92.5471 201.959 92.4085 201.894 92.2198L201.885 92.1874C201.649 91.0551 201.988 89.3655 202.914 87.0272C203.852 84.7095 205.185 82.4656 206.877 80.3543C207.815 79.1365 209.056 77.9895 210.672 76.8484C212.235 75.7456 214.069 75.1323 216.124 75.0291C217.657 75.0291 218.858 75.3033 219.704 75.8458C220.524 76.3854 221.081 76.9663 221.411 77.6268C222.302 79.6614 222.313 82.0528 221.449 84.7479C220.588 87.4311 219.403 89.678 217.923 91.4236C216.401 93.1221 214.694 94.6406 212.83 95.9528C213.102 95.9557 213.37 95.9705 213.63 96C214.726 96.0855 215.773 96.5366 216.732 97.3475C217.713 98.1997 218.253 99.6829 218.336 101.762V101.779V101.797C218.209 103.507 217.595 105.064 216.507 106.424C215.405 107.801 214.34 108.667 213.255 109.071C212.901 109.198 212.642 109.251 212.403 109.251C212.129 109.251 211.896 109.198 211.71 109.089C211.577 109.024 211.43 108.924 211.344 108.841C210.905 108.376 210.707 107.783 210.752 107.072C210.793 106.282 211.073 105.456 211.604 104.548C212.12 103.681 212.789 102.897 213.597 102.219C213.742 102.104 213.901 102.048 214.09 102.048C214.219 102.048 214.414 102.086 214.603 102.275C214.726 102.399 214.788 102.564 214.788 102.764C214.788 103.009 214.62 103.174 214.558 103.236C213.86 103.835 213.299 104.48 212.878 105.17C212.465 105.863 212.226 106.533 212.17 107.155C212.17 107.261 212.17 107.4 212.205 107.553C212.229 107.659 212.273 107.75 212.35 107.851C212.376 107.86 212.409 107.862 212.468 107.854C212.53 107.845 212.677 107.824 212.724 107.801L212.754 107.789C213.526 107.506 214.37 106.804 215.331 105.642C216.263 104.516 216.793 103.198 216.908 101.723C216.87 99.5502 216.115 98.2026 214.6 97.6335C213.17 97.2148 211.66 97.2325 210.127 97.6896C209.422 98.0876 208.859 98.3707 208.407 98.5742C208.39 99.9188 208.393 101.296 208.416 102.714C208.461 105.545 208.699 107.774 209.127 109.372C209.127 109.372 209.127 109.372 209.13 109.372L209.171 109.352C209.339 109.284 209.493 109.266 209.64 109.296L209.672 109.304C209.843 109.36 209.976 109.452 210.079 109.587L210.109 109.635C210.129 109.676 210.188 109.794 210.306 110.009C210.445 110.313 210.542 110.622 210.601 110.926C210.675 111.354 210.66 111.734 210.554 112.097L210.53 112.156C210.371 112.445 210.147 112.589 209.87 112.589V112.598ZM209.855 112.014H209.87C209.902 112.014 209.941 112.014 210.006 111.908C210.076 111.643 210.085 111.357 210.029 111.038C209.967 110.714 209.864 110.446 209.787 110.274C209.693 110.101 209.634 109.986 209.605 109.927C209.587 109.906 209.56 109.888 209.516 109.871C209.487 109.871 209.454 109.876 209.413 109.888C209.38 109.909 209.366 109.927 209.363 109.932C209.351 109.994 209.363 110.012 209.369 110.024C209.383 110.047 209.398 110.074 209.434 110.118L209.487 110.224C209.522 110.31 209.557 110.401 209.61 110.525C209.675 110.652 209.728 110.847 209.755 111.05L209.189 111.177C209.183 111.156 209.15 111.109 209.127 111.074L209.1 111.029C208.31 109.366 207.897 106.651 207.835 102.726C207.815 101.387 207.809 100.09 207.824 98.816C207.732 98.8484 207.644 98.8779 207.564 98.9044C207.546 100.859 207.579 102.729 207.667 104.492C207.812 107.394 208.157 109.467 208.723 110.832C209.03 111.498 209.392 111.884 209.829 112.002L209.861 112.011L209.855 112.014ZM214.092 102.632C214.036 102.632 214.007 102.64 213.972 102.67C213.22 103.304 212.592 104.035 212.111 104.846C211.63 105.672 211.377 106.412 211.338 107.108C211.303 107.662 211.445 108.092 211.766 108.435C211.79 108.458 211.881 108.523 211.987 108.576C212.208 108.703 212.491 108.723 213.057 108.523C214.025 108.163 215.033 107.332 216.053 106.058C217.062 104.796 217.634 103.354 217.755 101.771C217.675 99.8686 217.203 98.5299 216.354 97.7928C215.481 97.0585 214.573 96.6605 213.579 96.5838C213.025 96.5248 212.429 96.5248 211.846 96.5838L210.657 96.7018L211.657 96.0472C213.812 94.6377 215.773 92.954 217.486 91.0433C218.911 89.3625 220.061 87.1835 220.898 84.5709C221.718 82.0144 221.715 79.7617 220.889 77.8745C220.612 77.3231 220.12 76.8159 219.391 76.3353C218.642 75.8547 217.548 75.6099 216.142 75.6099C214.213 75.7072 212.48 76.2852 211.011 77.3231C209.445 78.4318 208.242 79.5405 207.34 80.7141C205.683 82.787 204.38 84.9808 203.463 87.2454C202.596 89.4303 202.259 91.0492 202.46 92.0517C202.481 92.1077 202.504 92.1254 202.531 92.1431C202.537 92.1431 202.581 92.152 202.613 92.149C202.672 92.1254 202.699 92.0989 202.719 92.0753C202.719 92.0753 202.734 92.0547 202.725 91.9957C202.51 91.058 202.834 89.5188 203.716 87.3132C204.562 85.1518 205.854 82.9728 207.555 80.8438C208.514 79.6319 209.708 78.5173 211.108 77.5384C212.556 76.5034 214.255 75.9254 216.154 75.8222C218.344 75.781 219.863 76.5004 220.647 77.9659C221.464 79.8059 221.446 82.0469 220.609 84.6506C219.775 87.1717 218.651 89.2859 217.265 90.9401C214.774 93.5968 212.261 95.6108 209.79 96.9377L209.728 96.9612C209.274 97.0851 208.847 97.2237 208.431 97.38C208.428 97.5657 208.422 97.7515 208.419 97.9402C208.814 97.7544 209.292 97.5038 209.87 97.1765L209.929 97.1529C211.58 96.6516 213.217 96.631 214.785 97.091C216.546 97.7515 217.448 99.3172 217.492 101.75C217.365 103.375 216.79 104.802 215.782 106.023C214.759 107.258 213.839 108.016 212.969 108.34C212.851 108.396 212.71 108.42 212.55 108.44C212.347 108.47 212.176 108.44 212.014 108.343L211.972 108.32L211.94 108.284C211.778 108.095 211.68 107.907 211.633 107.691C211.586 107.476 211.586 107.29 211.586 107.14C211.654 106.403 211.919 105.651 212.376 104.881C212.83 104.135 213.432 103.442 214.163 102.817C214.196 102.785 214.205 102.767 214.205 102.764C214.205 102.735 214.199 102.711 214.187 102.699C214.148 102.661 214.116 102.643 214.09 102.643L214.092 102.632ZM206.75 98.4474C206.806 98.4592 206.883 98.4592 206.98 98.4474C206.98 98.3206 206.983 98.1908 206.986 98.0611C206.774 98.2026 206.7 98.2881 206.677 98.3265C206.677 98.3501 206.677 98.356 206.688 98.3737L206.709 98.4149C206.709 98.4149 206.733 98.4385 206.75 98.4474ZM207.576 97.7338C207.573 97.9225 207.57 98.1083 207.567 98.294C207.647 98.2646 207.735 98.2321 207.827 98.1938C207.829 97.9992 207.832 97.8075 207.838 97.6158C207.75 97.6542 207.664 97.6925 207.579 97.7338H207.576ZM209.036 83.1762C208.968 83.1762 208.938 83.1969 208.923 83.2028C208.841 83.2529 208.803 83.2824 208.776 83.3266C208.714 83.4121 208.664 83.474 208.643 83.5094C208.611 83.592 208.449 84.1788 208.145 87.3044C207.921 89.8255 207.753 92.5795 207.638 95.4869C207.617 96.0236 207.599 96.5573 207.588 97.0851C207.673 97.0468 207.762 97.0114 207.847 96.973C207.894 95.077 207.983 93.24 208.113 91.4354C208.346 87.8941 208.573 85.3494 208.764 84.0844L208.803 83.8367H209.053C209.094 83.8367 209.136 83.8426 209.171 83.8544C209.227 83.8456 209.26 83.8338 209.274 83.822C209.307 83.7895 209.31 83.7778 209.31 83.7453C209.31 83.2824 209.15 83.2028 209.077 83.1792C209.062 83.1792 209.047 83.1792 209.033 83.1792L209.036 83.1762Z" fill="#008389"/>
<path d="M220.24 103.942C219.733 103.942 219.347 103.76 219.102 103.415C218.84 103.008 218.695 102.521 218.695 101.931C218.695 101.179 218.857 100.307 219.202 99.3336C219.589 98.2367 220.096 97.2842 220.745 96.4704C221.231 95.8807 221.862 95.577 222.614 95.577C223.366 95.577 224.156 96.0428 224.967 97.0188C225.233 96.2669 225.436 95.6566 225.578 95.1907C225.619 94.9872 225.76 94.887 225.964 94.887C226.126 94.887 226.226 94.9489 226.288 95.0491C226.35 95.1288 226.368 95.232 226.368 95.3116V95.3735C226.002 97.3019 225.819 99.0269 225.819 100.531C225.819 101.81 225.981 102.621 226.265 102.966C226.347 103.028 226.406 103.046 226.427 103.046L226.53 103.025C227.158 102.842 227.83 102.194 228.579 101.097C229.331 100 229.939 98.9443 230.407 97.9506C230.487 97.7885 230.611 97.7059 230.773 97.7059C231.059 97.7059 231.201 97.8474 231.201 98.1128C231.201 98.2543 230.918 98.8441 230.328 99.8791C229.01 102.235 227.81 103.553 226.695 103.818C226.595 103.839 226.512 103.86 226.412 103.86C226.15 103.86 225.925 103.739 225.722 103.535C225.356 103.149 225.153 102.642 225.094 102.014C225.035 101.386 225.014 100.876 225.014 100.451C225.014 99.9646 225.035 99.4368 225.076 98.9089C223.858 101.71 222.478 103.356 220.936 103.821C220.674 103.901 220.45 103.942 220.246 103.942H220.24ZM220.24 103.111C220.361 103.111 220.523 103.09 220.706 103.028C222.107 102.601 223.407 100.896 224.604 97.8917L224.584 97.871C223.832 96.8773 223.142 96.3701 222.473 96.3701C221.762 96.4704 221.093 97.1604 220.444 98.4195C220.302 98.7232 220.12 99.1507 219.937 99.7375C219.654 100.61 219.509 101.362 219.509 102.011C219.509 102.742 219.754 103.108 220.24 103.108V103.111Z" fill="#008389"/>
<path d="M220.243 104.234C219.645 104.234 219.167 104.01 218.866 103.583C218.56 103.111 218.406 102.559 218.406 101.931C218.406 101.126 218.583 100.218 218.931 99.2362C219.338 98.0832 219.857 97.119 220.52 96.2875C221.072 95.6211 221.777 95.285 222.617 95.285C223.372 95.285 224.109 95.6683 224.858 96.4526C225.041 95.9189 225.191 95.4678 225.3 95.1051C225.359 94.8014 225.616 94.595 225.967 94.595C226.282 94.595 226.447 94.7513 226.533 94.8869C226.618 95.0048 226.663 95.1552 226.663 95.3144L226.657 95.4294C226.297 97.3313 226.114 99.0475 226.114 100.531C226.114 102.014 226.341 102.559 226.465 102.742H226.477C226.996 102.589 227.615 101.996 228.343 100.932C229.072 99.8701 229.679 98.8263 230.148 97.8267C230.281 97.5584 230.505 97.4139 230.776 97.4139C231.218 97.4139 231.495 97.6822 231.495 98.1127C231.495 98.213 231.495 98.4223 230.584 100.023C229.204 102.486 227.954 103.821 226.763 104.101L226.713 104.113C226.621 104.131 226.53 104.152 226.412 104.152C226.088 104.152 225.787 104.013 225.515 103.742C225.109 103.311 224.87 102.742 224.802 102.04C224.746 101.465 224.719 100.943 224.719 100.448C224.719 100.407 224.719 100.363 224.719 100.321C223.614 102.421 222.372 103.689 221.016 104.099C220.715 104.19 220.47 104.234 220.24 104.234H220.243ZM222.617 95.8688C221.959 95.8688 221.405 96.1342 220.975 96.6561C220.355 97.4316 219.866 98.3398 219.483 99.4308C219.155 100.351 218.99 101.194 218.99 101.931C218.99 102.45 219.108 102.884 219.35 103.255C219.533 103.515 219.836 103.65 220.243 103.65C220.411 103.65 220.603 103.615 220.848 103.541C222.296 103.105 223.625 101.507 224.808 98.7909L225.498 97.2016L225.365 98.9295C225.327 99.4426 225.306 99.9704 225.306 100.451C225.306 100.932 225.333 101.43 225.386 101.987C225.442 102.562 225.622 103.005 225.937 103.338C226.093 103.494 226.247 103.571 226.415 103.571C226.474 103.571 226.524 103.559 226.598 103.544L226.642 103.535C227.641 103.299 228.8 102.023 230.077 99.7404C230.847 98.384 230.909 98.1216 230.914 98.098C230.914 98.0243 230.914 98.0036 230.779 98.0036C230.749 98.0036 230.717 98.0036 230.676 98.0862C230.195 99.1094 229.573 100.18 228.827 101.268C228.007 102.462 227.305 103.114 226.618 103.311L226.435 103.344C226.312 103.344 226.185 103.267 226.099 103.205L226.049 103.155C225.707 102.742 225.536 101.858 225.536 100.534C225.536 99.0209 225.722 97.2753 226.085 95.3498V95.3174C226.085 95.282 226.076 95.2466 226.061 95.2289L226.043 95.2024C226.043 95.2024 226.032 95.1818 225.97 95.1818C225.884 95.1818 225.878 95.2053 225.869 95.2496C225.719 95.7479 225.513 96.3671 225.25 97.1161L225.079 97.6026L224.749 97.2075C224 96.3081 223.304 95.8717 222.62 95.8717L222.617 95.8688ZM220.243 103.4C219.86 103.4 219.22 103.22 219.22 102.011C219.22 101.33 219.365 100.557 219.659 99.646C219.857 99.0091 220.052 98.5668 220.181 98.2926C220.892 96.9126 221.629 96.1931 222.434 96.0782H222.475C223.227 96.0782 223.991 96.6001 224.808 97.6763L224.929 97.7972L224.879 97.9948C223.637 101.106 222.301 102.842 220.795 103.302C220.565 103.379 220.367 103.397 220.243 103.397V103.4ZM222.496 96.659C221.906 96.7563 221.302 97.3933 220.706 98.5521C220.588 98.8027 220.405 99.2185 220.217 99.823C219.94 100.678 219.804 101.395 219.804 102.011C219.804 102.816 220.111 102.816 220.243 102.816C220.308 102.816 220.444 102.807 220.618 102.748C221.909 102.356 223.136 100.737 224.274 97.9388C223.611 97.0895 223.03 96.6708 222.499 96.659H222.496Z" fill="#008389"/>
<path d="M231.969 108.327C231.886 108.327 231.807 108.307 231.724 108.245C231.641 108.183 231.603 108.103 231.582 108C231.541 107.879 231.462 107.39 231.338 106.558C231.196 105.706 231.114 104.689 231.075 103.471C230.851 101.277 230.627 98.6587 230.406 95.654C230.202 92.6493 230.061 89.624 230.002 86.578C229.94 83.532 230.043 80.8723 230.285 78.5576C230.53 76.2429 231.016 74.6801 231.727 73.8486C232.113 73.483 232.538 73.3001 233.004 73.3414C233.614 73.4034 234.101 73.7071 234.466 74.2349C235.136 75.3318 235.38 77.098 235.218 79.4923C235.077 81.8867 234.711 84.4461 234.142 87.1648C233.593 89.8864 233.024 92.2807 232.476 94.3507C231.927 96.4207 231.562 97.6797 231.42 98.1279C231.462 98.5142 231.482 98.8975 231.523 99.2632C231.768 98.3107 232.152 97.4763 232.7 96.745C233.248 96.0344 234 95.5066 234.953 95.2029C236.353 94.7959 237.371 95.5066 238.061 97.2935C238.447 98.4493 238.527 99.7291 238.305 101.13C239.037 100.684 239.727 100.195 240.355 99.6671C241.003 99.1187 241.514 98.5319 241.9 97.8802C241.962 97.777 242.041 97.7181 242.145 97.6974C242.265 97.6561 242.369 97.6768 242.469 97.7181C242.572 97.78 242.631 97.8596 242.652 97.9805C242.693 98.0837 242.672 98.184 242.61 98.2842C242.124 99.1157 241.452 99.8676 240.62 100.519C239.789 101.168 238.916 101.758 238.022 102.265C237.778 102.976 237.433 103.583 236.967 104.134C236.501 104.683 235.911 105.087 235.2 105.332C234.976 105.435 234.794 105.473 234.631 105.435C234.49 105.414 234.348 105.373 234.266 105.293C234.186 105.211 234.124 105.152 234.083 105.11C233.941 104.907 233.9 104.665 233.921 104.4C233.941 104.137 234.042 103.913 234.224 103.73C234.752 103.223 235.563 102.695 236.66 102.106C236.884 101.985 237.105 101.843 237.309 101.719C237.716 100.219 237.695 98.8356 237.267 97.5588C237.206 97.3347 237.085 97.0723 236.922 96.7892C236.76 96.4855 236.516 96.2408 236.253 96.058C235.97 95.8752 235.604 95.8545 235.198 95.9784C234.263 96.3027 233.552 96.8718 233.066 97.6827C232.579 98.4936 232.272 99.4283 232.11 100.484C231.948 101.54 231.886 102.595 231.927 103.63C232.09 105.276 232.231 106.676 232.376 107.873C232.396 107.974 232.376 108.077 232.314 108.156C232.234 108.236 232.152 108.298 232.051 108.319H231.972L231.969 108.327ZM232.883 74.1612C232.679 74.1612 232.497 74.2644 232.314 74.4442C231.703 75.1549 231.279 76.6174 231.055 78.8083C230.831 81.0227 230.751 83.6205 230.81 86.6252C230.872 89.6299 231.013 92.6758 231.255 95.7808C231.866 93.5487 232.494 90.9892 233.125 88.0848C233.735 85.1833 234.16 82.4823 234.384 79.9848C234.587 77.4873 234.404 75.7416 233.794 74.7067C233.57 74.3823 233.287 74.1995 232.942 74.1582H232.88L232.883 74.1612ZM236.781 102.987C235.867 103.474 235.198 103.922 234.811 104.305C234.77 104.347 234.749 104.409 234.729 104.468C234.729 104.547 234.729 104.609 234.749 104.65C234.749 104.637 234.756 104.63 234.77 104.63C234.791 104.63 234.832 104.609 234.912 104.588C235.722 104.264 236.353 103.736 236.781 102.984V102.987Z" fill="#008389"/>
<path d="M232.075 108.618H231.966C231.81 108.618 231.668 108.571 231.544 108.477C231.418 108.382 231.335 108.25 231.297 108.076C231.264 107.967 231.205 107.678 231.046 106.604C230.908 105.776 230.822 104.782 230.781 103.485C230.563 101.37 230.338 98.7373 230.111 95.6795C229.896 92.4891 229.763 89.5168 229.704 86.5888C229.646 83.6165 229.74 80.9067 229.991 78.533C230.238 76.1859 230.745 74.5464 231.5 73.6648L231.521 73.6441C231.981 73.2077 232.485 73.0102 233.025 73.0574C233.721 73.1281 234.284 73.4702 234.702 74.0747C235.404 75.2246 235.673 77.0499 235.505 79.5179C235.366 81.868 235 84.4628 234.422 87.2316C233.915 89.7409 233.355 92.1647 232.753 94.4323C232.414 95.7149 232.14 96.6968 231.948 97.3691C232.102 97.092 232.273 96.8295 232.461 96.5789C233.06 95.8034 233.865 95.252 234.859 94.9335C236.41 94.4853 237.574 95.2461 238.326 97.1981C238.671 98.2301 238.783 99.3565 238.665 100.56C239.202 100.206 239.703 99.8342 240.16 99.4538C240.786 98.926 241.269 98.3658 241.641 97.7407C241.741 97.5726 241.885 97.4635 242.059 97.4252C242.275 97.3603 242.452 97.4104 242.567 97.4576L242.608 97.4782C242.779 97.5785 242.885 97.7259 242.923 97.9146C242.965 98.0414 242.982 98.2272 242.85 98.4454C242.345 99.3064 241.652 100.085 240.789 100.76C239.963 101.403 239.111 101.981 238.25 102.476C237.996 103.175 237.645 103.785 237.176 104.334C236.669 104.93 236.032 105.36 235.283 105.62C235.216 105.652 235.127 105.687 235.027 105.714V105.861L234.959 105.732C234.832 105.758 234.691 105.767 234.549 105.732C234.337 105.702 234.166 105.628 234.048 105.513C233.965 105.431 233.906 105.372 233.865 105.331L233.83 105.289C233.662 105.047 233.591 104.744 233.617 104.39C233.644 104.054 233.774 103.768 234.007 103.535C234.534 103.025 235.331 102.494 236.51 101.86C236.669 101.774 236.826 101.677 236.976 101.586L237.044 101.544C237.403 100.144 237.383 98.873 236.979 97.664C236.923 97.4605 236.817 97.2246 236.657 96.9445C236.528 96.6998 236.327 96.4845 236.074 96.3076C235.826 96.1484 235.499 96.1956 235.269 96.2663C234.405 96.5671 233.759 97.0831 233.302 97.8439C232.848 98.5987 232.55 99.4804 232.385 100.539C232.226 101.574 232.167 102.615 232.205 103.629C232.379 105.375 232.515 106.699 232.65 107.849C232.683 108.011 232.641 108.2 232.532 108.344L232.506 108.374C232.411 108.468 232.282 108.577 232.093 108.615L232.063 108.621L232.075 108.618ZM231.934 74.057C231.261 74.8502 230.804 76.3776 230.571 78.595C230.324 80.9421 230.229 83.6283 230.288 86.577C230.347 89.4962 230.48 92.4596 230.692 95.6383C230.919 98.6872 231.143 101.314 231.362 103.443C231.406 104.735 231.488 105.702 231.624 106.51C231.789 107.633 231.842 107.86 231.857 107.908L231.866 107.943C231.878 107.996 231.887 108.002 231.895 108.011C231.919 108.029 231.937 108.034 231.966 108.034H232.007C232.028 108.026 232.055 108.005 232.084 107.978C232.09 107.964 232.087 107.949 232.084 107.937C231.943 106.761 231.807 105.434 231.633 103.665C231.592 102.594 231.654 101.518 231.819 100.445C231.993 99.3064 232.32 98.3569 232.812 97.5372C233.334 96.6674 234.104 96.0511 235.098 95.7061C235.608 95.5528 236.056 95.5911 236.407 95.8181C236.743 96.0511 237.008 96.34 237.176 96.6585C237.356 96.974 237.48 97.2541 237.545 97.49C237.987 98.811 238.002 100.268 237.586 101.804L237.557 101.916L237.291 102.078C237.132 102.175 236.964 102.279 236.796 102.37C235.664 102.978 234.909 103.479 234.422 103.948C234.293 104.077 234.222 104.234 234.207 104.428C234.192 104.638 234.222 104.803 234.304 104.93C234.346 104.971 234.399 105.024 234.47 105.095C234.47 105.095 234.514 105.13 234.67 105.154H234.676L234.487 104.779C234.434 104.676 234.434 104.57 234.434 104.464V104.416L234.449 104.372C234.449 104.372 234.452 104.363 234.455 104.357C234.481 104.281 234.517 104.181 234.602 104.098C235.006 103.694 235.693 103.231 236.64 102.727L237.527 102.255L237.032 103.131C236.584 103.918 235.914 104.499 235.039 104.853V105.092C235.039 105.092 235.062 105.08 235.074 105.074C235.749 104.841 236.301 104.467 236.74 103.954C237.182 103.435 237.51 102.854 237.743 102.178L237.778 102.075L237.875 102.022C238.742 101.53 239.606 100.949 240.438 100.3C241.243 99.672 241.888 98.9467 242.354 98.1505C242.375 98.1151 242.375 98.1004 242.375 98.1004L242.357 98.0414C242.354 98.0178 242.348 98.006 242.331 97.9913C242.278 97.9736 242.254 97.9766 242.23 97.9854L242.195 97.9942C242.195 97.9942 242.169 98.0001 242.145 98.0414C241.741 98.7226 241.216 99.33 240.538 99.902C239.916 100.424 239.214 100.925 238.453 101.391L237.914 101.721L238.014 101.096C238.229 99.7487 238.149 98.5044 237.781 97.3986C236.941 95.2225 235.811 95.2697 235.033 95.4967C234.163 95.7739 233.452 96.2604 232.93 96.9386C232.411 97.6316 232.043 98.4218 231.804 99.3506L231.412 100.893L231.232 99.3094C231.208 99.1118 231.194 98.9083 231.176 98.7019C231.161 98.525 231.146 98.3481 231.129 98.1712L231.123 98.1093L231.14 98.0503C231.291 97.5785 231.657 96.3076 232.193 94.2878C232.792 92.032 233.349 89.62 233.853 87.1196C234.425 84.3773 234.785 81.809 234.924 79.4855C235.083 77.1383 234.844 75.4251 234.213 74.3961C233.9 73.9449 233.491 73.6943 232.972 73.6412C232.612 73.6088 232.27 73.7474 231.934 74.0599V74.057ZM231.093 97.4753L230.961 95.8034C230.725 92.7899 230.577 89.7911 230.512 86.6301C230.451 83.6313 230.533 80.9893 230.757 78.7778C230.984 76.5368 231.432 75.0153 232.084 74.2516C232.349 73.9862 232.603 73.8653 232.874 73.8653H232.969C233.399 73.9184 233.756 74.1454 234.027 74.5405C234.673 75.6345 234.876 77.4155 234.667 80.0074C234.449 82.4518 234.024 85.1911 233.402 88.1428C232.806 90.885 232.178 93.4798 231.53 95.8535L231.087 97.4723L231.093 97.4753ZM232.877 74.4521C232.806 74.4521 232.694 74.4727 232.515 74.6496C232.137 75.0919 231.609 76.1977 231.341 78.8368C231.12 81.0247 231.037 83.6431 231.099 86.6183C231.152 89.16 231.255 91.5956 231.418 94.0194C231.907 92.1293 232.382 90.1184 232.836 88.0219C233.452 85.0909 233.874 82.3781 234.089 79.9572C234.29 77.4922 234.11 75.8232 233.538 74.8531C233.379 74.6202 233.172 74.4816 232.919 74.4491H232.877V74.4521Z" fill="#008389"/>
<path d="M241.739 129.38C241.353 129.38 241.029 129.28 240.784 129.077C239.607 128.183 239.383 126.01 240.053 122.601C240.743 119.19 242.447 115.129 245.169 110.441C246.507 108.168 247.787 106.218 249.005 104.552C248.863 100.533 248.619 97.7115 248.336 96.1281C248.173 96.4937 248.011 96.88 247.828 97.2869V97.3076C247.218 98.8291 246.611 100.05 246.021 101.002C245.452 101.937 244.803 102.382 244.134 102.303C243.464 102.199 242.957 101.633 242.571 100.598C242.247 99.5839 242.043 98.487 242.022 97.3105C241.981 96.1134 242.105 95.3202 242.388 94.9162C242.468 94.8336 242.55 94.7747 242.671 94.7747C242.774 94.7747 242.875 94.8159 242.957 94.8779C243.057 94.9575 243.099 95.0607 243.099 95.1609C243.099 95.2612 243.078 95.3644 242.998 95.444C242.916 95.6062 242.857 95.9925 242.836 96.6028C242.816 97.1896 242.857 97.8619 242.957 98.5932C243.037 99.3451 243.22 100.014 243.464 100.604C243.709 101.153 243.972 101.456 244.258 101.498C244.541 101.518 244.865 101.274 245.21 100.746C245.576 100.239 245.9 99.6282 246.224 98.9175C246.549 98.2069 246.811 97.5995 247.035 97.051C247.056 97.0304 247.056 97.0098 247.076 96.9891C247.401 96.1782 247.663 95.6091 247.828 95.3054C248.011 94.9811 248.194 94.7983 248.377 94.7776C248.456 94.7776 248.539 94.7776 248.622 94.8189C248.722 94.8602 248.804 94.9221 248.866 95.0223C249.008 95.2877 249.17 96.1989 249.373 97.7233C249.556 99.2655 249.698 101.173 249.819 103.488C251.261 101.621 252.437 100.2 253.351 99.2448C254.265 98.2895 254.752 97.8029 254.793 97.8029C254.876 97.7233 254.976 97.682 255.076 97.7027C255.197 97.7027 255.28 97.744 255.362 97.8236C255.442 97.9268 255.483 98.0064 255.483 98.1273C255.462 98.2276 255.421 98.3308 255.342 98.4104C255.28 98.4104 254.752 98.9588 253.738 100.035C252.744 101.091 251.443 102.674 249.86 104.785C249.943 107.324 249.901 109.984 249.718 112.723C249.536 115.483 249.149 118.084 248.542 120.478C247.955 122.893 247.082 124.842 245.924 126.325C244.971 127.502 244.157 128.295 243.467 128.74C242.777 129.168 242.208 129.389 241.742 129.389L241.739 129.38ZM249.028 105.912C248.014 107.354 246.959 108.996 245.862 110.845C244.095 113.87 242.777 116.63 241.922 119.128C241.07 121.625 240.583 123.695 240.501 125.32C240.439 126.965 240.684 128 241.253 128.407C242.105 128.894 243.447 128.021 245.293 125.809C246.327 124.468 247.121 122.701 247.669 120.531C248.238 118.337 248.604 115.964 248.804 113.404C249.008 110.845 249.07 108.35 249.028 105.915V105.912Z" fill="#008389"/>
<path d="M241.743 129.672C241.283 129.672 240.899 129.548 240.601 129.3C239.342 128.342 239.065 126.131 239.77 122.542C240.466 119.104 242.2 114.982 244.921 110.29C246.198 108.126 247.472 106.165 248.713 104.458C248.601 101.362 248.427 98.873 248.203 97.1658C248.177 97.2277 248.147 97.2926 248.118 97.3574L248.103 97.4135C247.519 98.873 246.903 100.132 246.275 101.152C245.479 102.459 244.65 102.656 244.102 102.588C243.317 102.47 242.73 101.851 242.3 100.695C241.943 99.5778 241.751 98.4425 241.734 97.3103C241.693 96.0482 241.828 95.2049 242.153 94.742L242.185 94.7036C242.291 94.5975 242.441 94.4736 242.677 94.4736C242.837 94.4736 242.999 94.5297 243.137 94.6358C243.305 94.7714 243.394 94.9513 243.394 95.1518C243.394 95.3287 243.347 95.4791 243.249 95.5941C243.22 95.6767 243.152 95.9303 243.129 96.6026C243.108 97.1805 243.149 97.8322 243.249 98.5428C243.323 99.2269 243.485 99.8756 243.736 100.48C244.007 101.09 244.22 101.185 244.299 101.197C244.343 101.205 244.579 101.167 244.968 100.574C245.299 100.114 245.614 99.5483 245.962 98.7846C246.272 98.1064 246.537 97.499 246.77 96.9299L246.811 96.8562C246.811 96.8562 246.82 96.8414 246.826 96.8326C247.106 96.1337 247.38 95.5234 247.575 95.1548C247.817 94.7272 248.068 94.5061 248.348 94.4736H248.38C248.477 94.4736 248.61 94.4736 248.755 94.5415C248.902 94.6004 249.029 94.7066 249.117 94.854C249.241 95.084 249.386 95.5705 249.666 97.667C249.822 98.9851 249.955 100.628 250.073 102.674C251.338 101.055 252.349 99.8579 253.145 99.0264C254.109 98.0179 254.448 97.6729 254.617 97.555C254.758 97.4252 254.938 97.3692 255.109 97.3928C255.289 97.3987 255.436 97.4636 255.572 97.5992L255.595 97.6258C255.69 97.7467 255.778 97.8882 255.778 98.1123L255.772 98.1683C255.737 98.3452 255.663 98.4897 255.551 98.6018L255.466 98.6873H255.436C255.209 98.8878 254.434 99.7105 253.953 100.221C252.953 101.282 251.677 102.845 250.158 104.865C250.238 107.445 250.188 110.09 250.014 112.729C249.828 115.548 249.427 118.175 248.828 120.537C248.233 122.978 247.336 124.984 246.157 126.49C245.187 127.687 244.361 128.498 243.63 128.97C242.869 129.439 242.256 129.666 241.746 129.666L241.743 129.672ZM248.46 95.1371L248.628 96.0748C248.934 97.7761 249.167 100.704 249.303 104.54V104.641L249.247 104.723C247.997 106.433 246.711 108.406 245.426 110.588C242.736 115.22 241.026 119.284 240.345 122.657C239.696 125.957 239.906 128.038 240.967 128.843C241.168 129.008 241.424 129.088 241.746 129.088C242.144 129.088 242.657 128.89 243.317 128.481C243.981 128.05 244.786 127.26 245.7 126.131C246.823 124.692 247.687 122.763 248.262 120.398C248.855 118.069 249.247 115.477 249.433 112.693C249.61 110.04 249.657 107.377 249.574 104.785V104.682L249.633 104.599C251.193 102.521 252.505 100.914 253.531 99.8225C254.625 98.6637 254.988 98.2863 255.165 98.1654C255.18 98.1447 255.189 98.1182 255.197 98.0887C255.194 98.071 255.186 98.0474 255.153 98.0061C255.127 97.9825 255.115 97.9796 255.085 97.9796L255.029 97.9737C255.029 97.9737 255.023 97.9796 255.009 97.9973L254.923 98.0828H254.903C254.788 98.186 254.469 98.4986 253.576 99.4333C252.694 100.353 251.544 101.733 250.064 103.653L249.583 104.275L249.542 103.488C249.415 101.085 249.271 99.2062 249.097 97.7408C248.896 96.231 248.737 95.3553 248.622 95.143C248.604 95.1164 248.578 95.0929 248.525 95.0722C248.492 95.0575 248.46 95.0545 248.415 95.0545C248.386 95.0634 248.274 95.1194 248.097 95.4349C248.011 95.5971 247.758 96.0954 247.363 97.0832L247.319 97.1628C247.319 97.1628 247.313 97.1746 247.307 97.1805C247.074 97.7467 246.811 98.3511 246.505 99.0234C246.139 99.8225 245.809 100.418 245.461 100.902C245.066 101.506 244.656 101.801 244.249 101.775C243.836 101.716 243.503 101.368 243.211 100.71C242.937 100.047 242.76 99.3419 242.68 98.6136C242.577 97.8793 242.536 97.1923 242.556 96.5819C242.589 95.6236 242.71 95.3818 242.751 95.3022L242.804 95.2255C242.804 95.2255 242.819 95.1902 242.819 95.1489C242.819 95.1341 242.819 95.1164 242.786 95.0929C242.757 95.0722 242.716 95.0545 242.683 95.0545C242.677 95.0545 242.666 95.0545 242.624 95.0929C242.459 95.3464 242.279 95.9332 242.324 97.2896C242.341 98.3718 242.521 99.448 242.857 100.498C243.202 101.424 243.639 101.919 244.187 102.005C244.865 102.087 245.431 101.418 245.782 100.843C246.387 99.8608 246.979 98.6519 247.546 97.2424V97.2365L247.572 97.1599C247.678 96.921 247.782 96.691 247.879 96.464C247.947 96.3077 248.014 96.1514 248.079 96.001L248.466 95.1282L248.46 95.1371ZM241.769 128.834C241.533 128.834 241.315 128.775 241.112 128.66C240.433 128.177 240.147 127.086 240.212 125.311C240.295 123.677 240.764 121.625 241.648 119.036C242.495 116.559 243.827 113.755 245.611 110.7C246.711 108.848 247.782 107.182 248.793 105.746L249.309 105.015L249.324 105.912C249.368 108.515 249.294 110.977 249.1 113.431C248.887 116.102 248.513 118.449 247.955 120.608C247.398 122.816 246.581 124.627 245.529 125.992C243.925 127.912 242.71 128.84 241.769 128.84V128.834ZM248.752 106.831C247.905 108.076 247.021 109.471 246.118 110.995C244.355 114.014 243.04 116.783 242.206 119.225C241.35 121.728 240.879 123.783 240.799 125.337C240.728 127.257 241.103 127.938 241.427 128.171C241.884 128.43 242.91 128.212 245.072 125.623C246.068 124.332 246.85 122.592 247.389 120.46C247.941 118.334 248.309 116.022 248.519 113.383C248.69 111.237 248.766 109.087 248.752 106.834V106.831Z" fill="#008389"/>
<path d="M198.336 121.416L198.631 120.838C198.979 121.121 199.406 121.34 200.046 121.34C200.506 121.34 200.966 121.121 200.966 120.735C200.966 120.349 200.524 120.228 200.09 120.122C199.306 119.939 198.498 119.688 198.498 118.839C198.498 118.043 199.256 117.633 200.046 117.633C200.659 117.633 201.131 117.804 201.559 118.093L201.264 118.68C200.884 118.435 200.488 118.323 200.046 118.323C199.763 118.323 199.277 118.441 199.277 118.83C199.277 119.172 199.657 119.284 200.173 119.408C200.984 119.6 201.765 119.901 201.765 120.732C201.765 121.628 200.884 122.03 200.04 122.03C199.111 122.03 198.619 121.682 198.336 121.416Z" fill="#1F6D6C"/>
<path d="M203.844 117.699H207.155V118.357H204.607V119.397H207.011V120.049H204.607V121.305H207.247V121.963H203.844V117.696V117.699Z" fill="#1F6D6C"/>
<path d="M210.912 117.698H211.637L213.56 121.965H212.784L212.448 121.228H210.104L209.768 121.965H208.992L210.915 117.698H210.912ZM212.183 120.62L211.696 119.515C211.513 119.093 211.274 118.521 211.274 118.521C211.274 118.521 211.044 119.087 210.853 119.515L210.366 120.62H212.183Z" fill="#1F6D6C"/>
<path d="M216.063 118.356H214.562V117.698H218.328V118.356H216.827V121.962H216.063V118.356Z" fill="#1F6D6C"/>
<path d="M221.438 118.356H219.938V117.698H223.703V118.356H222.202V121.962H221.438V118.356Z" fill="#1F6D6C"/>
<path d="M225.609 117.699H226.373V121.305H228.927V121.963H225.609V117.696V117.699Z" fill="#1F6D6C"/>
<path d="M230.93 117.699H234.241V118.357H231.693V119.397H234.097V120.049H231.693V121.305H234.332V121.963H230.93V117.696V117.699Z" fill="#1F6D6C"/>
<path d="M192.553 51.1217C193.331 51.1217 194.077 50.4376 194.042 49.6326C194.006 48.8276 193.387 48.1436 192.553 48.1436C191.774 48.1436 191.028 48.8276 191.064 49.6326C191.099 50.4376 191.718 51.1217 192.553 51.1217Z" fill="#E6E894"/>
<path d="M212.572 71.6799C213.79 71.6799 213.793 69.7869 212.572 69.7869C211.351 69.7869 211.351 71.6799 212.572 71.6799Z" fill="#F09C3D"/>
<path d="M205.24 59.2658C205.983 59.2658 206.694 58.6142 206.658 57.8475C206.623 57.0809 206.036 56.4292 205.24 56.4292C204.497 56.4292 203.786 57.0809 203.822 57.8475C203.857 58.6142 204.444 59.2658 205.24 59.2658Z" fill="#F9D31F"/>
<path d="M181.279 77.2797C182.058 77.2797 182.804 76.5956 182.768 75.7906C182.733 74.9856 182.114 74.3015 181.279 74.3015C180.501 74.3015 179.755 74.9856 179.79 75.7906C179.826 76.5956 180.445 77.2797 181.279 77.2797Z" fill="#EE7345"/>
<path d="M189.496 63.479C190.487 63.479 191.433 62.6091 191.389 61.5859C191.345 60.5627 190.558 59.6929 189.496 59.6929C188.505 59.6929 187.559 60.5627 187.603 61.5859C187.647 62.6091 188.435 63.479 189.496 63.479Z" fill="#ECEDF1"/>
<path d="M179.52 63.2363C180.51 63.2363 181.457 62.3664 181.413 61.3432C181.368 60.3201 180.581 59.4502 179.52 59.4502C178.529 59.4502 177.582 60.3201 177.626 61.3432C177.671 62.3664 178.458 63.2363 179.52 63.2363Z" fill="#F09C3D"/>
<path d="M196.946 70.1557C197.819 70.1557 197.822 68.7964 196.946 68.7964C196.07 68.7964 196.07 70.1557 196.946 70.1557Z" fill="#91CFD0"/>
<path d="M209.363 51.1415C210.41 51.1415 211.412 50.2215 211.365 49.1394C211.318 48.0572 210.487 47.1372 209.363 47.1372C208.316 47.1372 207.314 48.0572 207.361 49.1394C207.408 50.2215 208.24 51.1415 209.363 51.1415Z" fill="#91CFD0"/>
<path d="M166.545 71.7609C167.323 71.7609 168.069 71.0768 168.034 70.2718C167.999 69.4668 167.379 68.7827 166.545 68.7827C165.767 68.7827 165.021 69.4668 165.056 70.2718C165.091 71.0768 165.711 71.7609 166.545 71.7609Z" fill="#E6E894"/>
<path d="M224.067 61.7355C225.228 61.7355 225.228 59.9309 224.067 59.9309C222.905 59.9309 222.905 61.7355 224.067 61.7355Z" fill="#ECEDF1"/>
</g>
<defs>
<clipPath id="clip0_2984_132395">
<rect width="122.6" height="120.946" fill="white" transform="translate(134.922 37.05)"/>
</clipPath>
</defs>
</svg>
