<svg width="254" height="97" viewBox="0 0 254 97" fill="none" xmlns="http://www.w3.org/2000/svg">
<path d="M4.99219 6.36719H2.36719V13.0078H4.99219C6.05469 13.0078 6.89062 12.7109 7.5 12.1172C8.10938 11.5182 8.41406 10.7109 8.41406 9.69531C8.41406 8.69531 8.10417 7.89062 7.48438 7.28125C6.86458 6.67188 6.03385 6.36719 4.99219 6.36719ZM4.99219 5.375C6.35156 5.375 7.44531 5.77604 8.27344 6.57812C9.10677 7.38021 9.52344 8.42448 9.52344 9.71094C9.52344 11.0078 9.11458 12.0469 8.29688 12.8281C7.47917 13.6094 6.3776 14 4.99219 14H1.29688V5.375H4.99219ZM16.7797 13.2188C17.7484 13.2188 18.5505 12.888 19.1859 12.2266C19.8214 11.5651 20.1391 10.7266 20.1391 9.71094C20.1391 8.6901 19.8214 7.84896 19.1859 7.1875C18.5557 6.52604 17.7536 6.19531 16.7797 6.19531C15.8109 6.19531 15.0089 6.52865 14.3734 7.19531C13.738 7.85677 13.4203 8.69531 13.4203 9.71094C13.4203 10.7266 13.738 11.5651 14.3734 12.2266C15.0089 12.888 15.8109 13.2188 16.7797 13.2188ZM16.7797 14.2266C15.488 14.2266 14.4203 13.8021 13.5766 12.9531C12.738 12.099 12.3188 11.0182 12.3188 9.71094C12.3188 8.39844 12.7406 7.31771 13.5844 6.46875C14.4281 5.61458 15.4932 5.1875 16.7797 5.1875C18.0714 5.1875 19.1417 5.61458 19.9906 6.46875C20.8396 7.32292 21.2641 8.40365 21.2641 9.71094C21.2641 11.0182 20.8396 12.099 19.9906 12.9531C19.1469 13.8021 18.0766 14.2266 16.7797 14.2266ZM26.1688 14L23.3563 5.375H24.4109L26.5516 12.0312L28.7469 5.375H29.7078L31.8953 12.0156L34.0438 5.375H35.0672L32.2625 14H31.4813L29.2078 7.05469L26.9578 14H26.1688ZM37.8781 14V5.375H38.4406L44.0344 11.8203V5.375H45.1125V14H44.5656L38.9484 7.55469V14H37.8781ZM49.2906 14V5.375H50.3609V13.0078H55.9938V14H49.2906ZM62.3828 13.2188C63.3516 13.2188 64.1536 12.888 64.7891 12.2266C65.4245 11.5651 65.7422 10.7266 65.7422 9.71094C65.7422 8.6901 65.4245 7.84896 64.7891 7.1875C64.1589 6.52604 63.3568 6.19531 62.3828 6.19531C61.4141 6.19531 60.612 6.52865 59.9766 7.19531C59.3411 7.85677 59.0234 8.69531 59.0234 9.71094C59.0234 10.7266 59.3411 11.5651 59.9766 12.2266C60.612 12.888 61.4141 13.2188 62.3828 13.2188ZM62.3828 14.2266C61.0911 14.2266 60.0234 13.8021 59.1797 12.9531C58.3411 12.099 57.9219 11.0182 57.9219 9.71094C57.9219 8.39844 58.3438 7.31771 59.1875 6.46875C60.0312 5.61458 61.0964 5.1875 62.3828 5.1875C63.6745 5.1875 64.7448 5.61458 65.5938 6.46875C66.4427 7.32292 66.8672 8.40365 66.8672 9.71094C66.8672 11.0182 66.4427 12.099 65.5938 12.9531C64.75 13.8021 63.6797 14.2266 62.3828 14.2266ZM71.5531 10.6719H75.35L73.4437 6.85156L71.5531 10.6719ZM68.7719 14L72.9984 5.375H73.8891L78.1625 14H76.9984L75.8266 11.6797H71.0609L69.9203 14H68.7719ZM84.7703 6.36719H82.1453V13.0078H84.7703C85.8328 13.0078 86.6687 12.7109 87.2781 12.1172C87.8875 11.5182 88.1922 10.7109 88.1922 9.69531C88.1922 8.69531 87.8823 7.89062 87.2625 7.28125C86.6427 6.67188 85.812 6.36719 84.7703 6.36719ZM84.7703 5.375C86.1297 5.375 87.2234 5.77604 88.0516 6.57812C88.8849 7.38021 89.3016 8.42448 89.3016 9.71094C89.3016 11.0078 88.8927 12.0469 88.075 12.8281C87.2573 13.6094 86.1557 14 84.7703 14H81.075V5.375H84.7703ZM101.213 14V6.36719H97.5875V5.375H105.923V6.36719H102.291V14H101.213ZM107.984 14V5.375H109.07V8.78125H114.156V5.375H115.234V14H114.156V9.77344H109.07V14H107.984ZM119.444 14V5.375H126.225V6.36719H120.514V8.89844H123.967V9.89062H120.514V13.0078H126.577V14H119.444ZM143.316 11.6641V10.3984H140.964V9.40625H144.386V12C143.969 12.7188 143.425 13.2708 142.753 13.6562C142.086 14.0365 141.329 14.2266 140.48 14.2266C139.188 14.2266 138.12 13.8021 137.277 12.9531C136.438 12.099 136.019 11.0182 136.019 9.71094C136.019 8.39844 136.441 7.31771 137.284 6.46875C138.128 5.61458 139.193 5.1875 140.48 5.1875C141.277 5.1875 142.003 5.36198 142.659 5.71094C143.316 6.0599 143.849 6.55729 144.261 7.20312L143.363 7.84375C143.092 7.32812 142.701 6.92448 142.191 6.63281C141.68 6.34115 141.11 6.19531 140.48 6.19531C139.511 6.19531 138.709 6.52865 138.073 7.19531C137.438 7.85677 137.12 8.69531 137.12 9.71094C137.12 10.7266 137.438 11.5651 138.073 12.2266C138.709 12.888 139.511 13.2188 140.48 13.2188C141.084 13.2188 141.62 13.0885 142.089 12.8281C142.563 12.5677 142.972 12.1797 143.316 11.6641ZM149.041 5.375V10.9609C149.041 11.8568 149.207 12.4583 149.541 12.7656C149.879 13.0677 150.541 13.2188 151.525 13.2188C152.509 13.2188 153.168 13.0677 153.502 12.7656C153.835 12.4583 154.002 11.8568 154.002 10.9609V5.375H155.08V11.25C155.08 12.3125 154.804 13.0755 154.252 13.5391C153.699 13.9974 152.791 14.2266 151.525 14.2266C150.259 14.2266 149.351 13.9974 148.798 13.5391C148.246 13.0755 147.97 12.3125 147.97 11.25V5.375H149.041ZM159.078 14V5.32812H160.164V14H159.078ZM168.061 6.36719H165.436V13.0078H168.061C169.123 13.0078 169.959 12.7109 170.569 12.1172C171.178 11.5182 171.483 10.7109 171.483 9.69531C171.483 8.69531 171.173 7.89062 170.553 7.28125C169.933 6.67188 169.103 6.36719 168.061 6.36719ZM168.061 5.375C169.42 5.375 170.514 5.77604 171.342 6.57812C172.176 7.38021 172.592 8.42448 172.592 9.71094C172.592 11.0078 172.183 12.0469 171.366 12.8281C170.548 13.6094 169.446 14 168.061 14H164.366V5.375H168.061ZM176.075 14V5.375H182.856V6.36719H177.145V8.89844H180.598V9.89062H177.145V13.0078H183.208V14H176.075Z" fill="#216F6D"/>
<path d="M2.664 54.964L12.528 35.524C11.268 35.596 3.78 35.812 0.756 36.028L0.684 33.652L14.508 33.724C13.248 36.928 11.916 39.772 10.584 43.12C8.928 47.08 7.272 50.968 5.724 54.964H2.664ZM30.4358 55.54L23.3077 36.28C22.5877 34.516 21.9757 33.472 21.3277 33.328V33.22H26.3677V33.328L26.1878 33.364C25.6478 33.508 25.6478 34.588 26.1158 36.208L31.5877 51.904L37.5998 32.86H38.2478L45.2318 51.616L49.9838 36.496C50.5598 34.732 50.4158 33.508 49.7318 33.364L49.5158 33.328V33.22H52.8638V33.328C52.0718 33.472 51.4598 34.552 50.7758 36.424L44.6558 55.54H43.9718L36.9518 37L31.0837 55.54H30.4358ZM65.8952 55.36C64.2032 55.324 63.5912 54.028 63.4832 52.516C61.7192 53.92 59.8112 55.216 57.3632 55.18C54.4832 55.144 52.8632 53.56 52.8632 51.328C52.8632 47.656 57.9032 46.036 59.4152 45.46C60.9272 44.884 61.7192 44.74 63.4472 44.236V42.652C63.4472 40.168 62.4032 38.44 60.7472 38.44C59.4152 38.404 58.6952 38.944 58.0472 39.592C56.6792 40.96 57.1832 42.148 56.3552 42.976C55.8872 43.444 55.2032 43.408 54.7352 42.976C54.0152 42.328 54.1952 41.248 55.6712 39.7C57.0392 38.296 58.5872 37.648 61.0352 37.828C63.9152 38.044 65.9312 39.988 65.9312 43.192C65.9312 43.192 65.9672 46.432 65.9672 52.048C65.9672 53.38 66.2912 54.496 67.4432 54.496C68.4152 54.496 69.0992 53.992 69.5312 53.596L69.8552 53.92C68.9192 54.784 67.7672 55.396 65.8952 55.36ZM58.1192 54.172C60.2072 54.172 63.4472 52.192 63.4472 51.688V44.704C61.7912 45.208 60.7472 45.604 59.3792 46.18C58.1912 46.684 55.3112 47.908 55.3112 51.112C55.3112 52.804 56.1392 54.172 58.1192 54.172ZM70.5271 63.28C69.1591 63.28 68.1871 62.308 68.0071 61.444C67.8271 60.652 68.2951 59.824 69.1951 59.788C70.3111 59.752 70.4551 61.084 70.5991 61.48C70.8511 62.092 71.2111 62.38 71.6791 62.38C72.7951 62.344 74.3431 60.508 75.4231 57.412C75.8911 56.332 76.2151 55.432 76.4311 55L70.6351 40.96C69.8791 39.052 69.0511 37.936 68.2591 37.792V37.684H73.0831V37.792L72.9391 37.828C72.5071 37.972 72.6151 39.124 73.2271 40.852L77.6911 52.444L82.1551 40.852C82.7671 39.124 82.8751 37.972 82.4431 37.828L82.2991 37.792V37.684H85.2151V37.792C84.4591 37.936 83.7391 38.944 82.9111 40.708L76.9351 55.36C76.9351 55.36 76.5751 56.296 76.0351 57.592C74.3431 61.696 72.8311 63.28 70.5271 63.28ZM92.5076 55.18C89.5916 55.18 87.1796 54.1 86.4236 52.48C86.1356 51.724 86.4236 51.148 86.7476 50.896C87.1796 50.644 87.5396 50.644 88.0076 51.004C88.4396 51.364 88.5116 52.048 88.6556 52.84C88.8356 53.884 90.2396 54.316 91.6436 54.496C91.6436 54.532 92.5436 54.568 92.6516 54.568C94.9196 54.568 96.4676 53.2 96.4676 51.004C96.4676 49.672 94.8116 48.124 92.3276 47.188C89.0876 45.964 86.9276 43.912 86.9276 42.076C86.9276 39.34 89.2316 37.54 92.7236 37.54C94.3076 37.54 95.8196 38.116 96.8276 39.16C98.1236 40.528 98.2676 41.464 97.6556 42.004C97.2236 42.4 96.6476 42.436 96.2156 42.004C95.8556 41.644 95.9276 40.744 95.6756 39.952C95.3516 38.908 93.9476 38.116 92.7236 38.116C90.3836 38.116 88.7996 39.34 88.7996 41.248C88.7996 42.616 90.7436 44.056 93.8756 45.244C96.5396 46.252 98.4476 48.34 98.4476 50.104C98.4476 53.164 96.0716 55.18 92.5076 55.18Z" fill="#216F6D"/>
<path d="M112.039 76.6992C111.785 76.7188 111.551 76.6602 111.316 76.5625C109.246 75.8984 107.859 73.6133 107.195 69.707C106.844 67.3633 106.707 64.9414 106.805 62.4023C106.922 59.8633 107.117 57.6758 107.449 55.8203C107.781 53.9648 108.094 52.8906 108.406 52.5977C108.562 52.4805 108.719 52.4609 108.895 52.5391C109.129 52.6562 109.266 52.8516 109.344 53.1055C109.402 53.418 109.363 53.7695 109.227 54.1602C109.09 54.5508 108.934 54.9219 108.758 55.2539C108.562 55.5664 108.426 55.8008 108.348 55.918C108.309 55.9766 108.27 56.0156 108.211 56.0352C107.84 58.125 107.625 60.6641 107.566 63.6523C107.488 66.6211 107.801 69.3555 108.504 71.8359C109.188 74.0625 110.223 75.3906 111.59 75.8203C112.195 76.0352 112.898 75.8008 113.699 75.1172C114.52 74.4531 115.34 73.5547 116.141 72.4609C116.961 71.3672 117.645 70.332 118.23 69.3164C118.289 69.2188 118.367 69.1406 118.465 69.1211C118.562 69.1016 118.66 69.1016 118.758 69.1602C118.855 69.2188 118.914 69.2969 118.953 69.3945C118.973 69.4922 118.953 69.5898 118.914 69.6875C118.738 70.0195 118.289 70.7422 117.566 71.8555C116.824 72.9688 115.965 74.043 114.969 75.0586C113.973 76.0938 112.996 76.6406 112.039 76.6992ZM99.2656 61.0352C99.1094 61.0352 98.9922 60.957 98.8945 60.7812C98.8555 60.6641 98.8555 60.5664 98.9141 60.4688C98.9531 60.3906 99.0312 60.3125 99.1289 60.2734C99.3242 60.1953 100.145 59.9023 101.59 59.4141C103.035 58.9453 104.773 58.4375 106.805 57.9102C108.855 57.4023 110.867 57.0508 112.859 56.8555C114.832 56.6602 116.473 56.8164 117.742 57.3242C117.84 57.3633 117.918 57.4414 117.957 57.5391C117.977 57.6367 117.977 57.7344 117.938 57.8516C117.898 57.9492 117.82 58.0078 117.723 58.0469C117.625 58.0859 117.527 58.0859 117.43 58.0469C116.219 57.5781 114.637 57.4414 112.684 57.6562C110.73 57.8711 108.758 58.2227 106.746 58.75C104.734 59.2773 103.016 59.7656 101.629 60.2344C100.242 60.7031 99.5 60.957 99.4023 61.0156C99.3633 61.0352 99.3047 61.0352 99.2656 61.0352ZM121.296 75.1562C121.14 75.1562 121.003 75.1367 120.866 75.0781C120.144 74.8242 119.636 74.2969 119.343 73.457C119.07 72.6172 118.933 71.7383 118.972 70.8008C119.011 69.7852 119.187 68.8477 119.538 67.9883C119.89 67.1289 120.417 66.6016 121.101 66.4062C121.159 66.3867 121.218 66.3867 121.277 66.4062C121.355 66.3867 121.413 66.3867 121.491 66.4062C122.78 66.7773 123.581 67.6367 123.933 69.0039C123.952 69.0625 123.972 69.1016 123.972 69.1602C124.089 69.2188 124.187 69.2773 124.304 69.3164C125.32 69.7852 126.277 69.7461 127.214 69.1992C127.312 69.1602 127.409 69.1406 127.507 69.1602C127.605 69.1992 127.683 69.2578 127.741 69.3555C127.8 69.4531 127.82 69.5508 127.78 69.6484C127.761 69.7461 127.702 69.8242 127.605 69.8828C126.472 70.5273 125.3 70.5859 124.089 70.0977C124.128 70.9375 124.011 71.7773 123.738 72.5977C123.464 73.3984 123.093 74.0625 122.605 74.5508C122.175 74.9414 121.745 75.1562 121.296 75.1562ZM121.062 67.2656C120.71 67.4805 120.398 67.9102 120.163 68.5547C119.929 69.1992 119.792 69.9609 119.773 70.8203C119.734 71.6211 119.831 72.3633 120.046 73.0469C120.241 73.7305 120.593 74.1602 121.081 74.3359C121.394 74.4141 121.726 74.3164 122.058 73.9844C122.468 73.5742 122.8 72.9492 123.054 72.1484C123.308 71.3477 123.366 70.5078 123.269 69.6484C122.917 69.4336 122.585 69.1602 122.253 68.8477C122.253 68.8281 122.155 68.75 122.019 68.5938C121.863 68.418 121.687 68.2227 121.491 67.9883C121.316 67.7539 121.159 67.5 121.062 67.2656ZM122.214 67.6172C122.37 67.8125 122.546 68.0273 122.78 68.2422C122.624 68.0273 122.448 67.8125 122.214 67.6172ZM140.435 75.1172C140.416 75.1172 140.377 75.1172 140.337 75.0977C140.123 75.0781 139.966 74.9609 139.83 74.7852C139.712 74.6289 139.615 74.4531 139.556 74.2773C139.341 73.6719 139.185 72.793 139.048 71.6602C138.912 70.5273 138.853 69.4336 138.873 68.3984C138.873 67.3633 138.97 66.6992 139.166 66.4062C139.244 66.3281 139.341 66.2891 139.439 66.2891C139.537 66.2695 139.634 66.3086 139.732 66.3867C139.81 66.4453 139.849 66.543 139.869 66.6406C139.869 66.7383 139.849 66.8164 139.791 66.9141C139.654 67.2461 139.615 67.9688 139.654 69.043C139.673 70.1367 139.771 71.2109 139.908 72.2852C140.045 73.3398 140.24 74.0234 140.455 74.3164C140.533 74.2383 140.611 74.0625 140.689 73.8086C140.767 73.5352 140.845 73.2422 140.923 72.9102C141.002 72.5977 141.08 72.2852 141.138 72.0117C141.314 71.1719 141.49 70.4883 141.666 69.9805C141.841 69.4531 142.095 69.1406 142.408 69.0039C142.623 68.9062 142.818 68.9258 143.033 69.0039C143.267 69.1406 143.462 69.375 143.599 69.707C143.755 70.0391 143.873 70.4297 144.009 70.8594C144.048 71.0156 144.107 71.1914 144.166 71.3867C144.224 71.582 144.283 71.7578 144.361 71.9141C144.42 72.0703 144.478 72.168 144.537 72.207C144.537 72.207 144.537 72.1875 144.556 72.1875C144.576 72.168 144.654 72.0703 144.791 71.9141C144.908 71.7383 145.064 71.4453 145.24 71.0352C145.533 70.3125 145.748 69.5508 145.865 68.75C145.982 67.9297 145.943 67.3047 145.748 66.8555C145.689 66.7578 145.689 66.6602 145.728 66.5625C145.748 66.4453 145.826 66.3867 145.923 66.3281C146.021 66.2695 146.119 66.2695 146.216 66.3086C146.314 66.3281 146.392 66.4062 146.451 66.5039C146.744 67.1875 146.802 68.0664 146.607 69.1406C146.412 70.1953 146.119 71.0938 145.728 71.8359C145.377 72.5391 144.986 72.9297 144.615 72.9688C144.224 73.0078 143.951 72.832 143.755 72.4414C143.541 72.0508 143.384 71.6016 143.248 71.0938C143.209 70.9375 143.15 70.7617 143.091 70.5664C143.013 70.3516 142.955 70.1758 142.877 70.0195C142.818 69.8633 142.74 69.7656 142.681 69.7266C142.584 69.7852 142.486 69.9609 142.388 70.2344C142.291 70.5273 142.212 70.8594 142.115 71.2109C142.037 71.582 141.959 71.8945 141.9 72.1875C141.783 72.7344 141.666 73.2227 141.548 73.6719C141.431 74.1016 141.275 74.4531 141.119 74.7266C140.943 74.9805 140.709 75.1172 140.435 75.1172ZM151.938 75.1562C151.782 75.1562 151.645 75.1367 151.509 75.0781C150.786 74.8242 150.278 74.2969 149.985 73.457C149.712 72.6172 149.575 71.7383 149.614 70.8008C149.653 69.7852 149.829 68.8477 150.18 67.9883C150.532 67.1289 151.059 66.6016 151.743 66.4062C151.802 66.3867 151.86 66.3867 151.919 66.4062C151.997 66.3867 152.055 66.3867 152.134 66.4062C153.423 66.7773 154.223 67.6367 154.575 69.0039C154.595 69.0625 154.614 69.1016 154.614 69.1602C154.731 69.2188 154.829 69.2773 154.946 69.3164C155.962 69.7852 156.919 69.7461 157.856 69.1992C157.954 69.1602 158.052 69.1406 158.149 69.1602C158.247 69.1992 158.325 69.2578 158.384 69.3555C158.442 69.4531 158.462 69.5508 158.423 69.6484C158.403 69.7461 158.345 69.8242 158.247 69.8828C157.114 70.5273 155.942 70.5859 154.731 70.0977C154.77 70.9375 154.653 71.7773 154.38 72.5977C154.106 73.3984 153.735 74.0625 153.247 74.5508C152.817 74.9414 152.388 75.1562 151.938 75.1562ZM151.704 67.2656C151.352 67.4805 151.04 67.9102 150.805 68.5547C150.571 69.1992 150.434 69.9609 150.415 70.8203C150.376 71.6211 150.473 72.3633 150.688 73.0469C150.884 73.7305 151.235 74.1602 151.723 74.3359C152.036 74.4141 152.368 74.3164 152.7 73.9844C153.11 73.5742 153.442 72.9492 153.696 72.1484C153.95 71.3477 154.009 70.5078 153.911 69.6484C153.559 69.4336 153.227 69.1602 152.895 68.8477C152.895 68.8281 152.798 68.75 152.661 68.5938C152.505 68.418 152.329 68.2227 152.134 67.9883C151.958 67.7539 151.802 67.5 151.704 67.2656ZM152.856 67.6172C153.013 67.8125 153.188 68.0273 153.423 68.2422C153.266 68.0273 153.091 67.8125 152.856 67.6172ZM160.355 75.1172C160.336 75.1172 160.297 75.1172 160.258 75.0977C160.043 75.0781 159.887 74.9609 159.75 74.7852C159.633 74.6289 159.535 74.4531 159.477 74.2773C159.262 73.6719 159.105 72.793 158.969 71.6602C158.832 70.5273 158.773 69.4336 158.793 68.3984C158.793 67.3633 158.891 66.6992 159.086 66.4062C159.164 66.3281 159.262 66.2891 159.359 66.2891C159.457 66.2695 159.555 66.3086 159.652 66.3867C159.73 66.4453 159.77 66.543 159.789 66.6406C159.789 66.7383 159.77 66.8164 159.711 66.9141C159.574 67.2461 159.535 67.9688 159.574 69.043C159.594 70.1367 159.691 71.2109 159.828 72.2852C159.965 73.3398 160.16 74.0234 160.375 74.3164C160.453 74.2383 160.531 74.0625 160.609 73.8086C160.688 73.5352 160.766 73.2422 160.844 72.9102C160.922 72.5977 161 72.2852 161.059 72.0117C161.234 71.1719 161.41 70.4883 161.586 69.9805C161.762 69.4531 162.016 69.1406 162.328 69.0039C162.543 68.9062 162.738 68.9258 162.953 69.0039C163.188 69.1406 163.383 69.375 163.52 69.707C163.676 70.0391 163.793 70.4297 163.93 70.8594C163.969 71.0156 164.027 71.1914 164.086 71.3867C164.145 71.582 164.203 71.7578 164.281 71.9141C164.34 72.0703 164.398 72.168 164.457 72.207C164.457 72.207 164.457 72.1875 164.477 72.1875C164.496 72.168 164.574 72.0703 164.711 71.9141C164.828 71.7383 164.984 71.4453 165.16 71.0352C165.453 70.3125 165.668 69.5508 165.785 68.75C165.902 67.9297 165.863 67.3047 165.668 66.8555C165.609 66.7578 165.609 66.6602 165.648 66.5625C165.668 66.4453 165.746 66.3867 165.844 66.3281C165.941 66.2695 166.039 66.2695 166.137 66.3086C166.234 66.3281 166.312 66.4062 166.371 66.5039C166.664 67.1875 166.723 68.0664 166.527 69.1406C166.332 70.1953 166.039 71.0938 165.648 71.8359C165.297 72.5391 164.906 72.9297 164.535 72.9688C164.145 73.0078 163.871 72.832 163.676 72.4414C163.461 72.0508 163.305 71.6016 163.168 71.0938C163.129 70.9375 163.07 70.7617 163.012 70.5664C162.934 70.3516 162.875 70.1758 162.797 70.0195C162.738 69.8633 162.66 69.7656 162.602 69.7266C162.504 69.7852 162.406 69.9609 162.309 70.2344C162.211 70.5273 162.133 70.8594 162.035 71.2109C161.957 71.582 161.879 71.8945 161.82 72.1875C161.703 72.7344 161.586 73.2227 161.469 73.6719C161.352 74.1016 161.195 74.4531 161.039 74.7266C160.863 74.9805 160.629 75.1172 160.355 75.1172ZM183.928 89.9609C183.83 89.9609 183.752 89.9219 183.674 89.8633C183.616 89.8047 183.557 89.7266 183.537 89.6289C183.498 89.4141 183.362 88.5938 183.147 87.1484C182.952 85.7227 182.776 83.9453 182.62 81.875C182.463 79.7852 182.463 77.6562 182.58 75.5078C182.444 72.793 182.346 70.3125 182.287 68.0469C181.78 68.7695 181.33 69.3359 180.998 69.7461C180.92 69.8047 180.823 69.8242 180.705 69.7852C180.608 69.7461 180.51 69.6875 180.452 69.5898C180.412 69.4922 180.393 69.3945 180.432 69.2969C180.452 69.1992 180.51 69.1211 180.569 69.0234C180.608 68.9648 180.666 68.8867 180.725 68.8086C181.213 68.2812 181.721 67.4023 182.268 66.1914C182.248 63.4766 182.405 61.9141 182.756 61.5039C182.873 61.3867 183.03 61.3672 183.186 61.3867C183.323 61.4258 183.459 61.5039 183.596 61.6406C183.733 61.7773 183.83 62.0117 183.889 62.3438C183.948 62.8125 183.889 63.418 183.733 64.1406C183.557 64.8633 183.342 65.625 183.03 66.3867C183.049 67.8516 183.108 69.5117 183.186 71.4062C183.498 70.1367 183.948 69.0625 184.553 68.1641C185.159 67.2852 185.94 66.6797 186.897 66.3477C186.916 66.3477 186.936 66.3281 186.955 66.3281C187.6 66.25 188.108 66.3086 188.44 66.5234C188.772 66.7188 188.987 66.9727 189.104 67.2461C189.455 68.125 189.397 69.2188 188.948 70.5273C189.729 70.0195 190.315 69.5898 190.705 69.2383C190.784 69.1602 190.881 69.1211 190.979 69.1211C191.096 69.1406 191.174 69.1797 191.252 69.2578C191.33 69.3359 191.37 69.4336 191.37 69.5312C191.37 69.6289 191.33 69.7266 191.252 69.8047C190.725 70.2734 189.944 70.8398 188.948 71.4844C188.791 71.582 188.635 71.6992 188.459 71.8164C187.834 73.1445 187.19 74.1211 186.526 74.7461C186.194 75.0391 185.901 75.1953 185.666 75.2148C185.412 75.2539 185.237 75.2148 185.1 75.1172C184.807 74.9414 184.67 74.707 184.651 74.3945C184.651 74.0039 184.924 73.5352 185.491 73.0469C186.037 72.5391 186.819 71.9531 187.834 71.2891C188.147 70.5664 188.362 69.8633 188.479 69.1992C188.596 68.5352 188.577 68.0078 188.401 67.5977C188.342 67.4414 188.225 67.3242 188.03 67.207C187.854 67.0898 187.541 67.0508 187.112 67.1094C185.901 67.5586 185.002 68.5352 184.436 70.0195C183.85 71.5234 183.498 73.2812 183.381 75.293C183.655 80.3516 183.967 85.0977 184.319 89.5312C184.319 89.6484 184.299 89.7266 184.241 89.8047C184.162 89.9023 184.084 89.9414 183.987 89.9609C183.967 89.9609 183.948 89.9609 183.928 89.9609ZM185.569 74.1992V74.2188C185.588 74.2383 185.608 74.2383 185.627 74.2578C185.627 74.2578 185.647 74.2578 185.686 74.2578C185.725 74.2383 185.784 74.2188 185.862 74.1797C185.92 74.1406 186.018 74.0625 186.116 73.9844C186.467 73.6523 186.838 73.2031 187.19 72.5977C186.721 72.9297 186.33 73.2617 186.018 73.5352C185.705 73.8281 185.549 74.0625 185.569 74.1992ZM183.245 62.6367C183.225 62.7734 183.225 62.9297 183.205 63.1055C183.225 62.9297 183.245 62.793 183.245 62.6367ZM191.818 75.1172C191.33 75.1172 190.959 74.9414 190.724 74.6094C190.47 74.2188 190.334 73.75 190.334 73.1836C190.334 72.4609 190.49 71.6211 190.822 70.6836C191.193 69.6289 191.681 68.7109 192.306 67.9297C192.775 67.3633 193.38 67.0703 194.103 67.0703C194.845 67.0703 195.588 67.5195 196.369 68.457C196.623 67.7344 196.818 67.1484 196.955 66.6992C196.994 66.5039 197.13 66.4062 197.326 66.4062C197.482 66.4062 197.58 66.4648 197.638 66.5625C197.697 66.6406 197.716 66.7383 197.716 66.8164V66.875C197.365 68.7305 197.189 70.3906 197.189 71.8359C197.189 73.0664 197.345 73.8477 197.619 74.1797C197.697 74.2383 197.755 74.2578 197.775 74.2578L197.873 74.2383C198.478 74.0625 199.123 73.4375 199.845 72.3828C200.568 71.3281 201.154 70.3125 201.603 69.3555C201.681 69.1992 201.798 69.1211 201.955 69.1211C202.228 69.1211 202.365 69.2578 202.365 69.5117C202.365 69.6484 202.091 70.2148 201.525 71.2109C200.255 73.4766 199.103 74.7461 198.029 75C197.931 75.0195 197.853 75.0391 197.755 75.0391C197.502 75.0391 197.287 74.9219 197.091 74.7266C196.74 74.3555 196.545 73.8672 196.486 73.2617C196.427 72.6562 196.408 72.168 196.408 71.7578C196.408 71.2891 196.427 70.7812 196.466 70.2734C195.295 72.9688 193.966 74.5508 192.482 75C192.228 75.0781 192.013 75.1172 191.818 75.1172ZM191.818 74.3164C191.935 74.3164 192.091 74.2969 192.267 74.2383C193.615 73.8281 194.865 72.1875 196.017 69.2969L195.998 69.2773C195.275 68.3203 194.611 67.832 193.966 67.832C193.283 67.9297 192.638 68.5938 192.013 69.8047C191.877 70.0977 191.701 70.5078 191.525 71.0742C191.252 71.9141 191.115 72.6367 191.115 73.2617C191.115 73.9648 191.349 74.3164 191.818 74.3164ZM208.126 75C207.989 75 207.852 74.9805 207.735 74.9219C207.305 74.7266 207.091 74.2188 207.11 73.3984C207.13 72.5977 207.266 71.5234 207.501 70.1758C207.618 69.5898 207.696 68.9844 207.794 68.3594C207.872 67.7539 207.872 67.3438 207.794 67.1484C207.559 66.9727 207.169 66.9727 206.602 67.1289C206.095 67.3047 205.528 67.3438 204.923 67.2461C204.747 67.207 204.591 67.1484 204.434 67.0898C204.239 67.5 204.005 67.9688 203.751 68.4766C203.595 68.8086 203.419 69.1602 203.243 69.5312C203.184 69.6289 203.106 69.6875 203.009 69.7266C202.911 69.7656 202.813 69.7461 202.716 69.707C202.618 69.6484 202.54 69.5898 202.52 69.4727C202.481 69.375 202.481 69.2773 202.54 69.1797C202.716 68.8281 202.872 68.4766 203.028 68.1641C203.048 68.1445 203.048 68.1445 203.048 68.125C203.321 67.5977 203.555 67.1094 203.751 66.6797C203.262 66.2305 203.009 65.6445 203.028 64.9023C203.048 64.4727 203.165 64.082 203.36 63.7109C203.575 63.3594 203.848 63.125 204.18 63.0664C204.239 63.0469 204.337 63.0469 204.454 63.0664C204.591 63.0859 204.708 63.1641 204.845 63.2812C204.962 63.3789 205.079 63.5742 205.177 63.8281C205.391 64.4531 205.255 65.3125 204.766 66.3672C204.864 66.4062 204.981 66.4453 205.098 66.4844C205.548 66.543 205.977 66.5039 206.427 66.3672C206.739 66.2891 207.071 66.2305 207.403 66.2305C207.735 66.2109 208.048 66.3477 208.341 66.582C208.575 66.7969 208.673 67.207 208.634 67.8125C208.595 68.3984 208.477 69.2383 208.282 70.293C208.204 70.7031 208.126 71.1914 208.048 71.7578C207.97 72.3438 207.911 72.8711 207.891 73.3594C207.872 73.8281 207.93 74.1211 208.048 74.1992C208.126 74.2188 208.223 74.2188 208.36 74.1602C208.809 73.9453 209.337 73.5156 209.903 72.8711C210.489 72.207 211.016 71.543 211.505 70.8594C211.973 70.1758 212.266 69.668 212.403 69.3555C212.462 69.2578 212.52 69.1797 212.618 69.1406C212.716 69.1016 212.813 69.1016 212.93 69.1406C213.028 69.1797 213.087 69.2578 213.145 69.3555C213.184 69.4531 213.184 69.5508 213.145 69.6484C213.009 69.9805 212.696 70.5078 212.188 71.25C211.68 71.9727 211.114 72.7148 210.47 73.418C209.825 74.1406 209.22 74.6289 208.653 74.8828C208.458 74.9609 208.282 75 208.126 75ZM204.278 63.8281C204.22 63.8477 204.122 63.9648 204.005 64.1602C203.907 64.375 203.848 64.6289 203.809 64.9414C203.809 65.0781 203.829 65.2344 203.868 65.3906C203.907 65.5664 203.985 65.7422 204.102 65.8984C204.454 65.0977 204.571 64.4922 204.434 64.1016C204.415 64.0234 204.395 63.9844 204.356 63.9453C204.337 63.9062 204.317 63.8672 204.298 63.8477L204.278 63.8281ZM215.156 75.1562C214.844 75.1562 214.551 75.1172 214.238 75.0586C213.164 74.8047 212.637 73.9258 212.637 72.4609C212.637 71.2109 212.969 69.9219 213.652 68.5352C214.395 67.0312 215.254 66.2695 216.27 66.2695C216.719 66.2695 217.09 66.4062 217.344 66.6992C217.5 66.8945 217.598 67.1484 217.598 67.4414C217.598 67.9297 217.461 68.457 217.207 69.0625C216.738 70.2539 216.016 71.0742 215.039 71.4844C214.434 71.7383 213.906 71.875 213.457 71.875C213.418 72.0703 213.398 72.2852 213.398 72.5586C213.398 72.8906 213.477 73.2422 213.594 73.5938C213.77 74.1016 214.297 74.3555 215.137 74.3555C217.109 74.3555 219.004 72.6758 220.859 69.3164C220.938 69.1797 221.055 69.1016 221.211 69.1016C221.27 69.1016 221.328 69.1211 221.387 69.1602C221.523 69.2383 221.582 69.3555 221.582 69.4922C221.582 69.5508 221.562 69.6289 221.543 69.707C219.531 73.3398 217.402 75.1562 215.156 75.1562ZM213.574 71.1133C213.848 71.1133 214.277 70.9766 214.844 70.7422C215.41 70.5078 215.898 70 216.328 69.2578L216.484 68.8281C216.504 68.75 216.523 68.6914 216.543 68.6523C216.543 68.6133 216.562 68.5742 216.582 68.5547C216.758 68.1055 216.855 67.7734 216.855 67.5391C216.855 67.2266 216.66 67.0703 216.289 67.0703C216.172 67.0703 216.055 67.0703 215.918 67.1094C215.508 67.1875 215.078 67.6367 214.609 68.418C214.16 69.1992 213.809 70.0977 213.574 71.1133ZM241.347 58.9453C241.464 58.9648 241.542 59.0039 241.62 59.1016C241.679 59.1797 241.698 59.2773 241.698 59.375C241.679 59.4922 241.64 59.5898 241.542 59.6484C241.464 59.707 241.366 59.7461 241.269 59.7266C238.984 59.4922 236.894 59.4531 234.96 59.668C234.843 62.5 234.804 65.7227 234.882 69.3164C234.96 72.9102 235.175 76.2305 235.527 79.2773C235.859 81.7383 236.171 83.3203 236.484 84.0039C236.503 83.4766 236.503 83.0859 236.484 82.8711C236.464 82.6562 236.445 82.5391 236.425 82.5195C236.386 82.4414 236.366 82.3438 236.386 82.2656C236.405 82.168 236.445 82.0898 236.523 82.0312C236.62 81.9531 236.718 81.9336 236.816 81.9336C236.933 81.9531 237.011 82.0117 237.089 82.0898C237.226 82.3047 237.304 82.7344 237.284 83.3594C237.284 83.9648 237.245 84.6094 237.167 85.2539C237.148 85.4102 237.07 85.5078 236.933 85.5859C236.894 85.6055 236.835 85.625 236.777 85.625C236.698 85.625 236.62 85.5859 236.542 85.5469C235.859 84.9414 235.331 83.3789 234.941 80.8203C234.57 78.2617 234.316 75.293 234.179 71.9141C234.042 68.5352 234.023 65.293 234.101 62.207C233.691 63.7305 233.183 65.4297 232.577 67.3633C231.972 69.2969 231.366 70.9961 230.741 72.5C230.136 73.9844 229.589 74.8242 229.12 75.0391C228.984 75.0781 228.847 75.0977 228.71 75.0977C228.476 75.0977 228.261 75.0391 228.066 74.9219C227.597 74.6484 227.226 74.1602 226.933 73.4961C226.659 72.8125 226.405 72.0703 226.191 71.2891C226.073 70.8398 225.937 70.4102 225.8 70.0195C225.663 69.6289 225.527 69.3555 225.39 69.1992C225.37 69.1797 225.37 69.1797 225.351 69.1797C225.351 69.1602 225.331 69.1602 225.331 69.1602C225.331 69.1602 225.331 69.1602 225.312 69.1602C225.097 69.2383 224.843 69.5703 224.55 70.1172C224.277 70.6641 224.003 71.2695 223.749 71.9336C223.515 72.5977 223.3 73.1445 223.163 73.5547C222.948 74.1992 222.773 74.6289 222.655 74.8633C222.616 74.9609 222.538 75.0195 222.46 75.0586C222.363 75.0977 222.265 75.0977 222.167 75.0586C221.366 74.7266 221.366 71.4453 222.148 65.1953C222.167 65.0781 222.226 65 222.304 64.9414C222.382 64.8633 222.48 64.8438 222.597 64.8633C222.695 64.8828 222.792 64.9219 222.851 65C222.909 65.0977 222.948 65.1953 222.929 65.293C222.734 66.875 222.577 68.418 222.48 69.9023C222.363 71.4062 222.323 72.5977 222.363 73.457C222.382 73.418 222.382 73.3984 222.402 73.3594C222.402 73.3398 222.421 73.3203 222.421 73.3008C222.87 71.9922 223.3 70.8984 223.749 69.9805C224.179 69.082 224.648 68.5547 225.136 68.3984C225.429 68.3203 225.683 68.3984 225.937 68.6328C226.327 69.1016 226.679 69.9023 226.952 71.0742C227.128 71.7188 227.343 72.3633 227.577 72.9883C227.831 73.6133 228.105 74.0234 228.437 74.2383C228.573 74.3164 228.73 74.3359 228.905 74.2773C229.218 74.1211 229.648 73.2422 230.234 71.6797C230.82 70.1172 231.405 68.3594 232.03 66.3672C232.636 64.375 233.144 62.6758 233.554 61.25C233.593 60.9961 233.671 60.6641 233.827 60.2734C233.866 60.0781 233.905 59.9219 233.945 59.7852C230.624 60.293 228.573 61.1328 227.812 62.3242C227.909 62.3047 228.007 62.3047 228.105 62.3438C228.183 62.4023 228.241 62.4609 228.28 62.5586C228.32 62.6562 228.32 62.7539 228.28 62.8516C228.241 62.9492 228.183 63.0273 228.085 63.0664C228.027 63.0859 227.948 63.125 227.851 63.1445C227.753 63.1641 227.655 63.1836 227.558 63.1836C227.421 63.1836 227.284 63.1445 227.167 63.0859C226.991 62.9688 226.913 62.793 226.913 62.5781C226.913 62.5391 226.913 62.5195 226.913 62.4805C227.167 61.6016 227.948 60.8594 229.257 60.2539C230.566 59.6484 232.226 59.1992 234.238 58.9453C234.394 56.1328 234.609 54.3555 234.921 53.6523C235.019 53.4961 235.116 53.3789 235.214 53.3398C235.312 53.2812 235.39 53.2422 235.468 53.2422C235.566 53.2422 235.624 53.2617 235.663 53.2812C236.288 53.4961 236.484 54.3164 236.23 55.7422C236.073 56.6602 235.761 57.6953 235.292 58.8477C237.206 58.6719 239.218 58.7109 241.347 58.9453ZM235.507 54.2773C235.37 54.7852 235.234 55.6836 235.136 56.9922C235.273 56.5039 235.37 56.0547 235.468 55.6055C235.566 54.9414 235.585 54.4922 235.507 54.2773ZM239.705 83.1641C239.002 83.1641 238.338 82.9688 237.772 82.5781C237.01 81.9922 236.698 81.1719 236.854 80.1172C237.01 79.1797 237.44 78.1836 238.143 77.1094C238.827 76.0156 239.666 74.9609 240.623 73.9453C239.881 73.2812 239.198 72.5977 238.592 71.8945C237.987 71.1914 237.577 70.4492 237.362 69.6484C237.186 68.8477 237.186 68.2031 237.342 67.7148C237.498 67.2461 237.713 66.8945 237.987 66.6602C238.241 66.4258 238.455 66.2891 238.631 66.2305C239.139 66.0352 239.627 65.9961 240.116 66.0938C240.604 66.2109 240.975 66.4453 241.229 66.8164C241.288 66.8945 241.307 67.0117 241.288 67.1094C241.268 67.207 241.209 67.2852 241.112 67.3438C241.014 67.4023 240.916 67.4219 240.819 67.4023C240.702 67.3828 240.623 67.3242 240.565 67.2461C240.428 67.0508 240.213 66.9336 239.901 66.8555C239.608 66.7969 239.276 66.8359 238.944 66.9531C238.123 67.3438 237.85 68.1836 238.123 69.4531C238.319 70.1562 238.69 70.8203 239.256 71.4648C239.823 72.1094 240.467 72.7539 241.151 73.3594C242.245 72.2461 243.28 71.3086 244.256 70.5273C245.252 69.7461 245.975 69.2578 246.483 69.082C246.58 69.043 246.678 69.043 246.776 69.1016C246.873 69.1406 246.932 69.2188 246.971 69.3164C247.01 69.4336 247.01 69.5312 246.971 69.6289C246.913 69.707 246.834 69.7852 246.737 69.8242C246.288 70 245.604 70.4492 244.686 71.1914C243.768 71.9336 242.791 72.8516 241.756 73.9062C242.577 74.6484 243.26 75.4102 243.827 76.1914C244.393 76.9922 244.608 77.8516 244.51 78.7695C244.139 80.6836 243.084 82.0508 241.346 82.832C240.78 83.0664 240.233 83.1641 239.705 83.1641ZM241.209 74.4727C240.291 75.4688 239.51 76.4648 238.846 77.4609C238.182 78.4766 237.772 79.3945 237.635 80.2344C237.518 80.9961 237.713 81.5625 238.241 81.9336C239.022 82.4609 239.959 82.5195 241.053 82.1094C241.62 81.875 242.166 81.4844 242.694 80.8984C243.202 80.332 243.553 79.5703 243.729 78.6523C243.807 77.9102 243.612 77.207 243.104 76.5234C242.616 75.8398 241.971 75.1562 241.209 74.4727ZM250.564 81.3086C250.388 81.3086 250.271 81.2305 250.193 81.0547C249.705 79.5312 249.451 77.1875 249.412 74.043C249.392 70.8789 249.47 67.5586 249.666 64.0625C249.861 60.5469 250.076 57.5195 250.291 54.9414C250.525 52.3828 250.642 50.918 250.701 50.5469C250.701 50.4492 250.759 50.3516 250.837 50.293C250.916 50.2148 251.013 50.1953 251.13 50.1953C251.228 50.2148 251.326 50.2539 251.384 50.3516C251.462 50.4297 251.482 50.5273 251.482 50.625C251.462 50.8008 251.326 52.1484 251.111 54.668C250.896 57.1875 250.681 60.2148 250.486 63.7305C250.271 67.2656 250.173 70.6055 250.212 73.7891C250.232 76.9727 250.466 79.2969 250.935 80.7812C250.974 80.8984 250.955 80.9961 250.916 81.0938C250.877 81.1914 250.798 81.25 250.681 81.2891C250.642 81.3086 250.603 81.3086 250.564 81.3086ZM250.74 84.5117C250.603 84.5117 250.505 84.4531 250.408 84.3359C250.349 84.2188 250.33 84.1211 250.349 84.0039C250.232 83.9844 250.154 83.9258 250.076 83.8281C250.017 83.7305 249.998 83.6328 250.017 83.5156C250.037 83.418 250.095 83.3398 250.193 83.2812C250.447 83.1055 250.701 82.9883 250.974 82.9102C251.248 82.832 251.482 82.8516 251.677 83.0078C251.795 83.125 251.853 83.2617 251.834 83.418C251.814 83.7109 251.521 84.043 250.955 84.4336C250.877 84.4922 250.818 84.5117 250.74 84.5117Z" fill="#5F9392"/>
</svg>
