<svg width="24" height="24" viewBox="0 0 24 24" fill="none" xmlns="http://www.w3.org/2000/svg">
<mask id="mask0_4637_25211" style="mask-type:alpha" maskUnits="userSpaceOnUse" x="0" y="0" width="24" height="24">
<rect width="24" height="24" fill="#D9D9D9"/>
</mask>
<g mask="url(#mask0_4637_25211)">
<path d="M16.0194 15.1356L18.6962 17.8119L17.8119 18.6962L15.1356 16.0194C14.1398 16.8176 12.9013 17.2518 11.625 17.25C8.52 17.25 6 14.73 6 11.625C6 8.52 8.52 6 11.625 6C14.73 6 17.25 8.52 17.25 11.625C17.2518 12.9013 16.8176 14.1398 16.0194 15.1356ZM14.7656 14.6719C15.5587 13.8561 16.0016 12.7627 16 11.625C16 9.20812 14.0419 7.25 11.625 7.25C9.20812 7.25 7.25 9.20812 7.25 11.625C7.25 14.0419 9.20812 16 11.625 16C12.7627 16.0016 13.8561 15.5587 14.6719 14.7656L14.7656 14.6719Z" fill="#363636"/>
</g>
</svg>
