<svg width="20" height="20" viewBox="0 0 20 20" fill="none" xmlns="http://www.w3.org/2000/svg">
<path d="M6.04167 14.584H4.05507C3.97416 14.584 3.89656 14.5451 3.83935 14.476C3.78214 14.4069 3.75 14.3131 3.75 14.2153V8.70223C3.75 8.49892 3.88649 8.33398 4.05507 8.33398H15.9449C16.1135 8.33398 16.25 8.49892 16.25 8.70223V14.2153C16.25 14.3131 16.2179 14.4069 16.1606 14.476C16.1034 14.5451 16.0258 14.584 15.9449 14.584H13.9583" stroke="#363636" stroke-width="0.9" stroke-linecap="round" stroke-linejoin="round"/>
<path d="M6.04688 8.37677V2.67969H12.2827L13.9494 4.34635V8.37677M6.04688 13.098H13.9494V17.3189H6.04688V13.098Z" stroke="#363636" stroke-width="0.9" stroke-linecap="round" stroke-linejoin="round"/>
<path d="M12.2852 2.67969V4.34635H13.9518" stroke="#363636" stroke-linecap="round" stroke-linejoin="round"/>
<path d="M15.3281 9.85352C15.5007 9.85352 15.6406 9.7136 15.6406 9.54102C15.6406 9.36843 15.5007 9.22852 15.3281 9.22852C15.1555 9.22852 15.0156 9.36843 15.0156 9.54102C15.0156 9.7136 15.1555 9.85352 15.3281 9.85352Z" fill="#363636"/>
<path d="M14.0703 9.85352C14.2429 9.85352 14.3828 9.7136 14.3828 9.54102C14.3828 9.36843 14.2429 9.22852 14.0703 9.22852C13.8977 9.22852 13.7578 9.36843 13.7578 9.54102C13.7578 9.7136 13.8977 9.85352 14.0703 9.85352Z" fill="#363636"/>
<path d="M12.8125 9.85352C12.9851 9.85352 13.125 9.7136 13.125 9.54102C13.125 9.36843 12.9851 9.22852 12.8125 9.22852C12.6399 9.22852 12.5 9.36843 12.5 9.54102C12.5 9.7136 12.6399 9.85352 12.8125 9.85352Z" fill="#363636"/>
</svg>
