<svg width="20" height="20" viewBox="0 0 20 20" fill="none" xmlns="http://www.w3.org/2000/svg">
<path d="M6.14795 4.55625C6.14775 4.96878 5.98172 5.36434 5.68639 5.6559C5.39107 5.94746 4.99063 6.11115 4.57319 6.11094C4.15575 6.11073 3.75548 5.94666 3.46045 5.6548C3.16542 5.36295 2.99979 4.96723 3 4.55469C3.00021 4.14216 3.16624 3.7466 3.46156 3.45504C3.75689 3.16348 4.15732 2.99979 4.57476 3C4.99221 3.00021 5.39247 3.16428 5.6875 3.45614C5.98253 3.74799 6.14816 4.14371 6.14795 4.55625ZM6.19517 7.26276H3.04722V17H6.19517V7.26276ZM11.1689 7.26276H8.03673V17H11.1375V11.8903C11.1375 9.04378 14.8914 8.77935 14.8914 11.8903V17H18V10.8326C18 6.03394 12.4439 6.21282 11.1375 8.56936L11.1689 7.26276Z" fill="#363636"/>
</svg>
