<svg width="20" height="20" viewBox="0 0 20 20" fill="none" xmlns="http://www.w3.org/2000/svg">
<path d="M10.0587 15.3879L12.1764 13.1511L11.058 12.0923L8.94032 14.329C8.06677 15.2517 6.59715 15.2919 5.67448 14.4183C4.75182 13.5448 4.71163 12.0752 5.58517 11.1525L7.70285 8.91574L6.58447 7.8569L4.46679 10.0937C3.00559 11.637 3.07227 14.0755 4.61564 15.5367C6.15901 16.9979 8.5975 16.9312 10.0587 15.3879ZM8.76169 7.79736L10.8794 5.56059C11.7529 4.63793 13.2225 4.59774 14.1452 5.47128C15.0679 6.34482 15.1081 7.81445 14.2345 8.73712L12.1168 10.9739L13.2352 12.0327L15.3529 9.79596C16.8141 8.25259 16.7474 5.8141 15.204 4.3529C13.6607 2.8917 11.2222 2.95839 9.76099 4.50175L7.64331 6.73852L8.76169 7.79736ZM12.5867 8.23747L8.35135 12.711L7.23297 11.6522L11.4683 7.17863L12.5867 8.23747ZM10.0587 15.3879L12.1764 13.1511L11.058 12.0923L8.94032 14.329C8.06677 15.2517 6.59715 15.2919 5.67448 14.4183C4.75182 13.5448 4.71163 12.0752 5.58517 11.1525L7.70285 8.91574L6.58447 7.8569L4.46679 10.0937C3.00559 11.637 3.07227 14.0755 4.61564 15.5367C6.15901 16.9979 8.5975 16.9312 10.0587 15.3879ZM8.76169 7.79736L10.8794 5.56059C11.7529 4.63793 13.2225 4.59774 14.1452 5.47128C15.0679 6.34482 15.1081 7.81445 14.2345 8.73712L12.1168 10.9739L13.2352 12.0327L15.3529 9.79596C16.8141 8.25259 16.7474 5.8141 15.204 4.3529C13.6607 2.8917 11.2222 2.95839 9.76099 4.50175L7.64331 6.73852L8.76169 7.79736ZM12.5867 8.23747L8.35135 12.711L7.23297 11.6522L11.4683 7.17863L12.5867 8.23747Z" fill="#363636"/>
</svg>
