<svg width="21" height="15" viewBox="0 0 21 15" fill="none" xmlns="http://www.w3.org/2000/svg">
<path d="M5 14.5C3.7525 14.5 2.69067 14.0662 1.8145 13.1985C0.938167 12.331 0.5 11.2706 0.5 10.0173C0.5 8.83275 0.907667 7.80583 1.723 6.9365C2.5385 6.06733 3.49625 5.6 4.59625 5.5345C4.82058 4.07817 5.49042 2.875 6.60575 1.925C7.72108 0.975 9.01917 0.5 10.5 0.5C12.1715 0.5 13.5893 1.08217 14.7535 2.2465C15.9178 3.41067 16.5 4.8285 16.5 6.5V7.5H17.1155C18.0732 7.53083 18.8767 7.88242 19.526 8.55475C20.1753 9.22725 20.5 10.0423 20.5 11C20.5 11.9808 20.1683 12.8093 19.5048 13.4855C18.8413 14.1618 18.0192 14.5 17.0385 14.5H11.6155C11.1552 14.5 10.7708 14.3458 10.4625 14.0375C10.1542 13.7292 10 13.3448 10 12.8845V7.08075L7.9 9.16925L7.19225 8.48075L10.5 5.173L13.8077 8.48075L13.1 9.16925L11 7.08075V12.8845C11 13.0385 11.0641 13.1796 11.1923 13.3077C11.3204 13.4359 11.4615 13.5 11.6155 13.5H17C17.7 13.5 18.2917 13.2583 18.775 12.775C19.2583 12.2917 19.5 11.7 19.5 11C19.5 10.3 19.2583 9.70833 18.775 9.225C18.2917 8.74167 17.7 8.5 17 8.5H15.5V6.5C15.5 5.11667 15.0125 3.9375 14.0375 2.9625C13.0625 1.9875 11.8833 1.5 10.5 1.5C9.11667 1.5 7.9375 1.9875 6.9625 2.9625C5.9875 3.9375 5.5 5.11667 5.5 6.5H4.9615C4.03333 6.5 3.22433 6.84167 2.5345 7.525C1.84483 8.20833 1.5 9.03333 1.5 10C1.5 10.9667 1.84167 11.7917 2.525 12.475C3.20833 13.1583 4.03333 13.5 5 13.5H7.5V14.5H5Z" fill="#216F6D"/>
</svg>
